<svg xmlns="http://www.w3.org/2000/svg" xmlns:xlink="http://www.w3.org/1999/xlink" width="1000" zoomAndPan="magnify" viewBox="0 0 750 749.999995" height="1000" preserveAspectRatio="xMidYMid meet" version="1.0"><defs><g/><clipPath id="6cc6575175"><path d="M 169.027344 213 L 580.777344 213 L 580.777344 674.792969 L 169.027344 674.792969 Z M 169.027344 213 " clip-rule="nonzero"/></clipPath></defs><g clip-path="url(#6cc6575175)"><path fill="#000000" d="M 561.734375 674.792969 L 440.476562 674.792969 C 438.402344 652.136719 442.484375 629.484375 445.90625 606.761719 C 447.464844 596.523438 448.085938 587.21875 448.675781 577.46875 C 448.675781 577.226562 448.464844 577.019531 448.222656 577.019531 C 448.191406 577.019531 448.15625 577.019531 448.15625 577.019531 C 444.488281 577.742188 441.515625 576.636719 439.230469 573.730469 C 436.535156 570.308594 434.460938 567.644531 433.007812 565.671875 C 432.902344 565.570312 432.800781 565.5 432.660156 565.5 C 432.417969 565.5 432.246094 565.707031 432.246094 565.914062 C 432.246094 565.949219 432.246094 565.949219 432.246094 565.949219 C 432.28125 566.746094 431.832031 567.402344 430.933594 567.921875 C 426.609375 570.308594 421.871094 571.863281 416.75 572.554688 C 412.738281 573.109375 408.417969 573.316406 404.441406 574.214844 C 393.960938 576.601562 382.269531 578.054688 371.375 578.019531 C 369.472656 578.019531 367.433594 577.777344 365.496094 577.5 C 363.523438 577.226562 361.761719 577.710938 359.859375 578.367188 C 352.527344 580.890625 343.363281 584.488281 335.027344 586.769531 C 327.660156 588.8125 323.476562 589.988281 322.507812 590.230469 C 322.160156 590.332031 321.953125 590.644531 321.988281 590.957031 C 322.75 601.675781 323.511719 612.78125 324.203125 624.261719 C 324.445312 628.171875 324.480469 632.632812 324.304688 637.648438 C 324.0625 643.699219 322.578125 649.371094 318.148438 653.246094 C 317.941406 653.417969 317.839844 653.660156 317.839844 653.9375 C 317.839844 653.972656 317.839844 653.972656 317.839844 654.007812 C 318.355469 661.097656 318.839844 667.910156 318.355469 674.792969 L 172.511719 674.792969 C 174.03125 665.871094 176.386719 657.015625 179.636719 648.265625 C 179.671875 648.160156 179.703125 648.058594 179.703125 647.953125 C 179.703125 647.640625 179.53125 647.332031 179.289062 647.15625 C 173.824219 643.320312 174.449219 637.507812 177.214844 632.183594 C 177.628906 631.351562 179.253906 628.515625 182.089844 623.742188 C 182.644531 622.773438 183.371094 620.941406 184.234375 618.277344 C 185.652344 613.988281 185.03125 610.117188 183.683594 605.101562 C 181.605469 597.5625 180.15625 590.265625 179.324219 583.175781 C 176.902344 562.941406 174.550781 540.773438 172.304688 516.699219 C 170.78125 500.617188 169.882812 484.570312 169.570312 468.554688 C 169.363281 458.5625 169.710938 448.738281 170.609375 439.089844 C 173.167969 411.351562 182.125 382.332031 203.84375 364.003906 C 210.382812 358.503906 216.816406 354.179688 223.871094 349.683594 C 231.445312 344.875 239.78125 340.070312 246.074219 335.332031 C 246.386719 335.054688 246.800781 334.914062 247.214844 334.882812 C 248.910156 334.707031 250.535156 333.84375 252.058594 332.285156 C 257.246094 326.996094 260.980469 320.910156 263.261719 313.992188 C 263.4375 313.472656 263.296875 313.160156 262.847656 312.988281 C 262.710938 312.953125 262.605469 312.78125 262.605469 312.640625 C 262.605469 312.609375 262.605469 312.609375 262.605469 312.609375 C 263.195312 305.898438 263.195312 301.78125 261.359375 295.765625 C 259.183594 288.464844 256.796875 281.101562 256 273.871094 C 255.273438 266.851562 255.828125 259.550781 257.765625 251.976562 C 259.5625 244.785156 262.121094 239.113281 267.691406 234.375 C 269.558594 232.78125 272.011719 231.746094 275.089844 231.226562 C 275.125 231.226562 275.160156 231.191406 275.160156 231.121094 C 275.160156 231.089844 275.125 231.054688 275.089844 231.054688 C 269.972656 229.046875 264.371094 232.089844 261.742188 236.726562 C 261.707031 236.796875 261.636719 236.863281 261.535156 236.863281 C 261.5 236.863281 261.429688 236.863281 261.394531 236.828125 C 261.292969 236.761719 261.257812 236.691406 261.257812 236.585938 C 261.257812 236.554688 261.257812 236.484375 261.257812 236.449219 C 264.542969 229.945312 271.492188 226.28125 278.550781 228.875 C 278.582031 228.875 278.617188 228.910156 278.652344 228.910156 C 278.757812 228.910156 278.859375 228.804688 278.894531 228.703125 C 279.621094 226.28125 280.140625 224.722656 280.417969 224.03125 C 282.492188 218.984375 286.191406 215.558594 291.519531 213.796875 L 291.761719 214.003906 C 291.796875 214.039062 291.832031 214.070312 291.832031 214.140625 C 291.832031 214.210938 291.796875 214.28125 291.726562 214.28125 C 290.445312 214.902344 289.617188 215.351562 289.203125 215.59375 C 286.398438 217.359375 284.394531 219.847656 283.183594 223.03125 C 283.183594 223.0625 283.183594 223.0625 283.183594 223.0625 C 283.183594 223.097656 283.21875 223.132812 283.253906 223.132812 C 283.253906 223.132812 283.289062 223.132812 283.289062 223.132812 C 292.523438 214.417969 305.59375 212.792969 317.597656 214.832031 C 322.714844 215.730469 327.417969 217.046875 333.4375 218.949219 C 336.929688 220.089844 340.527344 220.988281 344.15625 221.644531 C 344.332031 221.679688 344.433594 221.785156 344.398438 221.957031 C 344.363281 222.097656 344.226562 222.199219 344.089844 222.199219 L 341.148438 222.234375 C 341.113281 222.234375 341.078125 222.269531 341.078125 222.304688 C 341.078125 222.339844 341.078125 222.371094 341.113281 222.371094 C 348.859375 225.242188 356.953125 227.109375 365.289062 226.625 C 371.964844 226.246094 377.914062 230.292969 378.847656 237.003906 C 379.433594 241.324219 377.980469 246.097656 375.214844 249.523438 C 375.179688 249.558594 375.179688 249.625 375.179688 249.695312 C 375.179688 249.832031 375.285156 249.9375 375.421875 249.9375 C 375.457031 249.9375 375.527344 249.9375 375.5625 249.902344 C 378.570312 248.207031 380.609375 245.753906 381.613281 242.46875 C 381.960938 241.324219 382.269531 240.082031 382.511719 238.664062 C 382.511719 238.59375 382.582031 238.523438 382.683594 238.523438 C 382.753906 238.523438 382.859375 238.59375 382.859375 238.664062 C 383.03125 241.222656 382.753906 243.675781 381.960938 246.097656 C 380.300781 251.285156 376.253906 253.707031 371.238281 255.054688 C 371.167969 255.054688 371.132812 255.089844 371.132812 255.160156 C 371.132812 255.195312 371.167969 255.265625 371.238281 255.265625 C 374.523438 255.367188 378.328125 254.15625 381.335938 252.601562 C 381.371094 252.601562 381.40625 252.601562 381.441406 252.601562 C 381.542969 252.601562 381.613281 252.671875 381.648438 252.773438 L 381.683594 252.914062 C 381.683594 252.945312 381.683594 252.980469 381.648438 253.015625 C 377.53125 255.714844 373 257.027344 368.054688 256.957031 C 367.847656 256.957031 367.710938 257.097656 367.710938 257.304688 C 367.710938 257.339844 367.710938 257.339844 367.710938 257.375 C 368.746094 261.558594 369.40625 264.289062 369.613281 267.644531 C 369.613281 267.714844 369.648438 268.785156 369.679688 270.828125 C 369.785156 277.191406 373.902344 283.417969 367.605469 288.917969 C 367.328125 289.160156 367.15625 289.539062 367.226562 289.953125 C 367.503906 292.375 368.125 294.691406 369.09375 296.976562 C 371.203125 301.851562 372.550781 304.929688 373.210938 306.210938 C 375.042969 309.773438 375.835938 313.507812 371.722656 315.410156 C 369.679688 316.34375 366.914062 315.753906 365.324219 317.484375 C 364.597656 318.28125 364.5625 319.007812 365.289062 319.664062 C 365.910156 320.25 366.117188 321.148438 365.808594 321.945312 C 365.152344 323.777344 363.800781 324.746094 361.832031 324.816406 C 361.726562 324.816406 361.449219 324.851562 360.929688 324.953125 C 360.757812 324.988281 360.621094 325.164062 360.65625 325.335938 C 360.964844 326.960938 361.070312 328.898438 358.820312 328.792969 C 356.746094 328.691406 354.324219 328.34375 351.628906 327.757812 C 351.59375 327.757812 351.558594 327.757812 351.488281 327.757812 C 351.28125 327.757812 351.074219 327.859375 350.9375 328.03125 C 348.964844 330.902344 348.101562 333.84375 348.894531 337.371094 C 349.519531 340.242188 350.730469 342.628906 352.457031 344.460938 C 354.808594 346.953125 351.90625 348.75 349.761719 350.375 C 347.859375 351.863281 349 355.667969 348.722656 357.15625 C 347.71875 362.167969 344.710938 364.589844 339.765625 364.347656 C 338.484375 364.3125 336.515625 363.828125 333.816406 362.929688 C 330.359375 361.789062 326.347656 360.09375 321.78125 357.914062 C 320.257812 357.1875 318.773438 356.636719 317.285156 356.289062 C 317.007812 356.21875 316.695312 356.324219 316.488281 356.566406 C 313.964844 359.4375 311.335938 362.132812 308.570312 364.589844 C 303.207031 369.363281 298.746094 373.445312 296.1875 379.878906 C 295.183594 382.472656 295.289062 385.167969 296.535156 387.9375 C 298.988281 393.296875 301.894531 399.832031 303.832031 405.296875 C 306.042969 411.558594 307.945312 418.476562 309.503906 426.050781 C 312.996094 442.925781 314.691406 459.839844 316.109375 477.097656 C 316.109375 477.132812 316.109375 477.167969 316.144531 477.203125 C 316.210938 477.339844 316.386719 477.410156 316.523438 477.339844 C 316.558594 477.339844 316.59375 477.304688 316.628906 477.304688 C 320.8125 473.363281 324.894531 469.179688 328.871094 464.785156 C 330.808594 462.710938 333.4375 459.5625 334.164062 456.796875 C 334.230469 456.589844 334.230469 456.417969 334.195312 456.207031 C 332.953125 449.878906 332.328125 445.105469 332.328125 441.925781 C 332.261719 432.273438 331.1875 422.9375 329.148438 413.875 C 328.800781 412.355469 328.457031 410.035156 330.253906 409.378906 C 336.652344 407.132812 340.351562 420.863281 341.5625 425.011719 C 342.082031 426.878906 342.878906 428.402344 343.878906 429.542969 C 344.054688 429.714844 344.261719 429.820312 344.46875 429.820312 C 348.515625 429.785156 350.972656 421.414062 351.628906 418.40625 C 353.113281 411.417969 353.980469 407.199219 354.222656 405.714844 C 355.121094 400.109375 355.949219 395.578125 356.746094 392.121094 C 357.023438 390.945312 357.402344 390.046875 357.886719 389.355469 C 358.753906 388.179688 361.242188 388.074219 362.28125 388.9375 C 364.113281 390.460938 363.523438 396.269531 363.386719 398.898438 C 363.386719 398.898438 363.386719 398.933594 363.386719 398.933594 C 363.386719 399.105469 363.523438 399.246094 363.664062 399.246094 C 363.664062 399.246094 363.699219 399.210938 363.699219 399.210938 C 365.183594 399.140625 366.429688 399.765625 367.398438 401.113281 C 368.230469 402.289062 368.851562 403.570312 369.195312 405.019531 C 369.265625 405.160156 369.371094 405.261719 369.507812 405.261719 C 369.648438 405.261719 369.785156 405.160156 369.820312 405.054688 C 371.410156 400.457031 372.863281 396.410156 374.175781 392.917969 C 374.972656 390.839844 376.425781 388.558594 379.019531 389.320312 C 381.09375 389.941406 381.855469 391.394531 381.335938 393.746094 C 380.78125 396.410156 380.058594 399.488281 379.261719 402.945312 C 378.121094 407.890625 376.046875 413.773438 375.285156 418.753906 C 375.179688 419.582031 375.109375 420.238281 375.144531 420.722656 C 375.179688 420.757812 375.179688 420.792969 375.179688 420.792969 C 375.25 420.894531 375.351562 420.894531 375.421875 420.863281 C 375.457031 420.828125 375.457031 420.828125 375.457031 420.792969 C 376.320312 419.097656 376.945312 417.542969 377.222656 415.257812 C 377.394531 413.910156 378.777344 406.371094 381.023438 407.164062 C 381.40625 407.304688 381.648438 407.511719 381.75 407.753906 C 381.820312 407.890625 381.960938 407.996094 382.097656 407.996094 C 382.234375 407.996094 382.375 407.925781 382.441406 407.789062 C 382.476562 407.753906 383.066406 406.785156 384.207031 404.917969 C 384.691406 404.121094 385.175781 403.914062 386.039062 403.707031 C 386.214844 403.671875 386.351562 403.535156 386.457031 403.359375 C 387.597656 401.25 389.949219 398.863281 391.675781 402.183594 C 396.207031 410.832031 400.359375 418.128906 404.199219 424.976562 C 404.230469 425.046875 404.300781 425.082031 404.40625 425.082031 C 404.542969 425.082031 404.648438 424.976562 404.648438 424.839844 C 404.648438 424.839844 404.648438 424.804688 404.648438 424.804688 L 397.523438 394.058594 C 397.453125 393.644531 397.453125 393.226562 397.589844 392.847656 C 398.527344 390.183594 402.121094 389.699219 403.261719 392.570312 C 404.230469 395.027344 405.339844 398.171875 406.617188 402.082031 C 408.933594 409.171875 411.011719 415.292969 412.808594 420.445312 C 413.015625 421 413.222656 421.484375 413.5 421.863281 C 413.535156 421.898438 413.605469 421.933594 413.640625 421.933594 C 413.777344 421.933594 413.847656 421.863281 413.847656 421.761719 C 413.707031 415.640625 413.429688 409.621094 413.085938 403.777344 C 412.84375 399.589844 412.808594 395.542969 412.980469 391.636719 C 413.015625 390.839844 413.292969 390.082031 413.847656 389.320312 C 413.949219 389.179688 414.125 389.042969 414.296875 388.972656 C 417.234375 387.625 418.136719 390.289062 418.585938 392.8125 C 419.726562 399.488281 420.246094 402.183594 420.972656 407.859375 C 421.699219 413.390625 422.421875 418.441406 423.21875 423.039062 C 423.980469 427.363281 425.8125 433.242188 429.304688 435.976562 C 429.789062 436.320312 430.449219 436.320312 430.863281 435.941406 C 431.796875 435.179688 432.589844 434.246094 433.351562 433.070312 C 435.910156 429.058594 439.578125 420.480469 445.492188 421.105469 C 446.839844 421.242188 448.5 422.625 447.53125 424.078125 C 445.976562 426.429688 444.800781 428.296875 443.96875 429.785156 C 441.617188 433.867188 439.683594 440.160156 437.15625 444.761719 C 434.285156 450.085938 431.65625 455.515625 430.898438 460.84375 C 430.308594 464.785156 431.726562 469.179688 433.316406 473.257812 C 436.050781 480.316406 438.714844 486.816406 441.238281 492.730469 C 441.308594 492.800781 441.375 492.871094 441.480469 492.871094 C 441.582031 492.871094 441.6875 492.765625 441.722656 492.664062 C 442.378906 484.878906 446.21875 477.859375 450.4375 471.425781 C 458.390625 459.285156 465.03125 448.945312 470.324219 440.402344 C 472.8125 436.355469 474.992188 432.484375 476.792969 428.851562 C 479.386719 423.59375 480.007812 417.785156 478.726562 411.417969 C 477.550781 405.714844 475.617188 399.902344 472.917969 394.023438 C 471.878906 391.808594 470.738281 389.90625 469.496094 388.28125 C 466.417969 384.269531 461.921875 383.957031 457.25 384.683594 C 449.503906 385.894531 444.210938 386.65625 441.445312 386.898438 C 436.570312 387.382812 432.246094 386 432.074219 380.292969 C 432.003906 378.183594 432.800781 376.660156 433.664062 374.414062 C 433.699219 374.308594 433.734375 374.207031 433.734375 374.101562 C 433.734375 373.824219 433.59375 373.582031 433.421875 373.445312 C 431.796875 372.164062 430.480469 370.886719 430.757812 368.636719 C 431.070312 366.25 433.90625 366.632812 435.253906 365.453125 C 437.328125 363.691406 439.300781 360.925781 438.78125 358.121094 C 438.054688 354.421875 435.738281 352.832031 432.453125 351.449219 C 430.621094 350.652344 430.238281 349.199219 431.3125 347.089844 C 431.347656 347.054688 431.347656 347.054688 431.347656 347.019531 C 431.347656 346.953125 431.3125 346.882812 431.242188 346.847656 C 427.644531 345.1875 429.546875 342.871094 431.382812 341.070312 C 431.414062 341.039062 431.414062 341.039062 431.449219 341.003906 C 431.832031 340.554688 431.796875 339.863281 431.347656 339.445312 C 431.347656 339.445312 431.3125 339.410156 431.3125 339.410156 C 428.996094 337.613281 427.195312 336.195312 426.261719 333.671875 C 425.570312 331.699219 425.984375 330.109375 427.578125 328.863281 C 427.957031 328.585938 429.753906 327.339844 433.007812 325.164062 C 436.222656 322.984375 438.957031 320.632812 441.101562 317.589844 C 441.132812 317.519531 441.132812 317.484375 441.132812 317.414062 C 441.132812 317.3125 441.066406 317.207031 440.960938 317.171875 C 439.441406 316.722656 438.4375 315.789062 437.917969 314.40625 C 437.917969 314.371094 437.917969 314.335938 437.917969 314.300781 C 437.917969 314.164062 438.023438 314.058594 438.160156 314.058594 C 438.230469 314.058594 438.265625 314.058594 438.332031 314.09375 C 439.199219 314.820312 440.132812 315.304688 441.167969 315.511719 C 441.203125 315.546875 441.238281 315.546875 441.273438 315.546875 C 441.722656 315.582031 442.101562 315.269531 442.171875 314.820312 C 442.171875 314.785156 442.171875 314.75 442.171875 314.71875 L 442.171875 311.570312 C 442.171875 311.464844 442.136719 311.328125 442.035156 311.257812 C 440.375 309.738281 439.648438 307.9375 439.855469 305.792969 C 439.890625 305.621094 439.992188 305.515625 440.164062 305.515625 C 440.199219 305.515625 440.234375 305.550781 440.269531 305.550781 C 440.441406 305.65625 440.582031 305.792969 440.71875 306.070312 C 441.203125 307.003906 441.757812 307.730469 442.378906 308.214844 C 442.414062 308.25 442.484375 308.25 442.519531 308.25 C 442.65625 308.25 442.792969 308.144531 442.792969 308.007812 C 442.828125 303.753906 444.800781 299.601562 447.464844 296.316406 C 447.53125 296.25 447.566406 296.144531 447.566406 296.039062 C 447.566406 295.9375 447.53125 295.832031 447.496094 295.765625 C 442.066406 287.773438 452.476562 272.660156 461.710938 272.867188 C 464.824219 272.972656 467.730469 273.976562 470.429688 275.496094 C 470.636719 275.601562 470.914062 275.566406 471.085938 275.359375 C 474.023438 271.554688 478.832031 268.476562 483.675781 268.820312 C 483.8125 268.820312 483.917969 268.925781 483.917969 269.0625 C 483.917969 269.167969 483.8125 269.269531 483.707031 269.269531 C 480.144531 269.859375 477.171875 271.382812 474.75 273.871094 C 474.714844 273.90625 474.714844 273.941406 474.714844 273.976562 C 474.714844 274.078125 474.785156 274.148438 474.855469 274.148438 C 474.890625 274.148438 474.925781 274.148438 474.957031 274.113281 C 479.9375 271.691406 486.785156 270.207031 492.25 272.316406 C 493.324219 272.730469 493.980469 273.421875 494.257812 274.355469 C 494.292969 274.527344 494.429688 274.632812 494.601562 274.632812 C 494.601562 274.632812 494.636719 274.632812 494.636719 274.632812 C 500.414062 273.734375 506.015625 273.800781 511.480469 274.804688 C 532.195312 278.714844 543.089844 295.175781 546.652344 314.890625 C 548.519531 325.40625 548.796875 335.226562 549.765625 345.429688 C 550.597656 353.972656 552.808594 362.132812 556.441406 369.953125 C 559.171875 375.898438 562.460938 379.945312 566.296875 386.035156 C 571.175781 393.816406 573.214844 402.359375 572.316406 411.730469 C 571.832031 417.09375 569.929688 421.898438 566.644531 426.1875 C 566.609375 426.257812 566.539062 426.292969 566.4375 426.292969 C 566.402344 426.292969 566.332031 426.292969 566.296875 426.257812 C 566.230469 426.222656 566.195312 426.117188 566.195312 426.050781 C 566.195312 425.980469 566.195312 425.945312 566.230469 425.910156 C 569.132812 421.726562 570.621094 416.851562 570.65625 411.351562 C 570.757812 402.21875 568.441406 393.746094 563.667969 386 C 563.667969 385.964844 563.667969 385.964844 563.667969 385.964844 C 563.636719 385.964844 563.636719 385.964844 563.636719 385.964844 C 563.601562 385.964844 563.601562 386 563.636719 386 C 563.636719 386 563.636719 386.035156 563.636719 386.035156 C 563.601562 386.035156 563.601562 386.066406 563.636719 386.101562 C 565.953125 391.359375 567.371094 396.0625 567.921875 400.179688 C 568.582031 405.054688 568.476562 410.761719 567.542969 417.230469 C 567.128906 420.136719 565.710938 424.042969 565.363281 426.984375 C 565.019531 429.542969 565.570312 432.550781 566.957031 435.941406 C 568.753906 440.230469 574.148438 447.390625 578.886719 441.960938 C 579.164062 441.648438 579.542969 441.058594 579.960938 440.160156 C 579.992188 440.089844 580.0625 440.058594 580.167969 440.058594 C 580.269531 440.058594 580.339844 440.125 580.375 440.230469 C 580.445312 440.574219 580.410156 440.921875 580.269531 441.234375 C 578.714844 445.210938 575.84375 446.730469 571.695312 445.765625 C 571.660156 445.765625 571.660156 445.765625 571.660156 445.765625 C 571.554688 445.765625 571.484375 445.832031 571.484375 445.902344 C 571.484375 445.9375 571.484375 445.972656 571.519531 445.972656 C 576.257812 454.410156 577.296875 466.585938 570.96875 474.644531 C 570.449219 475.300781 569.894531 475.75 569.273438 476.027344 C 569.238281 476.0625 569.203125 476.0625 569.132812 476.0625 C 568.960938 476.0625 568.789062 475.921875 568.789062 475.714844 C 568.789062 475.644531 568.824219 475.578125 568.855469 475.542969 C 570.101562 473.433594 572.246094 469.074219 571.96875 466.6875 C 572.003906 466.652344 572.003906 466.652344 572.003906 466.652344 C 572.003906 466.617188 571.96875 466.585938 571.902344 466.585938 C 571.867188 466.585938 571.832031 466.617188 571.832031 466.652344 C 570.207031 470.941406 568.824219 473.882812 567.613281 475.4375 C 566.574219 476.820312 565.398438 478.449219 564.121094 480.351562 C 561.558594 484.152344 562.769531 491.9375 566.851562 494.253906 C 570.207031 496.191406 572.386719 494.566406 573.976562 491.695312 C 574.011719 491.625 574.113281 491.554688 574.183594 491.554688 C 574.320312 491.554688 574.425781 491.660156 574.425781 491.796875 C 574.425781 491.832031 574.425781 491.832031 574.390625 491.867188 C 573.214844 496.015625 570.484375 497.953125 566.261719 497.644531 C 564.570312 497.539062 562.5625 496.605469 560.28125 494.875 C 560.28125 494.839844 560.246094 494.839844 560.246094 494.839844 C 560.175781 494.839844 560.105469 494.875 560.105469 494.945312 C 560.105469 494.945312 560.105469 494.980469 560.105469 494.980469 C 561.558594 499.09375 565.363281 499.753906 569.375 499.996094 C 569.515625 499.996094 569.617188 500.097656 569.617188 500.238281 C 569.617188 500.339844 569.515625 500.445312 569.410156 500.445312 C 566.988281 501.207031 563.566406 502.035156 561.179688 500.859375 C 561.109375 500.859375 561.074219 500.894531 561.074219 500.929688 C 561.074219 500.964844 561.074219 500.964844 561.074219 500.996094 C 563.011719 503.589844 565.605469 504.558594 568.925781 503.867188 C 568.960938 503.867188 568.960938 503.867188 568.996094 503.867188 C 569.167969 503.867188 569.339844 504.042969 569.339844 504.214844 C 569.339844 504.285156 569.308594 504.316406 569.273438 504.386719 C 569.097656 504.734375 568.71875 505.042969 568.164062 505.355469 C 564.601562 507.464844 558.828125 507.636719 555.402344 504.628906 C 555.335938 504.59375 555.300781 504.558594 555.230469 504.558594 C 555.128906 504.558594 555.023438 504.664062 554.988281 504.765625 C 554.953125 505.078125 555.09375 505.425781 555.371094 505.804688 C 557.6875 508.988281 560.9375 510.199219 565.121094 509.367188 C 565.121094 509.332031 565.15625 509.332031 565.191406 509.332031 C 565.398438 509.332031 565.539062 509.503906 565.539062 509.714844 C 565.539062 509.851562 565.46875 509.988281 565.328125 510.058594 C 560.523438 512.308594 555.886719 512.375 551.425781 510.199219 C 551.425781 510.164062 551.425781 510.164062 551.425781 510.164062 C 551.289062 510.128906 551.113281 510.199219 551.046875 510.335938 C 549.109375 516.527344 546.167969 525.449219 542.296875 537.105469 C 537.003906 553.015625 533.511719 569.683594 532.785156 587.082031 C 532.128906 602.785156 535.96875 618.382812 542.746094 632.597656 C 546.167969 639.792969 549.457031 646.363281 552.601562 652.347656 C 556.371094 659.539062 559.414062 667.011719 561.734375 674.792969 Z M 373.832031 237.070312 C 374.59375 236.070312 375.421875 234.132812 374.835938 232.78125 C 373.832031 230.535156 371.410156 229.011719 368.953125 228.320312 C 368.953125 228.320312 368.953125 228.320312 368.921875 228.320312 C 368.886719 228.320312 368.816406 228.390625 368.816406 228.460938 C 368.816406 228.496094 368.816406 228.527344 368.851562 228.527344 C 371.515625 230.742188 374.417969 232.992188 373.625 236.96875 C 373.625 237.003906 373.625 237.003906 373.625 237.003906 C 373.625 237.070312 373.660156 237.105469 373.726562 237.105469 C 373.761719 237.105469 373.796875 237.105469 373.832031 237.070312 Z M 452.167969 283.484375 C 450.75 286.390625 449.816406 289.503906 449.367188 292.894531 C 449.367188 292.894531 449.367188 292.894531 449.367188 292.929688 C 449.367188 293.066406 449.46875 293.171875 449.609375 293.171875 C 449.675781 293.171875 449.710938 293.136719 449.78125 293.101562 C 450.609375 292.304688 451.269531 291.269531 451.234375 289.851562 C 451.234375 287.773438 451.613281 285.699219 452.445312 283.589844 C 452.445312 283.589844 452.445312 283.554688 452.445312 283.554688 C 452.445312 283.484375 452.410156 283.453125 452.375 283.417969 C 452.339844 283.417969 452.304688 283.417969 452.304688 283.417969 C 452.234375 283.417969 452.203125 283.453125 452.167969 283.484375 Z M 362.867188 408.757812 L 362.867188 416.398438 C 362.867188 416.609375 363.039062 416.78125 363.25 416.78125 C 363.386719 416.78125 363.492188 416.746094 363.558594 416.640625 C 364.320312 415.777344 364.875 414.707031 365.289062 413.355469 C 365.324219 413.289062 365.324219 413.21875 365.289062 413.113281 L 363.007812 408.6875 C 363.007812 408.6875 362.972656 408.652344 362.9375 408.652344 C 362.902344 408.652344 362.867188 408.6875 362.867188 408.757812 Z M 388.289062 410.277344 L 385.382812 417.574219 C 385.347656 417.644531 385.347656 417.75 385.347656 417.851562 C 385.347656 417.992188 385.382812 418.128906 385.453125 418.269531 L 387.527344 421.863281 C 387.632812 422.039062 387.804688 422.140625 387.976562 422.140625 C 388.148438 422.140625 388.289062 422.074219 388.390625 421.933594 L 391.433594 417.992188 C 391.710938 417.609375 391.78125 417.125 391.574219 416.746094 L 388.632812 410.277344 C 388.597656 410.210938 388.53125 410.175781 388.460938 410.175781 C 388.355469 410.175781 388.289062 410.210938 388.289062 410.277344 Z M 392.160156 429.992188 L 396.625 434.417969 C 396.691406 434.488281 396.796875 434.558594 396.933594 434.558594 C 397.039062 434.558594 397.175781 434.488281 397.246094 434.386719 L 398.386719 432.898438 C 398.664062 432.550781 398.734375 432.101562 398.558594 431.6875 L 395.238281 424.492188 C 395.238281 424.425781 395.171875 424.425781 395.136719 424.425781 C 395.101562 424.425781 395.066406 424.425781 395.03125 424.457031 L 392.128906 429.542969 C 392.09375 429.578125 392.058594 429.648438 392.058594 429.714844 C 392.058594 429.820312 392.09375 429.921875 392.160156 429.992188 Z M 381.683594 424.632812 L 380.542969 429.4375 C 380.507812 429.472656 380.507812 429.507812 380.507812 429.542969 C 380.507812 429.785156 380.714844 429.992188 380.957031 429.992188 C 381.09375 429.992188 381.199219 429.957031 381.300781 429.855469 L 383.585938 427.570312 C 383.652344 427.503906 383.6875 427.398438 383.6875 427.292969 C 383.6875 427.226562 383.6875 427.15625 383.652344 427.085938 L 382.167969 424.5625 C 382.167969 424.527344 382.132812 424.492188 382.097656 424.457031 C 381.992188 424.390625 381.820312 424.390625 381.75 424.527344 C 381.71875 424.5625 381.71875 424.597656 381.683594 424.632812 Z M 390.710938 438.535156 L 388.496094 434.730469 C 388.460938 434.660156 388.355469 434.59375 388.253906 434.59375 C 388.148438 434.59375 388.046875 434.660156 388.011719 434.730469 L 385.796875 438.570312 C 385.730469 438.671875 385.695312 438.777344 385.695312 438.914062 C 385.695312 439.261719 386.003906 439.574219 386.386719 439.574219 C 386.421875 439.574219 386.488281 439.574219 386.523438 439.574219 L 390.675781 438.605469 C 390.675781 438.605469 390.710938 438.605469 390.710938 438.605469 C 390.710938 438.570312 390.710938 438.570312 390.710938 438.535156 Z M 414.78125 487.335938 C 413.640625 483.117188 412.253906 478.757812 410.59375 474.226562 C 409.386719 470.976562 407.515625 468.625 405.304688 464.960938 C 401.671875 459.011719 399.425781 452.058594 396.691406 446.144531 C 396.65625 446.074219 396.589844 446.039062 396.519531 446.039062 C 396.449219 446.039062 396.382812 446.109375 396.382812 446.179688 C 395.863281 448.910156 395.480469 450.917969 395.238281 452.265625 C 394.582031 455.691406 396.140625 458.285156 397.902344 461.535156 C 402.710938 470.457031 410.421875 481.457031 414.539062 487.441406 C 414.539062 487.472656 414.609375 487.472656 414.640625 487.472656 C 414.710938 487.472656 414.78125 487.441406 414.78125 487.335938 Z M 408.933594 529.394531 C 409.003906 529.359375 409.039062 529.324219 409.039062 529.253906 C 409.039062 529.21875 409.039062 529.183594 409.039062 529.183594 C 402.503906 518.359375 398.628906 510.164062 388.597656 490.863281 C 384.378906 482.769531 381.300781 477.03125 379.332031 473.640625 C 377.878906 471.117188 376.5625 469.386719 375.421875 468.417969 C 373.660156 466.894531 371.964844 465.304688 370.375 463.574219 C 370.304688 463.507812 370.234375 463.472656 370.164062 463.472656 C 370.0625 463.472656 369.957031 463.507812 369.921875 463.574219 C 367.640625 466.617188 365.046875 469.246094 362.140625 471.425781 C 359.824219 473.191406 358.234375 474.4375 357.402344 475.230469 C 357.09375 475.542969 356.816406 475.855469 356.609375 476.199219 C 344.605469 495.015625 332.847656 513.65625 319.707031 531.46875 C 319.324219 531.988281 319.117188 532.609375 319.152344 533.265625 L 320.050781 549.695312 C 320.050781 549.695312 320.050781 549.730469 320.050781 549.730469 C 320.050781 549.867188 320.15625 549.972656 320.292969 549.9375 C 327.105469 549.488281 333.988281 548.832031 340.90625 547.929688 C 343.847656 547.550781 346.683594 546.996094 349.449219 546.269531 C 353.980469 545.058594 355.015625 542.671875 357.300781 538.210938 C 358.269531 536.308594 359.617188 533.507812 361.414062 529.808594 C 362.730469 527.039062 364.875 523.304688 367.847656 518.566406 C 371.273438 513.136719 373.933594 507.257812 374.972656 500.996094 C 375.179688 499.71875 375.527344 497.886719 375.976562 495.429688 C 376.148438 494.597656 376.5625 494.011719 377.289062 493.769531 C 379.019531 493.148438 380.574219 493.527344 381.925781 494.910156 C 384.554688 497.675781 384.761719 503.039062 384.136719 506.566406 C 382.617188 515.179688 381.820312 519.5 381.820312 519.570312 C 381.507812 522.371094 381.476562 524.515625 381.820312 526.039062 C 382.234375 528.007812 385.902344 529.253906 387.492188 529.703125 C 394.929688 531.710938 401.601562 530.984375 408.933594 529.394531 Z M 405.960938 544.574219 C 409.9375 544.851562 413.882812 544.785156 417.789062 544.4375 C 417.925781 544.4375 418.03125 544.332031 418.03125 544.195312 C 418.03125 544.160156 418.03125 544.125 418.03125 544.09375 L 416.71875 541.222656 C 416.613281 541.011719 416.40625 540.875 416.164062 540.875 C 416.09375 540.875 416.027344 540.875 415.992188 540.910156 L 405.925781 544.160156 C 405.824219 544.195312 405.753906 544.265625 405.753906 544.332031 C 405.753906 544.472656 405.859375 544.542969 405.960938 544.574219 Z M 427.402344 557.546875 C 426.675781 556.785156 426.160156 555.988281 425.8125 555.125 C 425.777344 555.019531 425.675781 554.953125 425.570312 554.953125 C 425.535156 554.953125 425.5 554.953125 425.5 554.953125 L 411.632812 558.167969 C 411.53125 558.167969 411.460938 558.273438 411.460938 558.375 C 411.460938 558.515625 411.5625 558.617188 411.667969 558.617188 L 427.300781 557.753906 C 427.335938 557.753906 427.335938 557.753906 427.335938 557.753906 C 427.402344 557.71875 427.4375 557.648438 427.402344 557.582031 C 427.402344 557.582031 427.402344 557.546875 427.402344 557.546875 Z M 427.402344 557.546875 " fill-opacity="1" fill-rule="evenodd"/></g><g fill="#364dff" fill-opacity="1"><g transform="translate(194.465604, 162.472512)"><g><path d="M 3.4375 -32.375 C 3.4375 -38.6875 4.90625 -44.347656 7.84375 -49.359375 C 10.78125 -54.367188 14.769531 -58.28125 19.8125 -61.09375 C 24.851562 -63.90625 30.375 -65.3125 36.375 -65.3125 C 43.238281 -65.3125 49.34375 -63.625 54.6875 -60.25 C 60.039062 -56.882812 63.925781 -52.109375 66.34375 -45.921875 L 53.625 -45.921875 C 51.957031 -49.328125 49.640625 -51.863281 46.671875 -53.53125 C 43.703125 -55.207031 40.269531 -56.046875 36.375 -56.046875 C 32.101562 -56.046875 28.296875 -55.082031 24.953125 -53.15625 C 21.617188 -51.238281 19.003906 -48.488281 17.109375 -44.90625 C 15.222656 -41.320312 14.28125 -37.144531 14.28125 -32.375 C 14.28125 -27.613281 15.222656 -23.4375 17.109375 -19.84375 C 19.003906 -16.257812 21.617188 -13.492188 24.953125 -11.546875 C 28.296875 -9.597656 32.101562 -8.625 36.375 -8.625 C 40.269531 -8.625 43.703125 -9.457031 46.671875 -11.125 C 49.640625 -12.800781 51.957031 -15.335938 53.625 -18.734375 L 66.34375 -18.734375 C 63.925781 -12.554688 60.039062 -7.796875 54.6875 -4.453125 C 49.34375 -1.109375 43.238281 0.5625 36.375 0.5625 C 30.3125 0.5625 24.773438 -0.84375 19.765625 -3.65625 C 14.753906 -6.476562 10.78125 -10.394531 7.84375 -15.40625 C 4.90625 -20.414062 3.4375 -26.070312 3.4375 -32.375 Z M 3.4375 -32.375 "/></g></g></g><g fill="#364dff" fill-opacity="1"><g transform="translate(266.173433, 162.472512)"><g><path d="M 29.140625 0.828125 C 24.304688 0.828125 19.941406 -0.265625 16.046875 -2.453125 C 12.148438 -4.648438 9.085938 -7.742188 6.859375 -11.734375 C 4.640625 -15.722656 3.53125 -20.347656 3.53125 -25.609375 C 3.53125 -30.804688 4.671875 -35.414062 6.953125 -39.4375 C 9.242188 -43.457031 12.367188 -46.546875 16.328125 -48.703125 C 20.285156 -50.867188 24.707031 -51.953125 29.59375 -51.953125 C 34.476562 -51.953125 38.898438 -50.867188 42.859375 -48.703125 C 46.816406 -46.546875 49.941406 -43.457031 52.234375 -39.4375 C 54.523438 -35.414062 55.671875 -30.804688 55.671875 -25.609375 C 55.671875 -20.410156 54.492188 -15.800781 52.140625 -11.78125 C 49.796875 -7.757812 46.597656 -4.648438 42.546875 -2.453125 C 38.492188 -0.265625 34.023438 0.828125 29.140625 0.828125 Z M 29.140625 -8.34375 C 31.859375 -8.34375 34.40625 -8.992188 36.78125 -10.296875 C 39.164062 -11.597656 41.097656 -13.546875 42.578125 -16.140625 C 44.066406 -18.742188 44.8125 -21.898438 44.8125 -25.609375 C 44.8125 -29.316406 44.097656 -32.453125 42.671875 -35.015625 C 41.253906 -37.585938 39.367188 -39.519531 37.015625 -40.8125 C 34.671875 -42.113281 32.132812 -42.765625 29.40625 -42.765625 C 26.6875 -42.765625 24.164062 -42.113281 21.84375 -40.8125 C 19.53125 -39.519531 17.691406 -37.585938 16.328125 -35.015625 C 14.960938 -32.453125 14.28125 -29.316406 14.28125 -25.609375 C 14.28125 -20.097656 15.6875 -15.84375 18.5 -12.84375 C 21.320312 -9.84375 24.867188 -8.34375 29.140625 -8.34375 Z M 29.140625 -8.34375 "/></g></g></g><g fill="#364dff" fill-opacity="1"><g transform="translate(325.357901, 162.472512)"><g><path d="M 32.75 -51.953125 C 36.769531 -51.953125 40.375 -51.117188 43.5625 -49.453125 C 46.75 -47.785156 49.238281 -45.3125 51.03125 -42.03125 C 52.820312 -38.75 53.71875 -34.789062 53.71875 -30.15625 L 53.71875 0 L 43.234375 0 L 43.234375 -28.578125 C 43.234375 -33.148438 42.085938 -36.65625 39.796875 -39.09375 C 37.515625 -41.539062 34.394531 -42.765625 30.4375 -42.765625 C 26.476562 -42.765625 23.335938 -41.539062 21.015625 -39.09375 C 18.691406 -36.65625 17.53125 -33.148438 17.53125 -28.578125 L 17.53125 0 L 6.953125 0 L 6.953125 -51.125 L 17.53125 -51.125 L 17.53125 -45.28125 C 19.269531 -47.382812 21.484375 -49.019531 24.171875 -50.1875 C 26.859375 -51.363281 29.71875 -51.953125 32.75 -51.953125 Z M 32.75 -51.953125 "/></g></g></g><g fill="#364dff" fill-opacity="1"><g transform="translate(385.562793, 162.472512)"><g><path d="M 28.390625 -42.5 L 18.921875 -42.5 L 18.921875 0 L 8.25 0 L 8.25 -42.5 L 2.234375 -42.5 L 2.234375 -51.125 L 8.25 -51.125 L 8.25 -54.734375 C 8.25 -60.617188 9.8125 -64.90625 12.9375 -67.59375 C 16.0625 -70.28125 20.96875 -71.625 27.65625 -71.625 L 27.65625 -62.8125 C 24.4375 -62.8125 22.175781 -62.207031 20.875 -61 C 19.570312 -59.789062 18.921875 -57.703125 18.921875 -54.734375 L 18.921875 -51.125 L 28.390625 -51.125 Z M 28.390625 -42.5 "/></g></g></g><g fill="#364dff" fill-opacity="1"><g transform="translate(416.360994, 162.472512)"><g><path d="M 17.53125 -68.65625 L 17.53125 0 L 6.953125 0 L 6.953125 -68.65625 Z M 17.53125 -68.65625 "/></g></g></g><g fill="#364dff" fill-opacity="1"><g transform="translate(440.85112, 162.472512)"><g><path d="M 12.34375 -57.890625 C 10.425781 -57.890625 8.816406 -58.539062 7.515625 -59.84375 C 6.210938 -61.144531 5.5625 -62.753906 5.5625 -64.671875 C 5.5625 -66.585938 6.210938 -68.191406 7.515625 -69.484375 C 8.816406 -70.785156 10.425781 -71.4375 12.34375 -71.4375 C 14.195312 -71.4375 15.769531 -70.785156 17.0625 -69.484375 C 18.363281 -68.191406 19.015625 -66.585938 19.015625 -64.671875 C 19.015625 -62.753906 18.363281 -61.144531 17.0625 -59.84375 C 15.769531 -58.539062 14.195312 -57.890625 12.34375 -57.890625 Z M 17.53125 -51.125 L 17.53125 0 L 6.953125 0 L 6.953125 -51.125 Z M 17.53125 -51.125 "/></g></g></g><g fill="#364dff" fill-opacity="1"><g transform="translate(465.341246, 162.472512)"><g><path d="M 3.4375 -25.609375 C 3.4375 -30.867188 4.5 -35.492188 6.625 -39.484375 C 8.757812 -43.472656 11.710938 -46.546875 15.484375 -48.703125 C 19.265625 -50.867188 23.597656 -51.953125 28.484375 -51.953125 C 34.671875 -51.953125 39.789062 -50.484375 43.84375 -47.546875 C 47.894531 -44.609375 50.628906 -40.421875 52.046875 -34.984375 L 40.640625 -34.984375 C 39.710938 -37.515625 38.226562 -39.488281 36.1875 -40.90625 C 34.144531 -42.332031 31.578125 -43.046875 28.484375 -43.046875 C 24.148438 -43.046875 20.695312 -41.515625 18.125 -38.453125 C 15.5625 -35.390625 14.28125 -31.109375 14.28125 -25.609375 C 14.28125 -20.097656 15.5625 -15.796875 18.125 -12.703125 C 20.695312 -9.617188 24.148438 -8.078125 28.484375 -8.078125 C 34.609375 -8.078125 38.660156 -10.765625 40.640625 -16.140625 L 52.046875 -16.140625 C 50.566406 -10.941406 47.785156 -6.8125 43.703125 -3.75 C 39.617188 -0.695312 34.546875 0.828125 28.484375 0.828125 C 23.597656 0.828125 19.265625 -0.265625 15.484375 -2.453125 C 11.710938 -4.648438 8.757812 -7.742188 6.625 -11.734375 C 4.5 -15.722656 3.4375 -20.347656 3.4375 -25.609375 Z M 3.4375 -25.609375 "/></g></g></g><g fill="#364dff" fill-opacity="1"><g transform="translate(521.000614, 162.472512)"><g><path d="M 19.296875 -42.5 L 19.296875 -14.203125 C 19.296875 -12.273438 19.742188 -10.894531 20.640625 -10.0625 C 21.535156 -9.226562 23.066406 -8.8125 25.234375 -8.8125 L 31.734375 -8.8125 L 31.734375 0 L 23.375 0 C 18.613281 0 14.960938 -1.113281 12.421875 -3.34375 C 9.890625 -5.570312 8.625 -9.191406 8.625 -14.203125 L 8.625 -42.5 L 2.59375 -42.5 L 2.59375 -51.125 L 8.625 -51.125 L 8.625 -63.828125 L 19.296875 -63.828125 L 19.296875 -51.125 L 31.734375 -51.125 L 31.734375 -42.5 Z M 19.296875 -42.5 "/></g></g></g></svg>