<svg xmlns="http://www.w3.org/2000/svg" xmlns:xlink="http://www.w3.org/1999/xlink" width="1000" zoomAndPan="magnify" viewBox="0 0 750 749.999995" height="1000" preserveAspectRatio="xMidYMid meet" version="1.0"><defs><g/></defs><path fill="#000000" d="M 145.085938 634.835938 C 142.027344 627.980469 131.695312 604.617188 131.449219 601.410156 C 130.859375 593.605469 131.320312 547.855469 132.839844 541.148438 C 134.332031 534.5625 140.71875 527.671875 149.609375 529.683594 C 150.945312 529.988281 151.910156 530.699219 152.675781 531.316406 C 152.898438 531.476562 153.1875 531.503906 153.4375 531.402344 C 153.6875 531.296875 153.875 531.070312 153.917969 530.804688 C 154.148438 529.472656 154.523438 527.449219 154.910156 526.265625 C 155.707031 523.839844 157.648438 520.679688 160.949219 518.667969 C 165.023438 516.179688 170.386719 515.203125 174.609375 516.164062 C 175.121094 516.28125 176.546875 517.328125 177.59375 518.082031 C 177.816406 518.222656 178.089844 518.246094 178.335938 518.15625 C 178.582031 518.058594 178.765625 517.855469 178.835938 517.601562 C 179.03125 517.023438 179.238281 516.433594 179.328125 516.117188 C 180.953125 510.425781 191.519531 505.65625 198.828125 507.320312 C 199.421875 507.457031 199.988281 507.625 200.53125 507.84375 C 201.5 508.234375 202.425781 509.683594 203.257812 510.78125 C 203.402344 510.925781 203.617188 510.96875 203.808594 510.890625 C 203.996094 510.820312 204.121094 510.636719 204.121094 510.429688 C 204.160156 503.050781 204.363281 466.832031 204.78125 454.953125 C 205.066406 446.828125 206.355469 441.546875 210.730469 437.421875 C 213.300781 435.003906 217.199219 434.671875 220.527344 435.425781 C 225.277344 436.507812 230.25 442.109375 230.707031 453.835938 C 231.414062 472.074219 234.960938 533.222656 234.960938 533.222656 C 234.9375 537.128906 236.46875 581.65625 235.035156 599.015625 C 233.394531 618.839844 223.652344 632.570312 223.652344 632.570312 L 223.652344 644.132812 L 145.085938 644.136719 Z M 360.523438 575.601562 C 356.691406 544.601562 353.542969 512.214844 349.96875 510.820312 C 343.042969 508.117188 298.257812 521.617188 286.894531 517.164062 C 280.339844 515.066406 276.78125 503.097656 277.394531 491.089844 C 277.5 489.027344 277.417969 487.148438 277.242188 485.503906 C 277.0625 483.949219 276.210938 482.558594 274.914062 481.699219 C 273.09375 480.484375 271.316406 479.144531 270.007812 477.828125 C 266.570312 474.328125 268.554688 469.300781 270.082031 466.449219 C 270.542969 465.625 270.242188 464.582031 269.417969 464.121094 C 268.0625 463.355469 266.644531 462.816406 264.871094 460.625 C 259.519531 454.035156 267.347656 451.527344 267.394531 438.007812 C 267.394531 437.828125 267.394531 437.648438 267.398438 437.46875 C 267.417969 435.511719 266.195312 433.761719 264.359375 433.101562 C 251.609375 428.519531 242.609375 426.128906 242.476562 419.121094 C 242.320312 410.542969 261.390625 376.6875 265.96875 367.488281 C 269.542969 360.308594 271.921875 357.230469 271.738281 349.042969 C 271.554688 340.785156 264.246094 303.84375 280.90625 266.6875 C 296.59375 231.703125 343.019531 216.417969 371.734375 214.273438 C 419.007812 210.738281 446.582031 220.433594 472.441406 235.316406 C 504.5 253.757812 523.703125 280.1875 530.5 326.121094 C 534.957031 356.210938 529.570312 392.125 504.246094 430.011719 C 474.40625 474.644531 485.574219 501.664062 494.542969 531.425781 C 544.398438 562.742188 552.667969 644.136719 552.667969 644.136719 L 330.53125 644.132812 C 330.53125 644.132812 334.425781 628.453125 338.082031 618.875 C 342.867188 606.339844 353.339844 587.769531 360.523438 575.601562 Z M 360.523438 575.601562 " fill-opacity="1" fill-rule="evenodd"/><g fill="#364dff" fill-opacity="1"><g transform="translate(207.31404, 162.472512)"><g><path d="M 28.203125 0.65625 C 23.867188 0.65625 19.96875 -0.0976562 16.5 -1.609375 C 13.039062 -3.128906 10.320312 -5.28125 8.34375 -8.0625 C 6.363281 -10.851562 5.375 -14.101562 5.375 -17.8125 L 16.703125 -17.8125 C 16.953125 -15.03125 18.050781 -12.738281 20 -10.9375 C 21.945312 -9.144531 24.679688 -8.25 28.203125 -8.25 C 31.847656 -8.25 34.691406 -9.128906 36.734375 -10.890625 C 38.773438 -12.660156 39.796875 -14.9375 39.796875 -17.71875 C 39.796875 -19.882812 39.160156 -21.644531 37.890625 -23 C 36.628906 -24.363281 35.054688 -25.414062 33.171875 -26.15625 C 31.285156 -26.90625 28.671875 -27.710938 25.328125 -28.578125 C 21.117188 -29.691406 17.703125 -30.816406 15.078125 -31.953125 C 12.453125 -33.097656 10.207031 -34.878906 8.34375 -37.296875 C 6.488281 -39.710938 5.5625 -42.929688 5.5625 -46.953125 C 5.5625 -50.660156 6.488281 -53.90625 8.34375 -56.6875 C 10.207031 -59.46875 12.804688 -61.597656 16.140625 -63.078125 C 19.484375 -64.566406 23.347656 -65.3125 27.734375 -65.3125 C 33.984375 -65.3125 39.101562 -63.75 43.09375 -60.625 C 47.082031 -57.507812 49.296875 -53.226562 49.734375 -47.78125 L 38.046875 -47.78125 C 37.859375 -50.132812 36.742188 -52.144531 34.703125 -53.8125 C 32.660156 -55.476562 29.96875 -56.3125 26.625 -56.3125 C 23.59375 -56.3125 21.117188 -55.535156 19.203125 -53.984375 C 17.285156 -52.441406 16.328125 -50.21875 16.328125 -47.3125 C 16.328125 -45.332031 16.929688 -43.707031 18.140625 -42.4375 C 19.347656 -41.175781 20.878906 -40.171875 22.734375 -39.421875 C 24.585938 -38.679688 27.125 -37.878906 30.34375 -37.015625 C 34.601562 -35.835938 38.078125 -34.660156 40.765625 -33.484375 C 43.460938 -32.316406 45.753906 -30.507812 47.640625 -28.0625 C 49.523438 -25.625 50.46875 -22.363281 50.46875 -18.28125 C 50.46875 -15 49.585938 -11.90625 47.828125 -9 C 46.066406 -6.09375 43.5 -3.753906 40.125 -1.984375 C 36.757812 -0.222656 32.785156 0.65625 28.203125 0.65625 Z M 28.203125 0.65625 "/></g></g></g><g fill="#364dff" fill-opacity="1"><g transform="translate(263.344482, 162.472512)"><g><path d="M 12.34375 -57.890625 C 10.425781 -57.890625 8.816406 -58.539062 7.515625 -59.84375 C 6.210938 -61.144531 5.5625 -62.753906 5.5625 -64.671875 C 5.5625 -66.585938 6.210938 -68.191406 7.515625 -69.484375 C 8.816406 -70.785156 10.425781 -71.4375 12.34375 -71.4375 C 14.195312 -71.4375 15.769531 -70.785156 17.0625 -69.484375 C 18.363281 -68.191406 19.015625 -66.585938 19.015625 -64.671875 C 19.015625 -62.753906 18.363281 -61.144531 17.0625 -59.84375 C 15.769531 -58.539062 14.195312 -57.890625 12.34375 -57.890625 Z M 17.53125 -51.125 L 17.53125 0 L 6.953125 0 L 6.953125 -51.125 Z M 17.53125 -51.125 "/></g></g></g><g fill="#364dff" fill-opacity="1"><g transform="translate(287.834608, 162.472512)"><g><path d="M 17.53125 -68.65625 L 17.53125 0 L 6.953125 0 L 6.953125 -68.65625 Z M 17.53125 -68.65625 "/></g></g></g><g fill="#364dff" fill-opacity="1"><g transform="translate(312.324734, 162.472512)"><g><path d="M 53.8125 -26.8125 C 53.8125 -24.894531 53.6875 -23.164062 53.4375 -21.625 L 14.375 -21.625 C 14.6875 -17.539062 16.203125 -14.257812 18.921875 -11.78125 C 21.648438 -9.3125 24.992188 -8.078125 28.953125 -8.078125 C 34.640625 -8.078125 38.660156 -10.457031 41.015625 -15.21875 L 52.421875 -15.21875 C 50.878906 -10.519531 48.082031 -6.671875 44.03125 -3.671875 C 39.976562 -0.671875 34.953125 0.828125 28.953125 0.828125 C 24.066406 0.828125 19.6875 -0.265625 15.8125 -2.453125 C 11.945312 -4.648438 8.914062 -7.742188 6.71875 -11.734375 C 4.53125 -15.722656 3.4375 -20.347656 3.4375 -25.609375 C 3.4375 -30.867188 4.5 -35.492188 6.625 -39.484375 C 8.757812 -43.472656 11.757812 -46.546875 15.625 -48.703125 C 19.5 -50.867188 23.941406 -51.953125 28.953125 -51.953125 C 33.773438 -51.953125 38.070312 -50.898438 41.84375 -48.796875 C 45.613281 -46.691406 48.550781 -43.738281 50.65625 -39.9375 C 52.757812 -36.132812 53.8125 -31.757812 53.8125 -26.8125 Z M 42.765625 -30.15625 C 42.703125 -34.050781 41.3125 -37.171875 38.59375 -39.515625 C 35.875 -41.867188 32.503906 -43.046875 28.484375 -43.046875 C 24.835938 -43.046875 21.710938 -41.882812 19.109375 -39.5625 C 16.515625 -37.25 14.96875 -34.113281 14.46875 -30.15625 Z M 42.765625 -30.15625 "/></g></g></g><g fill="#364dff" fill-opacity="1"><g transform="translate(369.561121, 162.472512)"><g><path d="M 32.75 -51.953125 C 36.769531 -51.953125 40.375 -51.117188 43.5625 -49.453125 C 46.75 -47.785156 49.238281 -45.3125 51.03125 -42.03125 C 52.820312 -38.75 53.71875 -34.789062 53.71875 -30.15625 L 53.71875 0 L 43.234375 0 L 43.234375 -28.578125 C 43.234375 -33.148438 42.085938 -36.65625 39.796875 -39.09375 C 37.515625 -41.539062 34.394531 -42.765625 30.4375 -42.765625 C 26.476562 -42.765625 23.335938 -41.539062 21.015625 -39.09375 C 18.691406 -36.65625 17.53125 -33.148438 17.53125 -28.578125 L 17.53125 0 L 6.953125 0 L 6.953125 -51.125 L 17.53125 -51.125 L 17.53125 -45.28125 C 19.269531 -47.382812 21.484375 -49.019531 24.171875 -50.1875 C 26.859375 -51.363281 29.71875 -51.953125 32.75 -51.953125 Z M 32.75 -51.953125 "/></g></g></g><g fill="#364dff" fill-opacity="1"><g transform="translate(429.766025, 162.472512)"><g><path d="M 3.4375 -25.609375 C 3.4375 -30.867188 4.5 -35.492188 6.625 -39.484375 C 8.757812 -43.472656 11.710938 -46.546875 15.484375 -48.703125 C 19.265625 -50.867188 23.597656 -51.953125 28.484375 -51.953125 C 34.671875 -51.953125 39.789062 -50.484375 43.84375 -47.546875 C 47.894531 -44.609375 50.628906 -40.421875 52.046875 -34.984375 L 40.640625 -34.984375 C 39.710938 -37.515625 38.226562 -39.488281 36.1875 -40.90625 C 34.144531 -42.332031 31.578125 -43.046875 28.484375 -43.046875 C 24.148438 -43.046875 20.695312 -41.515625 18.125 -38.453125 C 15.5625 -35.390625 14.28125 -31.109375 14.28125 -25.609375 C 14.28125 -20.097656 15.5625 -15.796875 18.125 -12.703125 C 20.695312 -9.617188 24.148438 -8.078125 28.484375 -8.078125 C 34.609375 -8.078125 38.660156 -10.765625 40.640625 -16.140625 L 52.046875 -16.140625 C 50.566406 -10.941406 47.785156 -6.8125 43.703125 -3.75 C 39.617188 -0.695312 34.546875 0.828125 28.484375 0.828125 C 23.597656 0.828125 19.265625 -0.265625 15.484375 -2.453125 C 11.710938 -4.648438 8.757812 -7.742188 6.625 -11.734375 C 4.5 -15.722656 3.4375 -20.347656 3.4375 -25.609375 Z M 3.4375 -25.609375 "/></g></g></g><g fill="#364dff" fill-opacity="1"><g transform="translate(485.425392, 162.472512)"><g><path d="M 53.8125 -26.8125 C 53.8125 -24.894531 53.6875 -23.164062 53.4375 -21.625 L 14.375 -21.625 C 14.6875 -17.539062 16.203125 -14.257812 18.921875 -11.78125 C 21.648438 -9.3125 24.992188 -8.078125 28.953125 -8.078125 C 34.640625 -8.078125 38.660156 -10.457031 41.015625 -15.21875 L 52.421875 -15.21875 C 50.878906 -10.519531 48.082031 -6.671875 44.03125 -3.671875 C 39.976562 -0.671875 34.953125 0.828125 28.953125 0.828125 C 24.066406 0.828125 19.6875 -0.265625 15.8125 -2.453125 C 11.945312 -4.648438 8.914062 -7.742188 6.71875 -11.734375 C 4.53125 -15.722656 3.4375 -20.347656 3.4375 -25.609375 C 3.4375 -30.867188 4.5 -35.492188 6.625 -39.484375 C 8.757812 -43.472656 11.757812 -46.546875 15.625 -48.703125 C 19.5 -50.867188 23.941406 -51.953125 28.953125 -51.953125 C 33.773438 -51.953125 38.070312 -50.898438 41.84375 -48.796875 C 45.613281 -46.691406 48.550781 -43.738281 50.65625 -39.9375 C 52.757812 -36.132812 53.8125 -31.757812 53.8125 -26.8125 Z M 42.765625 -30.15625 C 42.703125 -34.050781 41.3125 -37.171875 38.59375 -39.515625 C 35.875 -41.867188 32.503906 -43.046875 28.484375 -43.046875 C 24.835938 -43.046875 21.710938 -41.882812 19.109375 -39.5625 C 16.515625 -37.25 14.96875 -34.113281 14.46875 -30.15625 Z M 42.765625 -30.15625 "/></g></g></g></svg>