<svg xmlns="http://www.w3.org/2000/svg" xmlns:xlink="http://www.w3.org/1999/xlink" width="1000" zoomAndPan="magnify" viewBox="0 0 750 749.999995" height="1000" preserveAspectRatio="xMidYMid meet" version="1.0"><defs><g/><clipPath id="67c459ff75"><path d="M 214 215 L 537 215 L 537 675.359375 L 214 675.359375 Z M 214 215 " clip-rule="nonzero"/></clipPath></defs><g clip-path="url(#67c459ff75)"><path fill="#000002" d="M 464.722656 378.324219 C 430.25 378.324219 434.558594 325.542969 415.171875 325.542969 C 408.4375 325.542969 398.472656 331.199219 385.546875 342.238281 C 362.925781 361.089844 333.574219 329.582031 288.0625 371.863281 C 286.984375 372.9375 285.371094 374.015625 283.753906 374.554688 C 281.058594 413.0625 299.101562 447.535156 331.148438 465.039062 C 392.28125 498.429688 470.109375 455.34375 467.414062 378.324219 C 466.335938 378.324219 465.53125 378.324219 464.722656 378.324219 Z M 274.597656 376.707031 C 264.902344 379.132812 267.058594 376.441406 263.824219 357.050781 C 258.707031 325.542969 254.398438 298.34375 285.371094 273.027344 C 280.792969 247.445312 363.464844 216.746094 371.542969 215.667969 C 376.929688 214.859375 376.929688 221.324219 377.738281 225.632812 C 394.703125 223.207031 413.554688 224.824219 427.289062 233.171875 C 430.25 234.789062 430.25 241.25 431.058594 246.367188 C 465.800781 239.636719 460.683594 251.214844 459.066406 265.488281 C 467.953125 268.449219 487.613281 278.144531 488.152344 309.382812 C 488.152344 312.617188 484.917969 313.960938 481.417969 315.847656 C 487.882812 326.886719 496.230469 347.355469 484.378906 357.589844 L 490.304688 370.246094 C 494.074219 378.054688 479.800781 376.976562 476.300781 377.246094 C 477.917969 417.371094 458.796875 452.921875 425.941406 471.769531 L 425.941406 506.511719 L 471.453125 506.511719 C 507.269531 506.511719 536.355469 544.210938 536.355469 590.800781 L 536.355469 670.78125 C 536.355469 673.207031 534.199219 675.359375 531.777344 675.359375 L 218.582031 675.359375 C 216.160156 675.359375 214.003906 673.207031 214.003906 670.78125 L 214.003906 590.800781 C 214.003906 544.210938 243.089844 506.511719 278.90625 506.511719 L 324.417969 506.511719 L 324.417969 471.5 C 291.5625 452.382812 272.980469 416.835938 274.597656 376.707031 Z M 375.585938 485.234375 C 361.042969 485.234375 346.5 482.273438 333.304688 476.078125 L 333.304688 509.203125 L 375.046875 553.90625 L 417.054688 509.203125 L 417.054688 476.347656 C 403.859375 482.273438 389.585938 485.234375 375.585938 485.234375 Z M 375.046875 564.949219 C 373.96875 564.949219 372.621094 564.410156 371.8125 563.332031 L 326.839844 515.398438 L 278.90625 515.398438 C 247.9375 515.398438 222.890625 549.328125 222.890625 590.800781 L 222.890625 617.460938 L 272.171875 617.460938 L 272.171875 602.113281 C 272.171875 596.1875 281.058594 596.1875 281.058594 602.113281 L 281.058594 666.203125 L 469.300781 666.203125 L 469.300781 602.113281 C 469.300781 596.1875 478.1875 596.1875 478.1875 602.113281 L 478.1875 617.460938 L 527.199219 617.460938 L 527.199219 590.800781 C 527.199219 549.328125 502.15625 515.398438 471.453125 515.398438 L 423.519531 515.398438 L 378.546875 563.332031 C 377.46875 564.410156 376.390625 564.949219 375.046875 564.949219 Z M 222.890625 626.347656 L 222.890625 666.203125 L 272.171875 666.203125 L 272.171875 626.347656 Z M 478.1875 666.203125 L 527.199219 666.203125 L 527.199219 626.347656 L 478.1875 626.347656 Z M 375.046875 597.800781 C 357.542969 597.800781 357.542969 571.140625 375.046875 571.140625 C 392.820312 571.140625 392.820312 597.800781 375.046875 597.800781 Z M 375.046875 580.027344 C 369.390625 580.027344 369.390625 588.914062 375.046875 588.914062 C 380.96875 588.914062 380.96875 580.027344 375.046875 580.027344 Z M 375.046875 629.042969 C 357.542969 629.042969 357.542969 602.113281 375.046875 602.113281 C 392.820312 602.113281 392.820312 629.042969 375.046875 629.042969 Z M 375.046875 611.269531 C 369.390625 611.269531 369.390625 619.886719 375.046875 619.886719 C 380.96875 619.886719 380.96875 611.269531 375.046875 611.269531 Z M 375.046875 660.011719 C 357.542969 660.011719 357.542969 633.351562 375.046875 633.351562 C 392.820312 633.351562 392.820312 660.011719 375.046875 660.011719 Z M 375.046875 642.238281 C 369.390625 642.238281 369.390625 651.125 375.046875 651.125 C 380.96875 651.125 380.96875 642.238281 375.046875 642.238281 Z M 440.484375 606.691406 L 410.863281 606.691406 C 404.9375 606.691406 404.9375 597.535156 410.863281 597.535156 L 440.484375 597.535156 C 446.410156 597.535156 446.410156 606.691406 440.484375 606.691406 Z M 344.613281 450.765625 C 341.113281 450.765625 338.960938 446.726562 341.113281 443.496094 C 357.542969 422.757812 393.359375 422.757812 409.785156 443.496094 C 413.285156 448.34375 406.285156 453.726562 402.785156 449.148438 C 389.855469 432.992188 361.042969 432.992188 348.117188 449.148438 C 347.308594 450.226562 345.960938 450.765625 344.613281 450.765625 Z M 346.230469 381.824219 C 344.078125 381.824219 332.226562 374.285156 329.265625 372.667969 C 324.148438 369.707031 328.726562 361.898438 333.84375 364.859375 L 348.65625 373.476562 C 352.695312 375.902344 350.808594 381.824219 346.230469 381.824219 Z M 336.265625 411.179688 C 333.574219 411.179688 331.6875 409.292969 331.6875 406.871094 L 331.6875 391.789062 C 331.6875 385.863281 340.574219 385.863281 340.574219 391.789062 L 340.574219 406.871094 C 340.574219 409.292969 338.691406 411.179688 336.265625 411.179688 Z M 397.9375 383.710938 C 394.164062 383.710938 392.011719 379.132812 394.433594 376.171875 C 403.589844 365.128906 427.289062 365.398438 423.519531 374.824219 C 422.441406 377.246094 420.019531 378.324219 417.59375 377.246094 C 413.824219 375.902344 404.667969 378.054688 401.4375 382.09375 C 400.628906 383.171875 399.28125 383.710938 397.9375 383.710938 Z M 408.707031 411.179688 C 406.285156 411.179688 404.128906 409.292969 404.128906 406.871094 L 404.128906 391.789062 C 404.128906 385.863281 413.015625 385.863281 413.015625 391.789062 L 413.015625 406.871094 C 413.015625 409.292969 411.132812 411.179688 408.707031 411.179688 Z M 415.171875 316.65625 C 444.523438 316.65625 436.445312 372.128906 466.875 369.167969 L 479.535156 368.089844 C 476.300781 361.628906 471.453125 354.894531 476.839844 352.203125 C 487.882812 346.546875 476.570312 324.195312 471.453125 316.925781 C 468.222656 312.078125 475.492188 309.113281 478.996094 306.960938 C 477.378906 276.800781 454.488281 273.566406 453.410156 273.566406 C 450.988281 273.027344 449.371094 270.875 449.640625 268.449219 L 451.257812 253.910156 C 439.40625 250.675781 424.328125 261.449219 422.710938 252.5625 L 420.828125 239.636719 C 406.554688 232.09375 386.085938 232.902344 375.046875 235.058594 C 369.390625 236.136719 369.121094 229.132812 368.582031 225.632812 C 351.617188 230.75 302.875 252.5625 295.0625 267.914062 C 292.910156 272.492188 297.488281 274.914062 293.449219 278.144531 C 259.515625 304 269.210938 331.464844 274.597656 367.550781 L 282.136719 365.398438 C 329.265625 321.503906 362.386719 349.777344 379.625 335.238281 C 394.703125 322.578125 406.015625 316.65625 415.171875 316.65625 Z M 415.171875 316.65625 " fill-opacity="1" fill-rule="evenodd"/></g><g fill="#364dff" fill-opacity="1"><g transform="translate(165.067948, 162.472394)"><g><path d="M 42.125 -64.484375 L 42.125 -18 C 42.125 -12.25 40.375 -7.703125 36.875 -4.359375 C 33.382812 -1.015625 28.796875 0.65625 23.109375 0.65625 C 17.410156 0.65625 12.8125 -1.015625 9.3125 -4.359375 C 5.820312 -7.703125 4.078125 -12.25 4.078125 -18 L 14.75 -18 C 14.8125 -15.15625 15.535156 -12.894531 16.921875 -11.21875 C 18.316406 -9.550781 20.378906 -8.71875 23.109375 -8.71875 C 25.828125 -8.71875 27.894531 -9.566406 29.3125 -11.265625 C 30.738281 -12.972656 31.453125 -15.21875 31.453125 -18 L 31.453125 -64.484375 Z M 42.125 -64.484375 "/></g></g></g><g fill="#364dff" fill-opacity="1"><g transform="translate(217.387758, 162.472394)"><g><path d="M 53.8125 -26.8125 C 53.8125 -24.894531 53.6875 -23.164062 53.4375 -21.625 L 14.375 -21.625 C 14.6875 -17.539062 16.203125 -14.257812 18.921875 -11.78125 C 21.648438 -9.3125 24.992188 -8.078125 28.953125 -8.078125 C 34.640625 -8.078125 38.660156 -10.457031 41.015625 -15.21875 L 52.421875 -15.21875 C 50.878906 -10.519531 48.082031 -6.671875 44.03125 -3.671875 C 39.976562 -0.671875 34.953125 0.828125 28.953125 0.828125 C 24.066406 0.828125 19.6875 -0.265625 15.8125 -2.453125 C 11.945312 -4.648438 8.914062 -7.742188 6.71875 -11.734375 C 4.53125 -15.722656 3.4375 -20.347656 3.4375 -25.609375 C 3.4375 -30.867188 4.5 -35.492188 6.625 -39.484375 C 8.757812 -43.472656 11.757812 -46.546875 15.625 -48.703125 C 19.5 -50.867188 23.941406 -51.953125 28.953125 -51.953125 C 33.773438 -51.953125 38.070312 -50.898438 41.84375 -48.796875 C 45.613281 -46.691406 48.550781 -43.738281 50.65625 -39.9375 C 52.757812 -36.132812 53.8125 -31.757812 53.8125 -26.8125 Z M 42.765625 -30.15625 C 42.703125 -34.050781 41.3125 -37.171875 38.59375 -39.515625 C 35.875 -41.867188 32.503906 -43.046875 28.484375 -43.046875 C 24.835938 -43.046875 21.710938 -41.882812 19.109375 -39.5625 C 16.515625 -37.25 14.96875 -34.113281 14.46875 -30.15625 Z M 42.765625 -30.15625 "/></g></g></g><g fill="#364dff" fill-opacity="1"><g transform="translate(274.624144, 162.472394)"><g><path d="M 3.4375 -25.796875 C 3.4375 -30.929688 4.5 -35.476562 6.625 -39.4375 C 8.757812 -43.394531 11.664062 -46.46875 15.34375 -48.65625 C 19.03125 -50.851562 23.101562 -51.953125 27.5625 -51.953125 C 31.582031 -51.953125 35.09375 -51.160156 38.09375 -49.578125 C 41.09375 -48.003906 43.488281 -46.046875 45.28125 -43.703125 L 45.28125 -51.125 L 55.953125 -51.125 L 55.953125 0 L 45.28125 0 L 45.28125 -7.609375 C 43.488281 -5.191406 41.046875 -3.179688 37.953125 -1.578125 C 34.859375 0.0234375 31.332031 0.828125 27.375 0.828125 C 22.976562 0.828125 18.953125 -0.296875 15.296875 -2.546875 C 11.648438 -4.804688 8.757812 -7.960938 6.625 -12.015625 C 4.5 -16.066406 3.4375 -20.660156 3.4375 -25.796875 Z M 45.28125 -25.609375 C 45.28125 -29.128906 44.550781 -32.1875 43.09375 -34.78125 C 41.644531 -37.382812 39.742188 -39.363281 37.390625 -40.71875 C 35.035156 -42.082031 32.5 -42.765625 29.78125 -42.765625 C 27.0625 -42.765625 24.523438 -42.097656 22.171875 -40.765625 C 19.828125 -39.441406 17.925781 -37.492188 16.46875 -34.921875 C 15.007812 -32.359375 14.28125 -29.316406 14.28125 -25.796875 C 14.28125 -22.265625 15.007812 -19.171875 16.46875 -16.515625 C 17.925781 -13.859375 19.84375 -11.832031 22.21875 -10.4375 C 24.601562 -9.039062 27.125 -8.34375 29.78125 -8.34375 C 32.5 -8.34375 35.035156 -9.023438 37.390625 -10.390625 C 39.742188 -11.753906 41.644531 -13.75 43.09375 -16.375 C 44.550781 -19 45.28125 -22.078125 45.28125 -25.609375 Z M 45.28125 -25.609375 "/></g></g></g><g fill="#364dff" fill-opacity="1"><g transform="translate(337.519234, 162.472394)"><g><path d="M 17.53125 -68.65625 L 17.53125 0 L 6.953125 0 L 6.953125 -68.65625 Z M 17.53125 -68.65625 "/></g></g></g><g fill="#364dff" fill-opacity="1"><g transform="translate(362.00936, 162.472394)"><g><path d="M 29.140625 0.828125 C 24.304688 0.828125 19.941406 -0.265625 16.046875 -2.453125 C 12.148438 -4.648438 9.085938 -7.742188 6.859375 -11.734375 C 4.640625 -15.722656 3.53125 -20.347656 3.53125 -25.609375 C 3.53125 -30.804688 4.671875 -35.414062 6.953125 -39.4375 C 9.242188 -43.457031 12.367188 -46.546875 16.328125 -48.703125 C 20.285156 -50.867188 24.707031 -51.953125 29.59375 -51.953125 C 34.476562 -51.953125 38.898438 -50.867188 42.859375 -48.703125 C 46.816406 -46.546875 49.941406 -43.457031 52.234375 -39.4375 C 54.523438 -35.414062 55.671875 -30.804688 55.671875 -25.609375 C 55.671875 -20.410156 54.492188 -15.800781 52.140625 -11.78125 C 49.796875 -7.757812 46.597656 -4.648438 42.546875 -2.453125 C 38.492188 -0.265625 34.023438 0.828125 29.140625 0.828125 Z M 29.140625 -8.34375 C 31.859375 -8.34375 34.40625 -8.992188 36.78125 -10.296875 C 39.164062 -11.597656 41.097656 -13.546875 42.578125 -16.140625 C 44.066406 -18.742188 44.8125 -21.898438 44.8125 -25.609375 C 44.8125 -29.316406 44.097656 -32.453125 42.671875 -35.015625 C 41.253906 -37.585938 39.367188 -39.519531 37.015625 -40.8125 C 34.671875 -42.113281 32.132812 -42.765625 29.40625 -42.765625 C 26.6875 -42.765625 24.164062 -42.113281 21.84375 -40.8125 C 19.53125 -39.519531 17.691406 -37.585938 16.328125 -35.015625 C 14.960938 -32.453125 14.28125 -29.316406 14.28125 -25.609375 C 14.28125 -20.097656 15.6875 -15.84375 18.5 -12.84375 C 21.320312 -9.84375 24.867188 -8.34375 29.140625 -8.34375 Z M 29.140625 -8.34375 "/></g></g></g><g fill="#364dff" fill-opacity="1"><g transform="translate(421.193828, 162.472394)"><g><path d="M 53.25 -51.125 L 53.25 0 L 42.671875 0 L 42.671875 -6.03125 C 41.003906 -3.925781 38.828125 -2.269531 36.140625 -1.0625 C 33.453125 0.144531 30.59375 0.75 27.5625 0.75 C 23.539062 0.75 19.9375 -0.0820312 16.75 -1.75 C 13.5625 -3.425781 11.054688 -5.90625 9.234375 -9.1875 C 7.410156 -12.46875 6.5 -16.425781 6.5 -21.0625 L 6.5 -51.125 L 16.984375 -51.125 L 16.984375 -22.640625 C 16.984375 -18.054688 18.125 -14.539062 20.40625 -12.09375 C 22.695312 -9.65625 25.820312 -8.4375 29.78125 -8.4375 C 33.738281 -8.4375 36.875 -9.65625 39.1875 -12.09375 C 41.507812 -14.539062 42.671875 -18.054688 42.671875 -22.640625 L 42.671875 -51.125 Z M 53.25 -51.125 "/></g></g></g><g fill="#364dff" fill-opacity="1"><g transform="translate(481.39872, 162.472394)"><g><path d="M 25.515625 0.828125 C 21.492188 0.828125 17.890625 0.101562 14.703125 -1.34375 C 11.515625 -2.800781 8.992188 -4.78125 7.140625 -7.28125 C 5.285156 -9.789062 4.296875 -12.59375 4.171875 -15.6875 L 15.125 -15.6875 C 15.3125 -13.519531 16.347656 -11.707031 18.234375 -10.25 C 20.117188 -8.800781 22.484375 -8.078125 25.328125 -8.078125 C 28.296875 -8.078125 30.597656 -8.644531 32.234375 -9.78125 C 33.878906 -10.925781 34.703125 -12.398438 34.703125 -14.203125 C 34.703125 -16.117188 33.785156 -17.539062 31.953125 -18.46875 C 30.128906 -19.394531 27.238281 -20.414062 23.28125 -21.53125 C 19.445312 -22.582031 16.320312 -23.601562 13.90625 -24.59375 C 11.5 -25.582031 9.414062 -27.09375 7.65625 -29.125 C 5.894531 -31.164062 5.015625 -33.859375 5.015625 -37.203125 C 5.015625 -39.921875 5.816406 -42.410156 7.421875 -44.671875 C 9.023438 -46.929688 11.328125 -48.707031 14.328125 -50 C 17.328125 -51.300781 20.78125 -51.953125 24.6875 -51.953125 C 30.5 -51.953125 35.179688 -50.484375 38.734375 -47.546875 C 42.296875 -44.609375 44.195312 -40.601562 44.4375 -35.53125 L 33.859375 -35.53125 C 33.679688 -37.820312 32.753906 -39.644531 31.078125 -41 C 29.410156 -42.363281 27.15625 -43.046875 24.3125 -43.046875 C 21.53125 -43.046875 19.394531 -42.519531 17.90625 -41.46875 C 16.425781 -40.414062 15.6875 -39.023438 15.6875 -37.296875 C 15.6875 -35.929688 16.179688 -34.785156 17.171875 -33.859375 C 18.160156 -32.929688 19.363281 -32.203125 20.78125 -31.671875 C 22.207031 -31.148438 24.3125 -30.488281 27.09375 -29.6875 C 30.800781 -28.695312 33.84375 -27.691406 36.21875 -26.671875 C 38.601562 -25.648438 40.660156 -24.148438 42.390625 -22.171875 C 44.128906 -20.191406 45.03125 -17.5625 45.09375 -14.28125 C 45.09375 -11.375 44.285156 -8.773438 42.671875 -6.484375 C 41.066406 -4.203125 38.796875 -2.410156 35.859375 -1.109375 C 32.921875 0.179688 29.472656 0.828125 25.515625 0.828125 Z M 25.515625 0.828125 "/></g></g></g><g fill="#364dff" fill-opacity="1"><g transform="translate(530.935567, 162.472394)"><g><path d="M 52.984375 -51.125 L 21.625 24.03125 L 10.671875 24.03125 L 21.0625 -0.828125 L 0.921875 -51.125 L 12.71875 -51.125 L 27.09375 -12.15625 L 42.03125 -51.125 Z M 52.984375 -51.125 "/></g></g></g></svg>