<svg xmlns="http://www.w3.org/2000/svg" xmlns:xlink="http://www.w3.org/1999/xlink" width="1000" zoomAndPan="magnify" viewBox="0 0 750 749.999995" height="1000" preserveAspectRatio="xMidYMid meet" version="1.0"><defs><g/><clipPath id="28bb027383"><path d="M 243 385 L 367 385 L 367 674.734375 L 243 674.734375 Z M 243 385 " clip-rule="nonzero"/></clipPath><clipPath id="7bd9e91fd6"><path d="M 264 224.734375 L 345 224.734375 L 345 305 L 264 305 Z M 264 224.734375 " clip-rule="nonzero"/></clipPath><clipPath id="b0e1927386"><path d="M 412 420 L 618.363281 420 L 618.363281 657 L 412 657 Z M 412 420 " clip-rule="nonzero"/></clipPath></defs><path fill="#000000" d="M 337.640625 337.683594 L 317.804688 345.042969 L 353.433594 357.40625 C 355.53125 354.011719 356.058594 349.832031 354.734375 345.972656 C 352.300781 339 344.628906 335.273438 337.640625 337.683594 Z M 337.640625 337.683594 " fill-opacity="1" fill-rule="nonzero"/><g clip-path="url(#28bb027383)"><path fill="#000000" d="M 345.273438 652.292969 C 343.339844 651.96875 341.910156 650.359375 341.875 648.402344 C 341.472656 624.761719 344.894531 504.550781 347.933594 404.988281 C 348.007812 402.632812 346.539062 400.523438 344.3125 399.753906 L 302.726562 385.34375 L 265.058594 399.148438 C 262.894531 399.941406 261.476562 402.003906 261.546875 404.308594 C 264.066406 490.59375 268.015625 629.988281 267.742188 648.363281 C 267.710938 650.316406 266.289062 651.96875 264.363281 652.289062 C 254.21875 653.984375 246.078125 661.648438 243.25 671.320312 C 242.75 673.03125 244.082031 674.742188 245.867188 674.742188 L 296.5625 674.742188 C 299.539062 674.742188 301.953125 672.332031 301.953125 669.355469 L 301.953125 461.070312 C 301.953125 458.839844 303.765625 457.03125 305.996094 457.03125 C 308.230469 457.03125 310.042969 458.839844 310.042969 461.070312 L 310.042969 669.355469 C 310.042969 672.332031 312.457031 674.742188 315.433594 674.742188 L 363.753906 674.742188 C 365.53125 674.742188 366.867188 673.035156 366.367188 671.328125 C 363.546875 661.65625 355.410156 653.996094 345.273438 652.292969 Z M 345.273438 652.292969 " fill-opacity="1" fill-rule="nonzero"/></g><g clip-path="url(#7bd9e91fd6)"><path fill="#000000" d="M 304.800781 304.761719 C 326.875 304.761719 344.832031 286.8125 344.832031 264.75 C 344.832031 242.6875 326.875 224.738281 304.800781 224.738281 C 282.726562 224.738281 264.769531 242.6875 264.769531 264.75 C 264.769531 286.8125 282.726562 304.761719 304.800781 304.761719 Z M 304.800781 304.761719 " fill-opacity="1" fill-rule="nonzero"/></g><path fill="#000000" d="M 260.480469 370.707031 C 255.046875 368.8125 250.675781 364.929688 248.167969 359.769531 C 245.652344 354.601562 245.3125 348.765625 247.203125 343.339844 C 251.074219 332.152344 263.359375 326.191406 274.570312 330.042969 L 305.792969 340.875 L 334.914062 330.070312 C 346.191406 326.179688 358.476562 332.140625 362.375 343.328125 C 364.929688 350.761719 363.246094 358.941406 358.011719 364.757812 C 357.785156 365.03125 357.53125 365.273438 357.25 365.476562 C 357.222656 365.496094 357.191406 365.507812 357.160156 365.527344 C 356.960938 365.664062 356.753906 365.78125 356.535156 365.878906 C 356.492188 365.898438 356.449219 365.910156 356.40625 365.925781 C 356.195312 366.011719 355.976562 366.082031 355.753906 366.132812 C 355.714844 366.140625 355.675781 366.144531 355.640625 366.152344 C 355.410156 366.195312 355.175781 366.21875 354.9375 366.222656 C 354.925781 366.222656 354.914062 366.226562 354.902344 366.226562 C 354.890625 366.226562 354.882812 366.21875 354.871094 366.21875 C 354.441406 366.21875 354.003906 366.164062 353.570312 366.015625 L 271.929688 337.683594 C 264.933594 335.273438 257.265625 339 254.847656 345.992188 C 253.664062 349.382812 253.875 353.015625 255.441406 356.238281 C 257.007812 359.460938 259.742188 361.886719 263.136719 363.070312 L 372.246094 400.875 C 376.476562 402.347656 381.066406 401.539062 384.53125 398.722656 C 388.007812 395.898438 389.742188 391.558594 389.167969 387.109375 L 381.8125 330.570312 C 379.898438 315.824219 367.234375 304.703125 352.355469 304.703125 L 332.332031 304.703125 C 331.824219 304.703125 331.332031 304.855469 330.902344 305.128906 C 323.378906 310.007812 314.417969 312.847656 304.800781 312.847656 C 295.183594 312.847656 286.222656 310.007812 278.699219 305.128906 C 278.269531 304.855469 277.777344 304.703125 277.269531 304.703125 L 257.234375 304.703125 C 242.371094 304.703125 229.722656 315.808594 227.808594 330.539062 L 220.449219 386.933594 C 219.863281 391.394531 221.605469 395.742188 225.101562 398.570312 C 228.589844 401.386719 233.1875 402.175781 237.402344 400.671875 L 290.648438 381.160156 Z M 260.480469 370.707031 " fill-opacity="1" fill-rule="nonzero"/><path fill="#000000" d="M 461.320312 503.050781 C 461.324219 503.050781 461.328125 503.054688 461.335938 503.054688 C 465.226562 504.257812 469.351562 503.882812 472.957031 501.988281 C 479.457031 498.574219 482.871094 490.964844 480.328125 482.597656 C 478.957031 478.082031 475.105469 474.742188 470.460938 473.898438 L 414.355469 457.675781 C 412.65625 457.183594 410.800781 457.527344 409.441406 458.660156 C 404.726562 462.585938 401.910156 468.394531 401.910156 474.6875 C 401.910156 477.597656 402.539062 480.421875 403.707031 483.035156 C 404.34375 484.460938 405.5625 485.550781 407.054688 486.019531 Z M 461.320312 503.050781 " fill-opacity="1" fill-rule="nonzero"/><path fill="#000000" d="M 417.457031 529.914062 L 449.558594 540.726562 C 457.375 542.15625 466.765625 536.941406 468.964844 529.886719 C 470.261719 525.71875 469.734375 521.28125 467.46875 517.492188 C 465.730469 514.589844 462.921875 512.484375 459.8125 511.15625 L 458.855469 510.75 L 404.363281 493.648438 C 402.96875 493.210938 401.457031 493.359375 400.164062 494.039062 C 393.363281 497.601562 388.972656 504.617188 388.972656 512.5 C 388.972656 514.746094 389.332031 516.960938 390.019531 519.0625 C 390.5625 520.714844 391.898438 521.992188 393.5625 522.507812 Z M 417.457031 529.914062 " fill-opacity="1" fill-rule="nonzero"/><g clip-path="url(#b0e1927386)"><path fill="#000000" d="M 607.042969 457.5 L 585.976562 456.761719 C 581.316406 456.640625 576.734375 455.25 572.761719 452.734375 L 536.273438 429.621094 C 533.105469 427.613281 529.449219 426.40625 525.707031 426.128906 L 445.445312 420.152344 C 435.234375 420.578125 425.753906 424.449219 418.738281 431.074219 C 415.988281 433.667969 412.714844 437.589844 412.714844 441.53125 C 412.714844 443.101562 412.894531 444.636719 413.238281 446.132812 C 413.667969 448.011719 415.140625 449.488281 416.996094 450.023438 L 472.707031 466.132812 C 472.714844 466.132812 472.71875 466.136719 472.722656 466.136719 C 472.742188 466.144531 472.765625 466.144531 472.785156 466.152344 C 472.789062 466.152344 472.789062 466.152344 472.792969 466.152344 L 472.804688 466.15625 C 475.113281 466.785156 477.574219 466.949219 479.875 466.289062 C 484.140625 465.066406 487.3125 461.929688 488.574219 457.863281 C 489.578125 454.652344 489.269531 451.253906 487.707031 448.277344 C 486.140625 445.289062 483.503906 443.09375 480.28125 442.09375 C 477.855469 441.339844 476.644531 438.507812 478.003906 436.160156 C 478.980469 434.472656 481.125 433.863281 482.980469 434.46875 C 488.132812 436.152344 492.347656 439.710938 494.871094 444.519531 C 497.4375 449.410156 497.945312 455.003906 496.296875 460.265625 C 494.660156 465.539062 491.058594 469.867188 486.160156 472.4375 C 485.386719 472.84375 484.59375 473.199219 483.789062 473.503906 C 488.679688 479.386719 490.601562 487.554688 488.171875 495.386719 C 486.316406 501.355469 482.25 506.242188 476.71875 509.144531 C 475.398438 509.839844 474.023438 510.355469 472.628906 510.785156 C 473.539062 511.929688 474.359375 513.164062 475.054688 514.488281 C 477.960938 520.015625 478.542969 526.335938 476.6875 532.289062 C 474.445312 539.480469 467.949219 545.21875 460.402344 547.707031 C 461.601562 549.082031 462.671875 550.589844 463.546875 552.246094 C 465.207031 555.402344 466.089844 558.820312 466.207031 562.277344 C 466.253906 563.699219 467.460938 564.800781 468.882812 564.800781 L 474.1875 564.800781 C 475.570312 564.800781 476.691406 563.765625 476.847656 562.394531 C 478.664062 546.515625 486.441406 529.046875 498.195312 515.683594 C 509.574219 502.746094 523.023438 495.621094 536.070312 495.621094 C 538.300781 495.621094 540.113281 497.429688 540.113281 499.660156 C 540.113281 501.894531 538.300781 503.703125 536.070312 503.703125 C 525.382812 503.703125 514.089844 509.851562 504.269531 521.019531 C 490.726562 536.421875 482.734375 558.535156 484.839844 574.796875 C 484.960938 575.738281 484.75 576.691406 484.238281 577.492188 C 484.09375 577.714844 469.835938 600.03125 466.5 607.871094 C 463.082031 615.90625 453.359375 643.027344 471.757812 654.695312 C 474.636719 656.519531 477.960938 657.019531 481.121094 656.082031 C 484.4375 655.109375 487.222656 652.644531 488.761719 649.316406 L 514.351562 594.027344 C 514.644531 593.390625 515.097656 592.84375 515.667969 592.4375 L 571.953125 552.089844 C 576.363281 548.929688 581.65625 547.226562 587.085938 547.226562 L 606.636719 547.226562 C 613.0625 547.226562 618.269531 542.023438 618.269531 535.601562 L 618.269531 469.121094 C 618.269531 462.855469 613.304688 457.71875 607.042969 457.5 Z M 607.042969 457.5 " fill-opacity="1" fill-rule="nonzero"/></g><path fill="#000000" d="M 456.386719 556.011719 C 454.484375 552.394531 451.289062 549.738281 447.386719 548.523438 L 414.96875 537.605469 L 391.285156 530.265625 C 389.625 529.753906 387.796875 530.039062 386.425781 531.109375 C 381.761719 534.746094 378.082031 540.472656 378.605469 547.128906 C 379.878906 563.171875 403.703125 570.679688 413.886719 573.160156 L 439.925781 578.085938 C 447.605469 579.59375 455.128906 575.109375 457.453125 567.644531 C 458.664062 563.753906 458.285156 559.621094 456.386719 556.011719 Z M 456.386719 556.011719 " fill-opacity="1" fill-rule="nonzero"/><path fill="#000000" d="M 185.578125 330.554688 C 182.757812 327.289062 181.050781 325.144531 181.09375 322.957031 C 181.160156 319.382812 185.90625 316.03125 188.730469 314.351562 C 191.929688 312.449219 192.980469 308.316406 191.074219 305.117188 C 189.171875 301.921875 185.035156 300.875 181.835938 302.773438 C 170.261719 309.660156 167.714844 317.410156 167.613281 322.703125 C 167.472656 330.199219 171.851562 335.273438 175.367188 339.355469 C 176.34375 340.488281 177.269531 341.554688 178 342.566406 C 179.234375 344.273438 179.890625 345.90625 179.753906 346.9375 C 179.597656 348.101562 178.34375 349.660156 177.015625 351.308594 C 176.632812 351.785156 176.25 352.261719 175.882812 352.738281 C 172.613281 356.96875 170.601562 361.128906 169.742188 365.460938 C 167.90625 374.671875 172.371094 383.65625 181.679688 389.496094 C 182.792969 390.195312 184.03125 390.527344 185.257812 390.527344 C 187.5 390.527344 189.691406 389.40625 190.972656 387.371094 C 192.949219 384.21875 192 380.058594 188.847656 378.082031 C 185.652344 376.078125 182.039062 372.71875 182.964844 368.089844 C 183.410156 365.847656 184.582031 363.519531 186.550781 360.976562 C 186.863281 360.570312 187.191406 360.164062 187.515625 359.757812 C 189.722656 357.019531 192.46875 353.613281 193.117188 348.707031 C 193.722656 344.15625 192.273438 339.300781 188.921875 334.671875 C 187.855469 333.195312 186.699219 331.855469 185.578125 330.554688 Z M 185.578125 330.554688 " fill-opacity="1" fill-rule="nonzero"/><path fill="#000000" d="M 153.09375 359.773438 C 155.757812 356.296875 159.78125 351.042969 158.636719 344.003906 C 157.660156 337.996094 154.050781 333.917969 151.148438 330.640625 C 149.183594 328.421875 147.484375 326.507812 147.019531 324.589844 C 146.089844 320.761719 150.332031 316.683594 154.25 314.351562 C 157.449219 312.449219 158.5 308.316406 156.597656 305.117188 C 154.691406 301.921875 150.558594 300.875 147.355469 302.773438 C 136.84375 309.027344 131.695312 318.605469 133.917969 327.765625 C 135.175781 332.9375 138.433594 336.617188 141.054688 339.574219 C 143.488281 342.320312 144.996094 344.109375 145.328125 346.160156 C 145.527344 347.375 144.292969 349.097656 142.386719 351.585938 C 141.957031 352.148438 141.53125 352.703125 141.128906 353.257812 C 138.449219 356.921875 134.882812 362.601562 134.820312 369.601562 C 134.757812 377.382812 139.152344 384.449219 147.203125 389.496094 C 148.3125 390.195312 149.554688 390.527344 150.777344 390.527344 C 153.019531 390.527344 155.214844 389.40625 156.492188 387.367188 C 158.472656 384.21875 157.519531 380.058594 154.367188 378.082031 C 151.582031 376.335938 148.269531 373.46875 148.300781 369.714844 C 148.320312 367.3125 149.46875 364.691406 152.015625 361.207031 C 152.359375 360.730469 152.726562 360.253906 153.09375 359.773438 Z M 153.09375 359.773438 " fill-opacity="1" fill-rule="nonzero"/><path fill="#000000" d="M 434.246094 331.449219 C 437.765625 327.371094 442.144531 322.296875 442 314.796875 C 441.902344 309.507812 439.355469 301.753906 427.78125 294.871094 C 424.582031 292.972656 420.445312 294.015625 418.539062 297.214844 C 416.636719 300.410156 417.6875 304.546875 420.886719 306.449219 C 423.710938 308.128906 428.457031 311.480469 428.523438 315.050781 C 428.5625 317.242188 426.855469 319.382812 424.035156 322.652344 C 422.917969 323.949219 421.761719 325.292969 420.691406 326.769531 C 417.34375 331.398438 415.894531 336.25 416.496094 340.800781 C 417.148438 345.707031 419.894531 349.117188 422.101562 351.855469 C 422.425781 352.261719 422.753906 352.664062 423.066406 353.070312 C 425.035156 355.613281 426.207031 357.945312 426.652344 360.1875 C 427.574219 364.816406 423.964844 368.175781 420.769531 370.175781 C 417.617188 372.152344 416.664062 376.3125 418.644531 379.464844 C 419.921875 381.503906 422.117188 382.621094 424.359375 382.621094 C 425.582031 382.621094 426.820312 382.289062 427.933594 381.589844 C 437.246094 375.75 441.707031 366.765625 439.875 357.558594 C 439.011719 353.226562 437.003906 349.066406 433.730469 344.828125 C 433.363281 344.351562 432.980469 343.878906 432.597656 343.40625 C 431.269531 341.757812 430.015625 340.199219 429.863281 339.03125 C 429.726562 338.003906 430.382812 336.371094 431.617188 334.660156 C 432.347656 333.652344 433.269531 332.582031 434.246094 331.449219 Z M 434.246094 331.449219 " fill-opacity="1" fill-rule="nonzero"/><path fill="#000000" d="M 475.695312 319.863281 C 477.921875 310.703125 472.773438 301.125 462.261719 294.871094 C 459.0625 292.972656 454.925781 294.019531 453.019531 297.214844 C 451.117188 300.410156 452.167969 304.546875 455.363281 306.449219 C 459.28125 308.777344 463.527344 312.855469 462.597656 316.683594 C 462.128906 318.605469 460.433594 320.519531 458.46875 322.738281 C 455.566406 326.011719 451.953125 330.089844 450.980469 336.097656 C 449.835938 343.136719 453.859375 348.394531 456.523438 351.871094 C 456.890625 352.351562 457.253906 352.828125 457.601562 353.304688 C 460.148438 356.785156 461.292969 359.410156 461.3125 361.8125 C 461.347656 365.761719 457.527344 368.746094 455.25 370.175781 C 452.097656 372.15625 451.144531 376.3125 453.121094 379.464844 C 454.402344 381.503906 456.597656 382.621094 458.839844 382.621094 C 460.0625 382.621094 461.300781 382.289062 462.414062 381.589844 C 470.464844 376.542969 474.859375 369.480469 474.792969 361.699219 C 474.734375 354.699219 471.167969 349.019531 468.488281 345.355469 C 468.082031 344.800781 467.65625 344.242188 467.230469 343.683594 C 465.324219 341.195312 464.089844 339.472656 464.285156 338.257812 C 464.621094 336.203125 466.128906 334.417969 468.5625 331.667969 C 471.179688 328.714844 474.441406 325.03125 475.695312 319.863281 Z M 475.695312 319.863281 " fill-opacity="1" fill-rule="nonzero"/><g fill="#364dff" fill-opacity="1"><g transform="translate(197.896853, 162.472512)"><g><path d="M 28.015625 -64.484375 C 34.878906 -64.484375 40.894531 -63.164062 46.0625 -60.53125 C 51.226562 -57.90625 55.21875 -54.132812 58.03125 -49.21875 C 60.84375 -44.300781 62.25 -38.566406 62.25 -32.015625 C 62.25 -25.453125 60.84375 -19.757812 58.03125 -14.9375 C 55.21875 -10.113281 51.226562 -6.414062 46.0625 -3.84375 C 40.894531 -1.28125 34.878906 0 28.015625 0 L 6.953125 0 L 6.953125 -64.484375 Z M 28.015625 -8.625 C 35.566406 -8.625 41.351562 -10.664062 45.375 -14.75 C 49.394531 -18.832031 51.40625 -24.585938 51.40625 -32.015625 C 51.40625 -39.492188 49.394531 -45.335938 45.375 -49.546875 C 41.351562 -53.753906 35.566406 -55.859375 28.015625 -55.859375 L 17.53125 -55.859375 L 17.53125 -8.625 Z M 28.015625 -8.625 "/></g></g></g><g fill="#364dff" fill-opacity="1"><g transform="translate(263.667682, 162.472512)"><g><path d="M 12.34375 -57.890625 C 10.425781 -57.890625 8.816406 -58.539062 7.515625 -59.84375 C 6.210938 -61.144531 5.5625 -62.753906 5.5625 -64.671875 C 5.5625 -66.585938 6.210938 -68.191406 7.515625 -69.484375 C 8.816406 -70.785156 10.425781 -71.4375 12.34375 -71.4375 C 14.195312 -71.4375 15.769531 -70.785156 17.0625 -69.484375 C 18.363281 -68.191406 19.015625 -66.585938 19.015625 -64.671875 C 19.015625 -62.753906 18.363281 -61.144531 17.0625 -59.84375 C 15.769531 -58.539062 14.195312 -57.890625 12.34375 -57.890625 Z M 17.53125 -51.125 L 17.53125 0 L 6.953125 0 L 6.953125 -51.125 Z M 17.53125 -51.125 "/></g></g></g><g fill="#364dff" fill-opacity="1"><g transform="translate(288.157808, 162.472512)"><g><path d="M 25.515625 0.828125 C 21.492188 0.828125 17.890625 0.101562 14.703125 -1.34375 C 11.515625 -2.800781 8.992188 -4.78125 7.140625 -7.28125 C 5.285156 -9.789062 4.296875 -12.59375 4.171875 -15.6875 L 15.125 -15.6875 C 15.3125 -13.519531 16.347656 -11.707031 18.234375 -10.25 C 20.117188 -8.800781 22.484375 -8.078125 25.328125 -8.078125 C 28.296875 -8.078125 30.597656 -8.644531 32.234375 -9.78125 C 33.878906 -10.925781 34.703125 -12.398438 34.703125 -14.203125 C 34.703125 -16.117188 33.785156 -17.539062 31.953125 -18.46875 C 30.128906 -19.394531 27.238281 -20.414062 23.28125 -21.53125 C 19.445312 -22.582031 16.320312 -23.601562 13.90625 -24.59375 C 11.5 -25.582031 9.414062 -27.09375 7.65625 -29.125 C 5.894531 -31.164062 5.015625 -33.859375 5.015625 -37.203125 C 5.015625 -39.921875 5.816406 -42.410156 7.421875 -44.671875 C 9.023438 -46.929688 11.328125 -48.707031 14.328125 -50 C 17.328125 -51.300781 20.78125 -51.953125 24.6875 -51.953125 C 30.5 -51.953125 35.179688 -50.484375 38.734375 -47.546875 C 42.296875 -44.609375 44.195312 -40.601562 44.4375 -35.53125 L 33.859375 -35.53125 C 33.679688 -37.820312 32.753906 -39.644531 31.078125 -41 C 29.410156 -42.363281 27.15625 -43.046875 24.3125 -43.046875 C 21.53125 -43.046875 19.394531 -42.519531 17.90625 -41.46875 C 16.425781 -40.414062 15.6875 -39.023438 15.6875 -37.296875 C 15.6875 -35.929688 16.179688 -34.785156 17.171875 -33.859375 C 18.160156 -32.929688 19.363281 -32.203125 20.78125 -31.671875 C 22.207031 -31.148438 24.3125 -30.488281 27.09375 -29.6875 C 30.800781 -28.695312 33.84375 -27.691406 36.21875 -26.671875 C 38.601562 -25.648438 40.660156 -24.148438 42.390625 -22.171875 C 44.128906 -20.191406 45.03125 -17.5625 45.09375 -14.28125 C 45.09375 -11.375 44.285156 -8.773438 42.671875 -6.484375 C 41.066406 -4.203125 38.796875 -2.410156 35.859375 -1.109375 C 32.921875 0.179688 29.472656 0.828125 25.515625 0.828125 Z M 25.515625 0.828125 "/></g></g></g><g fill="#364dff" fill-opacity="1"><g transform="translate(337.694655, 162.472512)"><g><path d="M 19.296875 -42.5 L 19.296875 -14.203125 C 19.296875 -12.273438 19.742188 -10.894531 20.640625 -10.0625 C 21.535156 -9.226562 23.066406 -8.8125 25.234375 -8.8125 L 31.734375 -8.8125 L 31.734375 0 L 23.375 0 C 18.613281 0 14.960938 -1.113281 12.421875 -3.34375 C 9.890625 -5.570312 8.625 -9.191406 8.625 -14.203125 L 8.625 -42.5 L 2.59375 -42.5 L 2.59375 -51.125 L 8.625 -51.125 L 8.625 -63.828125 L 19.296875 -63.828125 L 19.296875 -51.125 L 31.734375 -51.125 L 31.734375 -42.5 Z M 19.296875 -42.5 "/></g></g></g><g fill="#364dff" fill-opacity="1"><g transform="translate(372.203466, 162.472512)"><g><path d="M 17.53125 -43.703125 C 19.082031 -46.296875 21.140625 -48.316406 23.703125 -49.765625 C 26.273438 -51.222656 29.320312 -51.953125 32.84375 -51.953125 L 32.84375 -41.015625 L 30.15625 -41.015625 C 26.007812 -41.015625 22.867188 -39.960938 20.734375 -37.859375 C 18.597656 -35.753906 17.53125 -32.101562 17.53125 -26.90625 L 17.53125 0 L 6.953125 0 L 6.953125 -51.125 L 17.53125 -51.125 Z M 17.53125 -43.703125 "/></g></g></g><g fill="#364dff" fill-opacity="1"><g transform="translate(407.825477, 162.472512)"><g><path d="M 53.25 -51.125 L 53.25 0 L 42.671875 0 L 42.671875 -6.03125 C 41.003906 -3.925781 38.828125 -2.269531 36.140625 -1.0625 C 33.453125 0.144531 30.59375 0.75 27.5625 0.75 C 23.539062 0.75 19.9375 -0.0820312 16.75 -1.75 C 13.5625 -3.425781 11.054688 -5.90625 9.234375 -9.1875 C 7.410156 -12.46875 6.5 -16.425781 6.5 -21.0625 L 6.5 -51.125 L 16.984375 -51.125 L 16.984375 -22.640625 C 16.984375 -18.054688 18.125 -14.539062 20.40625 -12.09375 C 22.695312 -9.65625 25.820312 -8.4375 29.78125 -8.4375 C 33.738281 -8.4375 36.875 -9.65625 39.1875 -12.09375 C 41.507812 -14.539062 42.671875 -18.054688 42.671875 -22.640625 L 42.671875 -51.125 Z M 53.25 -51.125 "/></g></g></g><g fill="#364dff" fill-opacity="1"><g transform="translate(468.030368, 162.472512)"><g><path d="M 25.515625 0.828125 C 21.492188 0.828125 17.890625 0.101562 14.703125 -1.34375 C 11.515625 -2.800781 8.992188 -4.78125 7.140625 -7.28125 C 5.285156 -9.789062 4.296875 -12.59375 4.171875 -15.6875 L 15.125 -15.6875 C 15.3125 -13.519531 16.347656 -11.707031 18.234375 -10.25 C 20.117188 -8.800781 22.484375 -8.078125 25.328125 -8.078125 C 28.296875 -8.078125 30.597656 -8.644531 32.234375 -9.78125 C 33.878906 -10.925781 34.703125 -12.398438 34.703125 -14.203125 C 34.703125 -16.117188 33.785156 -17.539062 31.953125 -18.46875 C 30.128906 -19.394531 27.238281 -20.414062 23.28125 -21.53125 C 19.445312 -22.582031 16.320312 -23.601562 13.90625 -24.59375 C 11.5 -25.582031 9.414062 -27.09375 7.65625 -29.125 C 5.894531 -31.164062 5.015625 -33.859375 5.015625 -37.203125 C 5.015625 -39.921875 5.816406 -42.410156 7.421875 -44.671875 C 9.023438 -46.929688 11.328125 -48.707031 14.328125 -50 C 17.328125 -51.300781 20.78125 -51.953125 24.6875 -51.953125 C 30.5 -51.953125 35.179688 -50.484375 38.734375 -47.546875 C 42.296875 -44.609375 44.195312 -40.601562 44.4375 -35.53125 L 33.859375 -35.53125 C 33.679688 -37.820312 32.753906 -39.644531 31.078125 -41 C 29.410156 -42.363281 27.15625 -43.046875 24.3125 -43.046875 C 21.53125 -43.046875 19.394531 -42.519531 17.90625 -41.46875 C 16.425781 -40.414062 15.6875 -39.023438 15.6875 -37.296875 C 15.6875 -35.929688 16.179688 -34.785156 17.171875 -33.859375 C 18.160156 -32.929688 19.363281 -32.203125 20.78125 -31.671875 C 22.207031 -31.148438 24.3125 -30.488281 27.09375 -29.6875 C 30.800781 -28.695312 33.84375 -27.691406 36.21875 -26.671875 C 38.601562 -25.648438 40.660156 -24.148438 42.390625 -22.171875 C 44.128906 -20.191406 45.03125 -17.5625 45.09375 -14.28125 C 45.09375 -11.375 44.285156 -8.773438 42.671875 -6.484375 C 41.066406 -4.203125 38.796875 -2.410156 35.859375 -1.109375 C 32.921875 0.179688 29.472656 0.828125 25.515625 0.828125 Z M 25.515625 0.828125 "/></g></g></g><g fill="#364dff" fill-opacity="1"><g transform="translate(517.567216, 162.472512)"><g><path d="M 19.296875 -42.5 L 19.296875 -14.203125 C 19.296875 -12.273438 19.742188 -10.894531 20.640625 -10.0625 C 21.535156 -9.226562 23.066406 -8.8125 25.234375 -8.8125 L 31.734375 -8.8125 L 31.734375 0 L 23.375 0 C 18.613281 0 14.960938 -1.113281 12.421875 -3.34375 C 9.890625 -5.570312 8.625 -9.191406 8.625 -14.203125 L 8.625 -42.5 L 2.59375 -42.5 L 2.59375 -51.125 L 8.625 -51.125 L 8.625 -63.828125 L 19.296875 -63.828125 L 19.296875 -51.125 L 31.734375 -51.125 L 31.734375 -42.5 Z M 19.296875 -42.5 "/></g></g></g></svg>