<svg xmlns="http://www.w3.org/2000/svg" xmlns:xlink="http://www.w3.org/1999/xlink" width="1000" zoomAndPan="magnify" viewBox="0 0 750 749.999995" height="1000" preserveAspectRatio="xMidYMid meet" version="1.0"><defs><g/><clipPath id="85bfc233c4"><path d="M 236 207 L 519.597656 207 L 519.597656 675.1875 L 236 675.1875 Z M 236 207 " clip-rule="nonzero"/></clipPath></defs><g clip-path="url(#85bfc233c4)"><path fill="#000000" d="M 406.589844 405.542969 C 407.777344 406.457031 408.050781 408.195312 407.046875 409.476562 C 406.132812 410.664062 404.398438 410.847656 403.210938 409.933594 C 380.832031 392.371094 362.199219 413.957031 361.378906 414.964844 C 359.09375 417.707031 354.800781 414.140625 357.175781 411.394531 C 357.265625 411.121094 379.917969 384.777344 406.589844 405.542969 Z M 406.953125 349.472656 C 412.800781 349.472656 419.652344 347.277344 426.773438 340.417969 C 427.871094 339.320312 427.871094 337.582031 426.867188 336.484375 C 425.769531 335.386719 424.035156 335.386719 422.9375 336.394531 C 407.6875 351.121094 394.714844 339.777344 394.167969 339.230469 C 391.609375 336.757812 387.773438 340.964844 390.421875 343.34375 C 390.515625 343.4375 397.273438 349.472656 406.953125 349.472656 Z M 519.390625 529.847656 L 519.210938 672.351562 C 519.300781 673.90625 517.929688 675.09375 516.46875 675.09375 L 263.1875 674.820312 C 243.460938 675.1875 230.308594 653.234375 238.527344 635.03125 L 248.757812 610.886719 L 248.847656 529.480469 C 248.847656 510.089844 259.078125 491.886719 275.519531 481.734375 L 276.433594 303.738281 C 269.855469 251.421875 319.910156 205.6875 371.699219 207.332031 C 419.195312 207.425781 458.46875 240.167969 463.035156 283.523438 C 462.945312 283.800781 468.515625 306.757812 468.332031 307.03125 L 503.316406 463.347656 C 505.050781 471.308594 501.214844 479.171875 494.367188 482.742188 C 496.191406 483.929688 497.925781 485.300781 499.570312 486.671875 C 512.175781 497.558594 519.390625 513.199219 519.390625 529.847656 Z M 432.984375 564.054688 L 432.984375 590.304688 C 432.894531 599.085938 440.109375 606.3125 448.878906 606.3125 C 448.878906 606.3125 466.871094 606.402344 466.871094 606.3125 C 475.640625 606.3125 482.765625 599.179688 482.855469 590.398438 L 482.855469 564.144531 Z M 303.285156 362.734375 C 305.296875 381.304688 307.394531 399.503906 309.132812 402.890625 C 316.074219 414.78125 326.851562 432.890625 343.382812 442.859375 C 345.574219 444.050781 347.492188 445.511719 349.046875 447.433594 C 349.960938 448.347656 350.691406 449.445312 351.421875 450.636719 C 401.929688 472.585938 459.199219 429.597656 452.53125 374.808594 L 444.859375 305.113281 C 415.449219 302.367188 388.414062 285.996094 381.105469 281.148438 C 365.761719 295.234375 310.59375 316.726562 298.992188 321.210938 C 299.632812 325.417969 301.367188 344.167969 303.285156 362.734375 Z M 342.746094 499.113281 C 362.472656 544.664062 430.429688 528.199219 427.324219 478.625 C 421.019531 477.800781 415.632812 472.679688 414.445312 466.460938 C 413.898438 464.445312 414.261719 456.03125 414.171875 453.835938 C 395.628906 462.984375 373.523438 464.265625 353.980469 457.496094 C 355.621094 465.363281 351.695312 472.769531 349.320312 480.085938 C 347.128906 486.398438 344.9375 492.800781 342.746094 499.113281 Z M 284.835938 653.050781 L 292.324219 631.101562 C 292.417969 630.917969 337.171875 498.382812 337.171875 498.289062 L 342.46875 482.375 C 344.664062 476.796875 346.855469 470.941406 348.40625 465.085938 C 349.960938 458.226562 346.945312 450.910156 340.734375 447.527344 C 323.105469 437.464844 312.238281 418.164062 303.378906 404.445312 C 300.363281 401.152344 294.519531 405.175781 296.527344 409.292969 C 298.445312 418.164062 302.554688 434.261719 308.765625 440.390625 C 312.238281 443.5 315.25 450.085938 314.976562 460.148438 C 315.160156 467.832031 312.875 473.960938 311.414062 476.976562 C 311.414062 476.976562 243.734375 636.953125 243.734375 637.046875 C 235.605469 654.515625 252.320312 674.457031 270.222656 667.960938 C 276.980469 665.855469 282.460938 660.371094 284.835938 653.050781 Z M 340.1875 357.339844 C 346.03125 357.339844 352.882812 355.234375 360.007812 348.285156 C 361.101562 347.1875 361.101562 345.449219 360.097656 344.351562 C 359.003906 343.253906 357.265625 343.253906 356.171875 344.257812 C 340.917969 358.984375 327.949219 347.644531 327.398438 347.09375 C 326.304688 346.089844 324.476562 346.179688 323.472656 347.277344 C 322.46875 348.375 322.558594 350.203125 323.65625 351.210938 C 323.835938 351.300781 330.503906 357.339844 340.1875 357.339844 Z M 340.1875 357.339844 " fill-opacity="1" fill-rule="nonzero"/></g><g fill="#364dff" fill-opacity="1"><g transform="translate(195.529666, 162.472512)"><g><path d="M 59.9375 0 L 49.359375 0 L 17.53125 -48.15625 L 17.53125 0 L 6.953125 0 L 6.953125 -64.578125 L 17.53125 -64.578125 L 49.359375 -16.515625 L 49.359375 -64.578125 L 59.9375 -64.578125 Z M 59.9375 0 "/></g></g></g><g fill="#364dff" fill-opacity="1"><g transform="translate(262.413685, 162.472512)"><g><path d="M 53.8125 -26.8125 C 53.8125 -24.894531 53.6875 -23.164062 53.4375 -21.625 L 14.375 -21.625 C 14.6875 -17.539062 16.203125 -14.257812 18.921875 -11.78125 C 21.648438 -9.3125 24.992188 -8.078125 28.953125 -8.078125 C 34.640625 -8.078125 38.660156 -10.457031 41.015625 -15.21875 L 52.421875 -15.21875 C 50.878906 -10.519531 48.082031 -6.671875 44.03125 -3.671875 C 39.976562 -0.671875 34.953125 0.828125 28.953125 0.828125 C 24.066406 0.828125 19.6875 -0.265625 15.8125 -2.453125 C 11.945312 -4.648438 8.914062 -7.742188 6.71875 -11.734375 C 4.53125 -15.722656 3.4375 -20.347656 3.4375 -25.609375 C 3.4375 -30.867188 4.5 -35.492188 6.625 -39.484375 C 8.757812 -43.472656 11.757812 -46.546875 15.625 -48.703125 C 19.5 -50.867188 23.941406 -51.953125 28.953125 -51.953125 C 33.773438 -51.953125 38.070312 -50.898438 41.84375 -48.796875 C 45.613281 -46.691406 48.550781 -43.738281 50.65625 -39.9375 C 52.757812 -36.132812 53.8125 -31.757812 53.8125 -26.8125 Z M 42.765625 -30.15625 C 42.703125 -34.050781 41.3125 -37.171875 38.59375 -39.515625 C 35.875 -41.867188 32.503906 -43.046875 28.484375 -43.046875 C 24.835938 -43.046875 21.710938 -41.882812 19.109375 -39.5625 C 16.515625 -37.25 14.96875 -34.113281 14.46875 -30.15625 Z M 42.765625 -30.15625 "/></g></g></g><g fill="#364dff" fill-opacity="1"><g transform="translate(319.650071, 162.472512)"><g><path d="M 27.5625 -51.953125 C 31.519531 -51.953125 35.023438 -51.160156 38.078125 -49.578125 C 41.140625 -48.003906 43.539062 -46.046875 45.28125 -43.703125 L 45.28125 -51.125 L 55.953125 -51.125 L 55.953125 0.828125 C 55.953125 5.535156 54.960938 9.726562 52.984375 13.40625 C 51.003906 17.082031 48.140625 19.972656 44.390625 22.078125 C 40.648438 24.179688 36.179688 25.234375 30.984375 25.234375 C 24.054688 25.234375 18.300781 23.609375 13.71875 20.359375 C 9.144531 17.117188 6.550781 12.710938 5.9375 7.140625 L 16.421875 7.140625 C 17.222656 9.804688 18.9375 11.957031 21.5625 13.59375 C 24.195312 15.226562 27.335938 16.046875 30.984375 16.046875 C 35.253906 16.046875 38.703125 14.742188 41.328125 12.140625 C 43.960938 9.546875 45.28125 5.773438 45.28125 0.828125 L 45.28125 -7.703125 C 43.488281 -5.285156 41.0625 -3.257812 38 -1.625 C 34.9375 0.0078125 31.457031 0.828125 27.5625 0.828125 C 23.101562 0.828125 19.03125 -0.296875 15.34375 -2.546875 C 11.664062 -4.804688 8.757812 -7.960938 6.625 -12.015625 C 4.5 -16.066406 3.4375 -20.660156 3.4375 -25.796875 C 3.4375 -30.929688 4.5 -35.476562 6.625 -39.4375 C 8.757812 -43.394531 11.664062 -46.46875 15.34375 -48.65625 C 19.03125 -50.851562 23.101562 -51.953125 27.5625 -51.953125 Z M 45.28125 -25.609375 C 45.28125 -29.128906 44.550781 -32.1875 43.09375 -34.78125 C 41.644531 -37.382812 39.742188 -39.363281 37.390625 -40.71875 C 35.035156 -42.082031 32.5 -42.765625 29.78125 -42.765625 C 27.0625 -42.765625 24.523438 -42.097656 22.171875 -40.765625 C 19.828125 -39.441406 17.925781 -37.492188 16.46875 -34.921875 C 15.007812 -32.359375 14.28125 -29.316406 14.28125 -25.796875 C 14.28125 -22.265625 15.007812 -19.171875 16.46875 -16.515625 C 17.925781 -13.859375 19.84375 -11.832031 22.21875 -10.4375 C 24.601562 -9.039062 27.125 -8.34375 29.78125 -8.34375 C 32.5 -8.34375 35.035156 -9.023438 37.390625 -10.390625 C 39.742188 -11.753906 41.644531 -13.75 43.09375 -16.375 C 44.550781 -19 45.28125 -22.078125 45.28125 -25.609375 Z M 45.28125 -25.609375 "/></g></g></g><g fill="#364dff" fill-opacity="1"><g transform="translate(382.545161, 162.472512)"><g><path d="M 17.53125 -68.65625 L 17.53125 0 L 6.953125 0 L 6.953125 -68.65625 Z M 17.53125 -68.65625 "/></g></g></g><g fill="#364dff" fill-opacity="1"><g transform="translate(407.035287, 162.472512)"><g><path d="M 53.8125 -26.8125 C 53.8125 -24.894531 53.6875 -23.164062 53.4375 -21.625 L 14.375 -21.625 C 14.6875 -17.539062 16.203125 -14.257812 18.921875 -11.78125 C 21.648438 -9.3125 24.992188 -8.078125 28.953125 -8.078125 C 34.640625 -8.078125 38.660156 -10.457031 41.015625 -15.21875 L 52.421875 -15.21875 C 50.878906 -10.519531 48.082031 -6.671875 44.03125 -3.671875 C 39.976562 -0.671875 34.953125 0.828125 28.953125 0.828125 C 24.066406 0.828125 19.6875 -0.265625 15.8125 -2.453125 C 11.945312 -4.648438 8.914062 -7.742188 6.71875 -11.734375 C 4.53125 -15.722656 3.4375 -20.347656 3.4375 -25.609375 C 3.4375 -30.867188 4.5 -35.492188 6.625 -39.484375 C 8.757812 -43.472656 11.757812 -46.546875 15.625 -48.703125 C 19.5 -50.867188 23.941406 -51.953125 28.953125 -51.953125 C 33.773438 -51.953125 38.070312 -50.898438 41.84375 -48.796875 C 45.613281 -46.691406 48.550781 -43.738281 50.65625 -39.9375 C 52.757812 -36.132812 53.8125 -31.757812 53.8125 -26.8125 Z M 42.765625 -30.15625 C 42.703125 -34.050781 41.3125 -37.171875 38.59375 -39.515625 C 35.875 -41.867188 32.503906 -43.046875 28.484375 -43.046875 C 24.835938 -43.046875 21.710938 -41.882812 19.109375 -39.5625 C 16.515625 -37.25 14.96875 -34.113281 14.46875 -30.15625 Z M 42.765625 -30.15625 "/></g></g></g><g fill="#364dff" fill-opacity="1"><g transform="translate(464.271673, 162.472512)"><g><path d="M 3.4375 -25.609375 C 3.4375 -30.867188 4.5 -35.492188 6.625 -39.484375 C 8.757812 -43.472656 11.710938 -46.546875 15.484375 -48.703125 C 19.265625 -50.867188 23.597656 -51.953125 28.484375 -51.953125 C 34.671875 -51.953125 39.789062 -50.484375 43.84375 -47.546875 C 47.894531 -44.609375 50.628906 -40.421875 52.046875 -34.984375 L 40.640625 -34.984375 C 39.710938 -37.515625 38.226562 -39.488281 36.1875 -40.90625 C 34.144531 -42.332031 31.578125 -43.046875 28.484375 -43.046875 C 24.148438 -43.046875 20.695312 -41.515625 18.125 -38.453125 C 15.5625 -35.390625 14.28125 -31.109375 14.28125 -25.609375 C 14.28125 -20.097656 15.5625 -15.796875 18.125 -12.703125 C 20.695312 -9.617188 24.148438 -8.078125 28.484375 -8.078125 C 34.609375 -8.078125 38.660156 -10.765625 40.640625 -16.140625 L 52.046875 -16.140625 C 50.566406 -10.941406 47.785156 -6.8125 43.703125 -3.75 C 39.617188 -0.695312 34.546875 0.828125 28.484375 0.828125 C 23.597656 0.828125 19.265625 -0.265625 15.484375 -2.453125 C 11.710938 -4.648438 8.757812 -7.742188 6.625 -11.734375 C 4.5 -15.722656 3.4375 -20.347656 3.4375 -25.609375 Z M 3.4375 -25.609375 "/></g></g></g><g fill="#364dff" fill-opacity="1"><g transform="translate(519.931064, 162.472512)"><g><path d="M 19.296875 -42.5 L 19.296875 -14.203125 C 19.296875 -12.273438 19.742188 -10.894531 20.640625 -10.0625 C 21.535156 -9.226562 23.066406 -8.8125 25.234375 -8.8125 L 31.734375 -8.8125 L 31.734375 0 L 23.375 0 C 18.613281 0 14.960938 -1.113281 12.421875 -3.34375 C 9.890625 -5.570312 8.625 -9.191406 8.625 -14.203125 L 8.625 -42.5 L 2.59375 -42.5 L 2.59375 -51.125 L 8.625 -51.125 L 8.625 -63.828125 L 19.296875 -63.828125 L 19.296875 -51.125 L 31.734375 -51.125 L 31.734375 -42.5 Z M 19.296875 -42.5 "/></g></g></g></svg>