<svg xmlns="http://www.w3.org/2000/svg" xmlns:xlink="http://www.w3.org/1999/xlink" width="1000" zoomAndPan="magnify" viewBox="0 0 750 749.999995" height="1000" preserveAspectRatio="xMidYMid meet" version="1.0"><defs><g/></defs><rect x="-75" width="900" fill="#ffffff" y="-74.999999" height="899.999994" fill-opacity="1"/><rect x="-75" width="900" fill="#ffffff" y="-74.999999" height="899.999994" fill-opacity="1"/><path fill="#000000" d="M 279.675781 224.253906 C 282.757812 227.046875 287.625 235.867188 287.625 238.578125 C 287.625 240.445312 285.757812 241.449219 284.398438 240.363281 C 282.613281 238.855469 274.015625 225.3125 273.789062 223.738281 C 273.5 221.015625 276.371094 221.226562 279.664062 224.242188 Z M 279.675781 224.253906 " fill-opacity="1" fill-rule="nonzero"/><path fill="#000000" d="M 536.722656 233.710938 C 538.652344 234.425781 537.648438 237.507812 534.566406 240.523438 C 525.175781 249.832031 514.503906 258.285156 512.152344 258.285156 C 510.855469 258.285156 510.363281 256.207031 511.226562 254.488281 C 512.375 252.414062 524.980469 239.4375 529.277344 236 C 532.503906 233.421875 534.5 232.773438 536.722656 233.710938 Z M 536.722656 233.710938 " fill-opacity="1" fill-rule="nonzero"/><path fill="#000000" d="M 375.746094 234.003906 C 387.355469 234.71875 391.933594 235.722656 407.261719 241.316406 C 423.882812 247.398438 443.800781 263.601562 454.753906 280.066406 C 465.636719 296.253906 470.292969 307.933594 473.808594 327.492188 C 474.816406 333.085938 474.816406 347.554688 473.808594 353.136719 C 472.449219 360.726562 468.863281 373.121094 466.640625 377.921875 C 461.046875 389.890625 449.515625 403.777344 437.917969 412.597656 L 432.402344 416.683594 L 445.152344 429.367188 C 457.253906 441.402344 467.144531 452.285156 473.808594 461.027344 C 494.019531 487.320312 500.3125 496.710938 510.707031 515.835938 C 517.230469 527.722656 517.796875 529.085938 519.160156 534.8125 C 520.523438 540.539062 520.085938 543.050781 517.375 544.984375 C 515.296875 546.492188 514.359375 546.636719 507.125 546.558594 C 502.761719 546.492188 496.808594 545.910156 493.875 545.339844 C 490.9375 544.691406 484.707031 543.554688 479.972656 542.695312 C 475.238281 541.902344 469.089844 540.617188 466.363281 539.824219 C 463.574219 539.109375 457.332031 537.539062 452.398438 536.320312 C 442.585938 534.03125 427.535156 529.800781 423.671875 528.226562 C 422.050781 527.554688 420.59375 528.128906 419.308594 529.945312 C 412.496094 539.257812 398.824219 539.546875 389.074219 530.515625 C 387.289062 528.796875 385.78125 527.644531 385.78125 527.789062 C 385.78125 528.226562 389.578125 547.140625 392.238281 559.886719 C 396.46875 580.164062 396.324219 577.4375 393.03125 582.238281 L 390.09375 586.472656 L 390.09375 615.488281 C 390.09375 638.765625 390.304688 644.925781 391.097656 646.792969 C 392.460938 649.808594 410.660156 672.4375 419.175781 681.679688 C 423.050781 685.832031 430.921875 696.082031 430.921875 697.007812 C 430.921875 697.367188 431.992188 698.726562 433.289062 699.945312 C 434.648438 701.242188 435.722656 701.875 435.722656 701.304688 C 435.722656 700.804688 435.285156 700.234375 434.714844 700.011719 C 434.214844 699.800781 433.789062 699.21875 433.789062 698.792969 C 433.789062 698.226562 434.082031 698.226562 434.863281 698.859375 C 435.429688 699.296875 436.222656 699.507812 436.648438 699.21875 C 437.148438 698.925781 437.296875 699.363281 437.082031 700.511719 C 436.871094 701.585938 437.148438 702.230469 437.796875 702.230469 C 438.300781 702.230469 438.589844 701.941406 438.367188 701.664062 C 438.222656 701.371094 438.511719 700.949219 438.933594 700.804688 C 439.648438 700.511719 439.648438 700.367188 438.933594 700.367188 C 438.5 700.300781 438.074219 700.011719 438.074219 699.652344 C 438.074219 699.21875 438.789062 699.085938 439.648438 699.21875 C 440.507812 699.429688 441.582031 699.21875 442.082031 698.78125 C 442.796875 698.210938 442.941406 698.34375 442.730469 699.496094 C 442.585938 700.5 442.796875 700.789062 443.523438 700.5 C 444.027344 700.289062 444.316406 699.851562 444.09375 699.496094 C 443.867188 699.136719 444.304688 698.847656 445.019531 698.78125 C 445.734375 698.78125 446.882812 698.636719 447.53125 698.488281 C 448.535156 698.34375 448.601562 698.554688 448.101562 699.996094 C 447.597656 701.214844 447.664062 701.714844 448.246094 701.714844 C 449.609375 701.714844 448.179688 702.722656 446.460938 702.933594 C 445.242188 703.078125 445.097656 703 445.957031 702.429688 C 446.527344 702.074219 446.75 701.714844 446.394531 701.714844 C 446.035156 701.714844 446.183594 701.214844 446.683594 700.644531 C 447.1875 699.996094 447.398438 699.347656 447.121094 699.070312 C 446.910156 698.859375 446.683594 699.003906 446.683594 699.507812 C 446.683594 700.011719 446.328125 700.15625 445.972656 699.945312 C 445.535156 699.652344 445.324219 699.878906 445.402344 700.445312 C 445.546875 700.949219 445.191406 701.304688 444.6875 701.160156 C 444.25 701.09375 443.828125 701.453125 443.828125 701.953125 C 443.828125 702.667969 442.109375 702.878906 436.660156 702.960938 C 432.71875 702.960938 429.492188 702.75 429.492188 702.390625 C 429.492188 702.035156 430.417969 701.953125 431.648438 702.246094 C 432.796875 702.457031 433.804688 702.3125 433.804688 701.953125 C 433.804688 701.027344 429.003906 701.386719 427.71875 702.457031 C 426.292969 703.675781 425.285156 703.753906 405.726562 704.175781 C 396.5625 704.386719 389.246094 704.242188 389.035156 703.886719 C 388.824219 703.527344 387.027344 703.382812 385.09375 703.527344 C 381.722656 703.738281 380.863281 703.382812 382.011719 702.230469 C 382.226562 701.941406 382.9375 702.167969 383.585938 702.589844 C 384.234375 703.09375 384.511719 703.238281 384.234375 702.878906 C 383.957031 702.523438 384.234375 701.808594 384.804688 701.226562 C 385.371094 700.578125 385.664062 699.929688 385.453125 699.652344 C 385.160156 699.441406 384.660156 699.800781 384.300781 700.511719 C 383.863281 701.160156 383.230469 701.585938 382.871094 701.371094 C 382.515625 701.082031 382.371094 700.578125 382.582031 700.222656 C 382.871094 699.863281 382.648438 699.574219 382.226562 699.574219 C 381.800781 699.574219 381.511719 700.078125 381.65625 700.726562 C 381.800781 701.4375 381.445312 702.085938 380.863281 702.296875 C 380.148438 702.511719 380.003906 702.296875 380.292969 701.4375 C 380.585938 700.726562 380.796875 699.71875 380.796875 699.152344 C 380.796875 698.355469 381.085938 698.292969 382.160156 698.859375 C 384.089844 699.863281 383.945312 699.929688 387.382812 696.492188 C 391.113281 692.695312 396.628906 690.476562 404.789062 689.402344 C 412.882812 688.332031 412.816406 688.398438 410.59375 686.175781 C 408.808594 684.390625 393.042969 665.253906 388.242188 659.089844 C 387.027344 657.515625 384.871094 654.289062 383.585938 651.921875 L 381.152344 647.625 L 380.941406 622.402344 L 380.730469 597.183594 L 376.722656 601.628906 C 368.417969 610.9375 366.910156 611.585938 362.679688 607.855469 L 360.246094 605.78125 L 358.523438 608.714844 C 357.597656 610.367188 356.304688 612.511719 355.734375 613.515625 C 354.730469 615.234375 350.429688 622.402344 341.410156 637.585938 C 332.960938 651.699219 332.882812 652.347656 337.046875 670.542969 C 340.273438 684.65625 343.777344 699.058594 344.070312 699.480469 C 344.136719 699.625 344.785156 699.480469 345.5 699.191406 C 347.929688 698.121094 348.289062 698.265625 348.011719 700.261719 C 347.800781 701.769531 348.078125 702.273438 349.226562 702.628906 C 350.085938 702.839844 350.734375 702.695312 350.734375 702.417969 C 350.734375 701.703125 352.164062 701.847656 353.378906 702.628906 C 353.882812 702.984375 354.304688 702.921875 354.304688 702.484375 C 354.304688 702.125 354.875 701.914062 355.523438 701.980469 C 357.242188 702.273438 359.464844 700.195312 358.605469 699.191406 C 358.101562 698.542969 358.539062 698.332031 360.257812 698.332031 C 362.1875 698.265625 362.335938 698.398438 361.117188 698.898438 C 360.046875 699.402344 360.324219 699.46875 362.332031 699.257812 C 363.839844 699.109375 364.847656 699.257812 364.621094 699.613281 C 364.398438 699.972656 364.6875 700.261719 365.335938 700.261719 C 365.90625 700.261719 366.488281 699.824219 366.632812 699.335938 C 366.84375 698.898438 367.847656 698.476562 368.855469 698.476562 C 370.863281 698.410156 371.433594 699.191406 369.859375 699.773438 C 369.421875 699.917969 369.289062 700.339844 369.566406 700.699219 C 369.925781 701.054688 370.640625 700.699219 371.289062 699.90625 C 372 698.996094 372.265625 699.164062 372.082031 700.40625 C 371.871094 701.558594 372.015625 702.417969 372.371094 702.417969 C 372.730469 702.417969 372.808594 702.773438 372.582031 703.210938 C 372.226562 703.648438 371.722656 703.5 371.074219 702.640625 C 370.214844 701.425781 370.148438 701.425781 370.070312 702.578125 C 370.070312 703.289062 369.503906 703.871094 368.773438 703.871094 C 367.769531 703.871094 367.703125 703.726562 368.628906 703.15625 C 369.421875 702.65625 369.421875 702.445312 368.773438 702.445312 C 368.273438 702.445312 368.058594 702.085938 368.339844 701.585938 C 368.628906 701.148438 368.550781 701.015625 368.046875 701.292969 C 367.691406 701.503906 367.121094 701.292969 366.898438 700.855469 C 366.683594 700.355469 366.683594 700.789062 366.898438 701.78125 C 367.253906 703.503906 367.109375 703.714844 365.535156 703.566406 C 363.816406 703.503906 363.816406 703.421875 364.820312 702.207031 C 366.472656 700.488281 364.886719 700.699219 362.957031 702.496094 C 361.855469 703.546875 361.449219 703.566406 361.738281 702.5625 C 362.308594 700.84375 361.449219 700.128906 360.019531 701.054688 C 359.304688 701.492188 359.226562 701.703125 359.808594 701.703125 C 360.308594 701.703125 360.734375 702.273438 360.734375 702.921875 C 360.734375 703.925781 360.589844 703.992188 360.085938 703.210938 C 359.582031 702.429688 359.4375 702.417969 359.082031 703.210938 C 358.789062 703.925781 358.644531 703.925781 358.644531 703.277344 C 358.578125 701.914062 357.136719 702.273438 357.136719 703.632812 C 357.136719 704.425781 356.925781 704.640625 356.566406 704.136719 C 356.277344 703.632812 353.988281 703.421875 350.839844 703.488281 C 347.972656 703.554688 345.472656 703.34375 345.246094 703.050781 C 344.890625 702.484375 343.527344 702.550781 342.3125 703.34375 C 341.875 703.632812 341.238281 703.488281 340.949219 703.050781 C 340.589844 702.484375 340.738281 702.402344 341.386719 702.761719 C 342.03125 703.117188 342.179688 703.050781 341.820312 702.550781 C 341.105469 701.398438 339.957031 701.476562 339.957031 702.695312 C 339.957031 703.488281 336.941406 703.621094 322.910156 703.410156 C 302.421875 703.117188 303.5625 703.199219 303.070312 702.339844 C 302.78125 701.980469 302.210938 701.691406 301.773438 701.691406 C 301.273438 701.691406 301.339844 701.980469 301.988281 702.402344 C 302.78125 702.90625 302.34375 703.117188 300.332031 703.117188 C 298.679688 703.117188 297.753906 702.828125 298.046875 702.402344 C 298.335938 701.980469 298.761719 701.835938 299.117188 702.046875 C 299.472656 702.257812 299.976562 702.113281 300.1875 701.691406 C 300.480469 701.253906 300.253906 701.042969 299.6875 701.121094 C 299.183594 701.265625 298.824219 700.910156 298.972656 700.40625 C 299.039062 699.972656 298.535156 699.546875 297.898438 699.546875 C 297.039062 699.546875 296.894531 699.335938 297.464844 698.980469 C 297.898438 698.6875 298.535156 697.550781 298.761719 696.464844 C 300.054688 691.519531 311.507812 687.367188 324.695312 687.15625 C 331.425781 687.011719 331.28125 687.222656 329.640625 680.925781 C 328.210938 675.332031 325.050781 659.078125 324.550781 654.421875 C 324.191406 650.691406 324.335938 650.058594 327.695312 643.3125 C 331.847656 635.007812 333.714844 631.703125 343.882812 614.589844 C 348.039062 607.644531 351.410156 601.839844 351.410156 601.628906 C 351.410156 601.414062 352.058594 600.410156 352.773438 599.339844 L 354.132812 597.410156 L 350.046875 591.746094 C 347.824219 588.601562 344.824219 584.078125 343.316406 581.722656 L 340.738281 577.425781 L 341.742188 570.257812 C 344.03125 554.78125 344.320312 552.996094 344.613281 551.992188 C 344.757812 551.425781 345.261719 547.839844 345.683594 544.109375 C 346.105469 540.378906 346.753906 535.660156 347.046875 533.726562 C 347.546875 530.9375 347.480469 530.433594 346.832031 531.507812 C 346.398438 532.300781 344.757812 534.375 343.183594 536.097656 C 334.652344 545.699219 319.40625 544.757812 313.597656 534.308594 C 313.03125 533.304688 312.238281 533.664062 308.375 536.464844 C 295.121094 545.855469 261.238281 560.972656 249.773438 562.46875 C 245.328125 563.035156 243.042969 561.820312 241.890625 558.234375 C 239.523438 551.066406 250.277344 524.5625 265.671875 499.34375 C 268.816406 494.183594 272.691406 488.167969 274.332031 485.878906 C 279.703125 478.289062 294.820312 457.867188 298.046875 453.859375 C 299.765625 451.703125 304.566406 445.554688 308.71875 440.25 C 312.949219 434.949219 317.816406 428.863281 319.601562 426.789062 C 321.46875 424.710938 322.828125 422.847656 322.683594 422.703125 C 322.539062 422.636719 320.039062 421.339844 317.234375 419.976562 C 311.507812 417.1875 300.96875 409.304688 294.738281 403.074219 C 277.253906 385.671875 267.296875 362.382812 266.304688 336.738281 C 265.800781 322.546875 267.957031 309.652344 272.96875 296.835938 C 278.628906 282.644531 285.003906 273.058594 296.75 261.378906 C 317.671875 240.601562 342.457031 232.085938 375.769531 234.015625 Z M 350.390625 242.875 C 340.871094 244.238281 333.765625 246.527344 324.894531 251.261719 C 314.933594 256.566406 310.925781 259.355469 304.195312 265.808594 C 282.492188 286.585938 272.097656 314.242188 274.820312 344.039062 C 276.183594 359.089844 282.558594 375.632812 292.082031 388.804688 C 302.964844 403.777344 320.953125 415.453125 341.730469 420.902344 C 359.066406 425.414062 382.488281 425.136719 402.261719 420.253906 C 417.734375 416.378906 433.921875 406.792969 444.953125 394.890625 C 465.015625 373.253906 471.390625 343.019531 462.355469 312.71875 C 461.351562 309.347656 457.34375 299.613281 456.550781 298.820312 C 456.261719 298.382812 455.984375 297.667969 455.984375 297.101562 C 455.984375 296.242188 452.691406 290.871094 447.597656 283.199219 C 439.792969 271.523438 422.457031 256.699219 409.917969 250.824219 C 404.324219 248.3125 391.574219 244.09375 385.78125 242.875 C 379.195312 241.582031 359.703125 241.582031 350.390625 242.875 Z M 407.695312 427.78125 C 399.035156 430.292969 392.871094 431.429688 385.28125 432.078125 C 378.046875 432.648438 374.25 433.652344 379.117188 433.730469 C 381.988281 433.796875 382.265625 434.089844 391.21875 443.902344 C 396.230469 449.417969 400.886719 454.21875 401.535156 454.574219 C 402.828125 455.289062 403.820312 454.070312 411.492188 441.972656 C 414.640625 437.023438 420.882812 424.710938 420.882812 423.480469 C 420.882812 423.269531 419.375 423.773438 417.589844 424.554688 C 415.726562 425.347656 411.28125 426.773438 407.695312 427.78125 Z M 414.785156 452.5 C 408.121094 462.019531 405.832031 464.597656 403.96875 464.597656 C 401.957031 464.597656 395.160156 459.085938 390 453.210938 L 386.207031 448.847656 L 382.765625 455.515625 C 380.757812 459.390625 379.394531 462.828125 379.472656 463.898438 C 379.6875 465.472656 380.121094 465.761719 383.625 466.121094 C 388.996094 466.6875 395.59375 469.917969 403.332031 475.644531 C 416.160156 485.097656 422.8125 497.132812 423.605469 512.039062 C 423.820312 517.34375 424.175781 519.0625 424.902344 519.0625 C 425.40625 519.0625 428.699219 519.988281 432.136719 521.136719 C 444.316406 525.144531 476.414062 533.320312 484.722656 534.535156 C 486.441406 534.746094 491.242188 535.539062 495.394531 536.253906 C 499.546875 536.96875 504.785156 537.761719 507.136719 538.039062 L 511.371094 538.398438 L 510.867188 536.175781 C 509.796875 530.804688 499.835938 512.171875 489.734375 496.84375 C 483.214844 486.816406 465.371094 463.171875 461.363281 459.230469 C 460.570312 458.4375 457.570312 454.933594 454.632812 451.492188 C 451.699219 447.988281 444.820312 440.886719 439.304688 435.664062 L 429.28125 426.140625 L 424.121094 436.3125 C 421.332031 441.90625 417.101562 449.207031 414.8125 452.5 Z M 333.980469 429.644531 C 334.984375 434.007812 338.847656 446.691406 339.996094 449.417969 C 341.503906 452.855469 341.925781 452.789062 344.941406 449.269531 C 345.949219 448.054688 347.523438 446.257812 348.449219 445.265625 C 349.375 444.273438 351.027344 441.613281 352.175781 439.390625 C 354.464844 434.882812 355.828125 433.796875 359.410156 433.730469 C 363.285156 433.664062 359.703125 432.660156 353.539062 432.078125 C 347.734375 431.511719 339.574219 429.789062 337.773438 428.785156 C 337.207031 428.429688 335.988281 428.070312 335.128906 428.070312 C 333.914062 428.070312 333.699219 428.363281 333.980469 429.644531 Z M 321.308594 438.890625 C 319.152344 441.613281 315.582031 446.125 313.425781 448.78125 C 282.480469 487.613281 272.453125 502.292969 261.277344 525 C 256.265625 535.171875 253.964844 540.976562 251.890625 548.5 L 250.460938 553.449219 L 252.113281 553.449219 C 252.972656 553.449219 253.980469 553.15625 254.335938 552.800781 C 254.773438 552.441406 256.980469 551.503906 259.347656 550.722656 C 271.171875 546.636719 288.789062 538.542969 296.960938 533.320312 C 297.964844 532.671875 301.257812 530.59375 304.273438 528.730469 L 309.867188 525.289062 L 309.300781 522.355469 C 309.007812 520.703125 308.796875 514.910156 308.796875 509.394531 C 308.863281 499.433594 308.863281 499.289062 311.523438 492.996094 C 314.605469 485.828125 316.390625 482.96875 320.6875 478.378906 C 324.695312 474.226562 328 472.21875 333.9375 470.285156 C 340.023438 468.355469 348.339844 468.632812 352.917969 471.078125 C 354.570312 471.875 356 472.507812 356.066406 472.375 C 356.210938 472.230469 356.78125 470.152344 357.425781 467.722656 C 358.222656 464.640625 358.351562 462.855469 357.929688 461.996094 C 357.492188 461.28125 356.5 458.410156 355.640625 455.6875 C 354.78125 452.894531 353.988281 450.460938 353.777344 450.171875 C 353.632812 449.878906 351.199219 452.179688 348.40625 455.183594 C 345.617188 458.183594 342.457031 461.132812 341.320312 461.703125 C 339.386719 462.707031 339.097656 462.628906 337.445312 461.054688 C 335.511719 459.269531 332.789062 452.605469 329.203125 441.136719 C 327.988281 437.128906 326.558594 433.824219 326.121094 433.902344 C 325.621094 433.902344 323.476562 436.191406 321.320312 438.914062 Z M 376.816406 475.496094 C 375.242188 477.070312 374.238281 478.789062 373.878906 480.507812 L 373.441406 483.234375 L 378.179688 483.234375 C 385.492188 483.234375 395.808594 488.035156 395.808594 491.472656 C 395.808594 495.125 393.441406 495.625 388.640625 492.769531 C 384.488281 490.335938 376.671875 490.046875 373.097656 492.121094 C 370.730469 493.628906 367.585938 498.933594 368.007812 501.007812 C 368.296875 502.304688 368.363281 502.304688 376.179688 501.445312 C 381.273438 500.875 387.566406 502.160156 388.574219 503.878906 C 389.007812 504.59375 389.007812 505.53125 388.574219 506.3125 C 388.214844 507.027344 388.214844 508.242188 388.640625 509.394531 C 388.996094 510.398438 389.351562 512.410156 389.351562 513.757812 C 389.351562 521.347656 398.519531 530.089844 405.261719 528.808594 C 409.203125 528.09375 413.503906 523.941406 414.785156 519.644531 C 416.796875 512.832031 416.003906 506.894531 411.636719 496.140625 C 408.554688 488.472656 402.035156 482.320312 391.21875 477.085938 C 386.917969 474.929688 382.476562 473.210938 381.324219 473.210938 C 380.03125 473.210938 378.457031 474.003906 376.816406 475.496094 Z M 332.550781 479.214844 C 320.160156 485.230469 312.992188 502.992188 316.363281 519.195312 C 317.511719 524.5625 321.019531 531.664062 323.386719 533.382812 C 328.980469 537.324219 336.570312 533.449219 341.226562 524.429688 C 343.238281 520.488281 344.453125 519.484375 351.398438 516.628906 C 359.132812 513.335938 362.070312 511.113281 361 509.25 C 359.78125 507.316406 356.410156 507.316406 350.535156 509.394531 C 342.296875 512.265625 340.871094 512.542969 339.425781 511.550781 C 335.921875 508.96875 342.296875 503.878906 353.75 500.015625 C 359.703125 498.007812 361.925781 496.011719 361.0625 493.285156 C 360.269531 490.773438 358.128906 490.203125 351.25 490.773438 C 344.730469 491.273438 341.148438 492.347656 337.640625 494.859375 C 335.355469 496.433594 332.195312 496.367188 331.121094 494.648438 C 328.753906 490.851562 340.074219 484.753906 352.109375 483.328125 L 356.050781 482.824219 L 353.40625 480.246094 C 350.179688 477.164062 349.175781 476.871094 342.019531 477.097656 C 337.722656 477.242188 335.644531 477.746094 332.5625 479.253906 Z M 362.851562 700.726562 C 362.851562 701.292969 363.207031 701.585938 363.5625 701.371094 C 364 701.082031 364.132812 700.578125 363.921875 700.222656 C 363.273438 699.21875 362.851562 699.429688 362.851562 700.726562 Z M 440.21875 701.003906 C 440.21875 701.359375 440.574219 701.714844 441.011719 701.714844 C 441.367188 701.714844 441.515625 701.359375 441.300781 701.003906 C 441.089844 700.566406 440.734375 700.289062 440.507812 700.289062 C 440.363281 700.289062 440.21875 700.578125 440.21875 701.003906 Z M 345.867188 701.730469 C 345.800781 702.523438 346.015625 703.027344 346.4375 702.800781 C 347.230469 702.296875 347.296875 700.289062 346.503906 700.289062 C 346.210938 700.289062 345.933594 700.9375 345.855469 701.714844 Z M 342.363281 701.226562 C 342.074219 701.519531 342.507812 701.730469 343.367188 701.730469 C 344.226562 701.730469 344.941406 701.4375 344.941406 701.082031 C 344.941406 700.367188 343.078125 700.433594 342.363281 701.226562 Z M 342.363281 701.226562 " fill-opacity="1" fill-rule="nonzero"/><path fill="#000000" d="M 359.769531 287.445312 C 360.335938 287.65625 360.695312 289.164062 360.695312 291.097656 C 360.761719 292.960938 361.34375 296.042969 361.988281 298.039062 C 363.417969 302.273438 366.5 304.625 373.523438 307.074219 C 377.53125 308.433594 379.328125 308.582031 387.84375 308.367188 C 397.234375 308.078125 397.59375 308.15625 397.804688 309.585938 C 398.453125 314.320312 384.550781 317.257812 374.089844 314.53125 C 362.121094 311.449219 355.035156 303.714844 354.96875 293.898438 C 354.96875 290.753906 355.324219 289.457031 356.394531 288.386719 C 357.902344 286.878906 358.261719 286.8125 359.769531 287.460938 Z M 359.769531 287.445312 " fill-opacity="1" fill-rule="nonzero"/><path fill="#000000" d="M 348.816406 289.523438 C 349.027344 290.171875 349.253906 292.457031 349.253906 294.746094 C 349.253906 300.117188 346.675781 305.417969 342.800781 308 C 335.566406 312.800781 323.53125 314.664062 315 312.441406 C 310.410156 311.226562 308.984375 310.152344 309.273438 308.144531 C 309.484375 306.714844 309.921875 306.636719 318.160156 306.570312 C 328.542969 306.425781 337.007812 304.347656 340.367188 300.976562 C 341.796875 299.546875 343.300781 296.03125 343.738281 293.171875 C 343.949219 291.597656 344.53125 289.945312 345.035156 289.378906 C 346.105469 288.015625 348.261719 288.082031 348.832031 289.523438 Z M 348.816406 289.523438 " fill-opacity="1" fill-rule="nonzero"/><path fill="#000000" d="M 433.699219 296.53125 C 434.199219 297.101562 434.992188 300.765625 435.417969 304.707031 C 435.984375 310.300781 435.984375 312.441406 435.207031 315.167969 C 433.339844 321.898438 428.621094 324.914062 423.820312 322.480469 C 420.234375 320.617188 419.453125 318.183594 419.519531 309.015625 C 419.519531 300.488281 420.527344 295.910156 422.3125 295.910156 C 423.527344 295.910156 424.097656 299.058594 424.824219 309.375 C 425.179688 314.597656 425.617188 316.542969 426.398438 316.820312 C 428.765625 317.746094 429.691406 315.167969 430.484375 306 C 431.277344 296.835938 432.058594 294.535156 433.710938 296.546875 Z M 433.699219 296.53125 " fill-opacity="1" fill-rule="nonzero"/><path fill="#000000" d="M 379.328125 323.261719 C 381.40625 323.976562 384.339844 327.269531 385.132812 329.78125 C 385.570312 331.144531 385.992188 334.515625 385.992188 337.371094 C 385.992188 345.042969 383.773438 348.546875 378.679688 348.546875 C 370.085938 348.546875 366.9375 328.628906 374.886719 323.976562 C 377.171875 322.679688 377.609375 322.613281 379.328125 323.261719 Z M 379.328125 323.261719 " fill-opacity="1" fill-rule="nonzero"/><path fill="#000000" d="M 334.203125 324.769531 C 339.425781 327.347656 341.4375 337.875 338 344.75 C 335.207031 350.558594 329.046875 350.347656 325.820312 344.316406 C 324.523438 341.800781 324.164062 340.015625 324.164062 335.929688 C 324.164062 329.554688 325.59375 326.117188 328.898438 324.542969 C 331.691406 323.246094 331.1875 323.179688 334.203125 324.753906 Z M 334.203125 324.769531 " fill-opacity="1" fill-rule="nonzero"/><path fill="#000000" d="M 446.671875 334.289062 C 449.183594 338.878906 450.96875 351.273438 449.964844 356.640625 C 449.316406 359.933594 445.957031 363.585938 443.511719 363.585938 C 438.285156 363.585938 435.207031 358.996094 435.207031 351.191406 C 435.207031 346.390625 436.355469 343.308594 438.222656 342.953125 C 439.148438 342.742188 439.4375 343.601562 439.792969 347.609375 C 440.507812 355.492188 441.089844 357.5 442.730469 357.5 C 444.09375 357.5 444.160156 356.933594 444.382812 345.109375 C 444.53125 333.140625 445.03125 331.0625 446.671875 334.289062 Z M 446.671875 334.289062 " fill-opacity="1" fill-rule="nonzero"/><path fill="#000000" d="M 378.257812 370.328125 C 394.378906 373.769531 410.128906 383.9375 410.128906 390.894531 C 410.128906 392.972656 408.199219 395.128906 406.253906 395.128906 C 405.605469 395.128906 403.53125 393.699219 401.667969 391.980469 C 386.90625 378.226562 366.566406 373.78125 347.800781 380.089844 C 341.847656 382.101562 336.121094 385.894531 331.253906 390.972656 C 328.742188 393.554688 327.457031 394.414062 325.886719 394.414062 C 321.019531 394.414062 320.871094 391.265625 325.238281 385.167969 C 329.324219 379.574219 336.980469 374.417969 345.21875 371.703125 C 350.378906 370.050781 352.308594 369.773438 362.480469 369.628906 C 369.792969 369.484375 375.519531 369.773438 378.242188 370.34375 Z M 378.257812 370.328125 " fill-opacity="1" fill-rule="nonzero"/><path fill="#000000" d="M 263.128906 241.59375 C 271.226562 246.605469 275.734375 251.84375 271.871094 251.84375 C 270.363281 251.84375 264.136719 249.410156 257.828125 246.328125 C 253.59375 244.253906 251.742188 241.820312 253.238281 240.019531 C 254.746094 238.15625 258.394531 238.722656 263.128906 241.59375 Z M 263.128906 241.59375 " fill-opacity="1" fill-rule="nonzero"/><path fill="#000000" d="M 546.8125 273.042969 C 550.820312 275.835938 547.105469 279.207031 538.507812 280.421875 C 531.417969 281.429688 522.890625 281.71875 522.175781 280.992188 C 520.390625 279.273438 525.613281 276.484375 535.136719 274.050781 C 543.667969 271.894531 545.027344 271.828125 546.8125 273.042969 Z M 546.8125 273.042969 " fill-opacity="1" fill-rule="nonzero"/><path fill="#000000" d="M 223.164062 296.175781 C 223.734375 297.324219 223.375 298.183594 221.085938 301.042969 C 214.777344 309.070312 214.710938 310.855469 220.375 320.667969 C 226.246094 330.839844 226.035156 334.714844 219.078125 342.160156 C 215.28125 346.246094 214.421875 349.605469 216.433594 352.621094 C 217.144531 353.769531 219.871094 356.917969 222.449219 359.644531 C 225.386719 362.792969 227.671875 365.953125 228.535156 368.09375 C 229.75 371.386719 229.75 371.746094 228.679688 375.328125 C 227.964844 377.40625 227.460938 380.488281 227.460938 382.140625 C 227.460938 384.785156 227.898438 385.578125 231.761719 389.519531 C 234.046875 391.953125 235.847656 394.175781 235.636719 394.53125 C 235.421875 394.824219 234.484375 395.101562 233.480469 395.101562 C 231.113281 395.101562 222.011719 386.292969 221.300781 383.277344 C 221.007812 381.980469 221.234375 379.402344 221.945312 376.464844 C 222.660156 373.886719 223.164062 371.242188 223.164062 370.59375 C 223.164062 369.878906 220.4375 366.441406 217.144531 363.003906 C 206.183594 351.390625 205.679688 347.527344 213.917969 337.714844 C 219.011719 331.632812 219.222656 329.980469 215.703125 324.675781 C 211.195312 317.796875 210.257812 315.429688 210.257812 311.277344 C 210.257812 306.476562 212.980469 301.320312 217.488281 297.378906 C 220.929688 294.441406 222.078125 294.230469 223.152344 296.160156 Z M 223.164062 296.175781 " fill-opacity="1" fill-rule="nonzero"/><path fill="#000000" d="M 519.09375 323.683594 C 523.960938 327.980469 528.339844 336.074219 528.339844 340.730469 C 528.339844 344.605469 527.480469 346.035156 522.53125 350.757812 C 519.808594 353.269531 518.300781 355.265625 518.300781 356.351562 C 518.300781 357.210938 519.664062 360.648438 521.234375 363.941406 C 523.816406 369.246094 524.171875 370.394531 523.75 373.039062 C 523.457031 374.695312 522.597656 377.128906 521.738281 378.488281 C 520.230469 380.921875 515.574219 384.363281 513.789062 384.363281 C 513.222656 384.363281 511.859375 385.074219 510.855469 385.871094 C 508.988281 387.296875 508.921875 387.65625 509.347656 391.464844 C 509.847656 396.332031 508.421875 399.769531 504.902344 401.78125 C 502.179688 403.285156 498.527344 403.566406 497.3125 402.347656 C 496.664062 401.632812 497.167969 400.773438 499.890625 398.472656 L 503.328125 395.457031 L 503.183594 389.941406 C 502.972656 383.355469 503.476562 382.628906 510.128906 378.914062 C 518.074219 374.46875 518.789062 372.394531 514.78125 364.867188 C 513.273438 361.996094 511.847656 358.785156 511.554688 357.699219 C 510.839844 354.617188 512.984375 350.464844 517.640625 346.085938 C 523.367188 340.71875 523.367188 338.496094 517.492188 329.398438 C 514.703125 325.164062 514.054688 322.082031 515.773438 321.515625 C 516.132812 321.449219 517.640625 322.375 519.066406 323.671875 Z M 519.09375 323.683594 " fill-opacity="1" fill-rule="nonzero"/><path fill="#000000" d="M 580.484375 387.375 C 585.21875 388.238281 586.792969 390.3125 584.214844 392.390625 C 582.207031 394.042969 580.988281 394.042969 570.816406 392.175781 C 559.351562 390.167969 557.921875 389.453125 560 387.375 C 561.003906 386.371094 574.757812 386.371094 580.484375 387.375 Z M 580.484375 387.375 " fill-opacity="1" fill-rule="nonzero"/><path fill="#000000" d="M 559.933594 408.578125 C 564.589844 410.296875 573.332031 415.664062 574.257812 417.386719 C 575.328125 419.460938 574.546875 420.890625 572.179688 420.890625 C 569.957031 420.890625 558.71875 414.222656 555.199219 410.785156 C 553.414062 409 553.1875 408.5625 554.128906 407.996094 C 555.488281 407.136719 555.992188 407.136719 559.933594 408.5625 Z M 559.933594 408.578125 " fill-opacity="1" fill-rule="nonzero"/><path fill="#000000" d="M 285.480469 429.855469 C 286.128906 430.648438 284.914062 432.289062 279.398438 438.242188 C 275.601562 442.328125 271.871094 446.773438 271.160156 448.132812 C 270.300781 449.851562 269.796875 452.867188 269.585938 457.882812 C 269.148438 466.542969 268.078125 468.554688 260.632812 474.652344 C 253.964844 480.101562 252.539062 483.035156 252.539062 491.488281 C 252.539062 499.15625 251.53125 501.65625 246.230469 507.886719 C 244.21875 510.175781 242.222656 513.042969 241.71875 514.195312 C 241.070312 515.703125 240.421875 516.203125 239.351562 516.058594 C 236.125 515.621094 237.632812 509.539062 242.5 503.308594 C 246.003906 498.722656 246.375 497.648438 246.375 489.34375 C 246.441406 480.101562 247.589844 477.164062 253.105469 472.21875 C 254.890625 470.644531 257.972656 467.773438 259.835938 465.910156 L 263.277344 462.46875 L 263.277344 456.957031 C 263.277344 447.207031 265.285156 443.414062 274.386719 435.753906 C 280.90625 430.304688 284.34375 428.441406 285.496094 429.882812 Z M 285.480469 429.855469 " fill-opacity="1" fill-rule="nonzero"/><path fill="#000000" d="M 206.683594 437.023438 C 206.683594 438.53125 201.671875 441.535156 193.789062 444.695312 C 186.621094 447.484375 183.898438 447.988281 182.46875 446.558594 C 180.179688 444.273438 182.828125 441.257812 188.421875 439.539062 C 201.171875 435.742188 206.683594 435.027344 206.683594 437.023438 Z M 206.683594 437.023438 " fill-opacity="1" fill-rule="nonzero"/><path fill="#000000" d="M 251.597656 438.519531 C 251.808594 439.234375 251.09375 440.59375 249.523438 442.25 C 244.867188 447.195312 244.65625 447.765625 244.65625 456.214844 C 244.65625 465.378906 244.21875 466.464844 237.988281 473.117188 L 233.757812 477.707031 L 234.261719 482.070312 C 235.1875 489.59375 235.054688 492.320312 233.613281 493.894531 C 232.316406 495.320312 229.671875 495.96875 229.523438 494.820312 C 229.523438 494.527344 229.378906 492.886719 229.3125 491.089844 C 229.167969 489.304688 228.8125 485.574219 228.519531 482.785156 C 227.804688 475.90625 228.8125 473.183594 234.179688 467.601562 L 238.542969 463.011719 L 238.542969 455.34375 C 238.542969 448.109375 238.691406 447.460938 240.554688 444.667969 C 242.777344 441.296875 247.722656 437.355469 249.800781 437.355469 C 250.515625 437.355469 251.308594 437.859375 251.585938 438.507812 Z M 251.597656 438.519531 " fill-opacity="1" fill-rule="nonzero"/><path fill="#000000" d="M 501.1875 451.347656 C 506.199219 455.078125 517.519531 466.96875 518.949219 470.046875 C 520.667969 473.632812 520.734375 474.914062 519.515625 480.363281 C 519.015625 482.519531 518.722656 485.019531 518.867188 485.878906 C 519.015625 486.738281 521.515625 489.609375 524.382812 492.253906 C 528.894531 496.261719 529.898438 497.625 530.96875 500.851562 C 532.121094 504.5 532.121094 504.9375 530.902344 509.882812 C 529.609375 515.039062 529.609375 515.1875 531.050781 519.195312 C 532.199219 522.421875 532.34375 523.492188 531.617188 524.417969 C 530.824219 525.488281 530.613281 525.421875 528.972656 524.125 C 527.902344 523.332031 526.394531 521.046875 525.535156 519.035156 C 524.105469 515.742188 524.027344 514.589844 524.464844 508.652344 L 524.964844 501.921875 L 518.804688 495.546875 C 513.355469 489.886719 512.640625 488.816406 512.214844 485.800781 C 511.859375 483.722656 512.003906 481.289062 512.507812 479.636719 C 514.519531 473.050781 513.15625 470.246094 501.902344 457.933594 C 495.378906 450.84375 494.957031 446.824219 501.1875 451.347656 Z M 501.1875 451.347656 " fill-opacity="1" fill-rule="nonzero"/><path fill="#000000" d="M 210.691406 459.945312 C 211.261719 461.453125 208.617188 464.242188 201.449219 469.691406 C 194.863281 474.703125 191.632812 475.351562 191.632812 471.847656 C 191.632812 469.335938 195.21875 466.121094 202.386719 462.246094 C 208.550781 458.871094 210.125 458.449219 210.691406 459.957031 Z M 210.691406 459.945312 " fill-opacity="1" fill-rule="nonzero"/><path fill="#000000" d="M 538.441406 464.746094 C 542.675781 467.972656 547.039062 474.636719 547.476562 478.5 C 547.765625 480.789062 547.410156 482.375 545.96875 485.230469 C 544.960938 487.242188 544.101562 489.59375 544.101562 490.390625 C 544.101562 491.183594 545.820312 493.761719 547.976562 496.050781 C 551.628906 499.992188 553.425781 503.640625 553.425781 507.078125 C 553.425781 507.726562 552.632812 510.664062 551.640625 513.453125 C 550.570312 516.46875 549.855469 520.1875 549.855469 522.40625 C 549.855469 525.199219 549.566406 526.347656 548.785156 526.707031 C 545.636719 527.855469 544.050781 519.472656 545.914062 511.523438 C 546.628906 508.585938 546.984375 505.503906 546.707031 504.5 C 546.496094 503.496094 544.921875 501.128906 543.203125 499.277344 C 541.550781 497.34375 539.621094 494.910156 538.90625 493.828125 C 537.121094 490.957031 537.332031 486.300781 539.472656 482.863281 C 542.488281 477.917969 541.988281 475.695312 536.101562 468.605469 C 534.171875 466.320312 532.730469 464.019531 532.875 463.59375 C 533.378906 462.019531 535.386719 462.445312 538.46875 464.746094 Z M 538.441406 464.746094 " fill-opacity="1" fill-rule="nonzero"/><path fill="#000000" d="M 499.613281 582.160156 C 506.636719 587.25 514.664062 594.84375 515.152344 596.917969 C 515.445312 597.84375 515.21875 599.074219 514.714844 599.644531 C 512.851562 601.867188 510.921875 600.792969 504.1875 593.691406 C 496.09375 585.386719 493.371094 581.445312 494.800781 580.585938 C 496.160156 579.660156 496.304688 579.726562 499.601562 582.160156 Z M 499.613281 582.160156 " fill-opacity="1" fill-rule="nonzero"/><path fill="#000000" d="M 270.945312 594.695312 C 271.59375 596.484375 269.292969 600.144531 263.710938 606.085938 C 259.773438 610.238281 258.199219 611.453125 256.625 611.453125 C 254.402344 611.453125 253.609375 610.15625 254.257812 607.578125 C 254.757812 605.421875 261.847656 598.269531 266.078125 595.542969 C 269.808594 593.175781 270.3125 593.109375 270.945312 594.683594 Z M 270.945312 594.695312 " fill-opacity="1" fill-rule="nonzero"/><path fill="#000000" d="M 479.046875 597.84375 C 481.558594 599.351562 491.082031 614.746094 491.082031 617.324219 C 491.082031 620.550781 486.347656 620.261719 483.914062 616.890625 C 481.042969 612.800781 475.027344 598.398438 475.820312 597.539062 C 476.46875 596.894531 477.605469 597.039062 479.046875 597.832031 Z M 479.046875 597.84375 " fill-opacity="1" fill-rule="nonzero"/><path fill="#000000" d="M 292.859375 604.085938 C 293.152344 604.296875 293.363281 605.09375 293.363281 605.804688 C 293.363281 607.527344 288.496094 622.140625 287.132812 624.425781 C 284.554688 628.792969 280.46875 628.871094 280.46875 624.574219 C 280.46875 621.636719 285.839844 610.171875 289.132812 606.230469 C 291.355469 603.585938 292 603.148438 292.859375 604.074219 Z M 292.859375 604.085938 " fill-opacity="1" fill-rule="nonzero"/><path fill="#000000" d="M 374.316406 699.574219 C 375.242188 700.871094 375.464844 700.871094 376.539062 699.863281 C 377.6875 698.792969 377.6875 698.9375 376.605469 701.226562 C 375.679688 703.15625 375.242188 703.449219 374.886719 702.523438 C 374.527344 701.597656 374.382812 701.597656 374.382812 702.734375 C 374.316406 704.957031 373.378906 703.382812 373.164062 700.660156 C 372.875 697.722656 372.953125 697.722656 374.316406 699.585938 Z M 374.316406 699.574219 " fill-opacity="1" fill-rule="nonzero"/><path fill="#000000" d="M 356.554688 698.648438 C 356.050781 698.859375 355.402344 698.792969 355.191406 698.582031 C 354.902344 698.371094 355.335938 698.144531 356.117188 698.226562 C 356.910156 698.226562 357.125 698.4375 356.554688 698.660156 Z M 356.554688 698.648438 " fill-opacity="1" fill-rule="nonzero"/><path fill="#000000" d="M 350.667969 699.785156 C 350.667969 700.789062 350.234375 701.503906 349.597656 701.503906 C 349.027344 701.503906 348.527344 701.214844 348.527344 700.855469 C 348.527344 700.566406 348.882812 700.289062 349.320312 700.289062 C 349.675781 700.289062 349.890625 699.996094 349.609375 699.640625 C 349.398438 699.28125 349.546875 698.78125 349.96875 698.488281 C 350.40625 698.277344 350.683594 698.78125 350.683594 699.785156 Z M 350.667969 699.785156 " fill-opacity="1" fill-rule="nonzero"/><path fill="#000000" d="M 296.800781 699.929688 L 298.457031 701.585938 L 296.167969 702.085938 C 294.660156 702.445312 293.734375 702.296875 293.378906 701.730469 C 292.941406 701.082031 292.730469 701.082031 292.453125 701.796875 C 292.160156 702.589844 292.015625 702.589844 292.015625 701.863281 C 291.949219 700.644531 294.304688 699.785156 294.660156 700.855469 C 294.949219 701.863281 296.234375 702.007812 296.234375 701.003906 C 296.234375 699.996094 293.589844 698.78125 292.359375 699.28125 C 291.710938 699.496094 291.207031 700.355469 291.207031 701.070312 C 291.207031 702.578125 289.132812 702.933594 287.835938 701.636719 C 287.265625 701.070312 286.617188 701.132812 285.546875 701.78125 C 284.25 702.640625 283.894531 702.578125 282.96875 701.347656 C 282.253906 700.394531 281.535156 700.371094 280.8125 701.28125 C 279.597656 702.933594 279.382812 702.285156 280.457031 700.273438 C 281.023438 699.125 281.023438 698.980469 280.097656 699.269531 C 279.53125 699.5625 279.027344 700.128906 279.027344 700.699219 C 279.027344 701.914062 276.089844 701.996094 274.796875 700.765625 C 274.003906 700.117188 273.871094 700.117188 274.292969 700.765625 C 275.152344 702.273438 272.929688 701.835938 271.503906 700.261719 C 270.207031 698.832031 270.285156 698.832031 272.863281 698.832031 C 274.519531 698.832031 275.65625 699.191406 275.878906 699.90625 C 276.171875 700.472656 276.886719 700.976562 277.53125 700.976562 C 278.539062 700.976562 278.539062 700.832031 277.597656 700.261719 C 277.03125 699.90625 276.804688 699.402344 277.097656 699.109375 C 278.023438 698.183594 280.601562 698.039062 281.539062 698.820312 C 282.1875 699.390625 282.613281 699.324219 282.835938 698.675781 C 283.128906 697.882812 283.273438 697.960938 283.273438 698.675781 C 283.339844 699.175781 283.710938 699.390625 284.066406 699.175781 C 284.503906 698.964844 284.992188 699.242188 285.21875 699.824219 C 285.429688 700.472656 285.929688 700.75 286.367188 700.539062 C 286.726562 700.25 286.726562 699.824219 286.300781 699.324219 C 285.800781 698.675781 286.234375 698.464844 287.664062 698.464844 C 289.027344 698.398438 289.527344 698.675781 289.316406 699.324219 C 289.105469 699.824219 288.601562 700.035156 288.101562 699.757812 C 287.664062 699.46875 287.742188 699.824219 288.3125 700.472656 C 289.316406 701.769531 290.957031 702.191406 290.242188 701.042969 C 288.457031 698.25 294.183594 697.246094 296.828125 699.890625 Z M 282.980469 700.289062 C 283.195312 700.644531 283.839844 701.003906 284.277344 701.003906 C 284.78125 701.003906 284.714844 700.710938 284.066406 700.289062 C 282.703125 699.429688 282.414062 699.429688 282.996094 700.289062 Z M 282.980469 700.289062 " fill-opacity="1" fill-rule="nonzero"/><path fill="#000000" d="M 466.445312 700.078125 C 466.152344 700.644531 466.65625 701.003906 467.660156 701.003906 C 468.957031 701.003906 469.023438 700.855469 468.164062 700.289062 C 467.515625 699.851562 467.449219 699.574219 467.953125 699.574219 C 468.386719 699.574219 469.023438 699.863281 469.246094 700.289062 C 469.460938 700.644531 470.042969 701.003906 470.398438 701.003906 C 470.835938 701.003906 470.902344 700.644531 470.6875 700.289062 C 470.476562 699.851562 470.542969 699.574219 470.980469 699.574219 C 471.335938 699.574219 471.90625 699.863281 472.128906 700.289062 C 472.699219 701.214844 469.84375 701.863281 465.902344 701.503906 C 463.96875 701.359375 462.398438 701.570312 462.25 702.007812 C 462.105469 702.363281 461.816406 702.152344 461.539062 701.4375 C 461.179688 700.578125 461.324219 700.367188 461.972656 700.644531 C 462.410156 700.9375 462.183594 700.578125 461.40625 699.929688 C 460.042969 698.859375 460.109375 698.78125 463.414062 698.925781 C 465.929688 699.070312 466.707031 699.363281 466.496094 700.078125 Z M 463.507812 700.289062 C 463.296875 700.644531 463.574219 701.003906 464.222656 701.003906 C 464.871094 701.003906 465.148438 700.644531 464.9375 700.289062 C 464.722656 699.851562 464.367188 699.574219 464.222656 699.574219 C 464.078125 699.574219 463.71875 699.863281 463.507812 700.289062 Z M 463.507812 700.289062 " fill-opacity="1" fill-rule="nonzero"/><path fill="#000000" d="M 459.210938 699.507812 C 458.996094 699.945312 458.351562 700.078125 457.78125 699.800781 C 457.066406 699.585938 456.710938 699.863281 456.710938 700.804688 C 456.710938 701.808594 456.140625 702.101562 454.195312 702.167969 C 452.1875 702.167969 451.761719 701.953125 452.042969 701.160156 C 452.253906 700.511719 452.109375 699.863281 451.683594 699.585938 C 451.261719 699.308594 452.835938 699.019531 455.269531 698.9375 C 458.058594 698.875 459.5 699.085938 459.210938 699.507812 Z M 453.335938 700.789062 C 453.335938 701.503906 453.839844 701.671875 454.84375 701.292969 C 456.417969 700.726562 456.273438 699.640625 454.699219 699.785156 C 453.984375 699.785156 453.335938 700.289062 453.335938 700.789062 Z M 453.335938 700.789062 " fill-opacity="1" fill-rule="nonzero"/><path fill="#000000" d="M 450.46875 699.785156 C 450.679688 700.355469 450.402344 700.789062 449.820312 700.789062 C 448.667969 700.789062 448.457031 699.863281 449.460938 699.28125 C 449.820312 699.070312 450.257812 699.28125 450.46875 699.785156 Z M 450.46875 699.785156 " fill-opacity="1" fill-rule="nonzero"/><path fill="#000000" d="M 379.6875 700.078125 C 379.539062 700.789062 379.394531 701.585938 379.394531 701.796875 C 379.328125 702.445312 377.171875 702.296875 377.171875 701.585938 C 377.171875 701.292969 377.675781 701.015625 378.324219 701.015625 C 378.890625 701.015625 379.25 700.726562 378.972656 700.367188 C 378.761719 700.011719 378.90625 699.507812 379.261719 699.296875 C 379.621094 699.003906 379.832031 699.441406 379.699219 700.089844 Z M 379.6875 700.078125 " fill-opacity="1" fill-rule="nonzero"/><path fill="#000000" d="M 269.941406 699.785156 C 270.152344 700.355469 269.875 700.789062 269.375 700.789062 C 268.871094 700.789062 268.578125 700.355469 268.804688 699.785156 C 269.242188 698.636719 269.519531 698.636719 269.953125 699.785156 Z M 269.941406 699.785156 " fill-opacity="1" fill-rule="nonzero"/><path fill="#000000" d="M 356.910156 700.078125 C 356.261719 700.222656 355.695312 700.644531 355.695312 700.9375 C 355.695312 701.226562 354.691406 701.4375 353.539062 701.4375 C 349.953125 701.4375 351.105469 699.929688 354.835938 699.785156 C 356.699219 699.71875 357.625 699.851562 356.910156 700.078125 Z M 356.910156 700.078125 " fill-opacity="1" fill-rule="nonzero"/><path fill="#000000" d="M 459.988281 701.082031 C 459.921875 701.585938 459.277344 702.007812 458.628906 702.152344 C 457.980469 702.21875 457.554688 702.007812 457.835938 701.652344 C 458.046875 701.292969 458.480469 701.148438 458.839844 701.359375 C 459.128906 701.570312 459.632812 701.359375 459.765625 701.003906 C 459.976562 700.566406 460.054688 700.644531 459.976562 701.070312 Z M 459.988281 701.082031 " fill-opacity="1" fill-rule="nonzero"/><g fill="#364dff" fill-opacity="1"><g transform="translate(75.682023, 162.472512)"><g><path d="M 59.9375 0 L 49.359375 0 L 17.53125 -48.15625 L 17.53125 0 L 6.953125 0 L 6.953125 -64.578125 L 17.53125 -64.578125 L 49.359375 -16.515625 L 49.359375 -64.578125 L 59.9375 -64.578125 Z M 59.9375 0 "/></g></g></g><g fill="#364dff" fill-opacity="1"><g transform="translate(142.566042, 162.472512)"><g><path d="M 53.8125 -26.8125 C 53.8125 -24.894531 53.6875 -23.164062 53.4375 -21.625 L 14.375 -21.625 C 14.6875 -17.539062 16.203125 -14.257812 18.921875 -11.78125 C 21.648438 -9.3125 24.992188 -8.078125 28.953125 -8.078125 C 34.640625 -8.078125 38.660156 -10.457031 41.015625 -15.21875 L 52.421875 -15.21875 C 50.878906 -10.519531 48.082031 -6.671875 44.03125 -3.671875 C 39.976562 -0.671875 34.953125 0.828125 28.953125 0.828125 C 24.066406 0.828125 19.6875 -0.265625 15.8125 -2.453125 C 11.945312 -4.648438 8.914062 -7.742188 6.71875 -11.734375 C 4.53125 -15.722656 3.4375 -20.347656 3.4375 -25.609375 C 3.4375 -30.867188 4.5 -35.492188 6.625 -39.484375 C 8.757812 -43.472656 11.757812 -46.546875 15.625 -48.703125 C 19.5 -50.867188 23.941406 -51.953125 28.953125 -51.953125 C 33.773438 -51.953125 38.070312 -50.898438 41.84375 -48.796875 C 45.613281 -46.691406 48.550781 -43.738281 50.65625 -39.9375 C 52.757812 -36.132812 53.8125 -31.757812 53.8125 -26.8125 Z M 42.765625 -30.15625 C 42.703125 -34.050781 41.3125 -37.171875 38.59375 -39.515625 C 35.875 -41.867188 32.503906 -43.046875 28.484375 -43.046875 C 24.835938 -43.046875 21.710938 -41.882812 19.109375 -39.5625 C 16.515625 -37.25 14.96875 -34.113281 14.46875 -30.15625 Z M 42.765625 -30.15625 "/></g></g></g><g fill="#364dff" fill-opacity="1"><g transform="translate(199.802429, 162.472512)"><g><path d="M 17.53125 -43.703125 C 19.082031 -46.296875 21.140625 -48.316406 23.703125 -49.765625 C 26.273438 -51.222656 29.320312 -51.953125 32.84375 -51.953125 L 32.84375 -41.015625 L 30.15625 -41.015625 C 26.007812 -41.015625 22.867188 -39.960938 20.734375 -37.859375 C 18.597656 -35.753906 17.53125 -32.101562 17.53125 -26.90625 L 17.53125 0 L 6.953125 0 L 6.953125 -51.125 L 17.53125 -51.125 Z M 17.53125 -43.703125 "/></g></g></g><g fill="#364dff" fill-opacity="1"><g transform="translate(235.424429, 162.472512)"><g><path d="M 26.71875 -9.46875 L 41.1875 -51.125 L 52.421875 -51.125 L 32.9375 0 L 20.3125 0 L 0.921875 -51.125 L 12.25 -51.125 Z M 26.71875 -9.46875 "/></g></g></g><g fill="#364dff" fill-opacity="1"><g transform="translate(288.857428, 162.472512)"><g><path d="M 29.140625 0.828125 C 24.304688 0.828125 19.941406 -0.265625 16.046875 -2.453125 C 12.148438 -4.648438 9.085938 -7.742188 6.859375 -11.734375 C 4.640625 -15.722656 3.53125 -20.347656 3.53125 -25.609375 C 3.53125 -30.804688 4.671875 -35.414062 6.953125 -39.4375 C 9.242188 -43.457031 12.367188 -46.546875 16.328125 -48.703125 C 20.285156 -50.867188 24.707031 -51.953125 29.59375 -51.953125 C 34.476562 -51.953125 38.898438 -50.867188 42.859375 -48.703125 C 46.816406 -46.546875 49.941406 -43.457031 52.234375 -39.4375 C 54.523438 -35.414062 55.671875 -30.804688 55.671875 -25.609375 C 55.671875 -20.410156 54.492188 -15.800781 52.140625 -11.78125 C 49.796875 -7.757812 46.597656 -4.648438 42.546875 -2.453125 C 38.492188 -0.265625 34.023438 0.828125 29.140625 0.828125 Z M 29.140625 -8.34375 C 31.859375 -8.34375 34.40625 -8.992188 36.78125 -10.296875 C 39.164062 -11.597656 41.097656 -13.546875 42.578125 -16.140625 C 44.066406 -18.742188 44.8125 -21.898438 44.8125 -25.609375 C 44.8125 -29.316406 44.097656 -32.453125 42.671875 -35.015625 C 41.253906 -37.585938 39.367188 -39.519531 37.015625 -40.8125 C 34.671875 -42.113281 32.132812 -42.765625 29.40625 -42.765625 C 26.6875 -42.765625 24.164062 -42.113281 21.84375 -40.8125 C 19.53125 -39.519531 17.691406 -37.585938 16.328125 -35.015625 C 14.960938 -32.453125 14.28125 -29.316406 14.28125 -25.609375 C 14.28125 -20.097656 15.6875 -15.84375 18.5 -12.84375 C 21.320312 -9.84375 24.867188 -8.34375 29.140625 -8.34375 Z M 29.140625 -8.34375 "/></g></g></g><g fill="#364dff" fill-opacity="1"><g transform="translate(348.041896, 162.472512)"><g><path d="M 53.25 -51.125 L 53.25 0 L 42.671875 0 L 42.671875 -6.03125 C 41.003906 -3.925781 38.828125 -2.269531 36.140625 -1.0625 C 33.453125 0.144531 30.59375 0.75 27.5625 0.75 C 23.539062 0.75 19.9375 -0.0820312 16.75 -1.75 C 13.5625 -3.425781 11.054688 -5.90625 9.234375 -9.1875 C 7.410156 -12.46875 6.5 -16.425781 6.5 -21.0625 L 6.5 -51.125 L 16.984375 -51.125 L 16.984375 -22.640625 C 16.984375 -18.054688 18.125 -14.539062 20.40625 -12.09375 C 22.695312 -9.65625 25.820312 -8.4375 29.78125 -8.4375 C 33.738281 -8.4375 36.875 -9.65625 39.1875 -12.09375 C 41.507812 -14.539062 42.671875 -18.054688 42.671875 -22.640625 L 42.671875 -51.125 Z M 53.25 -51.125 "/></g></g></g><g fill="#364dff" fill-opacity="1"><g transform="translate(408.246788, 162.472512)"><g><path d="M 25.515625 0.828125 C 21.492188 0.828125 17.890625 0.101562 14.703125 -1.34375 C 11.515625 -2.800781 8.992188 -4.78125 7.140625 -7.28125 C 5.285156 -9.789062 4.296875 -12.59375 4.171875 -15.6875 L 15.125 -15.6875 C 15.3125 -13.519531 16.347656 -11.707031 18.234375 -10.25 C 20.117188 -8.800781 22.484375 -8.078125 25.328125 -8.078125 C 28.296875 -8.078125 30.597656 -8.644531 32.234375 -9.78125 C 33.878906 -10.925781 34.703125 -12.398438 34.703125 -14.203125 C 34.703125 -16.117188 33.785156 -17.539062 31.953125 -18.46875 C 30.128906 -19.394531 27.238281 -20.414062 23.28125 -21.53125 C 19.445312 -22.582031 16.320312 -23.601562 13.90625 -24.59375 C 11.5 -25.582031 9.414062 -27.09375 7.65625 -29.125 C 5.894531 -31.164062 5.015625 -33.859375 5.015625 -37.203125 C 5.015625 -39.921875 5.816406 -42.410156 7.421875 -44.671875 C 9.023438 -46.929688 11.328125 -48.707031 14.328125 -50 C 17.328125 -51.300781 20.78125 -51.953125 24.6875 -51.953125 C 30.5 -51.953125 35.179688 -50.484375 38.734375 -47.546875 C 42.296875 -44.609375 44.195312 -40.601562 44.4375 -35.53125 L 33.859375 -35.53125 C 33.679688 -37.820312 32.753906 -39.644531 31.078125 -41 C 29.410156 -42.363281 27.15625 -43.046875 24.3125 -43.046875 C 21.53125 -43.046875 19.394531 -42.519531 17.90625 -41.46875 C 16.425781 -40.414062 15.6875 -39.023438 15.6875 -37.296875 C 15.6875 -35.929688 16.179688 -34.785156 17.171875 -33.859375 C 18.160156 -32.929688 19.363281 -32.203125 20.78125 -31.671875 C 22.207031 -31.148438 24.3125 -30.488281 27.09375 -29.6875 C 30.800781 -28.695312 33.84375 -27.691406 36.21875 -26.671875 C 38.601562 -25.648438 40.660156 -24.148438 42.390625 -22.171875 C 44.128906 -20.191406 45.03125 -17.5625 45.09375 -14.28125 C 45.09375 -11.375 44.285156 -8.773438 42.671875 -6.484375 C 41.066406 -4.203125 38.796875 -2.410156 35.859375 -1.109375 C 32.921875 0.179688 29.472656 0.828125 25.515625 0.828125 Z M 25.515625 0.828125 "/></g></g></g><g fill="#364dff" fill-opacity="1"><g transform="translate(457.783635, 162.472512)"><g><path d="M 32.75 -51.953125 C 36.769531 -51.953125 40.375 -51.117188 43.5625 -49.453125 C 46.75 -47.785156 49.238281 -45.3125 51.03125 -42.03125 C 52.820312 -38.75 53.71875 -34.789062 53.71875 -30.15625 L 53.71875 0 L 43.234375 0 L 43.234375 -28.578125 C 43.234375 -33.148438 42.085938 -36.65625 39.796875 -39.09375 C 37.515625 -41.539062 34.394531 -42.765625 30.4375 -42.765625 C 26.476562 -42.765625 23.335938 -41.539062 21.015625 -39.09375 C 18.691406 -36.65625 17.53125 -33.148438 17.53125 -28.578125 L 17.53125 0 L 6.953125 0 L 6.953125 -51.125 L 17.53125 -51.125 L 17.53125 -45.28125 C 19.269531 -47.382812 21.484375 -49.019531 24.171875 -50.1875 C 26.859375 -51.363281 29.71875 -51.953125 32.75 -51.953125 Z M 32.75 -51.953125 "/></g></g></g><g fill="#364dff" fill-opacity="1"><g transform="translate(517.988551, 162.472512)"><g><path d="M 53.8125 -26.8125 C 53.8125 -24.894531 53.6875 -23.164062 53.4375 -21.625 L 14.375 -21.625 C 14.6875 -17.539062 16.203125 -14.257812 18.921875 -11.78125 C 21.648438 -9.3125 24.992188 -8.078125 28.953125 -8.078125 C 34.640625 -8.078125 38.660156 -10.457031 41.015625 -15.21875 L 52.421875 -15.21875 C 50.878906 -10.519531 48.082031 -6.671875 44.03125 -3.671875 C 39.976562 -0.671875 34.953125 0.828125 28.953125 0.828125 C 24.066406 0.828125 19.6875 -0.265625 15.8125 -2.453125 C 11.945312 -4.648438 8.914062 -7.742188 6.71875 -11.734375 C 4.53125 -15.722656 3.4375 -20.347656 3.4375 -25.609375 C 3.4375 -30.867188 4.5 -35.492188 6.625 -39.484375 C 8.757812 -43.472656 11.757812 -46.546875 15.625 -48.703125 C 19.5 -50.867188 23.941406 -51.953125 28.953125 -51.953125 C 33.773438 -51.953125 38.070312 -50.898438 41.84375 -48.796875 C 45.613281 -46.691406 48.550781 -43.738281 50.65625 -39.9375 C 52.757812 -36.132812 53.8125 -31.757812 53.8125 -26.8125 Z M 42.765625 -30.15625 C 42.703125 -34.050781 41.3125 -37.171875 38.59375 -39.515625 C 35.875 -41.867188 32.503906 -43.046875 28.484375 -43.046875 C 24.835938 -43.046875 21.710938 -41.882812 19.109375 -39.5625 C 16.515625 -37.25 14.96875 -34.113281 14.46875 -30.15625 Z M 42.765625 -30.15625 "/></g></g></g><g fill="#364dff" fill-opacity="1"><g transform="translate(575.224937, 162.472512)"><g><path d="M 25.515625 0.828125 C 21.492188 0.828125 17.890625 0.101562 14.703125 -1.34375 C 11.515625 -2.800781 8.992188 -4.78125 7.140625 -7.28125 C 5.285156 -9.789062 4.296875 -12.59375 4.171875 -15.6875 L 15.125 -15.6875 C 15.3125 -13.519531 16.347656 -11.707031 18.234375 -10.25 C 20.117188 -8.800781 22.484375 -8.078125 25.328125 -8.078125 C 28.296875 -8.078125 30.597656 -8.644531 32.234375 -9.78125 C 33.878906 -10.925781 34.703125 -12.398438 34.703125 -14.203125 C 34.703125 -16.117188 33.785156 -17.539062 31.953125 -18.46875 C 30.128906 -19.394531 27.238281 -20.414062 23.28125 -21.53125 C 19.445312 -22.582031 16.320312 -23.601562 13.90625 -24.59375 C 11.5 -25.582031 9.414062 -27.09375 7.65625 -29.125 C 5.894531 -31.164062 5.015625 -33.859375 5.015625 -37.203125 C 5.015625 -39.921875 5.816406 -42.410156 7.421875 -44.671875 C 9.023438 -46.929688 11.328125 -48.707031 14.328125 -50 C 17.328125 -51.300781 20.78125 -51.953125 24.6875 -51.953125 C 30.5 -51.953125 35.179688 -50.484375 38.734375 -47.546875 C 42.296875 -44.609375 44.195312 -40.601562 44.4375 -35.53125 L 33.859375 -35.53125 C 33.679688 -37.820312 32.753906 -39.644531 31.078125 -41 C 29.410156 -42.363281 27.15625 -43.046875 24.3125 -43.046875 C 21.53125 -43.046875 19.394531 -42.519531 17.90625 -41.46875 C 16.425781 -40.414062 15.6875 -39.023438 15.6875 -37.296875 C 15.6875 -35.929688 16.179688 -34.785156 17.171875 -33.859375 C 18.160156 -32.929688 19.363281 -32.203125 20.78125 -31.671875 C 22.207031 -31.148438 24.3125 -30.488281 27.09375 -29.6875 C 30.800781 -28.695312 33.84375 -27.691406 36.21875 -26.671875 C 38.601562 -25.648438 40.660156 -24.148438 42.390625 -22.171875 C 44.128906 -20.191406 45.03125 -17.5625 45.09375 -14.28125 C 45.09375 -11.375 44.285156 -8.773438 42.671875 -6.484375 C 41.066406 -4.203125 38.796875 -2.410156 35.859375 -1.109375 C 32.921875 0.179688 29.472656 0.828125 25.515625 0.828125 Z M 25.515625 0.828125 "/></g></g></g><g fill="#364dff" fill-opacity="1"><g transform="translate(624.761739, 162.472512)"><g><path d="M 25.515625 0.828125 C 21.492188 0.828125 17.890625 0.101562 14.703125 -1.34375 C 11.515625 -2.800781 8.992188 -4.78125 7.140625 -7.28125 C 5.285156 -9.789062 4.296875 -12.59375 4.171875 -15.6875 L 15.125 -15.6875 C 15.3125 -13.519531 16.347656 -11.707031 18.234375 -10.25 C 20.117188 -8.800781 22.484375 -8.078125 25.328125 -8.078125 C 28.296875 -8.078125 30.597656 -8.644531 32.234375 -9.78125 C 33.878906 -10.925781 34.703125 -12.398438 34.703125 -14.203125 C 34.703125 -16.117188 33.785156 -17.539062 31.953125 -18.46875 C 30.128906 -19.394531 27.238281 -20.414062 23.28125 -21.53125 C 19.445312 -22.582031 16.320312 -23.601562 13.90625 -24.59375 C 11.5 -25.582031 9.414062 -27.09375 7.65625 -29.125 C 5.894531 -31.164062 5.015625 -33.859375 5.015625 -37.203125 C 5.015625 -39.921875 5.816406 -42.410156 7.421875 -44.671875 C 9.023438 -46.929688 11.328125 -48.707031 14.328125 -50 C 17.328125 -51.300781 20.78125 -51.953125 24.6875 -51.953125 C 30.5 -51.953125 35.179688 -50.484375 38.734375 -47.546875 C 42.296875 -44.609375 44.195312 -40.601562 44.4375 -35.53125 L 33.859375 -35.53125 C 33.679688 -37.820312 32.753906 -39.644531 31.078125 -41 C 29.410156 -42.363281 27.15625 -43.046875 24.3125 -43.046875 C 21.53125 -43.046875 19.394531 -42.519531 17.90625 -41.46875 C 16.425781 -40.414062 15.6875 -39.023438 15.6875 -37.296875 C 15.6875 -35.929688 16.179688 -34.785156 17.171875 -33.859375 C 18.160156 -32.929688 19.363281 -32.203125 20.78125 -31.671875 C 22.207031 -31.148438 24.3125 -30.488281 27.09375 -29.6875 C 30.800781 -28.695312 33.84375 -27.691406 36.21875 -26.671875 C 38.601562 -25.648438 40.660156 -24.148438 42.390625 -22.171875 C 44.128906 -20.191406 45.03125 -17.5625 45.09375 -14.28125 C 45.09375 -11.375 44.285156 -8.773438 42.671875 -6.484375 C 41.066406 -4.203125 38.796875 -2.410156 35.859375 -1.109375 C 32.921875 0.179688 29.472656 0.828125 25.515625 0.828125 Z M 25.515625 0.828125 "/></g></g></g></svg>