<svg xmlns="http://www.w3.org/2000/svg" xmlns:xlink="http://www.w3.org/1999/xlink" width="1000" zoomAndPan="magnify" viewBox="0 0 750 749.999995" height="1000" preserveAspectRatio="xMidYMid meet" version="1.0"><defs><g/><clipPath id="7d46c1a751"><path d="M 108.511719 196 L 641.761719 196 L 641.761719 674.734375 L 108.511719 674.734375 Z M 108.511719 196 " clip-rule="nonzero"/></clipPath></defs><rect x="-75" width="900" fill="#ffffff" y="-74.999999" height="899.999994" fill-opacity="1"/><rect x="-75" width="900" fill="#ffffff" y="-74.999999" height="899.999994" fill-opacity="1"/><g clip-path="url(#7d46c1a751)"><path fill="#000000" d="M 615.019531 515.976562 C 616.140625 515.976562 617.332031 515.902344 618.453125 515.902344 C 622.703125 515.753906 626.882812 515.679688 630.988281 515.527344 C 630.988281 515.527344 630.988281 515.527344 631.0625 515.527344 C 631.734375 515.527344 632.480469 515.453125 633.152344 515.453125 L 641.582031 515.15625 L 640.984375 498.386719 L 634.34375 498.609375 L 632.554688 498.683594 C 628.375 498.832031 624.046875 498.980469 619.71875 499.054688 C 622.257812 484.820312 621.363281 470.285156 616.660156 457.613281 C 611.214844 442.855469 600.542969 430.039062 586.667969 421.539062 C 581.144531 418.1875 575.101562 415.429688 568.3125 413.191406 C 561.597656 405.441406 548.3125 399.703125 535.554688 398.136719 C 519.886719 390.460938 500.710938 387.179688 480.789062 389.191406 C 467.730469 390.535156 456.390625 395.824219 445.347656 401.042969 C 433.78125 406.484375 422.738281 411.703125 411.25 411.328125 C 399.460938 411.03125 387.746094 409.839844 376.253906 408.050781 C 371.554688 405.515625 366.851562 402.90625 362.152344 400.371094 C 344.691406 390.90625 328.277344 381.886719 314.773438 375.105469 C 301.566406 368.472656 287.089844 362.65625 269.109375 356.769531 C 267.242188 356.171875 265.378906 355.503906 263.4375 354.90625 C 255.828125 352.296875 247.917969 349.613281 239.335938 348.644531 C 228.21875 347.378906 218.519531 349.390625 211.28125 354.535156 C 209.191406 356.023438 207.328125 357.8125 205.535156 359.675781 C 200.015625 358.632812 194.492188 357.664062 188.898438 356.992188 C 177.78125 355.726562 168.082031 357.738281 160.84375 362.882812 C 150.023438 370.558594 143.382812 384.421875 143.234375 400.074219 C 143.085938 412.597656 146.515625 424.074219 150.695312 436.746094 C 152.859375 443.230469 155.097656 449.789062 157.410156 456.496094 L 108.761719 456.496094 L 108.761719 473.265625 L 209.714844 473.265625 C 210.910156 473.191406 212.027344 473.417969 213.074219 473.714844 C 213.222656 474.160156 213.371094 474.609375 213.519531 475.054688 C 218.222656 489.441406 223.144531 503.828125 228.519531 518.0625 C 229.5625 529.765625 229.785156 540.945312 230.011719 551.902344 C 230.160156 559.355469 230.308594 566.734375 230.757812 574.039062 C 231.054688 579.703125 231.503906 585.367188 232.25 591.03125 C 233.070312 597.144531 234.1875 603.257812 235.753906 609.441406 C 239.261719 623.007812 245.007812 636.722656 254.632812 650.808594 C 255.828125 652.523438 256.945312 654.238281 258.214844 655.953125 C 258.363281 656.101562 258.664062 656.550781 258.289062 657.21875 C 257.992188 657.890625 257.46875 657.890625 257.246094 657.890625 L 209.191406 657.890625 L 209.191406 674.734375 L 257.246094 674.734375 C 262.765625 674.734375 267.765625 672.277344 271.121094 668.101562 C 284.179688 668.472656 296.789062 668.699219 309.472656 668.699219 C 328.800781 668.699219 348.199219 668.101562 369.539062 666.3125 C 389.910156 664.597656 408.414062 654.910156 421.917969 640.671875 C 429.082031 652.597656 442.136719 660.796875 456.988281 661.019531 C 465.566406 661.171875 475.265625 661.46875 485.636719 661.765625 C 502.652344 662.289062 521.902344 662.808594 541.003906 662.882812 C 541.300781 662.882812 541.671875 662.882812 541.972656 662.882812 L 550.402344 662.882812 L 550.402344 646.113281 L 541.972656 646.113281 C 522.796875 646.039062 503.320312 645.441406 486.085938 644.996094 C 475.640625 644.699219 465.867188 644.398438 457.210938 644.25 C 445.71875 644.027344 436.09375 635.976562 433.484375 625.320312 C 439.304688 615.332031 443.035156 604.152344 443.929688 592.300781 C 447.136719 588.050781 460.792969 576.273438 469.96875 568.375 C 470.566406 567.851562 471.089844 567.40625 471.6875 566.882812 C 473.253906 566.882812 474.746094 566.808594 476.3125 566.660156 C 476.011719 567.03125 475.789062 567.332031 475.492188 567.703125 L 470.566406 574.484375 L 484.222656 584.25 L 489.144531 577.394531 C 498.097656 564.945312 510.1875 558.164062 521.902344 552.648438 L 529.511719 549.070312 L 529.4375 548.921875 C 530.109375 548.621094 530.78125 548.324219 531.527344 548.101562 C 543.914062 543.179688 553.613281 542.0625 561.820312 542.210938 L 561.820312 542.285156 L 569.730469 542.734375 C 571.371094 542.882812 572.9375 543.105469 574.503906 543.332031 C 576.964844 543.628906 579.503906 544 581.964844 544.148438 C 592.933594 546.015625 600.917969 549.441406 609.273438 552.945312 C 612.109375 554.136719 614.945312 555.332031 617.855469 556.449219 L 618.453125 556.671875 L 625.6875 559.503906 L 631.808594 543.851562 L 623.972656 540.796875 C 623.824219 540.722656 623.75 540.722656 623.601562 540.648438 C 620.914062 539.605469 618.378906 538.484375 615.839844 537.441406 C 612.558594 536.027344 609.199219 534.609375 605.691406 533.34375 C 605.84375 533.121094 605.992188 532.96875 606.140625 532.746094 C 609.796875 527.601562 612.707031 521.9375 615.019531 515.976562 Z M 592.261719 523.652344 C 590.171875 526.859375 588.753906 527.828125 583.832031 527.601562 C 580.25 527.007812 576.371094 526.558594 572.117188 526.261719 C 561.148438 524.996094 545.851562 524.472656 525.484375 532.597656 C 520.855469 534.460938 516.453125 536.324219 512.277344 538.039062 C 506.679688 540.421875 501.53125 542.511719 496.605469 544.375 C 491.457031 546.3125 486.609375 547.878906 481.832031 548.847656 C 480.9375 548.996094 480.117188 549.21875 479.222656 549.367188 C 474.96875 550.113281 470.789062 550.335938 466.539062 549.964844 C 466.3125 549.964844 466.089844 549.964844 465.867188 549.890625 C 462.730469 549.589844 459.597656 548.996094 456.242188 548.027344 C 451.539062 546.683594 446.617188 544.597656 441.316406 541.691406 L 433.929688 537.664062 L 431.171875 542.585938 L 425.796875 552.347656 L 433.183594 556.375 C 436.839844 558.386719 440.347656 560.027344 443.707031 561.441406 C 445.792969 562.261719 447.808594 563.007812 449.824219 563.679688 C 432.214844 579.105469 427.664062 584.175781 427.363281 589.765625 C 426.691406 601.320312 422.664062 612.273438 416.171875 621.515625 C 405.355469 636.945312 387.820312 647.828125 368.195312 649.542969 C 334.621094 652.375 306.640625 652.152344 274.480469 651.332031 C 273.882812 649.46875 272.988281 647.605469 271.792969 645.964844 C 267.765625 640.597656 264.480469 635.230469 261.722656 630.015625 C 259.558594 625.914062 257.691406 621.890625 256.199219 617.867188 C 254.109375 612.5 252.542969 607.207031 251.351562 601.839844 C 248.289062 588.425781 247.46875 574.785156 247.097656 560.472656 C 256.871094 579.777344 268.363281 598.335938 282.761719 615.40625 L 285.894531 619.132812 L 288.132812 621.816406 L 290.222656 620.027344 L 300.96875 611.007812 L 298.132812 607.652344 L 295.519531 604.523438 C 272.765625 577.46875 257.542969 546.832031 245.007812 514.261719 C 239.710938 500.546875 234.933594 486.535156 230.234375 472.222656 C 229.339844 469.539062 228.441406 466.78125 227.546875 464.101562 C 227.25 463.28125 227.027344 462.460938 226.726562 461.640625 C 226.128906 459.777344 225.535156 457.839844 224.863281 455.976562 C 224.488281 454.859375 224.191406 453.8125 223.816406 452.695312 C 221.503906 445.613281 219.191406 438.460938 216.878906 431.304688 C 213.667969 421.539062 210.089844 402.535156 210.238281 391.726562 C 210.3125 386.882812 211.28125 382.335938 212.921875 378.308594 C 214.117188 375.402344 215.757812 372.871094 217.625 370.855469 C 218.59375 369.8125 219.5625 368.84375 220.683594 368.023438 C 222.773438 366.535156 225.609375 365.640625 228.890625 365.191406 C 231.429688 364.894531 234.1875 364.820312 237.097656 365.117188 C 243.886719 365.863281 250.605469 368.171875 257.691406 370.632812 C 259.632812 371.304688 261.648438 371.976562 263.585938 372.644531 C 280.746094 378.234375 294.476562 383.75 306.9375 390.011719 C 308.953125 391.054688 311.042969 392.097656 313.203125 393.21875 C 322.980469 398.285156 334.097656 404.25 345.8125 410.660156 C 348.496094 412.074219 351.183594 413.566406 353.871094 415.054688 C 359.464844 418.113281 365.0625 421.167969 370.734375 424.222656 C 386.253906 432.644531 401.472656 440.695312 415.203125 447.480469 C 419.457031 449.566406 423.558594 451.578125 427.4375 453.367188 C 433.035156 455.902344 439.453125 455.753906 444.898438 452.769531 C 447.136719 451.578125 450.71875 449.34375 455.121094 446.585938 C 471.835938 436.148438 506.679688 414.460938 528.46875 414.460938 C 529.136719 414.460938 529.808594 414.460938 530.480469 414.535156 C 533.617188 414.683594 536.675781 415.203125 539.511719 415.949219 C 543.835938 417.066406 547.644531 418.632812 550.476562 420.199219 C 553.386719 421.765625 555.253906 423.253906 555.777344 424.148438 C 555.925781 425.042969 555.699219 426.011719 555.402344 427.054688 C 554.804688 428.917969 553.539062 430.933594 551.597656 432.570312 C 548.464844 435.328125 544.210938 437.339844 539.734375 439.503906 L 537.941406 440.398438 C 535.332031 441.664062 532.496094 443.082031 529.660156 444.570312 C 522.347656 448.449219 514.441406 453.070312 506.976562 458.808594 C 503.621094 461.417969 500.335938 464.25 497.277344 467.304688 C 495.710938 468.871094 494.667969 470.585938 494.070312 472.449219 C 493.398438 474.609375 493.324219 476.917969 493.996094 479.15625 C 496.382812 486.832031 507.875 492.648438 527.796875 496.375 C 528.167969 496.449219 528.390625 496.820312 528.390625 497.191406 L 527.496094 498.011719 L 493.175781 496.449219 C 464.746094 496.148438 434.453125 489.964844 404.980469 481.765625 C 404.160156 481.539062 403.265625 481.316406 402.445312 481.09375 C 399.683594 480.273438 396.921875 479.527344 394.160156 478.707031 C 393.5625 478.558594 392.96875 478.335938 392.371094 478.1875 C 390.207031 477.515625 388.117188 476.917969 385.953125 476.25 C 382.96875 475.355469 379.910156 474.386719 376.925781 473.417969 C 368.121094 470.585938 359.464844 467.675781 351.109375 464.84375 C 348.273438 463.875 345.511719 462.90625 342.753906 461.9375 C 338.796875 460.597656 334.992188 459.179688 331.1875 457.914062 C 324.621094 455.601562 318.429688 453.441406 312.382812 451.355469 C 312.085938 451.28125 311.789062 451.128906 311.488281 451.054688 C 309.550781 450.386719 307.683594 449.789062 305.816406 449.117188 C 299.328125 441.070312 293.730469 430.410156 289.105469 417.367188 L 286.269531 409.464844 L 270.675781 414.980469 L 273.511719 422.882812 C 276.941406 432.570312 280.972656 441.21875 285.449219 448.671875 C 285.820312 449.34375 286.269531 450.011719 286.640625 450.683594 C 288.210938 453.144531 289.777344 455.378906 291.417969 457.539062 C 291.789062 457.988281 292.164062 458.507812 292.535156 458.957031 C 293.507812 460.222656 294.550781 461.417969 295.523438 462.535156 C 296.269531 463.875 297.015625 465.21875 297.761719 466.484375 C 297.910156 466.78125 298.058594 467.082031 298.207031 467.378906 C 312.832031 493.539062 321.5625 506.882812 345.960938 529.464844 C 348.199219 531.554688 350.511719 533.640625 352.824219 535.726562 C 359.914062 542.136719 366.628906 548.175781 372.375 555.03125 C 380.65625 564.871094 385.429688 574.710938 386.402344 584.175781 L 386.550781 585.367188 L 387.296875 592.523438 L 404.011719 590.734375 L 403.113281 582.386719 C 401.773438 569.492188 395.726562 556.671875 385.207031 544.226562 C 378.640625 536.472656 371.253906 529.765625 364.015625 523.28125 C 361.777344 521.269531 359.539062 519.253906 357.300781 517.167969 C 338.871094 500.027344 330.292969 489.21875 319.847656 471.554688 C 321.785156 472.222656 323.726562 472.894531 325.664062 473.566406 C 344.46875 480.125 365.0625 487.355469 386.402344 493.765625 C 387.222656 500.027344 388.789062 506.0625 391.175781 511.28125 L 394.609375 518.957031 L 404.90625 514.335938 L 409.980469 512.101562 L 406.546875 504.421875 C 406.101562 503.378906 405.726562 502.261719 405.277344 501.070312 C 405.054688 500.398438 404.832031 499.652344 404.609375 498.90625 C 414.007812 501.441406 423.484375 503.753906 432.960938 505.765625 C 443.855469 508.074219 454.75 509.9375 465.566406 511.207031 C 474.746094 512.25 483.847656 512.996094 492.800781 513.070312 L 512.871094 513.964844 L 526.898438 514.632812 C 531.675781 514.859375 536.375 513.070312 539.882812 509.789062 C 541.226562 508.523438 542.195312 507.03125 543.089844 505.464844 C 544.507812 502.933594 545.328125 500.027344 545.328125 497.042969 C 545.328125 488.996094 539.882812 481.988281 531.527344 479.902344 C 525.109375 478.707031 518.171875 476.695312 513.695312 474.90625 C 523.691406 466.335938 535.554688 460.074219 545.253906 455.378906 L 547.046875 454.558594 C 552.121094 452.097656 557.863281 449.339844 562.789062 445.019531 C 566.894531 441.367188 569.804688 436.96875 571.371094 432.347656 C 573.609375 433.390625 575.773438 434.507812 577.785156 435.777344 C 588.457031 442.261719 596.664062 452.097656 600.769531 463.28125 C 604.722656 474.085938 605.097656 486.980469 602.335938 499.429688 C 601.664062 502.261719 600.84375 505.167969 599.871094 507.925781 C 598.828125 510.832031 597.632812 513.738281 596.214844 516.496094 C 595.097656 519.105469 593.753906 521.417969 592.261719 523.652344 Z M 175.167969 456.496094 C 172.183594 448.074219 169.347656 439.726562 166.664062 431.527344 C 163.007812 420.347656 159.949219 410.285156 160.023438 400.371094 C 160.171875 390.234375 164.125 381.140625 170.542969 376.671875 C 173.453125 374.582031 177.707031 373.539062 182.703125 373.539062 C 184.121094 373.539062 185.539062 373.613281 187.03125 373.761719 C 190.242188 374.136719 193.375 374.582031 196.507812 375.105469 C 194.71875 380.246094 193.746094 385.914062 193.671875 391.800781 C 193.523438 404.769531 197.402344 425.566406 201.132812 436.820312 C 203.296875 443.378906 205.460938 450.011719 207.550781 456.570312 L 175.167969 456.570312 Z M 452.433594 416.25 C 462.65625 411.476562 472.207031 406.929688 482.429688 405.960938 C 486.980469 405.515625 491.457031 405.441406 495.933594 405.589844 C 477.207031 413.265625 458.628906 424.820312 446.464844 432.421875 C 442.4375 434.957031 439.226562 436.96875 437.140625 438.085938 C 436.320312 438.535156 435.421875 438.535156 434.675781 438.234375 C 428.261719 435.328125 421.320312 431.824219 413.933594 428.097656 C 428.261719 427.578125 440.421875 421.839844 452.433594 416.25 Z M 495.039062 354.90625 L 478.25 354.90625 L 478.25 318.011719 L 495.039062 318.011719 Z M 533.167969 370.929688 L 517.648438 364.445312 L 532.496094 328.820312 L 548.015625 335.304688 Z M 440.722656 328.820312 L 455.570312 364.445312 L 440.050781 370.929688 L 425.199219 335.304688 Z M 591.890625 608.324219 L 597.410156 609.441406 L 593.976562 625.914062 L 585.769531 624.199219 C 584.128906 623.828125 582.5625 623.53125 580.921875 623.230469 C 580.472656 623.15625 580.027344 623.082031 579.578125 622.933594 C 542.941406 615.925781 515.558594 616.300781 488.996094 623.976562 L 480.9375 626.363281 L 476.238281 610.261719 L 484.296875 607.878906 C 523.09375 596.546875 559.132812 601.46875 589.203125 607.726562 L 590.472656 607.953125 Z M 301.566406 311.601562 L 302.386719 311.898438 C 306.191406 313.167969 310.144531 313.835938 313.953125 313.835938 C 323.203125 313.835938 332.15625 310.257812 339.097656 303.851562 C 345.4375 306.683594 352.003906 308.023438 356.707031 308.84375 C 355.511719 311.003906 354.542969 313.316406 353.871094 315.851562 C 352.003906 322.929688 352.003906 332.992188 358.347656 338.136719 C 362.300781 341.339844 366.703125 342.308594 370.285156 343.054688 C 371.554688 343.351562 372.820312 343.578125 374.015625 344.023438 C 376.550781 344.917969 378.640625 347.378906 379.6875 350.507812 C 380.730469 353.640625 380.433594 356.84375 379.015625 359.082031 L 374.390625 366.085938 L 388.417969 375.328125 L 393.042969 368.324219 C 397.445312 361.761719 398.339844 353.339844 395.652344 345.214844 C 392.96875 337.09375 387.148438 330.90625 379.6875 328.222656 C 377.820312 327.550781 375.804688 327.105469 373.867188 326.65625 C 372.300781 326.285156 370.734375 325.988281 369.6875 325.539062 C 369.390625 323.898438 369.539062 320.246094 371.480469 316.820312 C 373.34375 313.464844 376.253906 311.453125 380.132812 310.78125 C 382.894531 310.558594 385.507812 310.183594 388.117188 309.515625 L 388.566406 309.441406 L 388.566406 309.367188 C 393.042969 308.171875 397.21875 306.085938 401.027344 302.878906 C 407.742188 297.214844 411.023438 289.464844 412.589844 282.085938 C 423.039062 282.382812 431.992188 279.328125 437.734375 272.992188 C 444.226562 265.835938 446.316406 254.804688 442.960938 244.894531 C 439.601562 234.980469 432.140625 228.421875 426.46875 224.621094 C 418.113281 219.105469 408.113281 215.898438 397.667969 215.226562 C 393.714844 210.605469 388.863281 206.804688 383.492188 203.824219 C 370.507812 196.519531 354.316406 194.207031 338.796875 198.011719 C 329.097656 200.394531 319.769531 205.089844 311.488281 211.5 C 302.910156 218.210938 295.445312 226.78125 289.625 236.84375 C 284.253906 246.160156 280.152344 256.816406 277.390625 268.59375 C 273.136719 287.078125 283.582031 305.488281 301.566406 311.601562 Z M 417.21875 238.632812 C 422.140625 241.910156 425.648438 246.011719 427.066406 250.257812 C 428.484375 254.433594 427.8125 259.054688 425.351562 261.664062 C 422.664062 264.644531 418.039062 265.390625 413.710938 265.316406 C 413.636719 263.75 413.5625 262.332031 413.410156 261.289062 C 412.816406 253.167969 411.621094 243.625 408.414062 234.382812 C 411.621094 235.5 414.53125 236.917969 417.21875 238.632812 Z M 390.28125 290.0625 C 388.640625 291.402344 386.699219 292.371094 384.535156 293.042969 L 378.492188 294.011719 C 373.195312 294.308594 367.226562 293.5625 361.257812 292.519531 C 356.78125 291.773438 352.972656 290.878906 349.839844 289.835938 C 362.824219 273.066406 380.285156 274.707031 396.101562 279.105469 C 395.058594 284.023438 393.117188 287.675781 390.28125 290.0625 Z M 389.085938 232.148438 C 394.3125 241.390625 395.878906 252.644531 396.625 261.960938 C 382.671875 258.457031 355.808594 254.65625 336.558594 279.550781 C 336.113281 278.285156 335.886719 276.941406 335.738281 275.378906 C 335.367188 270.605469 337.230469 265.316406 340.8125 260.917969 C 352.453125 246.679688 366.851562 236.917969 381.402344 233.414062 C 384.015625 232.742188 386.550781 232.296875 389.085938 232.148438 Z M 293.804688 272.394531 C 296.191406 262.257812 299.699219 253.089844 304.25 245.265625 C 313.429688 229.316406 327.53125 218.058594 342.902344 214.257812 C 353.644531 211.574219 365.0625 213.140625 374.238281 217.835938 C 357.375 222.753906 340.960938 234.160156 327.902344 250.183594 C 321.488281 258.085938 318.351562 267.476562 319.101562 276.644531 C 319.695312 283.652344 322.007812 289.09375 325.367188 293.339844 C 320.21875 296.84375 313.875 297.886719 307.90625 295.875 L 307.085938 295.578125 C 297.164062 292.371094 291.492188 282.382812 293.804688 272.394531 Z M 293.804688 272.394531 " fill-opacity="1" fill-rule="nonzero"/></g><g fill="#364dff" fill-opacity="1"><g transform="translate(156.297652, 162.472512)"><g><path d="M 17.53125 -64.484375 L 17.53125 0 L 6.953125 0 L 6.953125 -64.484375 Z M 17.53125 -64.484375 "/></g></g></g><g fill="#364dff" fill-opacity="1"><g transform="translate(180.787778, 162.472512)"><g><path d="M 32.75 -51.953125 C 36.769531 -51.953125 40.375 -51.117188 43.5625 -49.453125 C 46.75 -47.785156 49.238281 -45.3125 51.03125 -42.03125 C 52.820312 -38.75 53.71875 -34.789062 53.71875 -30.15625 L 53.71875 0 L 43.234375 0 L 43.234375 -28.578125 C 43.234375 -33.148438 42.085938 -36.65625 39.796875 -39.09375 C 37.515625 -41.539062 34.394531 -42.765625 30.4375 -42.765625 C 26.476562 -42.765625 23.335938 -41.539062 21.015625 -39.09375 C 18.691406 -36.65625 17.53125 -33.148438 17.53125 -28.578125 L 17.53125 0 L 6.953125 0 L 6.953125 -51.125 L 17.53125 -51.125 L 17.53125 -45.28125 C 19.269531 -47.382812 21.484375 -49.019531 24.171875 -50.1875 C 26.859375 -51.363281 29.71875 -51.953125 32.75 -51.953125 Z M 32.75 -51.953125 "/></g></g></g><g fill="#364dff" fill-opacity="1"><g transform="translate(240.99267, 162.472512)"><g><path d="M 25.515625 0.828125 C 21.492188 0.828125 17.890625 0.101562 14.703125 -1.34375 C 11.515625 -2.800781 8.992188 -4.78125 7.140625 -7.28125 C 5.285156 -9.789062 4.296875 -12.59375 4.171875 -15.6875 L 15.125 -15.6875 C 15.3125 -13.519531 16.347656 -11.707031 18.234375 -10.25 C 20.117188 -8.800781 22.484375 -8.078125 25.328125 -8.078125 C 28.296875 -8.078125 30.597656 -8.644531 32.234375 -9.78125 C 33.878906 -10.925781 34.703125 -12.398438 34.703125 -14.203125 C 34.703125 -16.117188 33.785156 -17.539062 31.953125 -18.46875 C 30.128906 -19.394531 27.238281 -20.414062 23.28125 -21.53125 C 19.445312 -22.582031 16.320312 -23.601562 13.90625 -24.59375 C 11.5 -25.582031 9.414062 -27.09375 7.65625 -29.125 C 5.894531 -31.164062 5.015625 -33.859375 5.015625 -37.203125 C 5.015625 -39.921875 5.816406 -42.410156 7.421875 -44.671875 C 9.023438 -46.929688 11.328125 -48.707031 14.328125 -50 C 17.328125 -51.300781 20.78125 -51.953125 24.6875 -51.953125 C 30.5 -51.953125 35.179688 -50.484375 38.734375 -47.546875 C 42.296875 -44.609375 44.195312 -40.601562 44.4375 -35.53125 L 33.859375 -35.53125 C 33.679688 -37.820312 32.753906 -39.644531 31.078125 -41 C 29.410156 -42.363281 27.15625 -43.046875 24.3125 -43.046875 C 21.53125 -43.046875 19.394531 -42.519531 17.90625 -41.46875 C 16.425781 -40.414062 15.6875 -39.023438 15.6875 -37.296875 C 15.6875 -35.929688 16.179688 -34.785156 17.171875 -33.859375 C 18.160156 -32.929688 19.363281 -32.203125 20.78125 -31.671875 C 22.207031 -31.148438 24.3125 -30.488281 27.09375 -29.6875 C 30.800781 -28.695312 33.84375 -27.691406 36.21875 -26.671875 C 38.601562 -25.648438 40.660156 -24.148438 42.390625 -22.171875 C 44.128906 -20.191406 45.03125 -17.5625 45.09375 -14.28125 C 45.09375 -11.375 44.285156 -8.773438 42.671875 -6.484375 C 41.066406 -4.203125 38.796875 -2.410156 35.859375 -1.109375 C 32.921875 0.179688 29.472656 0.828125 25.515625 0.828125 Z M 25.515625 0.828125 "/></g></g></g><g fill="#364dff" fill-opacity="1"><g transform="translate(290.529517, 162.472512)"><g><path d="M 29.140625 0.828125 C 24.304688 0.828125 19.941406 -0.265625 16.046875 -2.453125 C 12.148438 -4.648438 9.085938 -7.742188 6.859375 -11.734375 C 4.640625 -15.722656 3.53125 -20.347656 3.53125 -25.609375 C 3.53125 -30.804688 4.671875 -35.414062 6.953125 -39.4375 C 9.242188 -43.457031 12.367188 -46.546875 16.328125 -48.703125 C 20.285156 -50.867188 24.707031 -51.953125 29.59375 -51.953125 C 34.476562 -51.953125 38.898438 -50.867188 42.859375 -48.703125 C 46.816406 -46.546875 49.941406 -43.457031 52.234375 -39.4375 C 54.523438 -35.414062 55.671875 -30.804688 55.671875 -25.609375 C 55.671875 -20.410156 54.492188 -15.800781 52.140625 -11.78125 C 49.796875 -7.757812 46.597656 -4.648438 42.546875 -2.453125 C 38.492188 -0.265625 34.023438 0.828125 29.140625 0.828125 Z M 29.140625 -8.34375 C 31.859375 -8.34375 34.40625 -8.992188 36.78125 -10.296875 C 39.164062 -11.597656 41.097656 -13.546875 42.578125 -16.140625 C 44.066406 -18.742188 44.8125 -21.898438 44.8125 -25.609375 C 44.8125 -29.316406 44.097656 -32.453125 42.671875 -35.015625 C 41.253906 -37.585938 39.367188 -39.519531 37.015625 -40.8125 C 34.671875 -42.113281 32.132812 -42.765625 29.40625 -42.765625 C 26.6875 -42.765625 24.164062 -42.113281 21.84375 -40.8125 C 19.53125 -39.519531 17.691406 -37.585938 16.328125 -35.015625 C 14.960938 -32.453125 14.28125 -29.316406 14.28125 -25.609375 C 14.28125 -20.097656 15.6875 -15.84375 18.5 -12.84375 C 21.320312 -9.84375 24.867188 -8.34375 29.140625 -8.34375 Z M 29.140625 -8.34375 "/></g></g></g><g fill="#364dff" fill-opacity="1"><g transform="translate(349.713986, 162.472512)"><g><path d="M 68.84375 -51.953125 C 72.863281 -51.953125 76.46875 -51.117188 79.65625 -49.453125 C 82.84375 -47.785156 85.347656 -45.3125 87.171875 -42.03125 C 88.992188 -38.75 89.90625 -34.789062 89.90625 -30.15625 L 89.90625 0 L 79.421875 0 L 79.421875 -28.578125 C 79.421875 -33.148438 78.273438 -36.65625 75.984375 -39.09375 C 73.703125 -41.539062 70.578125 -42.765625 66.609375 -42.765625 C 62.648438 -42.765625 59.507812 -41.539062 57.1875 -39.09375 C 54.875 -36.65625 53.71875 -33.148438 53.71875 -28.578125 L 53.71875 0 L 43.234375 0 L 43.234375 -28.578125 C 43.234375 -33.148438 42.085938 -36.65625 39.796875 -39.09375 C 37.515625 -41.539062 34.394531 -42.765625 30.4375 -42.765625 C 26.476562 -42.765625 23.335938 -41.539062 21.015625 -39.09375 C 18.691406 -36.65625 17.53125 -33.148438 17.53125 -28.578125 L 17.53125 0 L 6.953125 0 L 6.953125 -51.125 L 17.53125 -51.125 L 17.53125 -45.28125 C 19.269531 -47.382812 21.46875 -49.019531 24.125 -50.1875 C 26.78125 -51.363281 29.625 -51.953125 32.65625 -51.953125 C 36.738281 -51.953125 40.390625 -51.085938 43.609375 -49.359375 C 46.828125 -47.628906 49.300781 -45.125 51.03125 -41.84375 C 52.570312 -44.9375 54.984375 -47.394531 58.265625 -49.21875 C 61.546875 -51.039062 65.070312 -51.953125 68.84375 -51.953125 Z M 68.84375 -51.953125 "/></g></g></g><g fill="#364dff" fill-opacity="1"><g transform="translate(446.097472, 162.472512)"><g><path d="M 32.75 -51.953125 C 36.769531 -51.953125 40.375 -51.117188 43.5625 -49.453125 C 46.75 -47.785156 49.238281 -45.3125 51.03125 -42.03125 C 52.820312 -38.75 53.71875 -34.789062 53.71875 -30.15625 L 53.71875 0 L 43.234375 0 L 43.234375 -28.578125 C 43.234375 -33.148438 42.085938 -36.65625 39.796875 -39.09375 C 37.515625 -41.539062 34.394531 -42.765625 30.4375 -42.765625 C 26.476562 -42.765625 23.335938 -41.539062 21.015625 -39.09375 C 18.691406 -36.65625 17.53125 -33.148438 17.53125 -28.578125 L 17.53125 0 L 6.953125 0 L 6.953125 -51.125 L 17.53125 -51.125 L 17.53125 -45.28125 C 19.269531 -47.382812 21.484375 -49.019531 24.171875 -50.1875 C 26.859375 -51.363281 29.71875 -51.953125 32.75 -51.953125 Z M 32.75 -51.953125 "/></g></g></g><g fill="#364dff" fill-opacity="1"><g transform="translate(506.302364, 162.472512)"><g><path d="M 12.34375 -57.890625 C 10.425781 -57.890625 8.816406 -58.539062 7.515625 -59.84375 C 6.210938 -61.144531 5.5625 -62.753906 5.5625 -64.671875 C 5.5625 -66.585938 6.210938 -68.191406 7.515625 -69.484375 C 8.816406 -70.785156 10.425781 -71.4375 12.34375 -71.4375 C 14.195312 -71.4375 15.769531 -70.785156 17.0625 -69.484375 C 18.363281 -68.191406 19.015625 -66.585938 19.015625 -64.671875 C 19.015625 -62.753906 18.363281 -61.144531 17.0625 -59.84375 C 15.769531 -58.539062 14.195312 -57.890625 12.34375 -57.890625 Z M 17.53125 -51.125 L 17.53125 0 L 6.953125 0 L 6.953125 -51.125 Z M 17.53125 -51.125 "/></g></g></g><g fill="#364dff" fill-opacity="1"><g transform="translate(530.79249, 162.472512)"><g><path d="M 3.4375 -25.796875 C 3.4375 -30.929688 4.5 -35.476562 6.625 -39.4375 C 8.757812 -43.394531 11.664062 -46.46875 15.34375 -48.65625 C 19.03125 -50.851562 23.101562 -51.953125 27.5625 -51.953125 C 31.582031 -51.953125 35.09375 -51.160156 38.09375 -49.578125 C 41.09375 -48.003906 43.488281 -46.046875 45.28125 -43.703125 L 45.28125 -51.125 L 55.953125 -51.125 L 55.953125 0 L 45.28125 0 L 45.28125 -7.609375 C 43.488281 -5.191406 41.046875 -3.179688 37.953125 -1.578125 C 34.859375 0.0234375 31.332031 0.828125 27.375 0.828125 C 22.976562 0.828125 18.953125 -0.296875 15.296875 -2.546875 C 11.648438 -4.804688 8.757812 -7.960938 6.625 -12.015625 C 4.5 -16.066406 3.4375 -20.660156 3.4375 -25.796875 Z M 45.28125 -25.609375 C 45.28125 -29.128906 44.550781 -32.1875 43.09375 -34.78125 C 41.644531 -37.382812 39.742188 -39.363281 37.390625 -40.71875 C 35.035156 -42.082031 32.5 -42.765625 29.78125 -42.765625 C 27.0625 -42.765625 24.523438 -42.097656 22.171875 -40.765625 C 19.828125 -39.441406 17.925781 -37.492188 16.46875 -34.921875 C 15.007812 -32.359375 14.28125 -29.316406 14.28125 -25.796875 C 14.28125 -22.265625 15.007812 -19.171875 16.46875 -16.515625 C 17.925781 -13.859375 19.84375 -11.832031 22.21875 -10.4375 C 24.601562 -9.039062 27.125 -8.34375 29.78125 -8.34375 C 32.5 -8.34375 35.035156 -9.023438 37.390625 -10.390625 C 39.742188 -11.753906 41.644531 -13.75 43.09375 -16.375 C 44.550781 -19 45.28125 -22.078125 45.28125 -25.609375 Z M 45.28125 -25.609375 "/></g></g></g></svg>