<svg xmlns="http://www.w3.org/2000/svg" xmlns:xlink="http://www.w3.org/1999/xlink" width="1000" zoomAndPan="magnify" viewBox="0 0 750 749.999995" height="1000" preserveAspectRatio="xMidYMid meet" version="1.0"><defs><g/><clipPath id="2fac4b084f"><path d="M 152.574219 332 L 191 332 L 191 517 L 152.574219 517 Z M 152.574219 332 " clip-rule="nonzero"/></clipPath><clipPath id="9afad1c701"><path d="M 180 232 L 596 232 L 596 674.898438 L 180 674.898438 Z M 180 232 " clip-rule="nonzero"/></clipPath></defs><rect x="-75" width="900" fill="#ffffff" y="-74.999999" height="899.999994" fill-opacity="1"/><rect x="-75" width="900" fill="#ffffff" y="-74.999999" height="899.999994" fill-opacity="1"/><g clip-path="url(#2fac4b084f)"><path fill="#000000" d="M 190.078125 337.058594 C 190.949219 335.671875 190.542969 333.863281 189.195312 332.953125 C 189.175781 332.933594 189.15625 332.917969 189.140625 332.898438 C 187.738281 332.015625 185.871094 332.433594 184.980469 333.835938 C 163.910156 367.253906 152.78125 406.351562 152.78125 446.878906 C 152.78125 469.785156 156.261719 492.582031 163.132812 514.613281 C 163.53125 515.90625 164.71875 516.730469 166.011719 516.730469 C 166.308594 516.730469 166.605469 516.683594 166.910156 516.601562 C 166.9375 516.589844 166.957031 516.574219 166.984375 516.5625 C 168.527344 516.035156 169.382812 514.390625 168.890625 512.832031 C 162.203125 491.375 158.804688 469.191406 158.804688 446.890625 C 158.804688 407.492188 169.621094 369.515625 190.078125 337.058594 Z M 190.078125 337.058594 " fill-opacity="1" fill-rule="nonzero"/></g><path fill="#000000" d="M 535.402344 596.960938 C 534.167969 595.875 532.285156 595.976562 531.167969 597.203125 C 517.390625 612.570312 501.691406 625.867188 484.523438 636.738281 C 483.148438 637.613281 482.730469 639.421875 483.554688 640.816406 C 483.574219 640.84375 483.574219 640.871094 483.585938 640.898438 C 484.160156 641.808594 485.136719 642.300781 486.128906 642.300781 C 486.675781 642.300781 487.242188 642.152344 487.742188 641.835938 C 505.375 630.675781 521.496094 617.019531 535.644531 601.242188 C 536.757812 600.007812 536.65625 598.09375 535.414062 596.988281 C 535.421875 596.972656 535.414062 596.960938 535.402344 596.960938 Z M 535.402344 596.960938 " fill-opacity="1" fill-rule="nonzero"/><path fill="#000000" d="M 348.46875 240.148438 C 356.863281 239.222656 365.453125 238.757812 374.011719 238.757812 C 494.6875 238.757812 589.230469 330.1875 589.230469 446.898438 C 589.230469 448.542969 590.539062 449.851562 592.164062 449.898438 C 592.191406 449.898438 592.210938 449.917969 592.238281 449.917969 C 593.910156 449.917969 595.253906 448.570312 595.253906 446.898438 C 595.253906 326.796875 498.078125 232.730469 374.023438 232.730469 C 365.238281 232.730469 356.425781 233.214844 347.820312 234.160156 C 346.167969 234.335938 344.96875 235.832031 345.15625 237.484375 C 345.15625 237.511719 345.171875 237.53125 345.183594 237.558594 C 345.394531 239.164062 346.824219 240.308594 348.46875 240.148438 Z M 348.46875 240.148438 " fill-opacity="1" fill-rule="nonzero"/><path fill="#000000" d="M 326.6875 569.003906 C 325.0625 568.839844 323.566406 570.089844 323.417969 571.742188 C 322.5 582.375 323.503906 593.007812 326.410156 603.332031 C 326.78125 604.660156 327.996094 605.523438 329.304688 605.523438 C 329.574219 605.523438 329.851562 605.484375 330.121094 605.410156 C 331.730469 604.957031 332.65625 603.292969 332.210938 601.6875 C 329.5 592.070312 328.5625 582.160156 329.425781 572.265625 C 329.566406 570.613281 328.339844 569.152344 326.6875 569.003906 Z M 326.6875 569.003906 " fill-opacity="1" fill-rule="nonzero"/><path fill="#000000" d="M 325.769531 642.292969 L 326.363281 647.035156 C 326.558594 648.558594 327.847656 649.664062 329.351562 649.664062 C 329.480469 649.664062 329.601562 649.65625 329.730469 649.644531 C 331.386719 649.429688 332.554688 647.925781 332.339844 646.273438 L 331.746094 641.539062 C 331.542969 639.886719 330.046875 638.734375 328.386719 638.921875 C 326.742188 639.132812 325.5625 640.636719 325.769531 642.292969 Z M 325.769531 642.292969 " fill-opacity="1" fill-rule="nonzero"/><path fill="#000000" d="M 243.875 462.347656 C 244.144531 462.421875 244.421875 462.460938 244.691406 462.460938 C 246.007812 462.460938 247.214844 461.585938 247.589844 460.257812 C 249.957031 451.839844 253.78125 443.992188 258.960938 436.9375 C 259.945312 435.597656 259.660156 433.714844 258.3125 432.71875 C 256.964844 431.734375 255.089844 432.035156 254.097656 433.359375 C 248.488281 441.003906 244.347656 449.5 241.785156 458.617188 C 241.339844 460.230469 242.269531 461.894531 243.875 462.347656 Z M 243.875 462.347656 " fill-opacity="1" fill-rule="nonzero"/><path fill="#000000" d="M 419.25 493.75 C 419.832031 494.59375 420.78125 495.058594 421.738281 495.058594 C 422.320312 495.058594 422.917969 494.890625 423.4375 494.53125 C 430.410156 489.730469 436.0625 483.175781 439.785156 475.570312 C 440.519531 474.074219 439.898438 472.273438 438.402344 471.539062 C 436.910156 470.816406 435.109375 471.4375 434.375 472.925781 C 431.105469 479.601562 426.136719 485.355469 420.019531 489.570312 C 418.65625 490.5 418.3125 492.375 419.25 493.75 Z M 419.25 493.75 " fill-opacity="1" fill-rule="nonzero"/><path fill="#000000" d="M 397.792969 580.878906 C 396.128906 580.953125 394.839844 582.367188 394.914062 584.027344 C 395.347656 593.777344 393.261719 603.535156 388.878906 612.265625 L 388.238281 613.546875 L 388.832031 614.855469 C 394.457031 627.332031 396.128906 644.082031 393.203125 658.585938 C 392.871094 660.21875 393.929688 661.808594 395.5625 662.144531 C 395.765625 662.179688 395.960938 662.199219 396.167969 662.199219 C 397.566406 662.199219 398.832031 661.214844 399.117188 659.785156 C 402.230469 644.371094 400.652344 627.257812 394.894531 613.683594 C 399.3125 604.371094 401.402344 594.054688 400.9375 583.757812 C 400.855469 582.097656 399.414062 580.75 397.792969 580.878906 Z M 397.792969 580.878906 " fill-opacity="1" fill-rule="nonzero"/><path fill="#000000" d="M 413.390625 417.371094 C 412.535156 415.941406 410.679688 415.476562 409.257812 416.332031 C 409.222656 416.351562 409.203125 416.386719 409.175781 416.40625 C 407.820312 417.289062 407.382812 419.070312 408.21875 420.464844 C 410.808594 424.789062 412.65625 429.5 413.707031 434.476562 C 414.363281 437.605469 414.699219 440.796875 414.699219 443.957031 C 414.699219 446.089844 414.550781 448.234375 414.242188 450.34375 C 414.011719 451.949219 415.109375 453.417969 416.695312 453.714844 C 416.734375 453.722656 416.761719 453.75 416.808594 453.75 C 416.945312 453.769531 417.09375 453.777344 417.234375 453.777344 C 418.710938 453.777344 420 452.691406 420.214844 451.1875 C 420.558594 448.800781 420.726562 446.359375 420.726562 443.945312 C 420.726562 440.371094 420.34375 436.757812 419.601562 433.222656 C 418.421875 427.605469 416.332031 422.265625 413.390625 417.371094 Z M 413.390625 417.371094 " fill-opacity="1" fill-rule="nonzero"/><path fill="#000000" d="M 359.667969 399.304688 C 369.871094 397.148438 380.652344 398.597656 389.878906 403.324219 C 390.316406 403.546875 390.789062 403.660156 391.253906 403.660156 C 392.304688 403.660156 393.304688 403.101562 393.855469 402.136719 C 393.882812 402.097656 393.917969 402.0625 393.9375 402.015625 C 394.699219 400.539062 394.113281 398.71875 392.628906 397.964844 C 382.183594 392.609375 369.972656 390.976562 358.421875 393.40625 C 356.945312 393.722656 355.507812 394.09375 354.085938 394.523438 C 352.5 395.003906 351.597656 396.683594 352.082031 398.273438 C 352.101562 398.328125 352.136719 398.355469 352.15625 398.414062 C 352.703125 399.90625 354.300781 400.753906 355.832031 400.277344 C 357.085938 399.917969 358.367188 399.582031 359.667969 399.304688 Z M 359.667969 399.304688 " fill-opacity="1" fill-rule="nonzero"/><g clip-path="url(#9afad1c701)"><path fill="#000000" d="M 583.972656 506.925781 C 578.855469 493.566406 572.179688 480.648438 562.359375 469.796875 C 554.214844 460.789062 545.300781 453.621094 536.695312 446.695312 C 528.644531 440.222656 520.324219 433.527344 512.75 425.402344 C 503.25 415.21875 495.550781 405.671875 487.390625 395.570312 C 485.210938 392.871094 482.980469 390.113281 480.648438 387.25 C 469.695312 373.816406 450.011719 365.179688 427.921875 364.105469 C 401.429688 353.472656 372.589844 351.523438 344.578125 349.871094 C 346.863281 334.828125 346.128906 317.261719 341.996094 298.273438 C 336.9375 274.96875 325.582031 256.257812 309.734375 244.738281 C 307.792969 243.324219 305.796875 242.007812 303.714844 240.808594 C 289.074219 232.414062 272.054688 230.417969 256.992188 235.320312 C 240.152344 240.820312 225.351562 254.960938 217.410156 273.148438 C 213.011719 283.222656 211.042969 293.871094 211.449219 304.511719 C 211.8125 314.066406 214.078125 323.613281 218.292969 332.75 C 229.121094 356.210938 246.714844 377.996094 266.074219 390.269531 C 276.335938 396.777344 287.078125 400.621094 297.578125 400.621094 C 301.847656 400.621094 306.074219 399.992188 310.207031 398.644531 C 327.300781 393.0625 338.792969 377.503906 343.472656 355.832031 C 371.402344 357.476562 400.1875 359.339844 426.136719 369.871094 L 426.621094 370.066406 L 427.140625 370.082031 C 447.4375 370.964844 466.148438 378.996094 475.96875 391.050781 C 478.292969 393.890625 480.519531 396.648438 482.691406 399.339844 C 490.917969 409.527344 498.691406 419.144531 508.328125 429.488281 C 516.203125 437.9375 524.699219 444.773438 532.90625 451.375 C 540.5 457.472656 548.292969 463.835938 555.488281 471.335938 L 557.148438 471.503906 C 557.066406 472.320312 557.296875 473.15625 557.890625 473.816406 C 568.886719 485.96875 575.8125 501.132812 581.046875 516.582031 C 584.039062 525.382812 586.480469 534.289062 588.800781 542.773438 C 590.175781 547.816406 588.011719 553.917969 584.558594 558.578125 C 584.457031 558.707031 584.363281 558.839844 584.261719 558.96875 C 583.816406 559.542969 583.34375 560.089844 582.867188 560.621094 C 582.71875 560.789062 582.570312 560.953125 582.414062 561.113281 C 581.847656 561.699219 581.261719 562.253906 580.660156 562.746094 C 580.621094 562.773438 580.59375 562.8125 580.554688 562.839844 C 577.4375 565.394531 573.222656 566.425781 568.820312 566.945312 C 567.351562 567.121094 565.867188 567.242188 564.390625 567.34375 C 561.929688 567.511719 559.480469 567.640625 557.027344 567.78125 C 522.804688 569.738281 489.769531 568.660156 458.144531 564.558594 C 427.328125 560.554688 397.828125 553.722656 369.878906 544 C 359.15625 540.277344 344.902344 540.164062 332.332031 540.0625 C 323.957031 540 316.007812 539.914062 310.847656 538.753906 C 309.863281 538.53125 308.941406 538.28125 308.183594 537.976562 C 308.097656 537.9375 308.035156 537.902344 307.949219 537.863281 C 307.011719 537.464844 306.128906 536.980469 305.292969 536.425781 C 298.171875 531.734375 294.441406 522.097656 292.777344 516.332031 C 291.832031 513.054688 291.042969 509.097656 290.929688 504.996094 C 290.894531 503.574219 290.910156 502.152344 291.058594 500.714844 C 291.226562 499.144531 291.582031 497.574219 292.035156 496.035156 C 292.546875 494.316406 293.195312 492.628906 294.152344 491.019531 C 294.292969 490.777344 294.476562 490.527344 294.636719 490.289062 C 296.742188 487.15625 300.328125 484.140625 303.828125 481.207031 C 305.777344 479.574219 307.625 478.03125 309.230469 476.453125 C 310.234375 475.476562 311.582031 474.976562 312.980469 475.050781 C 314.429688 475.125 315.785156 475.8125 316.707031 476.925781 C 320.679688 481.746094 330.214844 488.039062 334.441406 490.332031 C 334.847656 490.554688 335.273438 490.695312 335.691406 490.835938 C 336.898438 491.234375 338.125 491.289062 339.324219 490.964844 C 339.910156 490.808594 340.484375 490.574219 341.03125 490.25 C 341.785156 489.804688 342.472656 489.164062 343.128906 488.4375 C 343.769531 487.722656 344.367188 486.898438 344.921875 485.960938 C 345.40625 485.144531 345.851562 484.25 346.269531 483.296875 C 349.089844 476.816406 350.503906 467.484375 350.894531 459.738281 C 350.96875 458.261719 351.011719 456.84375 351.011719 455.515625 C 351.273438 455.207031 352.035156 454.734375 353.101562 454.464844 C 353.695312 454.308594 354.367188 454.207031 355.136719 454.269531 C 355.75 454.316406 356.425781 454.464844 357.121094 454.761719 C 358.152344 455.199219 359.230469 455.988281 360.175781 457.363281 C 360.652344 458.058594 361.097656 458.875 361.488281 459.886719 C 361.738281 460.539062 361.980469 461.132812 362.230469 461.765625 C 366.363281 472.210938 370.085938 479.332031 374.023438 486.796875 C 374.589844 487.863281 375.15625 488.960938 375.730469 490.054688 C 376.035156 490.628906 376.34375 491.234375 376.648438 491.828125 C 377.121094 492.738281 377.585938 493.640625 378.058594 494.578125 C 379.417969 497.269531 380.808594 500.121094 382.238281 503.257812 C 384.753906 508.800781 389.878906 512.878906 395.925781 514.160156 C 426.695312 520.667969 460.679688 520.75 486.851562 514.390625 C 506.296875 509.664062 528.644531 505.429688 547.855469 514.957031 C 548.28125 515.171875 548.738281 515.273438 549.191406 515.273438 C 550.296875 515.273438 551.363281 514.652344 551.894531 513.59375 C 552.636719 512.105469 552.023438 510.296875 550.539062 509.554688 C 529.972656 499.347656 506.953125 503.371094 486.796875 508.207031 C 469.277344 495.847656 452.332031 479.15625 437.578125 459.757812 C 437.011719 459.015625 436.425781 458.300781 435.878906 457.558594 C 434.882812 456.230469 432.992188 455.941406 431.664062 456.9375 C 430.324219 457.929688 430.046875 459.824219 431.039062 461.152344 C 445.339844 480.363281 461.78125 497.121094 478.914062 509.953125 C 454.585938 514.640625 424.597656 514.058594 397.1875 508.261719 C 393 507.378906 389.460938 504.578125 387.734375 500.761719 C 386.507812 498.058594 385.3125 495.609375 384.152344 493.257812 C 393.734375 490.371094 402.128906 484.847656 408.636719 477.101562 C 409.703125 475.832031 409.546875 473.925781 408.265625 472.859375 C 408.226562 472.820312 408.179688 472.820312 408.144531 472.792969 C 406.871094 471.828125 405.070312 471.996094 404.019531 473.230469 C 398.042969 480.34375 390.242188 485.320312 381.355469 487.769531 C 380.6875 486.488281 380.027344 485.234375 379.378906 483.992188 C 375.988281 477.558594 372.757812 471.382812 369.296875 463.089844 C 370.707031 463.082031 372.144531 462.914062 373.574219 462.582031 C 378.570312 461.390625 382.804688 458.335938 385.496094 453.964844 C 388.191406 449.589844 389.027344 444.4375 387.828125 439.453125 C 385.386719 429.144531 375.003906 422.738281 364.699219 425.199219 C 359.703125 426.386719 355.46875 429.441406 352.777344 433.816406 C 350.085938 438.179688 349.25 443.34375 350.4375 448.328125 C 350.484375 448.53125 350.578125 448.71875 350.632812 448.921875 C 350.058594 449.117188 349.527344 449.359375 349.015625 449.617188 C 348.078125 446.695312 346.855469 443.984375 345.238281 441.550781 C 340.699219 434.660156 333.417969 430.695312 325.933594 429.367188 C 327.839844 423.722656 330.808594 418.441406 334.78125 413.890625 C 335.851562 412.664062 335.730469 410.835938 334.558594 409.730469 C 334.53125 409.703125 334.523438 409.664062 334.484375 409.636719 C 333.234375 408.550781 331.328125 408.671875 330.234375 409.925781 C 325.40625 415.460938 321.839844 421.941406 319.730469 428.875 C 315.007812 428.96875 310.476562 430.101562 306.824219 432.273438 C 300.074219 436.285156 296.769531 443.675781 294.644531 449.664062 C 290.195312 462.171875 288.171875 475.515625 288.5625 488.773438 C 286.363281 492.792969 285.144531 497.417969 284.941406 502.507812 C 279.808594 507.835938 276.1875 512.765625 272.917969 517.242188 C 269.195312 522.339844 265.777344 526.992188 260.734375 531.503906 C 260.484375 531.085938 260.160156 530.695312 259.703125 530.433594 C 254.105469 527.175781 251.777344 519.925781 250.375 513.972656 L 249.761719 511.328125 C 248.265625 504.707031 246.722656 497.871094 242.148438 492.421875 C 241.078125 491.152344 239.175781 490.984375 237.902344 492.050781 C 236.632812 493.117188 236.464844 495.023438 237.53125 496.292969 C 241.171875 500.621094 242.492188 506.460938 243.882812 512.644531 L 244.496094 515.355469 C 246 521.746094 248.871094 530.640625 256.082031 535.226562 C 254.011719 536.730469 251.710938 538.234375 249.0625 539.730469 C 246.324219 541.28125 243.539062 542.792969 240.707031 544.324219 C 230.996094 549.589844 220.949219 555.039062 210.746094 563.191406 C 209.816406 563.945312 209.464844 565.125 209.714844 566.21875 C 209.816406 566.648438 209.984375 567.066406 210.28125 567.4375 C 211.320312 568.726562 213.214844 568.949219 214.515625 567.910156 C 224.300781 560.082031 234.105469 554.769531 243.585938 549.628906 C 246.445312 548.078125 249.277344 546.542969 252.042969 544.976562 C 265.785156 537.1875 271.609375 529.21875 277.773438 520.796875 C 280.121094 517.59375 282.527344 514.316406 285.453125 510.898438 C 285.804688 513.210938 286.289062 515.570312 286.992188 518.003906 C 288.972656 524.835938 293.566406 536.425781 302.878906 541.996094 C 289.722656 571.234375 270.902344 596.898438 245.628906 620.101562 C 244.117188 621.484375 242.535156 622.800781 240.957031 624.121094 C 234.011719 629.921875 226.511719 635.179688 219.183594 640.265625 C 216.148438 642.375 213.234375 644.214844 210.421875 643.953125 C 207.8125 643.695312 205.414062 641.546875 203.207031 639.273438 C 199.882812 635.839844 199.335938 634.371094 198.433594 631.929688 C 197.773438 630.148438 196.949219 627.925781 194.96875 624.585938 C 194.117188 623.136719 193.34375 621.605469 192.628906 620.042969 C 192.433594 619.625 192.25 619.191406 192.0625 618.761719 C 191.449219 617.34375 190.882812 615.875 190.394531 614.371094 C 190.328125 614.175781 190.253906 613.992188 190.1875 613.804688 C 189.640625 612.085938 189.175781 610.296875 188.769531 608.464844 C 188.683594 608.078125 188.601562 607.667969 188.515625 607.269531 C 188.164062 605.542969 187.867188 603.785156 187.644531 601.964844 C 187.625 601.800781 187.597656 601.640625 187.578125 601.472656 C 187.335938 599.421875 187.179688 597.304688 187.085938 595.140625 C 187.078125 594.863281 187.070312 594.574219 187.070312 594.296875 C 187.003906 592.265625 187.003906 590.183594 187.078125 588.046875 C 187.085938 587.871094 187.085938 587.703125 187.085938 587.527344 C 187.171875 585.347656 187.347656 583.089844 187.570312 580.804688 C 187.625 580.304688 187.679688 579.785156 187.738281 579.273438 C 187.996094 576.960938 188.304688 574.613281 188.695312 572.207031 C 188.757812 571.808594 188.738281 571.417969 188.65625 571.046875 L 188.917969 570.992188 C 189.214844 569.285156 189.519531 567.574219 189.855469 565.859375 C 190.957031 560.296875 192.257812 554.742188 193.523438 549.320312 C 195.972656 538.894531 198.5 528.105469 199.632812 517.1875 C 200.484375 508.988281 200.558594 500.769531 200.558594 492.375 L 200.558594 488.179688 C 200.558594 483.992188 200.578125 479.136719 200.746094 474.410156 C 201.144531 463.675781 202.519531 447.863281 209.84375 434.613281 C 215.238281 424.875 223.949219 416.128906 235.75 408.625 C 239.082031 406.507812 242.65625 404.476562 246.6875 402.414062 C 248.15625 401.660156 248.738281 399.871094 248.003906 398.394531 C 247.996094 398.382812 247.996094 398.375 247.996094 398.355469 C 247.234375 396.871094 245.414062 396.285156 243.9375 397.046875 C 239.742188 399.203125 236 401.320312 232.519531 403.539062 C 219.855469 411.585938 210.449219 421.066406 204.570312 431.699219 C 196.621094 446.082031 195.148438 462.832031 194.730469 474.1875 C 194.550781 479.023438 194.535156 483.945312 194.535156 488.1875 L 194.535156 492.386719 C 194.535156 500.613281 194.46875 508.652344 193.640625 516.574219 C 192.546875 527.121094 190.066406 537.714844 187.664062 547.957031 C 186.875 551.316406 186.074219 554.734375 185.324219 558.167969 C 184.367188 562.496094 183.476562 566.859375 182.75 571.234375 C 182.75 571.242188 182.75 571.261719 182.75 571.269531 C 182.324219 573.851562 182 576.367188 181.730469 578.847656 C 181.675781 579.328125 181.617188 579.820312 181.570312 580.304688 C 181.332031 582.773438 181.152344 585.207031 181.070312 587.574219 C 181.0625 587.769531 181.0625 587.957031 181.0625 588.140625 C 181.023438 589.273438 180.988281 590.417969 180.988281 591.519531 C 180.988281 592.710938 181.042969 593.859375 181.078125 595.03125 C 181.089844 595.234375 181.089844 595.449219 181.097656 595.652344 C 181.199219 598.011719 181.386719 600.304688 181.65625 602.542969 C 181.683594 602.757812 181.71875 602.96875 181.75 603.183594 C 182 605.125 182.332031 607.007812 182.714844 608.855469 C 182.796875 609.253906 182.871094 609.664062 182.972656 610.0625 C 183.417969 612.050781 183.941406 614 184.542969 615.875 C 184.625 616.125 184.730469 616.359375 184.804688 616.609375 C 185.339844 618.207031 185.953125 619.765625 186.605469 621.28125 C 186.816406 621.761719 187.023438 622.234375 187.234375 622.699219 C 188.015625 624.378906 188.84375 626.015625 189.761719 627.582031 C 189.769531 627.601562 189.78125 627.628906 189.796875 627.65625 C 191.496094 630.527344 192.183594 632.382812 192.789062 634.019531 C 193.679688 636.414062 194.460938 638.523438 197.449219 641.917969 C 197.875 642.402344 198.351562 642.914062 198.878906 643.460938 C 201.738281 646.414062 205.277344 649.488281 209.824219 649.941406 C 210.214844 649.980469 210.605469 649.996094 210.988281 649.996094 C 210.988281 649.996094 210.996094 649.996094 210.996094 649.996094 C 211.023438 649.996094 211.042969 649.980469 211.070312 649.980469 C 213.402344 649.960938 215.601562 649.265625 217.542969 648.316406 C 219.519531 647.359375 221.246094 646.164062 222.621094 645.207031 C 224.914062 643.617188 227.226562 642.011719 229.527344 640.378906 C 235.0625 636.46875 240.550781 632.347656 245.777344 627.910156 C 247.097656 626.785156 248.433594 625.691406 249.703125 624.519531 C 250.929688 623.394531 252.332031 622.132812 253.855469 620.757812 C 259.882812 615.320312 267.578125 608.375 273.1875 602.207031 C 273.242188 602.683594 273.308594 603.144531 273.363281 603.582031 C 273.578125 605.226562 275.082031 606.367188 276.734375 606.183594 C 276.734375 606.183594 276.734375 606.183594 276.742188 606.183594 C 278.394531 605.96875 279.546875 604.453125 279.34375 602.8125 C 279.027344 600.371094 278.644531 597.210938 278.507812 594.5 L 278.460938 593.683594 C 290.566406 578.355469 300.511719 561.996094 308.433594 544.351562 C 314.300781 545.921875 322.722656 545.996094 332.292969 546.070312 C 344.402344 546.164062 358.125 546.277344 367.910156 549.671875 C 396.167969 559.488281 425.953125 566.425781 457.058594 570.480469 C 457 570.804688 456.9375 571.140625 456.878906 571.464844 C 453.660156 589.859375 452.164062 605.066406 452.164062 619.339844 C 452.164062 631.546875 453.269531 642.652344 455.554688 653.210938 C 430.160156 663.738281 403.660156 669.070312 376.742188 669.070312 C 376.734375 669.070312 376.722656 669.070312 376.703125 669.070312 C 353.992188 669.070312 333.390625 666.136719 313.753906 660.101562 C 312.230469 659.636719 310.652344 660.453125 310.085938 661.910156 C 310.066406 661.964844 310.019531 662.003906 310.011719 662.058594 C 310 662.078125 309.992188 662.085938 309.992188 662.097656 C 309.5 663.683594 310.402344 665.375 311.988281 665.855469 C 332.21875 672.066406 353.390625 675.09375 376.714844 675.09375 C 376.722656 675.09375 376.742188 675.09375 376.75 675.09375 C 405.3125 675.09375 433.398438 669.273438 460.25 657.777344 L 462.570312 656.785156 L 461.996094 654.324219 C 461.867188 653.75 461.773438 653.15625 461.644531 652.578125 C 459.359375 642.253906 458.207031 631.382812 458.207031 619.359375 C 458.207031 605.4375 459.675781 590.554688 462.832031 572.523438 C 462.90625 572.105469 462.980469 571.6875 463.0625 571.269531 C 465.988281 571.613281 469.128906 571.492188 472.070312 571.789062 C 486.648438 573.25 501.4375 574.09375 516.433594 574.34375 C 519.109375 574.382812 521.617188 574.800781 524.308594 574.800781 C 533.203125 574.800781 542.191406 574.566406 551.261719 574.140625 C 551.625 574.121094 551.988281 574.113281 552.339844 574.09375 C 552.554688 574.085938 552.765625 574.074219 552.980469 574.066406 C 556.925781 573.871094 560.871094 573.636719 564.847656 573.359375 C 567.417969 573.183594 570.035156 572.953125 572.597656 572.488281 C 576.859375 571.726562 580.957031 570.332031 584.417969 567.5 C 585.03125 567 585.625 566.453125 586.210938 565.875 C 586.359375 565.738281 586.5 565.589844 586.648438 565.449219 C 587.203125 564.882812 587.753906 564.296875 588.273438 563.683594 C 588.363281 563.574219 588.457031 563.453125 588.542969 563.339844 C 588.996094 562.792969 589.433594 562.21875 589.851562 561.632812 C 589.972656 561.476562 590.082031 561.308594 590.195312 561.148438 C 590.675781 560.445312 591.152344 559.710938 591.578125 558.957031 C 591.585938 558.949219 591.585938 558.941406 591.597656 558.929688 C 591.597656 558.929688 591.597656 558.921875 591.605469 558.921875 C 594.707031 553.507812 596.285156 547.109375 594.667969 541.1875 C 591.578125 530.121094 588.347656 518.355469 583.972656 506.925781 Z M 337.390625 355.480469 C 333.457031 373.445312 324.320312 387.707031 308.320312 392.925781 C 296.351562 396.824219 283.195312 393.585938 270.605469 385.886719 C 251.765625 374.375 234.191406 352.851562 223.753906 330.234375 C 219 319.925781 216.929688 309.0625 217.515625 298.320312 C 217.933594 290.578125 219.722656 282.898438 222.925781 275.554688 C 230.199219 258.933594 243.625 246.035156 258.859375 241.070312 C 263.679688 239.5 268.722656 238.71875 273.828125 238.71875 C 282.964844 238.71875 292.265625 241.199219 300.714844 246.046875 C 301.273438 246.363281 301.8125 246.714844 302.351562 247.046875 C 318.988281 257.316406 330.949219 275.859375 336.101562 299.546875 C 339.75 316.324219 340.855469 333.984375 338.507812 349.507812 C 338.359375 350.519531 338.183594 351.515625 338.003906 352.5 C 337.808594 353.5 337.605469 354.496094 337.390625 355.480469 Z M 318.285156 435.042969 C 319.277344 434.957031 320.289062 434.9375 321.320312 434.976562 C 322.324219 435.003906 323.335938 435.105469 324.355469 435.253906 C 330.316406 436.148438 336.363281 439.089844 340.195312 444.902344 C 342.890625 448.976562 344.421875 454.039062 344.839844 459.972656 C 344.402344 467.917969 342.925781 475.171875 341.152344 479.878906 C 340.746094 480.964844 340.328125 481.910156 339.890625 482.710938 C 339.269531 483.863281 338.628906 484.667969 338.003906 485.070312 C 337.988281 485.078125 337.957031 485.105469 337.941406 485.117188 C 337.734375 485.226562 337.660156 485.28125 337.308594 485.097656 C 332.785156 482.636719 324.320312 476.75 321.347656 473.136719 C 319.351562 470.722656 316.425781 469.246094 313.296875 469.082031 C 310.253906 468.960938 307.207031 470.054688 305.007812 472.191406 C 303.558594 473.613281 301.804688 475.078125 299.945312 476.636719 C 298.117188 478.171875 296.289062 479.730469 294.570312 481.347656 C 294.996094 471.253906 296.917969 461.234375 300.300781 451.71875 C 302.089844 446.683594 304.792969 440.519531 309.890625 437.484375 C 312.117188 436.15625 315.0625 435.3125 318.285156 435.042969 Z M 356.269531 446.953125 C 355.453125 443.527344 356.019531 439.992188 357.875 436.992188 C 359.722656 433.992188 362.628906 431.894531 366.054688 431.078125 C 369.492188 430.269531 373.027344 430.835938 376.027344 432.683594 C 379.027344 434.53125 381.125 437.4375 381.941406 440.863281 C 382.757812 444.289062 382.183594 447.835938 380.335938 450.824219 C 378.488281 453.824219 375.582031 455.921875 372.15625 456.742188 C 370.316406 457.175781 368.460938 457.1875 366.667969 456.84375 C 364.328125 451.597656 360.492188 449.164062 356.808594 448.503906 C 356.613281 447.992188 356.398438 447.492188 356.269531 446.953125 Z M 356.269531 446.953125 " fill-opacity="1" fill-rule="nonzero"/></g><path fill="#000000" d="M 409.9375 335.433594 C 410.027344 335.441406 410.121094 335.441406 410.207031 335.441406 C 411.746094 335.441406 413.066406 334.261719 413.203125 332.703125 L 417.363281 286.527344 L 392.015625 298.785156 L 395.230469 263.203125 C 395.378906 261.550781 394.160156 260.085938 392.5 259.9375 C 390.875 259.789062 389.378906 261.003906 389.222656 262.667969 L 385.050781 308.839844 L 410.398438 296.585938 L 407.1875 332.164062 C 407.046875 333.816406 408.273438 335.285156 409.9375 335.433594 Z M 409.9375 335.433594 " fill-opacity="1" fill-rule="nonzero"/><path fill="#000000" d="M 529.601562 398.785156 C 529.695312 398.792969 529.785156 398.792969 529.878906 398.792969 C 531.421875 398.792969 532.730469 397.613281 532.878906 396.054688 L 537.039062 349.878906 L 511.691406 362.136719 L 514.902344 326.566406 C 515.050781 324.902344 513.824219 323.445312 512.171875 323.289062 C 510.546875 323.140625 509.054688 324.363281 508.894531 326.015625 L 504.734375 372.191406 L 530.082031 359.933594 L 526.871094 395.515625 C 526.722656 397.175781 527.949219 398.636719 529.601562 398.785156 Z M 529.601562 398.785156 " fill-opacity="1" fill-rule="nonzero"/><path fill="#000000" d="M 438.273438 400.054688 C 436.957031 401.078125 436.722656 402.972656 437.746094 404.28125 C 438.339844 405.050781 439.230469 405.441406 440.128906 405.441406 C 440.769531 405.441406 441.429688 405.238281 441.976562 404.808594 L 447.566406 400.464844 C 448.886719 399.433594 449.117188 397.550781 448.097656 396.238281 C 447.085938 394.929688 445.179688 394.6875 443.871094 395.710938 Z M 438.273438 400.054688 " fill-opacity="1" fill-rule="nonzero"/><path fill="#000000" d="M 443.148438 434.132812 C 443.4375 435.5625 444.691406 436.554688 446.101562 436.554688 C 446.296875 436.554688 446.492188 436.535156 446.695312 436.5 L 454.429688 434.957031 C 456.0625 434.632812 457.121094 433.046875 456.796875 431.421875 C 456.472656 429.785156 454.902344 428.710938 453.257812 429.054688 L 445.515625 430.59375 C 443.882812 430.917969 442.824219 432.507812 443.148438 434.132812 Z M 443.148438 434.132812 " fill-opacity="1" fill-rule="nonzero"/><g fill="#364dff" fill-opacity="1"><g transform="translate(97.342958, 162.472394)"><g><path d="M 52.046875 -45.28125 C 52.046875 -42 51.269531 -38.90625 49.71875 -36 C 48.175781 -33.09375 45.703125 -30.726562 42.296875 -28.90625 C 38.898438 -27.082031 34.539062 -26.171875 29.21875 -26.171875 L 17.53125 -26.171875 L 17.53125 0 L 6.953125 0 L 6.953125 -64.484375 L 29.21875 -64.484375 C 34.175781 -64.484375 38.367188 -63.628906 41.796875 -61.921875 C 45.234375 -60.222656 47.800781 -57.921875 49.5 -55.015625 C 51.195312 -52.109375 52.046875 -48.863281 52.046875 -45.28125 Z M 29.21875 -34.796875 C 33.238281 -34.796875 36.238281 -35.707031 38.21875 -37.53125 C 40.195312 -39.351562 41.1875 -41.9375 41.1875 -45.28125 C 41.1875 -52.332031 37.195312 -55.859375 29.21875 -55.859375 L 17.53125 -55.859375 L 17.53125 -34.796875 Z M 29.21875 -34.796875 "/></g></g></g><g fill="#364dff" fill-opacity="1"><g transform="translate(152.538508, 162.472394)"><g><path d="M 3.4375 -25.796875 C 3.4375 -30.929688 4.5 -35.476562 6.625 -39.4375 C 8.757812 -43.394531 11.664062 -46.46875 15.34375 -48.65625 C 19.03125 -50.851562 23.101562 -51.953125 27.5625 -51.953125 C 31.582031 -51.953125 35.09375 -51.160156 38.09375 -49.578125 C 41.09375 -48.003906 43.488281 -46.046875 45.28125 -43.703125 L 45.28125 -51.125 L 55.953125 -51.125 L 55.953125 0 L 45.28125 0 L 45.28125 -7.609375 C 43.488281 -5.191406 41.046875 -3.179688 37.953125 -1.578125 C 34.859375 0.0234375 31.332031 0.828125 27.375 0.828125 C 22.976562 0.828125 18.953125 -0.296875 15.296875 -2.546875 C 11.648438 -4.804688 8.757812 -7.960938 6.625 -12.015625 C 4.5 -16.066406 3.4375 -20.660156 3.4375 -25.796875 Z M 45.28125 -25.609375 C 45.28125 -29.128906 44.550781 -32.1875 43.09375 -34.78125 C 41.644531 -37.382812 39.742188 -39.363281 37.390625 -40.71875 C 35.035156 -42.082031 32.5 -42.765625 29.78125 -42.765625 C 27.0625 -42.765625 24.523438 -42.097656 22.171875 -40.765625 C 19.828125 -39.441406 17.925781 -37.492188 16.46875 -34.921875 C 15.007812 -32.359375 14.28125 -29.316406 14.28125 -25.796875 C 14.28125 -22.265625 15.007812 -19.171875 16.46875 -16.515625 C 17.925781 -13.859375 19.84375 -11.832031 22.21875 -10.4375 C 24.601562 -9.039062 27.125 -8.34375 29.78125 -8.34375 C 32.5 -8.34375 35.035156 -9.023438 37.390625 -10.390625 C 39.742188 -11.753906 41.644531 -13.75 43.09375 -16.375 C 44.550781 -19 45.28125 -22.078125 45.28125 -25.609375 Z M 45.28125 -25.609375 "/></g></g></g><g fill="#364dff" fill-opacity="1"><g transform="translate(215.433597, 162.472394)"><g><path d="M 17.53125 -68.65625 L 17.53125 0 L 6.953125 0 L 6.953125 -68.65625 Z M 17.53125 -68.65625 "/></g></g></g><g fill="#364dff" fill-opacity="1"><g transform="translate(239.923723, 162.472394)"><g><path d="M 17.53125 -43.609375 C 19.320312 -45.960938 21.765625 -47.941406 24.859375 -49.546875 C 27.953125 -51.148438 31.445312 -51.953125 35.34375 -51.953125 C 39.800781 -51.953125 43.867188 -50.851562 47.546875 -48.65625 C 51.234375 -46.46875 54.125 -43.394531 56.21875 -39.4375 C 58.320312 -35.476562 59.375 -30.929688 59.375 -25.796875 C 59.375 -20.660156 58.320312 -16.066406 56.21875 -12.015625 C 54.125 -7.960938 51.234375 -4.804688 47.546875 -2.546875 C 43.867188 -0.296875 39.800781 0.828125 35.34375 0.828125 C 31.445312 0.828125 27.984375 0.0390625 24.953125 -1.53125 C 21.921875 -3.101562 19.445312 -5.066406 17.53125 -7.421875 L 17.53125 24.3125 L 6.953125 24.3125 L 6.953125 -51.125 L 17.53125 -51.125 Z M 48.625 -25.796875 C 48.625 -29.316406 47.894531 -32.359375 46.4375 -34.921875 C 44.976562 -37.492188 43.054688 -39.441406 40.671875 -40.765625 C 38.296875 -42.097656 35.75 -42.765625 33.03125 -42.765625 C 30.375 -42.765625 27.851562 -42.082031 25.46875 -40.71875 C 23.082031 -39.363281 21.160156 -37.382812 19.703125 -34.78125 C 18.253906 -32.1875 17.53125 -29.128906 17.53125 -25.609375 C 17.53125 -22.078125 18.253906 -19 19.703125 -16.375 C 21.160156 -13.75 23.082031 -11.753906 25.46875 -10.390625 C 27.851562 -9.023438 30.375 -8.34375 33.03125 -8.34375 C 35.75 -8.34375 38.296875 -9.039062 40.671875 -10.4375 C 43.054688 -11.832031 44.976562 -13.859375 46.4375 -16.515625 C 47.894531 -19.171875 48.625 -22.265625 48.625 -25.796875 Z M 48.625 -25.796875 "/></g></g></g><g fill="#364dff" fill-opacity="1"><g transform="translate(302.818824, 162.472394)"><g><path d="M 12.34375 -57.890625 C 10.425781 -57.890625 8.816406 -58.539062 7.515625 -59.84375 C 6.210938 -61.144531 5.5625 -62.753906 5.5625 -64.671875 C 5.5625 -66.585938 6.210938 -68.191406 7.515625 -69.484375 C 8.816406 -70.785156 10.425781 -71.4375 12.34375 -71.4375 C 14.195312 -71.4375 15.769531 -70.785156 17.0625 -69.484375 C 18.363281 -68.191406 19.015625 -66.585938 19.015625 -64.671875 C 19.015625 -62.753906 18.363281 -61.144531 17.0625 -59.84375 C 15.769531 -58.539062 14.195312 -57.890625 12.34375 -57.890625 Z M 17.53125 -51.125 L 17.53125 0 L 6.953125 0 L 6.953125 -51.125 Z M 17.53125 -51.125 "/></g></g></g><g fill="#364dff" fill-opacity="1"><g transform="translate(327.30895, 162.472394)"><g><path d="M 19.296875 -42.5 L 19.296875 -14.203125 C 19.296875 -12.273438 19.742188 -10.894531 20.640625 -10.0625 C 21.535156 -9.226562 23.066406 -8.8125 25.234375 -8.8125 L 31.734375 -8.8125 L 31.734375 0 L 23.375 0 C 18.613281 0 14.960938 -1.113281 12.421875 -3.34375 C 9.890625 -5.570312 8.625 -9.191406 8.625 -14.203125 L 8.625 -42.5 L 2.59375 -42.5 L 2.59375 -51.125 L 8.625 -51.125 L 8.625 -63.828125 L 19.296875 -63.828125 L 19.296875 -51.125 L 31.734375 -51.125 L 31.734375 -42.5 Z M 19.296875 -42.5 "/></g></g></g><g fill="#364dff" fill-opacity="1"><g transform="translate(361.817737, 162.472394)"><g><path d="M 3.4375 -25.796875 C 3.4375 -30.929688 4.5 -35.476562 6.625 -39.4375 C 8.757812 -43.394531 11.664062 -46.46875 15.34375 -48.65625 C 19.03125 -50.851562 23.101562 -51.953125 27.5625 -51.953125 C 31.582031 -51.953125 35.09375 -51.160156 38.09375 -49.578125 C 41.09375 -48.003906 43.488281 -46.046875 45.28125 -43.703125 L 45.28125 -51.125 L 55.953125 -51.125 L 55.953125 0 L 45.28125 0 L 45.28125 -7.609375 C 43.488281 -5.191406 41.046875 -3.179688 37.953125 -1.578125 C 34.859375 0.0234375 31.332031 0.828125 27.375 0.828125 C 22.976562 0.828125 18.953125 -0.296875 15.296875 -2.546875 C 11.648438 -4.804688 8.757812 -7.960938 6.625 -12.015625 C 4.5 -16.066406 3.4375 -20.660156 3.4375 -25.796875 Z M 45.28125 -25.609375 C 45.28125 -29.128906 44.550781 -32.1875 43.09375 -34.78125 C 41.644531 -37.382812 39.742188 -39.363281 37.390625 -40.71875 C 35.035156 -42.082031 32.5 -42.765625 29.78125 -42.765625 C 27.0625 -42.765625 24.523438 -42.097656 22.171875 -40.765625 C 19.828125 -39.441406 17.925781 -37.492188 16.46875 -34.921875 C 15.007812 -32.359375 14.28125 -29.316406 14.28125 -25.796875 C 14.28125 -22.265625 15.007812 -19.171875 16.46875 -16.515625 C 17.925781 -13.859375 19.84375 -11.832031 22.21875 -10.4375 C 24.601562 -9.039062 27.125 -8.34375 29.78125 -8.34375 C 32.5 -8.34375 35.035156 -9.023438 37.390625 -10.390625 C 39.742188 -11.753906 41.644531 -13.75 43.09375 -16.375 C 44.550781 -19 45.28125 -22.078125 45.28125 -25.609375 Z M 45.28125 -25.609375 "/></g></g></g><g fill="#364dff" fill-opacity="1"><g transform="translate(424.712838, 162.472394)"><g><path d="M 19.296875 -42.5 L 19.296875 -14.203125 C 19.296875 -12.273438 19.742188 -10.894531 20.640625 -10.0625 C 21.535156 -9.226562 23.066406 -8.8125 25.234375 -8.8125 L 31.734375 -8.8125 L 31.734375 0 L 23.375 0 C 18.613281 0 14.960938 -1.113281 12.421875 -3.34375 C 9.890625 -5.570312 8.625 -9.191406 8.625 -14.203125 L 8.625 -42.5 L 2.59375 -42.5 L 2.59375 -51.125 L 8.625 -51.125 L 8.625 -63.828125 L 19.296875 -63.828125 L 19.296875 -51.125 L 31.734375 -51.125 L 31.734375 -42.5 Z M 19.296875 -42.5 "/></g></g></g><g fill="#364dff" fill-opacity="1"><g transform="translate(459.221648, 162.472394)"><g><path d="M 12.34375 -57.890625 C 10.425781 -57.890625 8.816406 -58.539062 7.515625 -59.84375 C 6.210938 -61.144531 5.5625 -62.753906 5.5625 -64.671875 C 5.5625 -66.585938 6.210938 -68.191406 7.515625 -69.484375 C 8.816406 -70.785156 10.425781 -71.4375 12.34375 -71.4375 C 14.195312 -71.4375 15.769531 -70.785156 17.0625 -69.484375 C 18.363281 -68.191406 19.015625 -66.585938 19.015625 -64.671875 C 19.015625 -62.753906 18.363281 -61.144531 17.0625 -59.84375 C 15.769531 -58.539062 14.195312 -57.890625 12.34375 -57.890625 Z M 17.53125 -51.125 L 17.53125 0 L 6.953125 0 L 6.953125 -51.125 Z M 17.53125 -51.125 "/></g></g></g><g fill="#364dff" fill-opacity="1"><g transform="translate(483.711774, 162.472394)"><g><path d="M 29.140625 0.828125 C 24.304688 0.828125 19.941406 -0.265625 16.046875 -2.453125 C 12.148438 -4.648438 9.085938 -7.742188 6.859375 -11.734375 C 4.640625 -15.722656 3.53125 -20.347656 3.53125 -25.609375 C 3.53125 -30.804688 4.671875 -35.414062 6.953125 -39.4375 C 9.242188 -43.457031 12.367188 -46.546875 16.328125 -48.703125 C 20.285156 -50.867188 24.707031 -51.953125 29.59375 -51.953125 C 34.476562 -51.953125 38.898438 -50.867188 42.859375 -48.703125 C 46.816406 -46.546875 49.941406 -43.457031 52.234375 -39.4375 C 54.523438 -35.414062 55.671875 -30.804688 55.671875 -25.609375 C 55.671875 -20.410156 54.492188 -15.800781 52.140625 -11.78125 C 49.796875 -7.757812 46.597656 -4.648438 42.546875 -2.453125 C 38.492188 -0.265625 34.023438 0.828125 29.140625 0.828125 Z M 29.140625 -8.34375 C 31.859375 -8.34375 34.40625 -8.992188 36.78125 -10.296875 C 39.164062 -11.597656 41.097656 -13.546875 42.578125 -16.140625 C 44.066406 -18.742188 44.8125 -21.898438 44.8125 -25.609375 C 44.8125 -29.316406 44.097656 -32.453125 42.671875 -35.015625 C 41.253906 -37.585938 39.367188 -39.519531 37.015625 -40.8125 C 34.671875 -42.113281 32.132812 -42.765625 29.40625 -42.765625 C 26.6875 -42.765625 24.164062 -42.113281 21.84375 -40.8125 C 19.53125 -39.519531 17.691406 -37.585938 16.328125 -35.015625 C 14.960938 -32.453125 14.28125 -29.316406 14.28125 -25.609375 C 14.28125 -20.097656 15.6875 -15.84375 18.5 -12.84375 C 21.320312 -9.84375 24.867188 -8.34375 29.140625 -8.34375 Z M 29.140625 -8.34375 "/></g></g></g><g fill="#364dff" fill-opacity="1"><g transform="translate(542.89622, 162.472394)"><g><path d="M 32.75 -51.953125 C 36.769531 -51.953125 40.375 -51.117188 43.5625 -49.453125 C 46.75 -47.785156 49.238281 -45.3125 51.03125 -42.03125 C 52.820312 -38.75 53.71875 -34.789062 53.71875 -30.15625 L 53.71875 0 L 43.234375 0 L 43.234375 -28.578125 C 43.234375 -33.148438 42.085938 -36.65625 39.796875 -39.09375 C 37.515625 -41.539062 34.394531 -42.765625 30.4375 -42.765625 C 26.476562 -42.765625 23.335938 -41.539062 21.015625 -39.09375 C 18.691406 -36.65625 17.53125 -33.148438 17.53125 -28.578125 L 17.53125 0 L 6.953125 0 L 6.953125 -51.125 L 17.53125 -51.125 L 17.53125 -45.28125 C 19.269531 -47.382812 21.484375 -49.019531 24.171875 -50.1875 C 26.859375 -51.363281 29.71875 -51.953125 32.75 -51.953125 Z M 32.75 -51.953125 "/></g></g></g><g fill="#364dff" fill-opacity="1"><g transform="translate(603.101111, 162.472394)"><g><path d="M 25.515625 0.828125 C 21.492188 0.828125 17.890625 0.101562 14.703125 -1.34375 C 11.515625 -2.800781 8.992188 -4.78125 7.140625 -7.28125 C 5.285156 -9.789062 4.296875 -12.59375 4.171875 -15.6875 L 15.125 -15.6875 C 15.3125 -13.519531 16.347656 -11.707031 18.234375 -10.25 C 20.117188 -8.800781 22.484375 -8.078125 25.328125 -8.078125 C 28.296875 -8.078125 30.597656 -8.644531 32.234375 -9.78125 C 33.878906 -10.925781 34.703125 -12.398438 34.703125 -14.203125 C 34.703125 -16.117188 33.785156 -17.539062 31.953125 -18.46875 C 30.128906 -19.394531 27.238281 -20.414062 23.28125 -21.53125 C 19.445312 -22.582031 16.320312 -23.601562 13.90625 -24.59375 C 11.5 -25.582031 9.414062 -27.09375 7.65625 -29.125 C 5.894531 -31.164062 5.015625 -33.859375 5.015625 -37.203125 C 5.015625 -39.921875 5.816406 -42.410156 7.421875 -44.671875 C 9.023438 -46.929688 11.328125 -48.707031 14.328125 -50 C 17.328125 -51.300781 20.78125 -51.953125 24.6875 -51.953125 C 30.5 -51.953125 35.179688 -50.484375 38.734375 -47.546875 C 42.296875 -44.609375 44.195312 -40.601562 44.4375 -35.53125 L 33.859375 -35.53125 C 33.679688 -37.820312 32.753906 -39.644531 31.078125 -41 C 29.410156 -42.363281 27.15625 -43.046875 24.3125 -43.046875 C 21.53125 -43.046875 19.394531 -42.519531 17.90625 -41.46875 C 16.425781 -40.414062 15.6875 -39.023438 15.6875 -37.296875 C 15.6875 -35.929688 16.179688 -34.785156 17.171875 -33.859375 C 18.160156 -32.929688 19.363281 -32.203125 20.78125 -31.671875 C 22.207031 -31.148438 24.3125 -30.488281 27.09375 -29.6875 C 30.800781 -28.695312 33.84375 -27.691406 36.21875 -26.671875 C 38.601562 -25.648438 40.660156 -24.148438 42.390625 -22.171875 C 44.128906 -20.191406 45.03125 -17.5625 45.09375 -14.28125 C 45.09375 -11.375 44.285156 -8.773438 42.671875 -6.484375 C 41.066406 -4.203125 38.796875 -2.410156 35.859375 -1.109375 C 32.921875 0.179688 29.472656 0.828125 25.515625 0.828125 Z M 25.515625 0.828125 "/></g></g></g></svg>