<svg xmlns="http://www.w3.org/2000/svg" xmlns:xlink="http://www.w3.org/1999/xlink" width="1000" zoomAndPan="magnify" viewBox="0 0 750 749.999995" height="1000" preserveAspectRatio="xMidYMid meet" version="1.0"><defs><g/></defs><rect x="-75" width="900" fill="#ffffff" y="-74.999999" height="899.999994" fill-opacity="1"/><rect x="-75" width="900" fill="#ffffff" y="-74.999999" height="899.999994" fill-opacity="1"/><path fill="#000000" d="M 375 367.5 C 373.125 367.5 371.625 366 371.625 364.125 L 371.625 309.375 C 371.625 307.5 373.125 306 375 306 C 376.875 306 378.375 307.5 378.375 309.375 L 378.375 364.125 C 378.375 366 376.875 367.5 375 367.5 Z M 375 367.5 " fill-opacity="1" fill-rule="nonzero"/><path fill="#000000" d="M 375 367.5 C 374.0625 367.5 373.21875 367.125 372.5625 366.46875 L 354.5625 347.71875 C 353.25 346.40625 353.34375 344.25 354.65625 342.9375 C 355.96875 341.625 358.125 341.71875 359.4375 343.03125 L 375 359.25 L 390.5625 343.03125 C 391.875 341.71875 394.03125 341.625 395.34375 342.9375 C 396.65625 344.25 396.75 346.40625 395.4375 347.71875 L 377.4375 366.46875 C 376.78125 367.125 375.9375 367.5 375 367.5 Z M 375 367.5 " fill-opacity="1" fill-rule="nonzero"/><path fill="#000000" d="M 445.5 400.125 C 444.65625 400.125 443.71875 399.75 443.15625 399.09375 C 441.84375 397.78125 441.84375 395.625 443.15625 394.3125 L 481.875 355.59375 C 483.1875 354.28125 485.34375 354.28125 486.65625 355.59375 C 487.96875 356.90625 487.96875 359.0625 486.65625 360.375 L 447.9375 399.09375 C 447.1875 399.84375 446.34375 400.125 445.5 400.125 Z M 445.5 400.125 " fill-opacity="1" fill-rule="nonzero"/><path fill="#000000" d="M 445.5 400.125 C 444.5625 400.125 443.71875 399.75 443.15625 399.09375 C 442.5 398.4375 442.125 397.59375 442.125 396.65625 L 442.6875 370.59375 C 442.78125 368.71875 444.1875 367.3125 446.0625 367.3125 L 446.15625 367.3125 C 448.03125 367.40625 449.4375 368.90625 449.4375 370.78125 L 448.96875 393.28125 L 471.46875 392.8125 C 473.34375 392.8125 474.9375 394.3125 474.9375 396.09375 C 475.03125 397.96875 473.4375 399.5625 471.65625 399.5625 L 445.59375 400.125 C 445.5 400.125 445.5 400.125 445.5 400.125 Z M 445.5 400.125 " fill-opacity="1" fill-rule="nonzero"/><path fill="#000000" d="M 500.71875 464.71875 L 451.78125 464.71875 C 449.90625 464.71875 448.40625 463.21875 448.40625 461.34375 C 448.40625 459.46875 449.90625 457.96875 451.78125 457.96875 L 500.71875 457.96875 C 502.59375 457.96875 504.09375 459.46875 504.09375 461.34375 C 504.09375 463.21875 502.59375 464.71875 500.71875 464.71875 Z M 500.71875 464.71875 " fill-opacity="1" fill-rule="nonzero"/><path fill="#000000" d="M 470.625 482.8125 C 469.78125 482.8125 468.9375 482.4375 468.28125 481.875 L 449.53125 463.875 C 448.875 463.21875 448.5 462.375 448.5 461.4375 C 448.5 460.5 448.875 459.65625 449.53125 459 L 468.28125 441 C 469.59375 439.6875 471.75 439.78125 473.0625 441.09375 C 474.375 442.40625 474.28125 444.5625 472.96875 445.875 L 456.75 461.4375 L 472.96875 477 C 474.28125 478.3125 474.375 480.46875 473.0625 481.78125 C 472.40625 482.4375 471.46875 482.8125 470.625 482.8125 Z M 470.625 482.8125 " fill-opacity="1" fill-rule="nonzero"/><path fill="#000000" d="M 304.5 400.125 C 303.65625 400.125 302.71875 399.75 302.15625 399.09375 L 263.4375 360.46875 C 262.125 359.15625 262.125 357 263.4375 355.6875 C 264.75 354.375 266.90625 354.375 268.21875 355.6875 L 306.9375 394.40625 C 308.25 395.71875 308.25 397.875 306.9375 399.1875 C 306.28125 399.84375 305.34375 400.125 304.5 400.125 Z M 304.5 400.125 " fill-opacity="1" fill-rule="nonzero"/><path fill="#000000" d="M 304.5 400.125 L 278.4375 399.5625 C 276.5625 399.46875 275.15625 397.96875 275.15625 396.09375 C 275.25 394.21875 276.75 392.71875 278.625 392.8125 L 301.125 393.28125 L 300.65625 370.78125 C 300.5625 368.90625 302.15625 367.3125 303.9375 367.3125 C 305.71875 367.3125 307.40625 368.8125 307.40625 370.59375 L 307.96875 396.65625 C 307.96875 397.59375 307.59375 398.4375 306.9375 399.09375 C 306.28125 399.84375 305.4375 400.125 304.5 400.125 Z M 304.5 400.125 " fill-opacity="1" fill-rule="nonzero"/><path fill="#000000" d="M 298.21875 464.71875 L 249.28125 464.71875 C 247.40625 464.71875 245.90625 463.21875 245.90625 461.34375 C 245.90625 459.46875 247.40625 457.96875 249.28125 457.96875 L 298.21875 457.96875 C 300.09375 457.96875 301.59375 459.46875 301.59375 461.34375 C 301.59375 463.21875 300.09375 464.71875 298.21875 464.71875 Z M 298.21875 464.71875 " fill-opacity="1" fill-rule="nonzero"/><path fill="#000000" d="M 279.375 482.8125 C 278.4375 482.8125 277.59375 482.4375 276.9375 481.78125 C 275.625 480.46875 275.71875 478.3125 277.03125 477 L 293.25 461.4375 L 277.03125 445.875 C 275.71875 444.5625 275.625 442.40625 276.9375 441.09375 C 278.25 439.78125 280.40625 439.6875 281.71875 441 L 300.46875 459 C 301.125 459.65625 301.5 460.5 301.5 461.4375 C 301.5 462.375 301.125 463.21875 300.46875 463.875 L 281.71875 481.875 C 281.0625 482.4375 280.21875 482.8125 279.375 482.8125 Z M 279.375 482.8125 " fill-opacity="1" fill-rule="nonzero"/><path fill="#000000" d="M 376.40625 535.125 C 347.625 535.125 324.28125 511.6875 324.28125 483 L 324.28125 454.21875 C 324.28125 453.46875 324.1875 452.71875 323.90625 452.0625 C 316.125 432.75 315 417.84375 320.4375 406.3125 C 322.5 401.90625 326.25 398.53125 331.03125 396.65625 C 345.5625 391.125 345 383.71875 342.9375 377.90625 C 342.46875 376.5 342.84375 374.90625 344.15625 374.0625 C 345.375 373.125 346.96875 373.125 348.1875 374.0625 C 354.5625 378.84375 361.03125 380.4375 367.96875 379.03125 C 371.625 378.28125 374.625 378 377.625 378 C 396.09375 378.1875 413.90625 387.1875 424.125 401.71875 C 433.875 415.6875 435.75 433.3125 429.28125 451.40625 C 428.90625 452.4375 428.71875 453.5625 428.71875 454.59375 L 428.71875 482.8125 C 428.53125 511.6875 405.1875 535.125 376.40625 535.125 Z M 350.71875 383.4375 C 350.71875 390.375 346.78125 397.78125 333.375 402.9375 C 330.1875 404.15625 327.75 406.40625 326.4375 409.21875 C 321.84375 418.96875 322.96875 432.1875 330 449.625 C 330.65625 451.125 330.9375 452.625 330.9375 454.3125 L 330.9375 483.09375 C 330.9375 508.125 351.28125 528.46875 376.3125 528.46875 C 401.34375 528.46875 421.6875 508.125 421.6875 483.09375 L 421.6875 454.6875 C 421.6875 452.8125 422.0625 451.03125 422.625 449.25 C 429.9375 428.8125 424.3125 414.28125 418.3125 405.65625 C 409.40625 392.90625 393.75 384.9375 377.34375 384.75 C 374.90625 384.75 372.28125 385.03125 369.09375 385.6875 C 362.90625 386.90625 356.625 386.25 350.71875 383.4375 Z M 350.71875 383.4375 " fill-opacity="1" fill-rule="nonzero"/><path fill="#000000" d="M 327.375 455.53125 C 326.25 455.53125 325.125 454.96875 324.46875 453.9375 C 323.53125 452.34375 324 450.28125 325.5 449.25 L 356.625 429.9375 C 358.21875 429 360.28125 429.46875 361.3125 430.96875 C 362.34375 432.5625 361.78125 434.625 360.28125 435.65625 L 329.0625 454.96875 C 328.59375 455.4375 327.9375 455.53125 327.375 455.53125 Z M 327.375 455.53125 " fill-opacity="1" fill-rule="nonzero"/><path fill="#000000" d="M 424.40625 460.3125 C 423.09375 460.3125 421.78125 459.5625 421.3125 458.25 C 418.78125 452.15625 415.21875 449.0625 410.0625 448.78125 C 409.59375 448.6875 409.03125 448.78125 408.28125 448.78125 C 405 448.96875 401.90625 449.15625 398.90625 449.15625 C 368.34375 449.15625 351 438.09375 345.9375 415.5 C 345.5625 413.71875 346.6875 411.9375 348.5625 411.46875 C 350.34375 411.09375 352.125 412.21875 352.59375 414.09375 C 357.28125 435.375 374.90625 444.28125 407.8125 442.125 C 408.84375 442.03125 409.6875 442.03125 410.4375 442.03125 C 418.21875 442.5 424.03125 447.09375 427.5 455.625 C 428.25 457.40625 427.40625 459.375 425.625 460.03125 C 425.34375 460.21875 424.875 460.3125 424.40625 460.3125 Z M 424.40625 460.3125 " fill-opacity="1" fill-rule="nonzero"/><path fill="#000000" d="M 326.15625 488.90625 C 316.40625 488.90625 308.34375 480.9375 308.34375 471.09375 C 308.34375 461.25 316.3125 453.28125 326.15625 453.28125 C 326.71875 453.28125 327.375 453.375 327.9375 453.375 C 329.8125 453.5625 331.125 455.25 330.9375 457.125 C 330.75 459 329.0625 460.3125 327.1875 460.125 C 326.8125 460.03125 326.4375 460.03125 326.0625 460.03125 C 319.96875 460.03125 315 465 315 471.09375 C 315 477.1875 319.96875 482.15625 326.0625 482.15625 C 326.4375 482.15625 326.8125 482.15625 327.1875 482.0625 C 329.0625 481.875 330.75 483.1875 330.9375 485.0625 C 331.125 486.9375 329.8125 488.625 327.9375 488.8125 C 327.375 488.90625 326.8125 488.90625 326.15625 488.90625 Z M 326.15625 488.90625 " fill-opacity="1" fill-rule="nonzero"/><path fill="#000000" d="M 425.15625 488.90625 C 423.375 488.90625 421.96875 487.59375 421.78125 485.8125 C 421.59375 483.9375 423 482.34375 424.875 482.15625 C 430.5 481.6875 434.90625 476.90625 434.90625 471.1875 C 434.90625 465.46875 430.59375 460.6875 424.96875 460.21875 C 423.09375 460.03125 421.78125 458.4375 421.96875 456.5625 C 422.15625 454.6875 423.75 453.375 425.625 453.5625 C 434.8125 454.40625 441.75 462 441.75 471.1875 C 441.75 480.28125 434.625 488.0625 425.53125 488.8125 C 425.25 488.90625 425.25 488.90625 425.15625 488.90625 Z M 425.15625 488.90625 " fill-opacity="1" fill-rule="nonzero"/><path fill="#000000" d="M 375 570.75 C 367.21875 570.75 359.90625 567.75 354.46875 562.21875 C 348.9375 556.6875 345.9375 549.46875 345.9375 541.6875 L 345.9375 523.59375 C 345.9375 521.71875 347.4375 520.21875 349.3125 520.21875 C 351.1875 520.21875 352.6875 521.71875 352.6875 523.59375 L 352.6875 541.6875 C 352.6875 547.6875 355.03125 553.21875 359.25 557.4375 C 363.46875 561.65625 369 564 375 564 C 387.28125 564 397.3125 553.96875 397.3125 541.6875 L 397.3125 525.28125 C 397.3125 523.40625 398.8125 521.90625 400.6875 521.90625 C 402.5625 521.90625 404.0625 523.40625 404.0625 525.28125 L 404.0625 541.6875 C 404.0625 557.625 391.03125 570.75 375 570.75 Z M 375 570.75 " fill-opacity="1" fill-rule="nonzero"/><path fill="#000000" d="M 463.5 594 C 461.625 594 460.125 592.5 460.125 590.625 L 460.125 570.46875 C 460.125 554.625 447.28125 541.875 431.53125 541.875 L 400.78125 541.875 C 398.90625 541.875 397.40625 540.375 397.40625 538.5 C 397.40625 536.625 398.90625 535.125 400.78125 535.125 L 431.53125 535.125 C 451.03125 535.125 466.875 550.96875 466.875 570.46875 L 466.875 590.625 C 466.875 592.5 465.375 594 463.5 594 Z M 463.5 594 " fill-opacity="1" fill-rule="nonzero"/><path fill="#000000" d="M 286.5 594 C 284.625 594 283.125 592.5 283.125 590.625 L 283.125 570.46875 C 283.125 550.96875 298.96875 535.125 318.46875 535.125 L 349.21875 535.125 C 351.09375 535.125 352.59375 536.625 352.59375 538.5 C 352.59375 540.375 351.09375 541.875 349.21875 541.875 L 318.46875 541.875 C 302.625 541.875 289.875 554.71875 289.875 570.46875 L 289.875 590.625 C 289.875 592.5 288.46875 594 286.5 594 Z M 286.5 594 " fill-opacity="1" fill-rule="nonzero"/><path fill="#000000" d="M 582.28125 362.4375 C 570.9375 335.625 554.71875 311.625 534.09375 290.90625 C 513.46875 270.28125 489.375 254.0625 462.5625 242.71875 C 434.8125 231 405.375 225 375 225 C 344.625 225 315.1875 230.90625 287.4375 242.71875 C 260.625 254.0625 236.625 270.28125 215.90625 290.90625 C 195.1875 311.53125 179.0625 335.625 167.71875 362.4375 C 156 390.1875 150 419.625 150 450 C 150 480.375 155.90625 509.8125 167.71875 537.5625 C 179.0625 564.375 195.28125 588.375 215.90625 609.09375 C 236.53125 629.71875 260.625 645.9375 287.4375 657.28125 C 315.1875 669 344.625 675 375 675 C 405.375 675 434.8125 669.09375 462.5625 657.28125 C 489.375 645.9375 513.375 629.71875 534.09375 609.09375 C 554.71875 588.46875 570.9375 564.375 582.28125 537.5625 C 594 509.8125 600 480.375 600 450 C 600 419.625 594 390.1875 582.28125 362.4375 Z M 591.5625 450 C 591.5625 569.4375 494.34375 666.65625 374.90625 666.65625 C 255.46875 666.65625 158.25 569.4375 158.25 450 C 158.25 330.5625 255.46875 233.34375 374.90625 233.34375 C 494.4375 233.34375 591.5625 330.5625 591.5625 450 Z M 591.5625 450 " fill-opacity="1" fill-rule="nonzero"/><g fill="#364dff" fill-opacity="1"><g transform="translate(233.751538, 162.472512)"><g><path d="M 28.203125 0.65625 C 23.867188 0.65625 19.96875 -0.0976562 16.5 -1.609375 C 13.039062 -3.128906 10.320312 -5.28125 8.34375 -8.0625 C 6.363281 -10.851562 5.375 -14.101562 5.375 -17.8125 L 16.703125 -17.8125 C 16.953125 -15.03125 18.050781 -12.738281 20 -10.9375 C 21.945312 -9.144531 24.679688 -8.25 28.203125 -8.25 C 31.847656 -8.25 34.691406 -9.128906 36.734375 -10.890625 C 38.773438 -12.660156 39.796875 -14.9375 39.796875 -17.71875 C 39.796875 -19.882812 39.160156 -21.644531 37.890625 -23 C 36.628906 -24.363281 35.054688 -25.414062 33.171875 -26.15625 C 31.285156 -26.90625 28.671875 -27.710938 25.328125 -28.578125 C 21.117188 -29.691406 17.703125 -30.816406 15.078125 -31.953125 C 12.453125 -33.097656 10.207031 -34.878906 8.34375 -37.296875 C 6.488281 -39.710938 5.5625 -42.929688 5.5625 -46.953125 C 5.5625 -50.660156 6.488281 -53.90625 8.34375 -56.6875 C 10.207031 -59.46875 12.804688 -61.597656 16.140625 -63.078125 C 19.484375 -64.566406 23.347656 -65.3125 27.734375 -65.3125 C 33.984375 -65.3125 39.101562 -63.75 43.09375 -60.625 C 47.082031 -57.507812 49.296875 -53.226562 49.734375 -47.78125 L 38.046875 -47.78125 C 37.859375 -50.132812 36.742188 -52.144531 34.703125 -53.8125 C 32.660156 -55.476562 29.96875 -56.3125 26.625 -56.3125 C 23.59375 -56.3125 21.117188 -55.535156 19.203125 -53.984375 C 17.285156 -52.441406 16.328125 -50.21875 16.328125 -47.3125 C 16.328125 -45.332031 16.929688 -43.707031 18.140625 -42.4375 C 19.347656 -41.175781 20.878906 -40.171875 22.734375 -39.421875 C 24.585938 -38.679688 27.125 -37.878906 30.34375 -37.015625 C 34.601562 -35.835938 38.078125 -34.660156 40.765625 -33.484375 C 43.460938 -32.316406 45.753906 -30.507812 47.640625 -28.0625 C 49.523438 -25.625 50.46875 -22.363281 50.46875 -18.28125 C 50.46875 -15 49.585938 -11.90625 47.828125 -9 C 46.066406 -6.09375 43.5 -3.753906 40.125 -1.984375 C 36.757812 -0.222656 32.785156 0.65625 28.203125 0.65625 Z M 28.203125 0.65625 "/></g></g></g><g fill="#364dff" fill-opacity="1"><g transform="translate(289.781981, 162.472512)"><g><path d="M 19.296875 -42.5 L 19.296875 -14.203125 C 19.296875 -12.273438 19.742188 -10.894531 20.640625 -10.0625 C 21.535156 -9.226562 23.066406 -8.8125 25.234375 -8.8125 L 31.734375 -8.8125 L 31.734375 0 L 23.375 0 C 18.613281 0 14.960938 -1.113281 12.421875 -3.34375 C 9.890625 -5.570312 8.625 -9.191406 8.625 -14.203125 L 8.625 -42.5 L 2.59375 -42.5 L 2.59375 -51.125 L 8.625 -51.125 L 8.625 -63.828125 L 19.296875 -63.828125 L 19.296875 -51.125 L 31.734375 -51.125 L 31.734375 -42.5 Z M 19.296875 -42.5 "/></g></g></g><g fill="#364dff" fill-opacity="1"><g transform="translate(324.290791, 162.472512)"><g><path d="M 17.53125 -43.703125 C 19.082031 -46.296875 21.140625 -48.316406 23.703125 -49.765625 C 26.273438 -51.222656 29.320312 -51.953125 32.84375 -51.953125 L 32.84375 -41.015625 L 30.15625 -41.015625 C 26.007812 -41.015625 22.867188 -39.960938 20.734375 -37.859375 C 18.597656 -35.753906 17.53125 -32.101562 17.53125 -26.90625 L 17.53125 0 L 6.953125 0 L 6.953125 -51.125 L 17.53125 -51.125 Z M 17.53125 -43.703125 "/></g></g></g><g fill="#364dff" fill-opacity="1"><g transform="translate(359.912791, 162.472512)"><g><path d="M 53.8125 -26.8125 C 53.8125 -24.894531 53.6875 -23.164062 53.4375 -21.625 L 14.375 -21.625 C 14.6875 -17.539062 16.203125 -14.257812 18.921875 -11.78125 C 21.648438 -9.3125 24.992188 -8.078125 28.953125 -8.078125 C 34.640625 -8.078125 38.660156 -10.457031 41.015625 -15.21875 L 52.421875 -15.21875 C 50.878906 -10.519531 48.082031 -6.671875 44.03125 -3.671875 C 39.976562 -0.671875 34.953125 0.828125 28.953125 0.828125 C 24.066406 0.828125 19.6875 -0.265625 15.8125 -2.453125 C 11.945312 -4.648438 8.914062 -7.742188 6.71875 -11.734375 C 4.53125 -15.722656 3.4375 -20.347656 3.4375 -25.609375 C 3.4375 -30.867188 4.5 -35.492188 6.625 -39.484375 C 8.757812 -43.472656 11.757812 -46.546875 15.625 -48.703125 C 19.5 -50.867188 23.941406 -51.953125 28.953125 -51.953125 C 33.773438 -51.953125 38.070312 -50.898438 41.84375 -48.796875 C 45.613281 -46.691406 48.550781 -43.738281 50.65625 -39.9375 C 52.757812 -36.132812 53.8125 -31.757812 53.8125 -26.8125 Z M 42.765625 -30.15625 C 42.703125 -34.050781 41.3125 -37.171875 38.59375 -39.515625 C 35.875 -41.867188 32.503906 -43.046875 28.484375 -43.046875 C 24.835938 -43.046875 21.710938 -41.882812 19.109375 -39.5625 C 16.515625 -37.25 14.96875 -34.113281 14.46875 -30.15625 Z M 42.765625 -30.15625 "/></g></g></g><g fill="#364dff" fill-opacity="1"><g transform="translate(417.149177, 162.472512)"><g><path d="M 25.515625 0.828125 C 21.492188 0.828125 17.890625 0.101562 14.703125 -1.34375 C 11.515625 -2.800781 8.992188 -4.78125 7.140625 -7.28125 C 5.285156 -9.789062 4.296875 -12.59375 4.171875 -15.6875 L 15.125 -15.6875 C 15.3125 -13.519531 16.347656 -11.707031 18.234375 -10.25 C 20.117188 -8.800781 22.484375 -8.078125 25.328125 -8.078125 C 28.296875 -8.078125 30.597656 -8.644531 32.234375 -9.78125 C 33.878906 -10.925781 34.703125 -12.398438 34.703125 -14.203125 C 34.703125 -16.117188 33.785156 -17.539062 31.953125 -18.46875 C 30.128906 -19.394531 27.238281 -20.414062 23.28125 -21.53125 C 19.445312 -22.582031 16.320312 -23.601562 13.90625 -24.59375 C 11.5 -25.582031 9.414062 -27.09375 7.65625 -29.125 C 5.894531 -31.164062 5.015625 -33.859375 5.015625 -37.203125 C 5.015625 -39.921875 5.816406 -42.410156 7.421875 -44.671875 C 9.023438 -46.929688 11.328125 -48.707031 14.328125 -50 C 17.328125 -51.300781 20.78125 -51.953125 24.6875 -51.953125 C 30.5 -51.953125 35.179688 -50.484375 38.734375 -47.546875 C 42.296875 -44.609375 44.195312 -40.601562 44.4375 -35.53125 L 33.859375 -35.53125 C 33.679688 -37.820312 32.753906 -39.644531 31.078125 -41 C 29.410156 -42.363281 27.15625 -43.046875 24.3125 -43.046875 C 21.53125 -43.046875 19.394531 -42.519531 17.90625 -41.46875 C 16.425781 -40.414062 15.6875 -39.023438 15.6875 -37.296875 C 15.6875 -35.929688 16.179688 -34.785156 17.171875 -33.859375 C 18.160156 -32.929688 19.363281 -32.203125 20.78125 -31.671875 C 22.207031 -31.148438 24.3125 -30.488281 27.09375 -29.6875 C 30.800781 -28.695312 33.84375 -27.691406 36.21875 -26.671875 C 38.601562 -25.648438 40.660156 -24.148438 42.390625 -22.171875 C 44.128906 -20.191406 45.03125 -17.5625 45.09375 -14.28125 C 45.09375 -11.375 44.285156 -8.773438 42.671875 -6.484375 C 41.066406 -4.203125 38.796875 -2.410156 35.859375 -1.109375 C 32.921875 0.179688 29.472656 0.828125 25.515625 0.828125 Z M 25.515625 0.828125 "/></g></g></g><g fill="#364dff" fill-opacity="1"><g transform="translate(466.686037, 162.472512)"><g><path d="M 25.515625 0.828125 C 21.492188 0.828125 17.890625 0.101562 14.703125 -1.34375 C 11.515625 -2.800781 8.992188 -4.78125 7.140625 -7.28125 C 5.285156 -9.789062 4.296875 -12.59375 4.171875 -15.6875 L 15.125 -15.6875 C 15.3125 -13.519531 16.347656 -11.707031 18.234375 -10.25 C 20.117188 -8.800781 22.484375 -8.078125 25.328125 -8.078125 C 28.296875 -8.078125 30.597656 -8.644531 32.234375 -9.78125 C 33.878906 -10.925781 34.703125 -12.398438 34.703125 -14.203125 C 34.703125 -16.117188 33.785156 -17.539062 31.953125 -18.46875 C 30.128906 -19.394531 27.238281 -20.414062 23.28125 -21.53125 C 19.445312 -22.582031 16.320312 -23.601562 13.90625 -24.59375 C 11.5 -25.582031 9.414062 -27.09375 7.65625 -29.125 C 5.894531 -31.164062 5.015625 -33.859375 5.015625 -37.203125 C 5.015625 -39.921875 5.816406 -42.410156 7.421875 -44.671875 C 9.023438 -46.929688 11.328125 -48.707031 14.328125 -50 C 17.328125 -51.300781 20.78125 -51.953125 24.6875 -51.953125 C 30.5 -51.953125 35.179688 -50.484375 38.734375 -47.546875 C 42.296875 -44.609375 44.195312 -40.601562 44.4375 -35.53125 L 33.859375 -35.53125 C 33.679688 -37.820312 32.753906 -39.644531 31.078125 -41 C 29.410156 -42.363281 27.15625 -43.046875 24.3125 -43.046875 C 21.53125 -43.046875 19.394531 -42.519531 17.90625 -41.46875 C 16.425781 -40.414062 15.6875 -39.023438 15.6875 -37.296875 C 15.6875 -35.929688 16.179688 -34.785156 17.171875 -33.859375 C 18.160156 -32.929688 19.363281 -32.203125 20.78125 -31.671875 C 22.207031 -31.148438 24.3125 -30.488281 27.09375 -29.6875 C 30.800781 -28.695312 33.84375 -27.691406 36.21875 -26.671875 C 38.601562 -25.648438 40.660156 -24.148438 42.390625 -22.171875 C 44.128906 -20.191406 45.03125 -17.5625 45.09375 -14.28125 C 45.09375 -11.375 44.285156 -8.773438 42.671875 -6.484375 C 41.066406 -4.203125 38.796875 -2.410156 35.859375 -1.109375 C 32.921875 0.179688 29.472656 0.828125 25.515625 0.828125 Z M 25.515625 0.828125 "/></g></g></g></svg>