<svg xmlns="http://www.w3.org/2000/svg" xmlns:xlink="http://www.w3.org/1999/xlink" width="1000" zoomAndPan="magnify" viewBox="0 0 750 749.999995" height="1000" preserveAspectRatio="xMidYMid meet" version="1.0"><defs><g/><clipPath id="778988a954"><path d="M 257 223.167969 L 469 223.167969 L 469 703.167969 L 257 703.167969 Z M 257 223.167969 " clip-rule="nonzero"/></clipPath></defs><rect x="-75" width="900" fill="#ffffff" y="-74.999999" height="899.999994" fill-opacity="1"/><rect x="-75" width="900" fill="#ffffff" y="-74.999999" height="899.999994" fill-opacity="1"/><path fill="#000000" d="M 281.859375 290.757812 C 281.859375 283.292969 271.195312 260.921875 269.0625 256.511719 C 267.574219 253.449219 262.578125 253.449219 261.089844 256.511719 C 258.957031 260.921875 248.292969 283.292969 248.292969 290.757812 C 248.292969 300.011719 255.820312 307.542969 265.078125 307.542969 C 274.332031 307.542969 281.859375 300.011719 281.859375 290.757812 Z M 257.148438 290.757812 C 257.148438 288.003906 260.789062 278.539062 265.078125 268.945312 C 269.363281 278.539062 273.003906 288.003906 273.003906 290.757812 C 273.003906 295.125 269.453125 298.683594 265.078125 298.683594 C 260.703125 298.683594 257.148438 295.132812 257.148438 290.757812 Z M 257.148438 290.757812 " fill-opacity="1" fill-rule="nonzero"/><path fill="#000000" d="M 484.9375 237.453125 C 483.246094 237.453125 481.695312 238.417969 480.949219 239.953125 C 478.816406 244.363281 468.152344 266.730469 468.152344 274.199219 C 468.152344 283.453125 475.683594 290.980469 484.9375 290.980469 C 494.191406 290.980469 501.71875 283.453125 501.71875 274.199219 C 501.71875 266.730469 491.066406 244.363281 488.929688 239.953125 C 488.1875 238.417969 486.644531 237.453125 484.945312 237.453125 Z M 484.9375 282.125 C 480.5625 282.125 477.011719 278.574219 477.011719 274.199219 C 477.011719 271.445312 480.648438 261.984375 484.9375 252.386719 C 489.214844 261.984375 492.863281 271.445312 492.863281 274.199219 C 492.863281 278.5625 489.3125 282.125 484.9375 282.125 Z M 484.9375 282.125 " fill-opacity="1" fill-rule="nonzero"/><g clip-path="url(#778988a954)"><path fill="#000000" d="M 291.945312 341.894531 C 284.179688 341.894531 277.5625 347.667969 276.570312 355.292969 L 257.328125 495.308594 C 257.167969 496.253906 257.148438 497.203125 257.148438 498.152344 C 257.148438 508.929688 265.917969 517.695312 276.703125 517.695312 C 286.019531 517.695312 294.117188 511.082031 295.929688 501.96875 L 306.878906 446.902344 L 303.9375 682.214844 C 303.9375 693.710938 313.289062 703.0625 324.785156 703.0625 C 335.394531 703.0625 344.292969 695.074219 345.488281 684.464844 L 358.453125 566.625 L 371.417969 684.472656 C 372.617188 695.066406 381.515625 703.0625 392.125 703.0625 C 403.621094 703.0625 412.972656 693.703125 412.972656 681.921875 L 409.449219 400.195312 L 464.347656 316.609375 C 470.765625 306.824219 468.890625 293.707031 459.945312 286.101562 L 406.800781 241.570312 C 403.664062 238.90625 399.714844 237.445312 395.667969 237.445312 C 395.03125 237.445312 394.453125 237.507812 393.886719 237.570312 C 384.480469 228.492188 371.738281 223.265625 358.453125 223.265625 C 330.152344 223.265625 307.125 246.246094 307.125 274.480469 C 307.125 302.714844 330.152344 325.8125 358.453125 325.8125 C 381.550781 325.8125 401.425781 310.277344 407.675781 288.660156 L 425.691406 304.289062 L 397.464844 341.875 L 291.929688 341.875 Z M 358.453125 316.964844 C 335.03125 316.964844 315.980469 297.914062 315.980469 274.488281 C 315.980469 251.066406 335.039062 232.132812 358.453125 232.132812 C 368.082031 232.132812 377.390625 235.398438 384.773438 241.253906 C 384.058594 241.8125 383.382812 242.429688 382.746094 243.105469 C 379.46875 246.609375 377.796875 251.144531 378.042969 255.882812 C 378.285156 260.628906 380.410156 264.980469 384.03125 268.148438 L 400.226562 282.210938 C 396.527344 302.191406 378.984375 316.964844 358.445312 316.964844 Z M 403.230469 348.96875 L 435.246094 306.328125 C 436.636719 304.476562 436.359375 301.855469 434.617188 300.332031 L 408.074219 277.289062 C 408.003906 277.21875 407.976562 277.113281 407.898438 277.039062 L 389.832031 261.453125 C 388.050781 259.894531 387.007812 257.761719 386.882812 255.433594 C 386.765625 253.113281 387.589844 250.878906 389.210938 249.152344 C 390.371094 247.902344 391.859375 247.046875 393.871094 246.550781 C 395.757812 245.910156 398.972656 246.53125 401.085938 248.328125 L 454.222656 292.859375 C 459.75 297.558594 460.917969 305.679688 456.941406 311.746094 L 401.300781 396.457031 C 400.8125 397.191406 400.566406 398.058594 400.574219 398.9375 L 404.117188 682.1875 C 404.117188 688.804688 398.742188 694.179688 392.125 694.179688 C 386.03125 694.179688 380.914062 689.566406 380.222656 683.472656 L 362.855469 525.632812 C 362.609375 523.382812 360.710938 521.691406 358.453125 521.691406 C 356.195312 521.691406 354.300781 523.382812 354.054688 525.632812 L 336.6875 683.464844 C 335.996094 689.566406 330.875 694.179688 324.785156 694.179688 C 318.167969 694.179688 312.792969 688.804688 312.792969 682.003906 L 316.335938 398.925781 C 316.363281 396.640625 314.644531 394.703125 312.367188 394.472656 C 310.074219 394.171875 308.011719 395.765625 307.566406 398.007812 L 287.253906 500.195312 C 286.25 505.171875 281.8125 508.804688 276.703125 508.804688 C 270.804688 508.804688 266.007812 504.011719 266.007812 498.113281 C 266.007812 497.644531 265.988281 497.175781 266.078125 496.59375 L 285.339844 356.433594 C 285.765625 353.175781 288.605469 350.714844 291.9375 350.714844 L 399.6875 350.714844 C 401.078125 350.714844 402.390625 350.058594 403.230469 348.941406 Z M 403.230469 348.96875 " fill-opacity="1" fill-rule="nonzero"/></g><g fill="#364dff" fill-opacity="1"><g transform="translate(157.596074, 162.472512)"><g><path d="M 28.203125 0.65625 C 23.867188 0.65625 19.96875 -0.0976562 16.5 -1.609375 C 13.039062 -3.128906 10.320312 -5.28125 8.34375 -8.0625 C 6.363281 -10.851562 5.375 -14.101562 5.375 -17.8125 L 16.703125 -17.8125 C 16.953125 -15.03125 18.050781 -12.738281 20 -10.9375 C 21.945312 -9.144531 24.679688 -8.25 28.203125 -8.25 C 31.847656 -8.25 34.691406 -9.128906 36.734375 -10.890625 C 38.773438 -12.660156 39.796875 -14.9375 39.796875 -17.71875 C 39.796875 -19.882812 39.160156 -21.644531 37.890625 -23 C 36.628906 -24.363281 35.054688 -25.414062 33.171875 -26.15625 C 31.285156 -26.90625 28.671875 -27.710938 25.328125 -28.578125 C 21.117188 -29.691406 17.703125 -30.816406 15.078125 -31.953125 C 12.453125 -33.097656 10.207031 -34.878906 8.34375 -37.296875 C 6.488281 -39.710938 5.5625 -42.929688 5.5625 -46.953125 C 5.5625 -50.660156 6.488281 -53.90625 8.34375 -56.6875 C 10.207031 -59.46875 12.804688 -61.597656 16.140625 -63.078125 C 19.484375 -64.566406 23.347656 -65.3125 27.734375 -65.3125 C 33.984375 -65.3125 39.101562 -63.75 43.09375 -60.625 C 47.082031 -57.507812 49.296875 -53.226562 49.734375 -47.78125 L 38.046875 -47.78125 C 37.859375 -50.132812 36.742188 -52.144531 34.703125 -53.8125 C 32.660156 -55.476562 29.96875 -56.3125 26.625 -56.3125 C 23.59375 -56.3125 21.117188 -55.535156 19.203125 -53.984375 C 17.285156 -52.441406 16.328125 -50.21875 16.328125 -47.3125 C 16.328125 -45.332031 16.929688 -43.707031 18.140625 -42.4375 C 19.347656 -41.175781 20.878906 -40.171875 22.734375 -39.421875 C 24.585938 -38.679688 27.125 -37.878906 30.34375 -37.015625 C 34.601562 -35.835938 38.078125 -34.660156 40.765625 -33.484375 C 43.460938 -32.316406 45.753906 -30.507812 47.640625 -28.0625 C 49.523438 -25.625 50.46875 -22.363281 50.46875 -18.28125 C 50.46875 -15 49.585938 -11.90625 47.828125 -9 C 46.066406 -6.09375 43.5 -3.753906 40.125 -1.984375 C 36.757812 -0.222656 32.785156 0.65625 28.203125 0.65625 Z M 28.203125 0.65625 "/></g></g></g><g fill="#364dff" fill-opacity="1"><g transform="translate(213.626516, 162.472512)"><g><path d="M 75.609375 -51.125 L 59.75 0 L 48.625 0 L 38.3125 -37.765625 L 28.015625 0 L 16.890625 0 L 0.921875 -51.125 L 11.6875 -51.125 L 22.359375 -10.015625 L 33.21875 -51.125 L 44.25 -51.125 L 54.640625 -10.203125 L 65.21875 -51.125 Z M 75.609375 -51.125 "/></g></g></g><g fill="#364dff" fill-opacity="1"><g transform="translate(290.158156, 162.472512)"><g><path d="M 53.8125 -26.8125 C 53.8125 -24.894531 53.6875 -23.164062 53.4375 -21.625 L 14.375 -21.625 C 14.6875 -17.539062 16.203125 -14.257812 18.921875 -11.78125 C 21.648438 -9.3125 24.992188 -8.078125 28.953125 -8.078125 C 34.640625 -8.078125 38.660156 -10.457031 41.015625 -15.21875 L 52.421875 -15.21875 C 50.878906 -10.519531 48.082031 -6.671875 44.03125 -3.671875 C 39.976562 -0.671875 34.953125 0.828125 28.953125 0.828125 C 24.066406 0.828125 19.6875 -0.265625 15.8125 -2.453125 C 11.945312 -4.648438 8.914062 -7.742188 6.71875 -11.734375 C 4.53125 -15.722656 3.4375 -20.347656 3.4375 -25.609375 C 3.4375 -30.867188 4.5 -35.492188 6.625 -39.484375 C 8.757812 -43.472656 11.757812 -46.546875 15.625 -48.703125 C 19.5 -50.867188 23.941406 -51.953125 28.953125 -51.953125 C 33.773438 -51.953125 38.070312 -50.898438 41.84375 -48.796875 C 45.613281 -46.691406 48.550781 -43.738281 50.65625 -39.9375 C 52.757812 -36.132812 53.8125 -31.757812 53.8125 -26.8125 Z M 42.765625 -30.15625 C 42.703125 -34.050781 41.3125 -37.171875 38.59375 -39.515625 C 35.875 -41.867188 32.503906 -43.046875 28.484375 -43.046875 C 24.835938 -43.046875 21.710938 -41.882812 19.109375 -39.5625 C 16.515625 -37.25 14.96875 -34.113281 14.46875 -30.15625 Z M 42.765625 -30.15625 "/></g></g></g><g fill="#364dff" fill-opacity="1"><g transform="translate(347.394542, 162.472512)"><g><path d="M 3.4375 -25.796875 C 3.4375 -30.929688 4.5 -35.476562 6.625 -39.4375 C 8.757812 -43.394531 11.664062 -46.46875 15.34375 -48.65625 C 19.03125 -50.851562 23.101562 -51.953125 27.5625 -51.953125 C 31.582031 -51.953125 35.09375 -51.160156 38.09375 -49.578125 C 41.09375 -48.003906 43.488281 -46.046875 45.28125 -43.703125 L 45.28125 -51.125 L 55.953125 -51.125 L 55.953125 0 L 45.28125 0 L 45.28125 -7.609375 C 43.488281 -5.191406 41.046875 -3.179688 37.953125 -1.578125 C 34.859375 0.0234375 31.332031 0.828125 27.375 0.828125 C 22.976562 0.828125 18.953125 -0.296875 15.296875 -2.546875 C 11.648438 -4.804688 8.757812 -7.960938 6.625 -12.015625 C 4.5 -16.066406 3.4375 -20.660156 3.4375 -25.796875 Z M 45.28125 -25.609375 C 45.28125 -29.128906 44.550781 -32.1875 43.09375 -34.78125 C 41.644531 -37.382812 39.742188 -39.363281 37.390625 -40.71875 C 35.035156 -42.082031 32.5 -42.765625 29.78125 -42.765625 C 27.0625 -42.765625 24.523438 -42.097656 22.171875 -40.765625 C 19.828125 -39.441406 17.925781 -37.492188 16.46875 -34.921875 C 15.007812 -32.359375 14.28125 -29.316406 14.28125 -25.796875 C 14.28125 -22.265625 15.007812 -19.171875 16.46875 -16.515625 C 17.925781 -13.859375 19.84375 -11.832031 22.21875 -10.4375 C 24.601562 -9.039062 27.125 -8.34375 29.78125 -8.34375 C 32.5 -8.34375 35.035156 -9.023438 37.390625 -10.390625 C 39.742188 -11.753906 41.644531 -13.75 43.09375 -16.375 C 44.550781 -19 45.28125 -22.078125 45.28125 -25.609375 Z M 45.28125 -25.609375 "/></g></g></g><g fill="#364dff" fill-opacity="1"><g transform="translate(410.289619, 162.472512)"><g><path d="M 19.296875 -42.5 L 19.296875 -14.203125 C 19.296875 -12.273438 19.742188 -10.894531 20.640625 -10.0625 C 21.535156 -9.226562 23.066406 -8.8125 25.234375 -8.8125 L 31.734375 -8.8125 L 31.734375 0 L 23.375 0 C 18.613281 0 14.960938 -1.113281 12.421875 -3.34375 C 9.890625 -5.570312 8.625 -9.191406 8.625 -14.203125 L 8.625 -42.5 L 2.59375 -42.5 L 2.59375 -51.125 L 8.625 -51.125 L 8.625 -63.828125 L 19.296875 -63.828125 L 19.296875 -51.125 L 31.734375 -51.125 L 31.734375 -42.5 Z M 19.296875 -42.5 "/></g></g></g><g fill="#364dff" fill-opacity="1"><g transform="translate(444.798453, 162.472512)"><g><path d="M 12.34375 -57.890625 C 10.425781 -57.890625 8.816406 -58.539062 7.515625 -59.84375 C 6.210938 -61.144531 5.5625 -62.753906 5.5625 -64.671875 C 5.5625 -66.585938 6.210938 -68.191406 7.515625 -69.484375 C 8.816406 -70.785156 10.425781 -71.4375 12.34375 -71.4375 C 14.195312 -71.4375 15.769531 -70.785156 17.0625 -69.484375 C 18.363281 -68.191406 19.015625 -66.585938 19.015625 -64.671875 C 19.015625 -62.753906 18.363281 -61.144531 17.0625 -59.84375 C 15.769531 -58.539062 14.195312 -57.890625 12.34375 -57.890625 Z M 17.53125 -51.125 L 17.53125 0 L 6.953125 0 L 6.953125 -51.125 Z M 17.53125 -51.125 "/></g></g></g><g fill="#364dff" fill-opacity="1"><g transform="translate(469.288579, 162.472512)"><g><path d="M 32.75 -51.953125 C 36.769531 -51.953125 40.375 -51.117188 43.5625 -49.453125 C 46.75 -47.785156 49.238281 -45.3125 51.03125 -42.03125 C 52.820312 -38.75 53.71875 -34.789062 53.71875 -30.15625 L 53.71875 0 L 43.234375 0 L 43.234375 -28.578125 C 43.234375 -33.148438 42.085938 -36.65625 39.796875 -39.09375 C 37.515625 -41.539062 34.394531 -42.765625 30.4375 -42.765625 C 26.476562 -42.765625 23.335938 -41.539062 21.015625 -39.09375 C 18.691406 -36.65625 17.53125 -33.148438 17.53125 -28.578125 L 17.53125 0 L 6.953125 0 L 6.953125 -51.125 L 17.53125 -51.125 L 17.53125 -45.28125 C 19.269531 -47.382812 21.484375 -49.019531 24.171875 -50.1875 C 26.859375 -51.363281 29.71875 -51.953125 32.75 -51.953125 Z M 32.75 -51.953125 "/></g></g></g><g fill="#364dff" fill-opacity="1"><g transform="translate(529.493471, 162.472512)"><g><path d="M 27.5625 -51.953125 C 31.519531 -51.953125 35.023438 -51.160156 38.078125 -49.578125 C 41.140625 -48.003906 43.539062 -46.046875 45.28125 -43.703125 L 45.28125 -51.125 L 55.953125 -51.125 L 55.953125 0.828125 C 55.953125 5.535156 54.960938 9.726562 52.984375 13.40625 C 51.003906 17.082031 48.140625 19.972656 44.390625 22.078125 C 40.648438 24.179688 36.179688 25.234375 30.984375 25.234375 C 24.054688 25.234375 18.300781 23.609375 13.71875 20.359375 C 9.144531 17.117188 6.550781 12.710938 5.9375 7.140625 L 16.421875 7.140625 C 17.222656 9.804688 18.9375 11.957031 21.5625 13.59375 C 24.195312 15.226562 27.335938 16.046875 30.984375 16.046875 C 35.253906 16.046875 38.703125 14.742188 41.328125 12.140625 C 43.960938 9.546875 45.28125 5.773438 45.28125 0.828125 L 45.28125 -7.703125 C 43.488281 -5.285156 41.0625 -3.257812 38 -1.625 C 34.9375 0.0078125 31.457031 0.828125 27.5625 0.828125 C 23.101562 0.828125 19.03125 -0.296875 15.34375 -2.546875 C 11.664062 -4.804688 8.757812 -7.960938 6.625 -12.015625 C 4.5 -16.066406 3.4375 -20.660156 3.4375 -25.796875 C 3.4375 -30.929688 4.5 -35.476562 6.625 -39.4375 C 8.757812 -43.394531 11.664062 -46.46875 15.34375 -48.65625 C 19.03125 -50.851562 23.101562 -51.953125 27.5625 -51.953125 Z M 45.28125 -25.609375 C 45.28125 -29.128906 44.550781 -32.1875 43.09375 -34.78125 C 41.644531 -37.382812 39.742188 -39.363281 37.390625 -40.71875 C 35.035156 -42.082031 32.5 -42.765625 29.78125 -42.765625 C 27.0625 -42.765625 24.523438 -42.097656 22.171875 -40.765625 C 19.828125 -39.441406 17.925781 -37.492188 16.46875 -34.921875 C 15.007812 -32.359375 14.28125 -29.316406 14.28125 -25.796875 C 14.28125 -22.265625 15.007812 -19.171875 16.46875 -16.515625 C 17.925781 -13.859375 19.84375 -11.832031 22.21875 -10.4375 C 24.601562 -9.039062 27.125 -8.34375 29.78125 -8.34375 C 32.5 -8.34375 35.035156 -9.023438 37.390625 -10.390625 C 39.742188 -11.753906 41.644531 -13.75 43.09375 -16.375 C 44.550781 -19 45.28125 -22.078125 45.28125 -25.609375 Z M 45.28125 -25.609375 "/></g></g></g></svg>