<svg xmlns="http://www.w3.org/2000/svg" xmlns:xlink="http://www.w3.org/1999/xlink" width="1000" zoomAndPan="magnify" viewBox="0 0 750 749.999995" height="1000" preserveAspectRatio="xMidYMid meet" version="1.0"><defs><g/><clipPath id="a5b6bcdb3c"><path d="M 154.183594 233.367188 L 595.933594 233.367188 L 595.933594 675.117188 L 154.183594 675.117188 Z M 154.183594 233.367188 " clip-rule="nonzero"/></clipPath></defs><rect x="-75" width="900" fill="#ffffff" y="-74.999999" height="899.999994" fill-opacity="1"/><rect x="-75" width="900" fill="#ffffff" y="-74.999999" height="899.999994" fill-opacity="1"/><path fill="#000000" d="M 323.339844 415.40625 C 321.3125 415.40625 319.378906 415.316406 317.449219 415.039062 C 315.605469 414.855469 314.320312 413.199219 314.503906 411.359375 C 314.6875 409.515625 316.34375 408.226562 318.183594 408.414062 C 319.839844 408.597656 321.589844 408.6875 323.246094 408.6875 C 339.445312 408.6875 354.445312 399.855469 362.359375 385.679688 C 362.359375 385.589844 362.453125 385.589844 362.453125 385.589844 C 366.039062 379.054688 367.972656 371.601562 367.972656 364.144531 C 367.972656 339.480469 347.910156 319.511719 323.339844 319.511719 C 298.765625 319.511719 278.703125 339.574219 278.703125 364.144531 C 278.703125 378.6875 285.789062 392.308594 297.660156 400.683594 C 299.132812 401.695312 299.5 403.8125 298.488281 405.285156 C 297.476562 406.757812 295.359375 407.125 293.886719 406.113281 C 280.265625 396.539062 272.078125 380.804688 272.078125 364.144531 C 272.078125 335.890625 295.085938 312.882812 323.339844 312.882812 C 351.589844 312.882812 374.597656 335.890625 374.597656 364.144531 C 374.597656 372.796875 372.390625 381.449219 368.15625 388.902344 C 368.15625 388.992188 368.066406 388.992188 368.066406 388.992188 C 359.136719 405.285156 342.019531 415.40625 323.339844 415.40625 Z M 323.339844 415.40625 " fill-opacity="1" fill-rule="nonzero"/><path fill="#000000" d="M 445.09375 595.605469 C 435.617188 595.605469 426.964844 590.175781 422.824219 581.246094 L 393.464844 517.378906 C 391.257812 512.59375 391.347656 507.070312 393.832031 502.375 L 409.570312 471.546875 C 410.398438 469.890625 412.425781 469.246094 414.082031 470.074219 C 415.738281 470.902344 416.382812 472.925781 415.554688 474.582031 L 399.816406 505.414062 C 398.34375 508.359375 398.25 511.671875 399.632812 514.707031 L 428.988281 578.484375 C 432.761719 586.585938 441.691406 590.726562 450.25 588.332031 C 455.402344 586.859375 459.542969 583.273438 461.753906 578.394531 C 463.960938 573.515625 463.871094 567.996094 461.570312 563.117188 L 437.363281 512.683594 C 436.90625 511.671875 436.90625 510.476562 437.546875 509.460938 L 452.550781 485.441406 C 461.199219 471.453125 461.386719 454.058594 452.917969 439.886719 C 436.167969 411.910156 419.417969 393.6875 402.023438 384.207031 C 396.59375 381.261719 390.796875 380.066406 385.183594 380.710938 C 378.742188 381.449219 373.125 384.390625 367.882812 389.730469 C 366.59375 391.019531 364.476562 391.019531 363.1875 389.820312 C 361.898438 388.535156 361.898438 386.417969 363.09375 385.128906 C 369.261719 378.871094 376.441406 375.097656 384.355469 374.175781 C 391.347656 373.347656 398.527344 374.820312 405.152344 378.410156 C 423.652344 388.535156 441.136719 407.492188 458.53125 436.574219 C 468.289062 452.863281 468.101562 472.925781 458.164062 489.03125 L 444.082031 511.488281 L 467.457031 560.265625 C 470.589844 566.796875 470.679688 574.4375 467.644531 581.0625 C 464.699219 587.6875 458.898438 592.660156 451.8125 594.683594 C 449.695312 595.328125 447.394531 595.605469 445.09375 595.605469 Z M 445.09375 595.605469 " fill-opacity="1" fill-rule="nonzero"/><path fill="#000000" d="M 385.917969 595.605469 C 372.757812 595.605469 362.082031 584.929688 362.082031 571.769531 L 362.082031 519.125 C 362.082031 517.285156 363.554688 515.8125 365.394531 515.8125 C 367.238281 515.8125 368.710938 517.285156 368.710938 519.125 L 368.710938 571.769531 C 368.710938 581.246094 376.441406 588.976562 385.917969 588.976562 C 390.519531 588.976562 394.847656 587.230469 398.160156 583.917969 C 401.378906 580.695312 403.222656 576.371094 403.222656 571.675781 L 403.222656 537.53125 C 403.222656 535.691406 404.695312 534.21875 406.535156 534.21875 C 408.375 534.21875 409.847656 535.691406 409.847656 537.53125 L 409.847656 571.675781 C 409.847656 578.027344 407.363281 584.007812 402.851562 588.519531 C 398.25 593.121094 392.269531 595.605469 385.917969 595.605469 Z M 385.917969 595.605469 " fill-opacity="1" fill-rule="nonzero"/><path fill="#000000" d="M 354.996094 526.765625 C 350.761719 526.765625 346.621094 525.292969 343.308594 522.53125 C 336.128906 516.363281 334.933594 505.691406 340.546875 498.144531 L 362.453125 468.785156 C 363.921875 466.761719 364.753906 464.277344 364.753906 461.789062 L 364.753906 414.027344 C 364.753906 412.1875 366.222656 410.714844 368.066406 410.714844 C 369.90625 410.714844 371.378906 412.1875 371.378906 414.027344 L 371.378906 461.789062 C 371.378906 465.746094 370.089844 469.613281 367.695312 472.742188 L 345.886719 502.101562 C 342.296875 506.886719 343.03125 513.605469 347.632812 517.46875 C 350.027344 519.585938 353.25 520.507812 356.378906 520.046875 C 359.597656 519.585938 362.359375 517.929688 364.199219 515.261719 L 392.453125 474.949219 C 394.476562 472.097656 395.492188 468.785156 395.492188 465.289062 L 395.492188 423.875 C 395.492188 422.03125 396.964844 420.5625 398.804688 420.5625 C 400.644531 420.5625 402.117188 422.03125 402.117188 423.875 L 402.117188 465.378906 C 402.117188 470.257812 400.644531 474.859375 397.882812 478.816406 L 369.628906 519.125 C 366.777344 523.265625 362.265625 525.9375 357.207031 526.671875 C 356.46875 526.671875 355.734375 526.765625 354.996094 526.765625 Z M 354.996094 526.765625 " fill-opacity="1" fill-rule="nonzero"/><path fill="#000000" d="M 317.265625 434.550781 C 313.492188 434.550781 310.175781 433.8125 306.863281 432.15625 C 304.839844 431.144531 302.539062 431.144531 300.421875 432.15625 C 296.742188 433.8125 293.335938 434.457031 289.929688 434.179688 C 286.800781 433.90625 283.949219 432.066406 282.476562 429.304688 C 281.003906 426.449219 281.003906 423.136719 282.566406 420.375 L 294.257812 399.394531 C 295.453125 397.367188 296.832031 395.621094 298.582031 394.332031 C 300.054688 393.320312 301.617188 392.582031 303.367188 392.121094 C 306.402344 391.386719 309.625 392.214844 312.109375 394.238281 C 313.582031 395.527344 314.777344 397.09375 315.605469 398.839844 L 325.824219 421.296875 C 327.109375 424.148438 326.925781 427.464844 325.179688 430.222656 C 323.523438 432.894531 320.578125 434.457031 317.265625 434.550781 C 317.355469 434.550781 317.265625 434.550781 317.265625 434.550781 Z M 303.734375 424.792969 C 305.851562 424.792969 307.96875 425.253906 309.902344 426.265625 C 312.292969 427.464844 314.6875 428.015625 317.355469 428.015625 C 318.738281 428.015625 319.378906 427.09375 319.65625 426.726562 C 319.839844 426.359375 320.394531 425.347656 319.839844 424.148438 L 309.625 401.695312 C 309.257812 400.773438 308.613281 399.945312 307.875 399.300781 C 307.046875 398.566406 305.945312 398.289062 305.023438 398.566406 C 304.101562 398.75 303.273438 399.210938 302.632812 399.667969 C 301.710938 400.40625 300.882812 401.324219 300.144531 402.523438 L 288.457031 423.503906 C 287.8125 424.703125 288.273438 425.714844 288.457031 426.082031 C 288.640625 426.449219 289.285156 427.371094 290.574219 427.554688 C 292.875 427.738281 295.175781 427.277344 297.84375 426.082031 C 299.59375 425.164062 301.710938 424.792969 303.734375 424.792969 Z M 303.734375 424.792969 " fill-opacity="1" fill-rule="nonzero"/><path fill="#000000" d="M 299.777344 464.367188 C 299.59375 464.367188 299.410156 464.367188 299.316406 464.277344 C 297.476562 464 296.28125 462.25 296.558594 460.503906 L 298.859375 445.410156 C 299.132812 443.570312 300.882812 442.371094 302.632812 442.648438 C 304.472656 442.925781 305.667969 444.671875 305.390625 446.421875 L 303.089844 461.515625 C 302.816406 463.171875 301.433594 464.367188 299.777344 464.367188 Z M 299.777344 464.367188 " fill-opacity="1" fill-rule="nonzero"/><path fill="#000000" d="M 291.21875 563.117188 C 289.378906 563.117188 287.90625 561.644531 287.90625 559.804688 L 287.90625 536.058594 C 268.027344 531.734375 255.144531 524.925781 248.609375 515.261719 C 242.351562 506.058594 242.625 495.472656 243.453125 485.535156 C 243.640625 483.785156 245.019531 482.496094 246.769531 482.496094 L 353.984375 482.496094 C 355.824219 482.496094 357.296875 483.96875 357.296875 485.8125 C 357.296875 487.652344 355.824219 489.125 353.984375 489.125 L 249.804688 489.125 C 248.699219 504.769531 249.898438 521.609375 291.863281 530.167969 C 293.429688 530.539062 294.53125 531.828125 294.53125 533.390625 L 294.53125 559.804688 C 294.53125 561.644531 292.96875 563.117188 291.21875 563.117188 Z M 291.21875 563.117188 " fill-opacity="1" fill-rule="nonzero"/><path fill="#000000" d="M 482.828125 431.605469 C 482.734375 431.605469 482.550781 431.605469 482.460938 431.605469 C 480.621094 431.421875 479.332031 429.765625 479.515625 427.921875 C 481.261719 412.554688 476.570312 398.472656 466.261719 388.257812 C 456.785156 378.777344 443.53125 374.085938 430.921875 375.742188 C 429.082031 375.925781 427.425781 374.730469 427.242188 372.886719 C 427.058594 371.046875 428.253906 369.390625 430.09375 369.207031 C 444.726562 367.367188 460.003906 372.703125 471.046875 383.472656 C 482.828125 395.066406 488.257812 411.171875 486.234375 428.566406 C 485.863281 430.316406 484.484375 431.605469 482.828125 431.605469 Z M 482.828125 431.605469 " fill-opacity="1" fill-rule="nonzero"/><path fill="#000000" d="M 503.8125 431.605469 C 501.96875 431.605469 500.589844 430.132812 500.5 428.382812 C 499.578125 385.21875 476.570312 361.476562 430.09375 355.953125 C 428.253906 355.769531 426.964844 354.113281 427.242188 352.273438 C 427.425781 350.433594 429.082031 349.144531 430.921875 349.421875 C 455.125 352.273438 473.074219 359.636719 485.773438 371.875 C 499.484375 385.035156 506.664062 403.996094 507.214844 428.292969 C 507.308594 430.132812 505.742188 431.695312 503.996094 431.695312 C 503.8125 431.605469 503.8125 431.605469 503.8125 431.605469 Z M 503.8125 431.605469 " fill-opacity="1" fill-rule="nonzero"/><g clip-path="url(#a5b6bcdb3c)"><path fill="#000000" d="M 578.539062 368.285156 C 567.40625 341.964844 551.484375 318.40625 531.238281 298.066406 C 510.988281 277.820312 487.335938 261.898438 461.015625 250.761719 C 433.777344 239.257812 404.878906 233.367188 375.058594 233.367188 C 345.242188 233.367188 316.34375 239.167969 289.101562 250.761719 C 262.78125 261.898438 239.222656 277.820312 218.882812 298.066406 C 198.542969 318.3125 182.714844 341.964844 171.578125 368.285156 C 160.074219 395.527344 154.183594 424.425781 154.183594 454.242188 C 154.183594 484.0625 159.984375 512.960938 171.578125 540.203125 C 182.714844 566.523438 198.636719 590.082031 218.882812 610.421875 C 239.128906 630.667969 262.78125 646.589844 289.101562 657.726562 C 316.34375 669.230469 345.242188 675.117188 375.058594 675.117188 C 404.878906 675.117188 433.777344 669.320312 461.015625 657.726562 C 487.335938 646.589844 510.898438 630.667969 531.238281 610.421875 C 551.484375 590.175781 567.40625 566.523438 578.539062 540.203125 C 590.042969 512.960938 595.933594 484.0625 595.933594 454.242188 C 595.933594 424.425781 590.042969 395.527344 578.539062 368.285156 Z M 587.652344 454.242188 C 587.652344 571.492188 492.214844 666.929688 374.96875 666.929688 C 257.71875 666.929688 162.285156 571.492188 162.285156 454.242188 C 162.285156 336.996094 257.71875 241.558594 374.96875 241.558594 C 492.308594 241.558594 587.652344 336.996094 587.652344 454.242188 Z M 587.652344 454.242188 " fill-opacity="1" fill-rule="nonzero"/></g><g fill="#364dff" fill-opacity="1"><g transform="translate(195.159368, 162.472512)"><g><path d="M 59.9375 0 L 49.359375 0 L 17.53125 -48.15625 L 17.53125 0 L 6.953125 0 L 6.953125 -64.578125 L 17.53125 -64.578125 L 49.359375 -16.515625 L 49.359375 -64.578125 L 59.9375 -64.578125 Z M 59.9375 0 "/></g></g></g><g fill="#364dff" fill-opacity="1"><g transform="translate(262.043386, 162.472512)"><g><path d="M 3.4375 -25.796875 C 3.4375 -30.929688 4.5 -35.476562 6.625 -39.4375 C 8.757812 -43.394531 11.664062 -46.46875 15.34375 -48.65625 C 19.03125 -50.851562 23.101562 -51.953125 27.5625 -51.953125 C 31.582031 -51.953125 35.09375 -51.160156 38.09375 -49.578125 C 41.09375 -48.003906 43.488281 -46.046875 45.28125 -43.703125 L 45.28125 -51.125 L 55.953125 -51.125 L 55.953125 0 L 45.28125 0 L 45.28125 -7.609375 C 43.488281 -5.191406 41.046875 -3.179688 37.953125 -1.578125 C 34.859375 0.0234375 31.332031 0.828125 27.375 0.828125 C 22.976562 0.828125 18.953125 -0.296875 15.296875 -2.546875 C 11.648438 -4.804688 8.757812 -7.960938 6.625 -12.015625 C 4.5 -16.066406 3.4375 -20.660156 3.4375 -25.796875 Z M 45.28125 -25.609375 C 45.28125 -29.128906 44.550781 -32.1875 43.09375 -34.78125 C 41.644531 -37.382812 39.742188 -39.363281 37.390625 -40.71875 C 35.035156 -42.082031 32.5 -42.765625 29.78125 -42.765625 C 27.0625 -42.765625 24.523438 -42.097656 22.171875 -40.765625 C 19.828125 -39.441406 17.925781 -37.492188 16.46875 -34.921875 C 15.007812 -32.359375 14.28125 -29.316406 14.28125 -25.796875 C 14.28125 -22.265625 15.007812 -19.171875 16.46875 -16.515625 C 17.925781 -13.859375 19.84375 -11.832031 22.21875 -10.4375 C 24.601562 -9.039062 27.125 -8.34375 29.78125 -8.34375 C 32.5 -8.34375 35.035156 -9.023438 37.390625 -10.390625 C 39.742188 -11.753906 41.644531 -13.75 43.09375 -16.375 C 44.550781 -19 45.28125 -22.078125 45.28125 -25.609375 Z M 45.28125 -25.609375 "/></g></g></g><g fill="#364dff" fill-opacity="1"><g transform="translate(324.938475, 162.472512)"><g><path d="M 53.25 -51.125 L 53.25 0 L 42.671875 0 L 42.671875 -6.03125 C 41.003906 -3.925781 38.828125 -2.269531 36.140625 -1.0625 C 33.453125 0.144531 30.59375 0.75 27.5625 0.75 C 23.539062 0.75 19.9375 -0.0820312 16.75 -1.75 C 13.5625 -3.425781 11.054688 -5.90625 9.234375 -9.1875 C 7.410156 -12.46875 6.5 -16.425781 6.5 -21.0625 L 6.5 -51.125 L 16.984375 -51.125 L 16.984375 -22.640625 C 16.984375 -18.054688 18.125 -14.539062 20.40625 -12.09375 C 22.695312 -9.65625 25.820312 -8.4375 29.78125 -8.4375 C 33.738281 -8.4375 36.875 -9.65625 39.1875 -12.09375 C 41.507812 -14.539062 42.671875 -18.054688 42.671875 -22.640625 L 42.671875 -51.125 Z M 53.25 -51.125 "/></g></g></g><g fill="#364dff" fill-opacity="1"><g transform="translate(385.143367, 162.472512)"><g><path d="M 25.515625 0.828125 C 21.492188 0.828125 17.890625 0.101562 14.703125 -1.34375 C 11.515625 -2.800781 8.992188 -4.78125 7.140625 -7.28125 C 5.285156 -9.789062 4.296875 -12.59375 4.171875 -15.6875 L 15.125 -15.6875 C 15.3125 -13.519531 16.347656 -11.707031 18.234375 -10.25 C 20.117188 -8.800781 22.484375 -8.078125 25.328125 -8.078125 C 28.296875 -8.078125 30.597656 -8.644531 32.234375 -9.78125 C 33.878906 -10.925781 34.703125 -12.398438 34.703125 -14.203125 C 34.703125 -16.117188 33.785156 -17.539062 31.953125 -18.46875 C 30.128906 -19.394531 27.238281 -20.414062 23.28125 -21.53125 C 19.445312 -22.582031 16.320312 -23.601562 13.90625 -24.59375 C 11.5 -25.582031 9.414062 -27.09375 7.65625 -29.125 C 5.894531 -31.164062 5.015625 -33.859375 5.015625 -37.203125 C 5.015625 -39.921875 5.816406 -42.410156 7.421875 -44.671875 C 9.023438 -46.929688 11.328125 -48.707031 14.328125 -50 C 17.328125 -51.300781 20.78125 -51.953125 24.6875 -51.953125 C 30.5 -51.953125 35.179688 -50.484375 38.734375 -47.546875 C 42.296875 -44.609375 44.195312 -40.601562 44.4375 -35.53125 L 33.859375 -35.53125 C 33.679688 -37.820312 32.753906 -39.644531 31.078125 -41 C 29.410156 -42.363281 27.15625 -43.046875 24.3125 -43.046875 C 21.53125 -43.046875 19.394531 -42.519531 17.90625 -41.46875 C 16.425781 -40.414062 15.6875 -39.023438 15.6875 -37.296875 C 15.6875 -35.929688 16.179688 -34.785156 17.171875 -33.859375 C 18.160156 -32.929688 19.363281 -32.203125 20.78125 -31.671875 C 22.207031 -31.148438 24.3125 -30.488281 27.09375 -29.6875 C 30.800781 -28.695312 33.84375 -27.691406 36.21875 -26.671875 C 38.601562 -25.648438 40.660156 -24.148438 42.390625 -22.171875 C 44.128906 -20.191406 45.03125 -17.5625 45.09375 -14.28125 C 45.09375 -11.375 44.285156 -8.773438 42.671875 -6.484375 C 41.066406 -4.203125 38.796875 -2.410156 35.859375 -1.109375 C 32.921875 0.179688 29.472656 0.828125 25.515625 0.828125 Z M 25.515625 0.828125 "/></g></g></g><g fill="#364dff" fill-opacity="1"><g transform="translate(434.680215, 162.472512)"><g><path d="M 53.8125 -26.8125 C 53.8125 -24.894531 53.6875 -23.164062 53.4375 -21.625 L 14.375 -21.625 C 14.6875 -17.539062 16.203125 -14.257812 18.921875 -11.78125 C 21.648438 -9.3125 24.992188 -8.078125 28.953125 -8.078125 C 34.640625 -8.078125 38.660156 -10.457031 41.015625 -15.21875 L 52.421875 -15.21875 C 50.878906 -10.519531 48.082031 -6.671875 44.03125 -3.671875 C 39.976562 -0.671875 34.953125 0.828125 28.953125 0.828125 C 24.066406 0.828125 19.6875 -0.265625 15.8125 -2.453125 C 11.945312 -4.648438 8.914062 -7.742188 6.71875 -11.734375 C 4.53125 -15.722656 3.4375 -20.347656 3.4375 -25.609375 C 3.4375 -30.867188 4.5 -35.492188 6.625 -39.484375 C 8.757812 -43.472656 11.757812 -46.546875 15.625 -48.703125 C 19.5 -50.867188 23.941406 -51.953125 28.953125 -51.953125 C 33.773438 -51.953125 38.070312 -50.898438 41.84375 -48.796875 C 45.613281 -46.691406 48.550781 -43.738281 50.65625 -39.9375 C 52.757812 -36.132812 53.8125 -31.757812 53.8125 -26.8125 Z M 42.765625 -30.15625 C 42.703125 -34.050781 41.3125 -37.171875 38.59375 -39.515625 C 35.875 -41.867188 32.503906 -43.046875 28.484375 -43.046875 C 24.835938 -43.046875 21.710938 -41.882812 19.109375 -39.5625 C 16.515625 -37.25 14.96875 -34.113281 14.46875 -30.15625 Z M 42.765625 -30.15625 "/></g></g></g><g fill="#364dff" fill-opacity="1"><g transform="translate(491.916601, 162.472512)"><g><path d="M 3.4375 -25.796875 C 3.4375 -30.929688 4.5 -35.476562 6.625 -39.4375 C 8.757812 -43.394531 11.664062 -46.46875 15.34375 -48.65625 C 19.03125 -50.851562 23.101562 -51.953125 27.5625 -51.953125 C 31.582031 -51.953125 35.09375 -51.160156 38.09375 -49.578125 C 41.09375 -48.003906 43.488281 -46.046875 45.28125 -43.703125 L 45.28125 -51.125 L 55.953125 -51.125 L 55.953125 0 L 45.28125 0 L 45.28125 -7.609375 C 43.488281 -5.191406 41.046875 -3.179688 37.953125 -1.578125 C 34.859375 0.0234375 31.332031 0.828125 27.375 0.828125 C 22.976562 0.828125 18.953125 -0.296875 15.296875 -2.546875 C 11.648438 -4.804688 8.757812 -7.960938 6.625 -12.015625 C 4.5 -16.066406 3.4375 -20.660156 3.4375 -25.796875 Z M 45.28125 -25.609375 C 45.28125 -29.128906 44.550781 -32.1875 43.09375 -34.78125 C 41.644531 -37.382812 39.742188 -39.363281 37.390625 -40.71875 C 35.035156 -42.082031 32.5 -42.765625 29.78125 -42.765625 C 27.0625 -42.765625 24.523438 -42.097656 22.171875 -40.765625 C 19.828125 -39.441406 17.925781 -37.492188 16.46875 -34.921875 C 15.007812 -32.359375 14.28125 -29.316406 14.28125 -25.796875 C 14.28125 -22.265625 15.007812 -19.171875 16.46875 -16.515625 C 17.925781 -13.859375 19.84375 -11.832031 22.21875 -10.4375 C 24.601562 -9.039062 27.125 -8.34375 29.78125 -8.34375 C 32.5 -8.34375 35.035156 -9.023438 37.390625 -10.390625 C 39.742188 -11.753906 41.644531 -13.75 43.09375 -16.375 C 44.550781 -19 45.28125 -22.078125 45.28125 -25.609375 Z M 45.28125 -25.609375 "/></g></g></g></svg>