<svg xmlns="http://www.w3.org/2000/svg" xmlns:xlink="http://www.w3.org/1999/xlink" version="1.1" x="0px" y="0px" viewBox="0 0 100 125" enable-background="new 0 0 100 100" xml:space="preserve"><g><path d="M53.558,28.867c-0.193-0.025-0.388,0-0.578,0.061c-0.08-2.225-0.494-4.349-1.184-6.302   c-1.806-5.124-5.496-9.064-10.023-10.56c-1.285-0.419-2.633-0.648-4.031-0.648c-6.313,0-11.737,4.629-14.055,11.208   c-0.689,1.953-1.102,4.082-1.189,6.308c-0.188-0.066-0.388-0.092-0.582-0.066c-1.203,0.163-1.923,2.169-1.606,4.476   c0.315,2.307,1.551,4.042,2.755,3.879c0.236-0.036,0.449-0.139,0.644-0.296c2.332,6.547,7.743,11.155,14.034,11.155   c1.398,0,2.746-0.229,4.031-0.653c4.507-1.485,8.188-5.404,9.998-10.497c0.194,0.157,0.408,0.255,0.639,0.291   c1.203,0.163,2.439-1.572,2.756-3.879S54.762,29.03,53.558,28.867z M41.772,44.396c-1.266,0.542-2.622,0.837-4.031,0.837   c-6.844,0-12.411-6.946-12.411-15.483c0-1.48,0.174-2.914,0.484-4.272c1.113-1.443,2.669-2.408,4.39-2.852   c1.398-0.357,2.904-0.368,4.363,0c1.838,0.464,3.608,1.53,5.001,3.261c0.71,0.873,1.454,1.607,2.204,2.209   c3.553,2.868,7.279,2.976,8.334,2.945C49.694,37.252,46.331,42.432,41.772,44.396z"/><path d="M49,72.446V81H15.818c-2.96,0-5.36-2.093-5.36-5.053c0-0.03,0,0.053,0.004,0.053c-0.004,0-0.004,0-0.004,0   c-0.003-1,0-1.337,0-1.52l0.121-6.73c0-3.684,0.99-7.055,2.816-9.954C16.734,52.489,22.57,49,29.296,49h0.452   c1.146,0,2.312,1.213,3.619,1.644c0,0,0.42,1.988,1.04,4.675c0.187,0.785,0.332,1.538,0.537,2.428   c1.214,5.232,3.072,11.695,3.072,13.641c0.449-1.946,1.959-8.521,3.175-13.75c0.206-0.887,0.397-1.808,0.58-2.593   c0.624-2.684,1.069-4.393,1.069-4.393C44.146,50.224,45.343,49,46.483,49h0.456c6.68,0,12.513,3.349,15.86,8.602   C62.624,57.853,62.462,58,62.317,58h-7.463C52.022,58,49,59.95,49,63.041v8.753V72.446z"/></g><g><polygon points="58.295,71 58.295,71 58,71 58,73 59,73 59,74.582 59,74.582 59,73 60,73 60,71 59.015,71 59.015,71  "/></g><path d="M84,76h-4v-3H61v3h-4v-3h-6v11.127C51,86.351,52.632,89,54.855,89h30.689C87.769,89,90,86.351,90,84.127V73h-6V76z"/><g><path d="M85.545,60h-8.302c-0.979-3-3.759-4.345-7.043-4.345c-3.283,0-6.063,1.345-7.043,4.345h-8.302   C52.632,60,51,60.815,51,63.039V72h6v-2h4v2h19v-2h4v2h6v-8.961C90,60.815,87.769,60,85.545,60z M66.425,60   c0.652-2,2.055-1.901,3.686-1.901c1.63,0,3.031-0.099,3.684,1.901H66.425z"/></g><polygon points="81.313,71 81.313,71 81,71 81,73 82,73 82,74.582 82,74.582 82,73 83,73 83,71 82.032,71 82.032,71 "/><text x="0" y="115" fill="#000000" font-size="5px" font-weight="bold" font-family="'Helvetica Neue', Helvetica, Arial-Unicode, Arial, Sans-serif">Created by YuguDesign</text><text x="0" y="120" fill="#000000" font-size="5px" font-weight="bold" font-family="'Helvetica Neue', Helvetica, Arial-Unicode, Arial, Sans-serif">from the Noun Project</text></svg>