<svg width="117" height="33" viewBox="0 0 117 33" fill="none" xmlns="http://www.w3.org/2000/svg">
<path fill-rule="evenodd" clip-rule="evenodd" d="M10.2747 11.9827C14.7477 8.8085 14.7477 7.0423 14.7477 4.85427C14.7477 2.34709 12.3748 0.314622 9.86761 0.314622C7.36043 0.314622 4.64702 2.34709 4.64702 4.85427C4.64702 6.82624 4.64702 8.5867 9.24079 11.9732C9.54664 12.1986 9.96483 12.2026 10.2747 11.9827ZM20.7164 11.9827C25.1894 8.8085 25.1894 7.0423 25.1894 4.85427C25.1894 2.34709 22.8165 0.314622 20.3093 0.314622C17.8021 0.314622 15.0887 2.34709 15.0887 4.85427C15.0887 6.82624 15.0887 8.5867 19.6825 11.9732C19.7896 12.0522 19.9106 12.104 20.0359 12.1285C18.866 12.186 17.7133 12.4445 16.6288 12.8937C15.3896 13.407 14.2636 14.1594 13.3151 15.1078C12.3666 16.0563 11.6143 17.1823 11.1009 18.4216C10.5876 19.6608 10.3234 20.989 10.3234 22.3304H10.3465C10.3722 23.6014 10.635 24.857 11.1219 26.0326C11.6353 27.2719 12.3876 28.3979 13.3361 29.3463C14.2846 30.2948 15.4106 31.0472 16.6498 31.5605C17.7491 32.0158 18.9184 32.2751 20.1047 32.3279V32.3396C20.1924 32.3396 20.2801 32.3385 20.3676 32.3362C20.4313 32.3374 20.4949 32.338 20.5586 32.338V32.3295C21.745 32.2767 22.9143 32.0174 24.0136 31.5621C25.2528 31.0488 26.3788 30.2964 27.3273 29.3479C28.2758 28.3995 29.0281 27.2734 29.5414 26.0342C30.0276 24.8605 30.2903 23.607 30.3167 22.3381C30.3174 22.3395 30.3178 22.3411 30.3178 22.3427V31.4325C30.3178 31.9339 30.7251 32.3446 31.2246 32.3001C32.2551 32.2082 33.2675 31.9602 34.2266 31.5629C35.4659 31.0496 36.5919 30.2972 37.5404 29.3487C38.4888 28.4003 39.2412 27.2742 39.7545 26.035C40.2664 24.7994 40.5305 23.4752 40.532 22.1379C40.532 22.1314 40.5268 22.1262 40.5204 22.1262C40.514 22.1262 40.5089 22.1211 40.5087 22.1148C40.4817 20.8475 40.2191 19.5957 39.7335 18.4234C39.2202 17.1842 38.4678 16.0582 37.5194 15.1097C36.5709 14.1612 35.4449 13.4088 34.2056 12.8955C33.2465 12.4983 32.2341 12.2502 31.2036 12.1583C30.7041 12.1138 30.2968 12.5245 30.2968 13.026V22.1254H30.2959C30.2702 20.8544 30.0074 19.5988 29.5204 18.4232C29.0071 17.1839 28.2548 16.0579 27.3063 15.1094C26.3578 14.161 25.2318 13.4086 23.9926 12.8953C22.8933 12.4399 21.724 12.1806 20.5376 12.1279V12.1162C20.5011 12.1162 20.4647 12.1164 20.4282 12.1168C20.5297 12.0905 20.6275 12.0458 20.7164 11.9827ZM35.63 4.85427C35.63 7.0423 35.63 8.8085 31.157 11.9827C30.8471 12.2026 30.4289 12.1986 30.123 11.9732C25.5293 8.5867 25.5293 6.82624 25.5293 4.85427C25.5293 2.34709 28.2427 0.314622 30.7499 0.314622C33.257 0.314622 35.63 2.34709 35.63 4.85427ZM9.39438 12.1377C8.36384 12.2296 7.35143 12.4776 6.39231 12.8749C5.15307 13.3882 4.02706 14.1406 3.07859 15.0891C2.13011 16.0375 1.37774 17.1635 0.864424 18.4028C0.3526 19.6384 0.0884471 20.9625 0.0869207 22.2999C0.0869141 22.3064 0.0921325 22.3116 0.0985698 22.3116C0.104915 22.3116 0.110095 22.3167 0.11023 22.323C0.137214 23.5903 0.399868 24.8421 0.885425 26.0144C1.39874 27.2536 2.15111 28.3796 3.09959 29.3281C4.04806 30.2766 5.17407 31.0289 6.41331 31.5422C7.37243 31.9395 8.38483 32.1876 9.41538 32.2794C9.91483 32.3239 10.3221 31.9133 10.3221 31.4118V22.1161C10.3221 22.1103 10.3174 22.1056 10.3116 22.1056C10.3058 22.1056 10.3011 22.1009 10.3011 22.0951V13.0053C10.3011 12.5039 9.89383 12.0932 9.39438 12.1377Z" fill="url(#paint0_linear_1185_10446)"/>
<path d="M56.1892 23.0431C55.1332 23.0431 54.1852 22.8091 53.3452 22.3411C52.5052 21.8731 51.8452 21.1891 51.3652 20.2891C50.8852 19.3771 50.6452 18.2731 50.6452 16.9771C50.6452 15.6931 50.8912 14.5951 51.3832 13.6831C51.8752 12.7591 52.5412 12.0571 53.3812 11.5771C54.2212 11.0851 55.1632 10.8391 56.2072 10.8391C57.0472 10.8391 57.7552 10.9951 58.3312 11.3071C58.9192 11.6071 59.3992 11.9491 59.7712 12.3331L58.6552 13.6831C58.3552 13.3951 58.0192 13.1551 57.6472 12.9631C57.2872 12.7591 56.8312 12.6571 56.2792 12.6571C55.2352 12.6571 54.3892 13.0411 53.7412 13.8091C53.1052 14.5651 52.7872 15.6031 52.7872 16.9231C52.7872 18.2671 53.0932 19.3231 53.7052 20.0911C54.3172 20.8471 55.2112 21.2251 56.3872 21.2251C56.7232 21.2251 57.0412 21.1831 57.3412 21.0991C57.6412 21.0031 57.8872 20.8711 58.0792 20.7031V18.1651H55.8472V16.4551H59.9512V21.6391C59.5552 22.0351 59.0272 22.3711 58.3672 22.6471C57.7192 22.9111 56.9932 23.0431 56.1892 23.0431ZM65.0079 23.0431C64.0599 23.0431 63.3699 22.7371 62.9379 22.1251C62.5059 21.5131 62.2899 20.6491 62.2899 19.5331V13.9891H64.3599V19.2631C64.3599 19.9951 64.4679 20.5111 64.6839 20.8111C64.8999 21.1111 65.2479 21.2611 65.7279 21.2611C66.1119 21.2611 66.4479 21.1651 66.7359 20.9731C67.0359 20.7811 67.3539 20.4691 67.6899 20.0371V13.9891H69.7599V22.8271H68.0679L67.9059 21.5311H67.8519C67.4679 21.9871 67.0479 22.3531 66.5919 22.6291C66.1359 22.9051 65.6079 23.0431 65.0079 23.0431ZM72.3819 22.8271V13.9891H74.4519V22.8271H72.3819ZM73.4259 12.4411C73.0539 12.4411 72.7539 12.3331 72.5259 12.1171C72.2979 11.9011 72.1839 11.6131 72.1839 11.2531C72.1839 10.9051 72.2979 10.6231 72.5259 10.4071C72.7539 10.1911 73.0539 10.0831 73.4259 10.0831C73.7979 10.0831 74.0979 10.1911 74.3259 10.4071C74.5539 10.6231 74.6679 10.9051 74.6679 11.2531C74.6679 11.6131 74.5539 11.9011 74.3259 12.1171C74.0979 12.3331 73.7979 12.4411 73.4259 12.4411ZM79.1088 23.0431C78.3768 23.0431 77.8548 22.8211 77.5428 22.3771C77.2428 21.9331 77.0928 21.3271 77.0928 20.5591V10.1191H79.1628V20.6671C79.1628 20.9191 79.2108 21.0991 79.3068 21.2071C79.4028 21.3031 79.5048 21.3511 79.6128 21.3511C79.6608 21.3511 79.7028 21.3511 79.7388 21.3511C79.7868 21.3391 79.8528 21.3271 79.9368 21.3151L80.2068 22.8631C80.0868 22.9111 79.9308 22.9531 79.7388 22.9891C79.5588 23.0251 79.3488 23.0431 79.1088 23.0431ZM85.0755 23.0431C83.9715 23.0431 83.0895 22.6351 82.4295 21.8191C81.7695 21.0031 81.4395 19.8691 81.4395 18.4171C81.4395 17.4571 81.6135 16.6291 81.9615 15.9331C82.3215 15.2371 82.7895 14.7031 83.3655 14.3311C83.9415 13.9591 84.5475 13.7731 85.1835 13.7731C85.6875 13.7731 86.1135 13.8631 86.4615 14.0431C86.8215 14.2111 87.1695 14.4451 87.5055 14.7451L87.4335 13.3231V10.1191H89.5035V22.8271H87.7935L87.6495 21.8731H87.5775C87.2535 22.1971 86.8755 22.4731 86.4435 22.7011C86.0115 22.9291 85.5555 23.0431 85.0755 23.0431ZM85.5795 21.3331C86.2395 21.3331 86.8575 21.0031 87.4335 20.3431V16.2211C87.1335 15.9451 86.8335 15.7531 86.5335 15.6451C86.2335 15.5371 85.9335 15.4831 85.6335 15.4831C85.0695 15.4831 84.5835 15.7411 84.1755 16.2571C83.7795 16.7611 83.5815 17.4751 83.5815 18.3991C83.5815 19.3471 83.7555 20.0731 84.1035 20.5771C84.4515 21.0811 84.9435 21.3331 85.5795 21.3331ZM96.7297 23.0431C95.8297 23.0431 95.0437 22.8631 94.3717 22.5031C93.6997 22.1431 93.1777 21.5671 92.8057 20.7751C92.4457 19.9831 92.2657 18.9451 92.2657 17.6611V11.0551H94.3537V17.8231C94.3537 18.6751 94.4497 19.3531 94.6417 19.8571C94.8457 20.3491 95.1277 20.7031 95.4877 20.9191C95.8477 21.1231 96.2617 21.2251 96.7297 21.2251C97.2097 21.2251 97.6297 21.1231 97.9897 20.9191C98.3617 20.7031 98.6497 20.3491 98.8537 19.8571C99.0697 19.3531 99.1777 18.6751 99.1777 17.8231V11.0551H101.176V17.6611C101.176 18.9451 100.996 19.9831 100.636 20.7751C100.276 21.5671 99.7597 22.1431 99.0877 22.5031C98.4277 22.8631 97.6417 23.0431 96.7297 23.0431ZM103.935 26.3191V13.9891H105.645L105.789 14.9251H105.861C106.233 14.6131 106.647 14.3431 107.103 14.1151C107.571 13.8871 108.045 13.7731 108.525 13.7731C109.629 13.7731 110.481 14.1811 111.081 14.9971C111.693 15.8131 111.999 16.9051 111.999 18.2731C111.999 19.2811 111.819 20.1451 111.459 20.8651C111.099 21.5731 110.631 22.1131 110.055 22.4851C109.491 22.8571 108.879 23.0431 108.219 23.0431C107.835 23.0431 107.451 22.9591 107.067 22.7911C106.683 22.6111 106.311 22.3711 105.951 22.0711L106.005 23.5471V26.3191H103.935ZM107.787 21.3331C108.375 21.3331 108.867 21.0751 109.263 20.5591C109.659 20.0431 109.857 19.2871 109.857 18.2911C109.857 17.4031 109.707 16.7131 109.407 16.2211C109.107 15.7291 108.621 15.4831 107.949 15.4831C107.325 15.4831 106.677 15.8131 106.005 16.4731V20.5951C106.329 20.8591 106.641 21.0511 106.941 21.1711C107.241 21.2791 107.523 21.3331 107.787 21.3331Z" fill="white"/>
<defs>
<linearGradient id="paint0_linear_1185_10446" x1="0.0869141" y1="16.327" x2="40.5319" y2="16.327" gradientUnits="userSpaceOnUse">
<stop stop-color="#9900FA"/>
<stop offset="1" stop-color="#334BFF"/>
</linearGradient>
</defs>
</svg>
