<svg width="32" height="26" viewBox="0 0 32 26" fill="none" xmlns="http://www.w3.org/2000/svg">
<path fill-rule="evenodd" clip-rule="evenodd" d="M8.17048 9.16362C11.601 6.70073 11.601 5.31433 11.601 3.60104C11.601 1.61737 9.72352 0.00927734 7.73986 0.00927734C5.75621 0.00927734 3.60937 1.61737 3.60937 3.60104C3.60937 5.14574 3.60937 6.5264 7.13652 9.15391C7.44124 9.38091 7.86182 9.38522 8.17048 9.16362ZM16.4309 9.16362C19.8614 6.70073 19.8614 5.31433 19.8614 3.60104C19.8614 1.61737 17.9839 0.00927734 16.0003 0.00927734C14.0166 0.00927734 11.8698 1.61737 11.8698 3.60104C11.8698 5.14574 11.8698 6.5264 15.3969 9.15391C15.7017 9.38091 16.1222 9.38522 16.4309 9.16362ZM28.1218 3.60104C28.1218 5.31433 28.1218 6.70073 24.6913 9.16362C24.3827 9.38522 23.9621 9.38091 23.6574 9.15391C20.1302 6.5264 20.1302 5.14574 20.1302 3.60104C20.1302 1.61737 22.277 0.00927734 24.2607 0.00927734C26.2444 0.00927734 28.1218 1.61737 28.1218 3.60104ZM7.17537 9.38265C6.42517 9.46729 5.68902 9.65681 4.98878 9.94686C4.0083 10.353 3.11741 10.9483 2.36698 11.6987C1.61655 12.4491 1.02128 13.34 0.615154 14.3205C0.210222 15.2981 0.00122761 16.3457 6.42904e-09 17.4038C-5.99599e-06 17.409 0.00419184 17.4132 0.00936944 17.4132C0.0144729 17.4132 0.0186382 17.4173 0.0187476 17.4224C0.0402372 18.4246 0.248035 19.4146 0.63205 20.3418C1.03818 21.3222 1.63345 22.2131 2.38388 22.9636C3.1343 23.714 4.02519 24.3093 5.00567 24.7154C5.70592 25.0055 6.44207 25.195 7.19226 25.2796C7.69054 25.3358 8.09829 24.9241 8.09829 24.4226V17.4285H8.11622C8.13663 18.4339 8.34453 19.4271 8.72971 20.3571C9.13584 21.3375 9.73111 22.2284 10.4815 22.9789C11.232 23.7293 12.1229 24.3246 13.1033 24.7307C13.973 25.0909 14.898 25.2961 15.8366 25.3379V25.3474C15.9077 25.3474 15.9787 25.3464 16.0497 25.3446C16.0984 25.3454 16.1472 25.3459 16.196 25.3459V25.3394C17.1345 25.2976 18.0595 25.0924 18.9292 24.7322C19.9097 24.3261 20.8006 23.7308 21.551 22.9804C22.3014 22.2299 22.8967 21.339 23.3028 20.3585C23.6876 19.4295 23.8955 18.4373 23.9163 17.4329C23.9177 17.4344 23.9186 17.4364 23.9186 17.4387V24.4398C23.9186 24.9412 24.3264 25.353 24.8246 25.2967C25.5748 25.2121 26.311 25.0226 27.0112 24.7325C27.9917 24.3264 28.8826 23.7311 29.633 22.9807C30.3835 22.2302 30.9787 21.3394 31.3849 20.3589C31.7898 19.3813 31.9988 18.3337 32 17.2756C32 17.2704 31.9958 17.2662 31.9906 17.2662C31.9855 17.2662 31.9814 17.2621 31.9813 17.257C31.9598 16.2548 31.752 15.2647 31.368 14.3376C30.9618 13.3571 30.3666 12.4662 29.6161 11.7158C28.8657 10.9654 27.9748 10.3701 26.9943 9.96397C26.2941 9.67392 25.5579 9.4844 24.8078 9.39976C24.3095 9.34354 23.9017 9.7553 23.9017 10.2567V17.2659H23.8994C23.879 16.2605 23.6711 15.2672 23.2859 14.3373C22.8798 13.3568 22.2845 12.4659 21.5341 11.7155C20.7837 10.9651 19.8928 10.3698 18.9123 9.96365C18.0426 9.60342 17.1176 9.39826 16.1791 9.35648V9.347C16.108 9.347 16.037 9.34794 15.966 9.34981C15.9172 9.34893 15.8685 9.34848 15.8197 9.34848V9.35499C14.8811 9.39677 13.9561 9.60194 13.0864 9.96217C12.106 10.3683 11.2151 10.9636 10.4646 11.714C9.71422 12.4644 9.11895 13.3553 8.71282 14.3358C8.31958 15.2852 8.11113 16.3006 8.09829 17.3275V17.2576C8.09829 17.2529 8.09451 17.2491 8.08984 17.2491C8.08518 17.2491 8.08139 17.2453 8.08139 17.2407V10.2396C8.08139 9.73819 7.67364 9.32643 7.17537 9.38265Z" fill="#334BFF"/>
</svg>
