<svg xmlns="http://www.w3.org/2000/svg" xmlns:xlink="http://www.w3.org/1999/xlink" width="1000" zoomAndPan="magnify" viewBox="0 0 750 749.999995" height="1000" preserveAspectRatio="xMidYMid meet" version="1.0"><defs><filter x="0%" y="0%" width="100%" height="100%" id="5a7f89e31b"><feColorMatrix values="0 0 0 0 1 0 0 0 0 1 0 0 0 0 1 0 0 0 1 0" color-interpolation-filters="sRGB"/></filter><g/><clipPath id="38a2256672"><path d="M 119.984375 164.96875 L 629.984375 164.96875 L 629.984375 674.96875 L 119.984375 674.96875 Z M 119.984375 164.96875 " clip-rule="nonzero"/></clipPath><clipPath id="f5cba353de"><path d="M 192 238 L 561 238 L 561 674.96875 L 192 674.96875 Z M 192 238 " clip-rule="nonzero"/></clipPath><clipPath id="907702216b"><path d="M 254 533 L 500 533 L 500 674.96875 L 254 674.96875 Z M 254 533 " clip-rule="nonzero"/></clipPath><mask id="8d06739f1c"><g filter="url(#5a7f89e31b)"><rect x="-75" width="900" fill="#000000" y="-74.999999" height="899.999994" fill-opacity="0.404"/></g></mask><clipPath id="f88b854e86"><path d="M 0.121094 1 L 170.761719 1 L 170.761719 122 L 0.121094 122 Z M 0.121094 1 " clip-rule="nonzero"/></clipPath><clipPath id="0acf48aa50"><rect x="0" width="171" y="0" height="123"/></clipPath></defs><g clip-path="url(#38a2256672)"><path fill="#fefefe" d="M 299.429688 663.585938 C 283.730469 658.710938 268.675781 652.367188 254.4375 644.707031 C 231.261719 632.242188 210.238281 616.289062 192.050781 597.558594 C 147.453125 551.636719 119.984375 488.984375 119.984375 419.980469 C 119.984375 279.234375 234.25 164.96875 374.996094 164.96875 C 515.742188 164.96875 630.007812 279.234375 630.007812 419.980469 C 630.007812 487.589844 603.640625 549.097656 560.632812 594.753906 C 542.804688 613.6875 522.105469 629.894531 499.238281 642.6875 C 489.199219 648.304688 478.734375 653.265625 467.921875 657.507812 C 463.351562 659.292969 458.730469 660.957031 454.039062 662.484375 C 429.148438 670.605469 402.578125 674.992188 374.996094 674.992188 C 362.296875 674.992188 349.800781 674.0625 337.601562 672.265625 C 334.589844 671.828125 331.601562 671.328125 328.632812 670.777344 C 323.726562 669.878906 318.882812 668.828125 314.078125 667.65625 C 309.140625 666.441406 304.253906 665.085938 299.429688 663.585938 Z M 299.429688 663.585938 " fill-opacity="1" fill-rule="evenodd"/></g><path fill="#364dff" d="M 241.695312 475.082031 C 241.113281 478.429688 240.605469 481.9375 240.269531 485.445312 C 239.125 497.554688 236.542969 506.222656 229.945312 513.722656 C 234.902344 509.710938 239.410156 506.511719 241.746094 503.550781 C 248.449219 495.074219 243.785156 486.914062 241.695312 475.082031 Z M 221.734375 521.066406 C 221.398438 521.3125 221.050781 521.554688 220.703125 521.800781 C 212.921875 527.21875 203.148438 535.417969 200.242188 548.269531 C 198.304688 556.847656 199.445312 567.46875 206.167969 580.667969 C 206.492188 581.320312 206.238281 582.117188 205.585938 582.441406 C 204.933594 582.769531 204.136719 582.511719 203.8125 581.859375 C 196.722656 567.9375 195.621094 556.726562 197.660156 547.679688 C 200.730469 534.09375 210.960938 525.351562 219.183594 519.617188 C 232.160156 510.589844 236.148438 500.960938 237.636719 485.199219 C 238.277344 478.429688 239.554688 471.65625 240.820312 466.042969 C 240.820312 465.484375 240.820312 464.921875 240.839844 464.351562 C 241.339844 446.277344 253.160156 429.078125 253.160156 429.078125 C 247.050781 436.371094 233.433594 437.492188 233.210938 436.230469 C 232.984375 434.964844 236.523438 434.839844 242.09375 429.25 C 247.664062 423.671875 252.222656 419.171875 254.078125 405.230469 C 255.9375 391.296875 252.152344 363.316406 258.210938 321.515625 C 264.269531 279.710938 298.492188 245.644531 320.851562 234.707031 C 343.210938 223.761719 369.488281 231.117188 369.488281 231.117188 C 383.738281 226.4375 401.078125 223.792969 431.445312 238.035156 C 461.8125 252.273438 477.152344 288.71875 485.597656 320.464844 C 494.046875 352.21875 492.546875 396.007812 492.421875 420.765625 C 492.300781 445.519531 503.207031 452.253906 511.050781 458.117188 C 518.894531 463.984375 531.339844 462.75 518.078125 465.382812 C 504.816406 468.003906 497.371094 457.566406 497.371094 457.566406 C 503.550781 477.417969 510.765625 473.714844 523.148438 492.832031 C 529.257812 502.257812 528.5625 509.539062 527.65625 517.007812 C 528.769531 522.015625 530.980469 528.320312 535.386719 534.46875 C 541.4375 542.914062 546.292969 546.75 548.628906 553.972656 C 550.199219 558.828125 550.65625 565.214844 549.515625 575.558594 C 549.433594 576.28125 548.78125 576.800781 548.058594 576.71875 C 547.332031 576.636719 546.8125 575.984375 546.894531 575.261719 C 547.984375 565.457031 547.617188 559.390625 546.128906 554.789062 C 543.875 547.8125 539.101562 544.171875 533.257812 536.007812 C 530.339844 531.941406 528.328125 527.808594 526.953125 523.984375 C 526.636719 529.582031 527.246094 535.640625 531.234375 543.039062 C 542.457031 563.835938 536.664062 580.523438 537.203125 578.394531 C 537.742188 576.261719 231.027344 617.765625 213.195312 573.222656 C 202.863281 547.402344 211.21875 531.765625 221.734375 521.066406 Z M 221.734375 521.066406 " fill-opacity="1" fill-rule="evenodd"/><g clip-path="url(#f5cba353de)"><path fill="#ffffff" d="M 459.71875 351.910156 C 459.945312 356.664062 460.007812 361.386719 459.882812 366.027344 C 459.882812 366.027344 463.464844 358.011719 470.421875 361.511719 C 477.378906 365.019531 480.558594 380.175781 475.765625 393.488281 C 470.960938 406.800781 464.472656 413.5625 456.078125 408.992188 C 456.078125 408.992188 453.027344 434.578125 440.878906 447.460938 C 436.136719 452.488281 428.363281 459.679688 419.4375 466.574219 C 419.011719 477.019531 418.5 501.808594 422.753906 509.601562 C 427.855469 518.945312 445.460938 527.777344 463.078125 533.59375 C 464.25 533.980469 465.421875 534.355469 466.585938 534.714844 C 472.777344 536.621094 481.550781 538.785156 491.117188 541.386719 C 510.488281 546.667969 533.070312 553.789062 543.894531 564.429688 C 550.820312 571.242188 556.421875 582.566406 560.632812 594.742188 C 542.804688 613.675781 522.105469 629.882812 499.238281 642.675781 C 462.464844 663.261719 420.09375 674.992188 374.996094 674.992188 C 331.398438 674.992188 290.34375 664.027344 254.4375 644.707031 C 231.261719 632.242188 210.238281 616.289062 192.050781 597.558594 C 196.355469 584.328125 202.28125 571.761719 209.738281 564.429688 C 220.582031 553.769531 243.214844 546.636719 262.605469 541.355469 C 272.132812 538.753906 280.875 536.613281 287.046875 534.703125 C 288.230469 534.335938 289.414062 533.960938 290.597656 533.570312 C 308.191406 527.746094 325.777344 518.933594 330.867188 509.589844 C 335.050781 501.917969 334.621094 477.804688 334.203125 467.085938 C 324.972656 460.035156 316.902344 452.609375 312.039062 447.449219 C 299.890625 434.566406 296.851562 408.984375 296.851562 408.984375 C 288.464844 413.554688 281.96875 406.789062 277.164062 393.480469 C 272.359375 380.167969 275.550781 365.007812 282.507812 361.5 C 289.464844 357.992188 293.035156 366.019531 293.035156 366.019531 C 292.871094 359.859375 293.035156 353.574219 293.464844 347.261719 C 296.777344 342.964844 301.777344 336.609375 306.234375 331.4375 C 313.742188 322.738281 317.8125 316.085938 318.648438 306.785156 C 318.648438 306.785156 322.371094 319.25 319.136719 327.695312 C 315.902344 336.132812 324.871094 328.125 328.296875 319.757812 C 331.726562 311.394531 329.789062 306.457031 331.277344 294.433594 C 332.765625 282.40625 345.453125 266.535156 360.53125 261.371094 C 367.578125 258.964844 351.566406 259.015625 338.34375 264.117188 C 331.910156 266.605469 345.066406 257.351562 351.410156 255.324219 C 357.757812 253.285156 343.640625 255.558594 334.46875 256.824219 C 325.300781 258.085938 318.3125 258.648438 332.960938 252.089844 C 345.34375 246.539062 354.175781 246.582031 354.1875 245.5625 C 354.195312 244.550781 338.109375 244.878906 336.847656 244 C 335.582031 243.125 344.242188 239.636719 354.695312 238.992188 C 365.152344 238.351562 367.792969 239.164062 380.054688 239.125 C 392.316406 239.085938 400.660156 242.5 400.089844 243.441406 C 399.507812 244.378906 383.992188 243.652344 379.015625 244.753906 C 374.027344 245.855469 391.929688 246.082031 400.957031 249.132812 C 409.984375 252.191406 412.960938 255.3125 410.042969 255.179688 C 407.128906 255.046875 391.265625 252.578125 383.542969 252.496094 C 375.820312 252.40625 389.929688 254.773438 397.945312 257.824219 C 405.964844 260.871094 408.6875 263.046875 397.863281 260.6875 C 387.042969 258.332031 375.578125 259.269531 374.433594 259.8125 C 373.292969 260.34375 375.503906 269.53125 383.074219 276.40625 C 390.644531 283.28125 410.390625 287.742188 416.777344 299.644531 C 423.164062 311.546875 418.183594 323.574219 419.695312 324.808594 C 421.214844 326.042969 431.710938 317.351562 431.8125 304.714844 C 431.8125 304.714844 437.136719 312.804688 438.257812 328.105469 C 439.289062 341.875 450.164062 348.554688 459.71875 351.910156 Z M 459.71875 351.910156 " fill-opacity="1" fill-rule="evenodd"/></g><g clip-path="url(#907702216b)"><path fill="#000000" d="M 463.066406 533.59375 C 463.433594 533.277344 471.675781 535.5 479.214844 537.589844 C 485.046875 539.210938 490.558594 540.679688 491.046875 541.292969 C 491.066406 541.3125 491.085938 541.34375 491.109375 541.386719 C 493.25 545.117188 498.65625 606.839844 499.238281 642.6875 C 462.464844 663.261719 420.09375 674.992188 374.996094 674.992188 C 331.398438 674.992188 290.34375 664.027344 254.4375 644.707031 C 254.84375 609.136719 260.425781 544.914062 262.605469 541.363281 C 262.617188 541.335938 262.636719 541.3125 262.648438 541.292969 C 263.136719 540.679688 268.644531 539.210938 274.480469 537.589844 C 281.886719 535.53125 289.976562 533.359375 290.597656 533.582031 C 290.605469 533.582031 290.617188 533.59375 290.628906 533.59375 C 291.269531 534.144531 291.351562 577.402344 293.300781 601.671875 C 295.25 625.9375 314.382812 631.066406 325.890625 633.476562 C 335.082031 635.394531 418.613281 635.394531 427.804688 633.476562 C 439.308594 631.066406 458.445312 625.9375 460.394531 601.671875 C 462.34375 577.421875 462.421875 534.214844 463.066406 533.59375 Z M 463.066406 533.59375 " fill-opacity="1" fill-rule="evenodd"/></g><g mask="url(#8d06739f1c)"><g transform="matrix(1, 0, 0, 1, 291, 367)"><g clip-path="url(#0acf48aa50)"><g clip-path="url(#f88b854e86)"><path fill="#364dff" d="M 167.792969 2.324219 C 167.84375 1.597656 168.476562 1.046875 169.199219 1.101562 C 169.925781 1.152344 170.476562 1.785156 170.425781 2.507812 C 170.425781 2.507812 168.648438 28.539062 166.628906 39.6875 C 166.496094 40.402344 165.8125 40.882812 165.097656 40.75 C 164.386719 40.617188 163.90625 39.933594 164.039062 39.21875 C 166.027344 28.160156 167.792969 2.324219 167.792969 2.324219 Z M 0.617188 2.507812 C 0.566406 1.785156 1.117188 1.152344 1.851562 1.101562 C 2.574219 1.046875 3.207031 1.597656 3.257812 2.324219 C 3.257812 2.324219 5.011719 28.152344 7.023438 39.21875 C 7.15625 39.933594 6.675781 40.625 5.953125 40.75 C 5.238281 40.882812 4.542969 40.402344 4.421875 39.6875 C 2.390625 28.539062 0.617188 2.507812 0.617188 2.507812 Z M 124.082031 101.207031 C 124.664062 100.777344 125.5 100.902344 125.929688 101.484375 C 126.359375 102.074219 126.234375 102.902344 125.65625 103.328125 C 112.269531 113.203125 96.980469 121.699219 85.527344 121.699219 C 74.082031 121.699219 58.769531 113.214844 45.355469 103.347656 C 44.773438 102.921875 44.640625 102.09375 45.070312 101.503906 C 45.5 100.910156 46.324219 100.789062 46.917969 101.21875 C 59.832031 110.714844 74.5 119.046875 85.515625 119.046875 C 96.5625 119.058594 111.199219 110.703125 124.082031 101.207031 Z M 124.082031 101.207031 " fill-opacity="1" fill-rule="evenodd"/></g></g></g></g><path fill="#364dff" d="M 415.105469 361.121094 C 418.867188 361.121094 421.917969 365.234375 421.917969 370.292969 C 421.917969 375.351562 418.867188 379.464844 415.105469 379.464844 C 411.339844 379.464844 408.289062 375.351562 408.289062 370.292969 C 408.28125 365.222656 411.339844 361.121094 415.105469 361.121094 Z M 337.582031 361.121094 C 341.34375 361.121094 344.394531 365.234375 344.394531 370.292969 C 344.394531 375.351562 341.335938 379.464844 337.582031 379.464844 C 333.816406 379.464844 330.765625 375.351562 330.765625 370.292969 C 330.765625 365.222656 333.816406 361.121094 337.582031 361.121094 Z M 360.019531 443.316406 C 359.316406 443.5 358.59375 443.074219 358.410156 442.371094 C 358.226562 441.664062 358.65625 440.941406 359.359375 440.757812 C 359.359375 440.757812 380.625 435.351562 395.96875 440.441406 C 396.660156 440.675781 397.039062 441.421875 396.804688 442.113281 C 396.570312 442.808594 395.824219 443.183594 395.132812 442.949219 C 380.421875 438.066406 360.019531 443.316406 360.019531 443.316406 Z M 372.300781 370.957031 C 372.191406 370.230469 372.691406 369.558594 373.414062 369.457031 C 374.140625 369.34375 374.8125 369.84375 374.914062 370.566406 C 374.914062 370.566406 377.332031 386.777344 376.230469 393.121094 C 375.648438 396.445312 373.445312 399.230469 371.375 401.894531 C 369.652344 404.117188 367.976562 406.207031 368.140625 408.667969 C 368.253906 410.421875 369.414062 411.675781 371.078125 412.542969 C 374.035156 414.09375 378.515625 414.460938 382.851562 413.871094 C 383.574219 413.765625 384.238281 414.277344 384.339844 414.992188 C 384.441406 415.714844 383.929688 416.378906 383.21875 416.480469 C 378.300781 417.152344 373.21875 416.644531 369.863281 414.890625 C 367.316406 413.554688 365.691406 411.535156 365.507812 408.851562 C 365.304688 405.769531 367.140625 403.046875 369.292969 400.273438 C 371.097656 397.945312 373.128906 395.570312 373.628906 392.664062 C 374.691406 386.550781 372.300781 370.957031 372.300781 370.957031 Z M 372.300781 370.957031 " fill-opacity="1" fill-rule="evenodd"/><path fill="#364dff" d="M 427.425781 350.167969 C 427.425781 350.167969 415.816406 351.289062 403.046875 343.742188 C 402.078125 343.167969 401.75 341.914062 402.324219 340.945312 C 402.894531 339.976562 404.148438 339.652344 405.117188 340.230469 C 416.613281 347.027344 427.039062 346.109375 427.039062 346.109375 C 428.160156 346.003906 429.160156 346.832031 429.261719 347.953125 C 429.375 349.066406 428.546875 350.066406 427.425781 350.167969 Z M 325.257812 350.167969 C 324.136719 350.066406 323.308594 349.066406 323.410156 347.945312 C 323.515625 346.820312 324.511719 345.996094 325.636719 346.097656 C 325.636719 346.097656 336.058594 347.015625 347.554688 340.222656 C 348.523438 339.652344 349.78125 339.96875 350.351562 340.9375 C 350.921875 341.90625 350.597656 343.160156 349.628906 343.730469 C 336.867188 351.289062 325.257812 350.167969 325.257812 350.167969 Z M 325.257812 350.167969 " fill-opacity="1" fill-rule="evenodd"/><path fill="#364dff" d="M 299.429688 663.585938 C 277.273438 641.796875 292.097656 621.511719 292.097656 621.511719 C 282.304688 632.292969 271.441406 640.320312 279.703125 624.457031 C 287.964844 608.585938 284.097656 596.140625 277.253906 576.21875 C 270.410156 556.308594 273.550781 532.316406 273.550781 532.316406 C 273.550781 532.316406 326.5625 490.882812 322.339844 515.476562 C 318.117188 540.058594 317.21875 555.808594 325.003906 573.015625 C 332.777344 590.226562 346.945312 596.976562 345.933594 597.457031 C 344.925781 597.9375 337.476562 595.816406 325.820312 584.726562 C 314.160156 573.640625 311.894531 555.542969 311.894531 555.542969 C 312.710938 577.527344 329.082031 599.792969 330.359375 613.992188 C 331.632812 628.203125 321.046875 636.390625 322.125 649.144531 C 322.882812 657.957031 332.019531 667.320312 337.589844 672.265625 C 334.582031 671.828125 331.59375 671.328125 328.625 670.777344 C 325.328125 667.859375 321.585938 663.484375 318.914062 657.273438 C 313.015625 643.605469 317.28125 630.046875 317.28125 630.046875 C 317.28125 630.046875 307.703125 639.300781 309.691406 654.285156 C 310.273438 658.691406 312.253906 663.566406 314.066406 667.65625 C 309.140625 666.441406 304.253906 665.085938 299.429688 663.585938 Z M 454.039062 662.484375 C 446.550781 652.019531 448.632812 644.644531 451.398438 635.597656 C 454.640625 624.949219 458.242188 619.449219 451.558594 610.371094 C 444.878906 601.292969 440.328125 589.796875 439.15625 590.582031 C 437.984375 591.367188 439.421875 597.171875 443.144531 608.179688 C 446.867188 619.183594 444.695312 630.589844 439.402344 636.339844 C 434.105469 642.09375 421.957031 651.96875 431.230469 638.910156 C 440.492188 625.855469 429.191406 608.617188 424.316406 593.804688 C 419.4375 579.003906 424.265625 570.660156 431.160156 551.035156 C 438.054688 531.410156 438.890625 517.679688 438.890625 517.679688 C 438.890625 517.679688 485.792969 503.449219 484.9375 515.058594 C 484.070312 526.664062 476.511719 540.425781 473.113281 558.125 C 469.71875 575.820312 474.683594 575.933594 479.121094 597.070312 C 483.550781 618.203125 471.214844 629.191406 467.023438 640.535156 C 464.757812 646.675781 466.167969 653 467.933594 657.519531 C 463.351562 659.292969 458.730469 660.957031 454.039062 662.484375 Z M 454.039062 662.484375 " fill-opacity="1" fill-rule="evenodd"/><path fill="#000000" d="M 467.859375 329.429688 C 467.410156 328.859375 467.515625 328.023438 468.085938 327.574219 C 468.65625 327.125 469.492188 327.226562 469.941406 327.796875 C 469.941406 327.796875 477.121094 336.949219 480.058594 346.503906 C 480.273438 347.210938 479.886719 347.945312 479.183594 348.15625 C 478.488281 348.371094 477.746094 347.984375 477.53125 347.28125 C 474.726562 338.160156 467.859375 329.429688 467.859375 329.429688 Z M 453.40625 321.054688 C 453.152344 320.371094 453.488281 319.605469 454.171875 319.351562 C 454.855469 319.097656 455.621094 319.433594 455.875 320.117188 C 455.875 320.117188 461.128906 333.929688 470.105469 343.507812 C 470.605469 344.035156 470.574219 344.875 470.042969 345.375 C 469.511719 345.871094 468.675781 345.84375 468.175781 345.3125 C 458.863281 335.375 453.40625 321.054688 453.40625 321.054688 Z M 286.046875 317.535156 C 286.382812 316.894531 287.191406 316.648438 287.832031 316.984375 C 288.476562 317.320312 288.71875 318.128906 288.382812 318.769531 C 288.382812 318.769531 280.507812 333.621094 279.183594 346.28125 C 279.101562 347.003906 278.457031 347.535156 277.734375 347.453125 C 277.011719 347.371094 276.480469 346.730469 276.5625 346.003906 C 277.929688 332.90625 286.046875 317.535156 286.046875 317.535156 Z M 276.203125 311.589844 C 276.5 310.925781 277.285156 310.621094 277.949219 310.925781 C 278.613281 311.222656 278.90625 312.007812 278.613281 312.671875 C 278.613281 312.671875 271.59375 328.367188 270.664062 342.671875 C 270.613281 343.394531 269.992188 343.957031 269.257812 343.90625 C 268.535156 343.863281 267.972656 343.230469 268.023438 342.496094 C 268.980469 327.765625 276.203125 311.589844 276.203125 311.589844 Z M 480.671875 536.0625 C 480.5 536.765625 479.773438 537.203125 479.070312 537.019531 C 478.367188 536.847656 477.929688 536.121094 478.113281 535.417969 C 478.113281 535.417969 484.3125 510.507812 481.367188 481.867188 C 481.292969 481.140625 481.824219 480.488281 482.550781 480.417969 C 483.273438 480.34375 483.925781 480.867188 483.996094 481.601562 C 486.996094 510.734375 480.671875 536.0625 480.671875 536.0625 Z M 466.566406 502.347656 C 466.605469 501.625 467.226562 501.0625 467.960938 501.105469 C 468.6875 501.144531 469.246094 501.777344 469.207031 502.5 C 469.207031 502.5 468.226562 519.25 463.738281 537.019531 C 459.34375 554.421875 459.363281 565.089844 461.78125 578.636719 C 461.902344 579.351562 461.433594 580.046875 460.710938 580.167969 C 459.996094 580.300781 459.300781 579.820312 459.179688 579.097656 C 456.703125 565.191406 456.671875 554.238281 461.179688 536.367188 C 465.597656 518.863281 466.566406 502.347656 466.566406 502.347656 Z M 444.757812 449.664062 C 444.523438 448.96875 444.890625 448.222656 445.574219 447.980469 C 446.257812 447.746094 447.011719 448.113281 447.253906 448.796875 C 447.253906 448.796875 457.90625 479.640625 455.640625 512.253906 C 455.589844 512.976562 454.957031 513.527344 454.234375 513.476562 C 453.507812 513.425781 452.957031 512.792969 453.007812 512.070312 C 455.222656 480 444.757812 449.664062 444.757812 449.664062 Z M 434.628906 485.394531 C 434.433594 484.691406 434.839844 483.96875 435.546875 483.761719 C 436.25 483.570312 436.972656 483.976562 437.175781 484.679688 C 437.175781 484.679688 442.03125 501.992188 440.054688 521.363281 C 439.984375 522.085938 439.328125 522.617188 438.605469 522.546875 C 437.882812 522.472656 437.351562 521.820312 437.421875 521.097656 C 439.351562 502.234375 434.628906 485.394531 434.628906 485.394531 Z M 286.097656 442.328125 C 285.933594 441.613281 286.375 440.910156 287.078125 440.738281 C 287.78125 440.5625 288.496094 441.011719 288.667969 441.714844 C 288.667969 441.714844 297.085938 477.144531 292.667969 513.742188 C 292.574219 514.464844 291.921875 514.988281 291.199219 514.894531 C 290.472656 514.804688 289.953125 514.148438 290.046875 513.425781 C 294.402344 477.296875 286.097656 442.328125 286.097656 442.328125 Z M 276.835938 475.652344 C 276.796875 474.929688 277.355469 474.296875 278.082031 474.265625 C 278.804688 474.226562 279.4375 474.785156 279.476562 475.511719 C 279.476562 475.511719 280.273438 489.902344 278.703125 504.929688 C 277.140625 519.851562 275.726562 527.269531 274.714844 535.988281 C 274.632812 536.714844 273.96875 537.234375 273.257812 537.152344 C 272.53125 537.070312 272.011719 536.40625 272.09375 535.683594 C 273.101562 526.972656 274.519531 519.554688 276.070312 504.644531 C 277.621094 489.84375 276.835938 475.652344 276.835938 475.652344 Z M 276.835938 475.652344 " fill-opacity="1" fill-rule="evenodd"/><g fill="#364dff" fill-opacity="1"><g transform="translate(197.29218, 162.472512)"><g><path d="M 36.375 0.65625 C 30.375 0.65625 24.851562 -0.75 19.8125 -3.5625 C 14.769531 -6.382812 10.78125 -10.316406 7.84375 -15.359375 C 4.90625 -20.398438 3.4375 -26.070312 3.4375 -32.375 C 3.4375 -38.6875 4.90625 -44.347656 7.84375 -49.359375 C 10.78125 -54.367188 14.769531 -58.28125 19.8125 -61.09375 C 24.851562 -63.90625 30.375 -65.3125 36.375 -65.3125 C 42.4375 -65.3125 47.988281 -63.90625 53.03125 -61.09375 C 58.070312 -58.28125 62.046875 -54.367188 64.953125 -49.359375 C 67.859375 -44.347656 69.3125 -38.6875 69.3125 -32.375 C 69.3125 -26.070312 67.859375 -20.398438 64.953125 -15.359375 C 62.046875 -10.316406 58.070312 -6.382812 53.03125 -3.5625 C 47.988281 -0.75 42.4375 0.65625 36.375 0.65625 Z M 36.375 -8.53125 C 40.632812 -8.53125 44.4375 -9.503906 47.78125 -11.453125 C 51.125 -13.398438 53.738281 -16.179688 55.625 -19.796875 C 57.507812 -23.421875 58.453125 -27.613281 58.453125 -32.375 C 58.453125 -37.144531 57.507812 -41.320312 55.625 -44.90625 C 53.738281 -48.488281 51.125 -51.238281 47.78125 -53.15625 C 44.4375 -55.082031 40.632812 -56.046875 36.375 -56.046875 C 32.101562 -56.046875 28.296875 -55.082031 24.953125 -53.15625 C 21.617188 -51.238281 19.003906 -48.488281 17.109375 -44.90625 C 15.222656 -41.320312 14.28125 -37.144531 14.28125 -32.375 C 14.28125 -27.613281 15.222656 -23.421875 17.109375 -19.796875 C 19.003906 -16.179688 21.617188 -13.398438 24.953125 -11.453125 C 28.296875 -9.503906 32.101562 -8.53125 36.375 -8.53125 Z M 36.375 -8.53125 "/></g></g></g><g fill="#364dff" fill-opacity="1"><g transform="translate(270.020433, 162.472512)"><g><path d="M 17.53125 -43.515625 C 19.320312 -45.984375 21.78125 -48.003906 24.90625 -49.578125 C 28.03125 -51.160156 31.507812 -51.953125 35.34375 -51.953125 C 39.863281 -51.953125 43.945312 -50.867188 47.59375 -48.703125 C 51.25 -46.546875 54.125 -43.472656 56.21875 -39.484375 C 58.320312 -35.492188 59.375 -30.929688 59.375 -25.796875 C 59.375 -20.660156 58.320312 -16.066406 56.21875 -12.015625 C 54.125 -7.960938 51.234375 -4.804688 47.546875 -2.546875 C 43.867188 -0.296875 39.800781 0.828125 35.34375 0.828125 C 31.382812 0.828125 27.875 0.0546875 24.8125 -1.484375 C 21.75 -3.023438 19.320312 -5.003906 17.53125 -7.421875 L 17.53125 0 L 6.953125 0 L 6.953125 -68.65625 L 17.53125 -68.65625 Z M 48.625 -25.796875 C 48.625 -29.316406 47.894531 -32.359375 46.4375 -34.921875 C 44.976562 -37.492188 43.054688 -39.441406 40.671875 -40.765625 C 38.296875 -42.097656 35.75 -42.765625 33.03125 -42.765625 C 30.375 -42.765625 27.851562 -42.082031 25.46875 -40.71875 C 23.082031 -39.363281 21.160156 -37.382812 19.703125 -34.78125 C 18.253906 -32.1875 17.53125 -29.128906 17.53125 -25.609375 C 17.53125 -22.078125 18.253906 -19 19.703125 -16.375 C 21.160156 -13.75 23.082031 -11.753906 25.46875 -10.390625 C 27.851562 -9.023438 30.375 -8.34375 33.03125 -8.34375 C 35.75 -8.34375 38.296875 -9.039062 40.671875 -10.4375 C 43.054688 -11.832031 44.976562 -13.859375 46.4375 -16.515625 C 47.894531 -19.171875 48.625 -22.265625 48.625 -25.796875 Z M 48.625 -25.796875 "/></g></g></g><g fill="#364dff" fill-opacity="1"><g transform="translate(332.915522, 162.472512)"><g><path d="M 53.8125 -26.8125 C 53.8125 -24.894531 53.6875 -23.164062 53.4375 -21.625 L 14.375 -21.625 C 14.6875 -17.539062 16.203125 -14.257812 18.921875 -11.78125 C 21.648438 -9.3125 24.992188 -8.078125 28.953125 -8.078125 C 34.640625 -8.078125 38.660156 -10.457031 41.015625 -15.21875 L 52.421875 -15.21875 C 50.878906 -10.519531 48.082031 -6.671875 44.03125 -3.671875 C 39.976562 -0.671875 34.953125 0.828125 28.953125 0.828125 C 24.066406 0.828125 19.6875 -0.265625 15.8125 -2.453125 C 11.945312 -4.648438 8.914062 -7.742188 6.71875 -11.734375 C 4.53125 -15.722656 3.4375 -20.347656 3.4375 -25.609375 C 3.4375 -30.867188 4.5 -35.492188 6.625 -39.484375 C 8.757812 -43.472656 11.757812 -46.546875 15.625 -48.703125 C 19.5 -50.867188 23.941406 -51.953125 28.953125 -51.953125 C 33.773438 -51.953125 38.070312 -50.898438 41.84375 -48.796875 C 45.613281 -46.691406 48.550781 -43.738281 50.65625 -39.9375 C 52.757812 -36.132812 53.8125 -31.757812 53.8125 -26.8125 Z M 42.765625 -30.15625 C 42.703125 -34.050781 41.3125 -37.171875 38.59375 -39.515625 C 35.875 -41.867188 32.503906 -43.046875 28.484375 -43.046875 C 24.835938 -43.046875 21.710938 -41.882812 19.109375 -39.5625 C 16.515625 -37.25 14.96875 -34.113281 14.46875 -30.15625 Z M 42.765625 -30.15625 "/></g></g></g><g fill="#364dff" fill-opacity="1"><g transform="translate(390.151897, 162.472512)"><g><path d="M 25.515625 0.828125 C 21.492188 0.828125 17.890625 0.101562 14.703125 -1.34375 C 11.515625 -2.800781 8.992188 -4.78125 7.140625 -7.28125 C 5.285156 -9.789062 4.296875 -12.59375 4.171875 -15.6875 L 15.125 -15.6875 C 15.3125 -13.519531 16.347656 -11.707031 18.234375 -10.25 C 20.117188 -8.800781 22.484375 -8.078125 25.328125 -8.078125 C 28.296875 -8.078125 30.597656 -8.644531 32.234375 -9.78125 C 33.878906 -10.925781 34.703125 -12.398438 34.703125 -14.203125 C 34.703125 -16.117188 33.785156 -17.539062 31.953125 -18.46875 C 30.128906 -19.394531 27.238281 -20.414062 23.28125 -21.53125 C 19.445312 -22.582031 16.320312 -23.601562 13.90625 -24.59375 C 11.5 -25.582031 9.414062 -27.09375 7.65625 -29.125 C 5.894531 -31.164062 5.015625 -33.859375 5.015625 -37.203125 C 5.015625 -39.921875 5.816406 -42.410156 7.421875 -44.671875 C 9.023438 -46.929688 11.328125 -48.707031 14.328125 -50 C 17.328125 -51.300781 20.78125 -51.953125 24.6875 -51.953125 C 30.5 -51.953125 35.179688 -50.484375 38.734375 -47.546875 C 42.296875 -44.609375 44.195312 -40.601562 44.4375 -35.53125 L 33.859375 -35.53125 C 33.679688 -37.820312 32.753906 -39.644531 31.078125 -41 C 29.410156 -42.363281 27.15625 -43.046875 24.3125 -43.046875 C 21.53125 -43.046875 19.394531 -42.519531 17.90625 -41.46875 C 16.425781 -40.414062 15.6875 -39.023438 15.6875 -37.296875 C 15.6875 -35.929688 16.179688 -34.785156 17.171875 -33.859375 C 18.160156 -32.929688 19.363281 -32.203125 20.78125 -31.671875 C 22.207031 -31.148438 24.3125 -30.488281 27.09375 -29.6875 C 30.800781 -28.695312 33.84375 -27.691406 36.21875 -26.671875 C 38.601562 -25.648438 40.660156 -24.148438 42.390625 -22.171875 C 44.128906 -20.191406 45.03125 -17.5625 45.09375 -14.28125 C 45.09375 -11.375 44.285156 -8.773438 42.671875 -6.484375 C 41.066406 -4.203125 38.796875 -2.410156 35.859375 -1.109375 C 32.921875 0.179688 29.472656 0.828125 25.515625 0.828125 Z M 25.515625 0.828125 "/></g></g></g><g fill="#364dff" fill-opacity="1"><g transform="translate(439.688744, 162.472512)"><g><path d="M 12.34375 -57.890625 C 10.425781 -57.890625 8.816406 -58.539062 7.515625 -59.84375 C 6.210938 -61.144531 5.5625 -62.753906 5.5625 -64.671875 C 5.5625 -66.585938 6.210938 -68.191406 7.515625 -69.484375 C 8.816406 -70.785156 10.425781 -71.4375 12.34375 -71.4375 C 14.195312 -71.4375 15.769531 -70.785156 17.0625 -69.484375 C 18.363281 -68.191406 19.015625 -66.585938 19.015625 -64.671875 C 19.015625 -62.753906 18.363281 -61.144531 17.0625 -59.84375 C 15.769531 -58.539062 14.195312 -57.890625 12.34375 -57.890625 Z M 17.53125 -51.125 L 17.53125 0 L 6.953125 0 L 6.953125 -51.125 Z M 17.53125 -51.125 "/></g></g></g><g fill="#364dff" fill-opacity="1"><g transform="translate(464.17887, 162.472512)"><g><path d="M 19.296875 -42.5 L 19.296875 -14.203125 C 19.296875 -12.273438 19.742188 -10.894531 20.640625 -10.0625 C 21.535156 -9.226562 23.066406 -8.8125 25.234375 -8.8125 L 31.734375 -8.8125 L 31.734375 0 L 23.375 0 C 18.613281 0 14.960938 -1.113281 12.421875 -3.34375 C 9.890625 -5.570312 8.625 -9.191406 8.625 -14.203125 L 8.625 -42.5 L 2.59375 -42.5 L 2.59375 -51.125 L 8.625 -51.125 L 8.625 -63.828125 L 19.296875 -63.828125 L 19.296875 -51.125 L 31.734375 -51.125 L 31.734375 -42.5 Z M 19.296875 -42.5 "/></g></g></g><g fill="#364dff" fill-opacity="1"><g transform="translate(498.687703, 162.472512)"><g><path d="M 52.984375 -51.125 L 21.625 24.03125 L 10.671875 24.03125 L 21.0625 -0.828125 L 0.921875 -51.125 L 12.71875 -51.125 L 27.09375 -12.15625 L 42.03125 -51.125 Z M 52.984375 -51.125 "/></g></g></g></svg>