<svg xmlns="http://www.w3.org/2000/svg" xmlns:xlink="http://www.w3.org/1999/xlink" width="1000" zoomAndPan="magnify" viewBox="0 0 750 749.999995" height="1000" preserveAspectRatio="xMidYMid meet" version="1.0"><defs><g/><clipPath id="f1a85aac35"><path d="M 288 340 L 411 340 L 411 674.953125 L 288 674.953125 Z M 288 340 " clip-rule="nonzero"/></clipPath><clipPath id="7511d4d349"><path d="M 155 389 L 346 389 L 346 674.953125 L 155 674.953125 Z M 155 389 " clip-rule="nonzero"/></clipPath><clipPath id="d98a2e7ee4"><path d="M 408 208.453125 L 422 208.453125 L 422 239 L 408 239 Z M 408 208.453125 " clip-rule="nonzero"/></clipPath></defs><path fill="#ffffff" d="M 350.671875 359.074219 L 164.417969 346.371094 L 164.417969 669.289062 L 237.074219 669.289062 L 372.265625 441.640625 Z M 350.671875 359.074219 " fill-opacity="1" fill-rule="nonzero"/><path fill="#364dff" d="M 502.515625 474.226562 C 541.507812 297.90625 426.042969 237.695312 321.121094 272.261719 C 308.75 276.335938 295.371094 275.753906 283.347656 270.753906 C 255.976562 259.371094 221.007812 253.675781 199.652344 253.675781 C 199.5 253.675781 199.316406 253.691406 199.164062 253.691406 C 199.011719 253.691406 198.828125 253.675781 198.675781 253.675781 C 189.300781 253.675781 177.25 254.84375 164.421875 257.035156 L 164.421875 420.953125 C 166.613281 421.53125 168.800781 422.117188 171.011719 422.589844 L 171.015625 422.589844 C 174.101562 423.238281 177.210938 423.785156 180.332031 424.21875 L 180.335938 424.21875 C 183.457031 424.652344 186.589844 424.976562 189.730469 425.195312 C 192.871094 425.410156 196.015625 425.523438 199.164062 425.523438 C 224.339844 425.523438 249.515625 418.566406 271.40625 404.65625 C 278.539062 400.125 286.292969 397.953125 293.917969 397.800781 C 303.445312 397.609375 312.761719 400.574219 320.398438 406.027344 C 321.921875 407.117188 323.378906 408.308594 324.761719 409.59375 C 327.519531 412.160156 329.960938 415.105469 331.988281 418.382812 C 333.003906 420.023438 333.914062 421.746094 334.710938 423.546875 C 337.101562 428.953125 338.453125 435.0625 338.453125 441.730469 C 338.453125 469.800781 321.5625 498.339844 301.285156 531.144531 C 277.492188 567.976562 249.023438 610.257812 237.078125 669.289062 L 294.789062 669.289062 C 299.878906 650.707031 306.515625 634.871094 314.082031 620.925781 C 317.261719 615.058594 320.597656 609.519531 324.03125 604.21875 C 337.769531 583.011719 353.113281 565.703125 366.578125 547.386719 C 374.992188 535.941406 382.671875 524.105469 388.769531 510.6875 C 397.3125 491.898438 402.742188 470.003906 402.742188 441.730469 C 402.742188 431.324219 401.824219 421.113281 400.050781 411.167969 C 399.167969 406.191406 398.070312 401.285156 396.765625 396.453125 C 395.464844 391.617188 393.960938 386.855469 392.261719 382.179688 C 376.765625 339.527344 439.886719 314.195312 457.660156 355.949219 C 467.117188 378.167969 470.152344 408.339844 463.589844 447.640625 Z M 502.515625 474.226562 " fill-opacity="1" fill-rule="nonzero"/><path fill="#ffffff" d="M 501.214844 539.417969 C 518.429688 506.964844 509.214844 468.367188 480.628906 453.203125 C 452.214844 438.128906 415.355469 451.886719 398.011719 483.925781 L 389.792969 508.382812 C 385.988281 534.042969 396.523438 559.175781 418.289062 570.71875 C 446.871094 585.886719 484.003906 571.867188 501.214844 539.417969 Z M 501.214844 539.417969 " fill-opacity="1" fill-rule="nonzero"/><path fill="#ffffff" d="M 489.660156 262.539062 L 430.035156 262.539062 C 420.941406 262.539062 413.773438 270.277344 414.46875 279.34375 L 419.875 349.589844 C 420.5 357.71875 427.28125 364 435.4375 364 L 487.875 364 L 480.371094 395.339844 C 477.738281 406.351562 492.824219 412.261719 498.371094 402.386719 L 537.589844 332.5 C 543.398438 322.148438 535.917969 309.367188 524.046875 309.367188 L 500.277344 309.367188 L 505.054688 280.710938 C 506.640625 271.199219 499.304688 262.539062 489.660156 262.539062 Z M 489.660156 262.539062 " fill-opacity="1" fill-rule="nonzero"/><path fill="#000000" d="M 443.652344 582.867188 C 434.035156 582.867188 424.46875 580.648438 415.625 575.957031 C 391.683594 563.257812 379.054688 535.917969 383.453125 506.304688 C 384.003906 502.574219 387.476562 500 391.210938 500.554688 C 394.941406 501.109375 397.515625 504.582031 396.960938 508.3125 C 393.425781 532.125 403.265625 553.941406 422.027344 563.890625 C 428.851562 567.515625 436.257812 569.226562 443.726562 569.230469 C 463.984375 569.230469 484.765625 556.628906 496.089844 535.285156 C 511.589844 506.066406 503.582031 471.359375 478.242188 457.917969 C 453.148438 444.605469 420.050781 457.203125 404.460938 485.996094 C 402.664062 489.3125 398.519531 490.550781 395.203125 488.75 C 391.886719 486.957031 390.65625 482.8125 392.449219 479.496094 C 411.597656 444.132812 452.953125 429.042969 484.644531 445.851562 C 516.636719 462.824219 527.183594 505.816406 508.15625 541.6875 C 494.386719 567.644531 468.839844 582.867188 443.652344 582.867188 Z M 443.652344 582.867188 " fill-opacity="1" fill-rule="nonzero"/><g clip-path="url(#f1a85aac35)"><path fill="#000000" d="M 294.953125 674.894531 C 294.347656 674.894531 293.734375 674.8125 293.125 674.644531 C 289.488281 673.636719 287.359375 669.875 288.367188 666.238281 C 301.5 618.875 325.242188 588.746094 346.195312 562.164062 C 373.125 527.992188 396.382812 498.480469 396.382812 440.363281 C 396.382812 420.695312 392.980469 401.355469 386.265625 382.882812 C 380.976562 368.328125 383.046875 354.074219 392.089844 342.746094 C 394.445312 339.800781 398.742188 339.316406 401.6875 341.671875 C 404.636719 344.023438 405.117188 348.320312 402.765625 351.269531 C 398.546875 356.550781 394.488281 365.515625 399.105469 378.21875 C 406.363281 398.191406 410.042969 419.101562 410.042969 440.363281 C 410.042969 503.214844 384.238281 535.957031 356.921875 570.617188 C 335.785156 597.4375 313.929688 625.171875 301.53125 669.890625 C 300.691406 672.914062 297.945312 674.894531 294.953125 674.894531 Z M 294.953125 674.894531 " fill-opacity="1" fill-rule="nonzero"/></g><path fill="#000000" d="M 464.339844 453.132812 C 463.964844 453.132812 463.585938 453.101562 463.207031 453.035156 C 459.484375 452.414062 456.972656 448.898438 457.59375 445.175781 C 459.660156 432.792969 460.804688 420.980469 460.988281 410.054688 C 461.054688 406.285156 464.167969 403.269531 467.933594 403.34375 C 471.707031 403.410156 474.710938 406.519531 474.648438 410.289062 C 474.449219 421.886719 473.242188 434.378906 471.066406 447.421875 C 470.507812 450.761719 467.613281 453.128906 464.335938 453.128906 Z M 464.339844 453.132812 " fill-opacity="1" fill-rule="nonzero"/><path fill="#000000" d="M 502.945312 479.835938 C 502.453125 479.835938 501.960938 479.78125 501.460938 479.671875 C 497.777344 478.859375 495.453125 475.210938 496.269531 471.53125 C 500.0625 454.367188 502.46875 437.808594 503.421875 422.308594 C 503.652344 418.542969 506.898438 415.6875 510.65625 415.910156 C 514.421875 416.136719 517.285156 419.378906 517.054688 423.140625 C 516.0625 439.351562 513.554688 456.621094 509.605469 474.480469 C 508.902344 477.664062 506.078125 479.835938 502.945312 479.835938 Z M 502.945312 479.835938 " fill-opacity="1" fill-rule="nonzero"/><path fill="#000000" d="M 303.863281 279.671875 C 295.8125 279.671875 287.757812 278.085938 280.171875 274.929688 C 252.703125 263.507812 218.699219 258.304688 198.730469 258.304688 C 188.886719 258.304688 176.433594 259.558594 163.660156 261.835938 C 159.945312 262.503906 156.398438 260.027344 155.734375 256.3125 C 155.074219 252.601562 157.546875 249.054688 161.257812 248.390625 C 174.800781 245.976562 188.109375 244.644531 198.730469 244.644531 C 220.011719 244.644531 256.21875 250.175781 285.414062 262.316406 C 296.03125 266.734375 307.816406 267.207031 318.597656 263.65625 C 342.269531 255.855469 366.945312 252.660156 389.957031 254.421875 C 393.71875 254.707031 396.535156 257.988281 396.246094 261.75 C 395.960938 265.507812 392.675781 268.335938 388.917969 268.039062 C 367.6875 266.417969 344.851562 269.390625 322.871094 276.628906 C 316.707031 278.660156 310.285156 279.671875 303.863281 279.671875 Z M 303.863281 279.671875 " fill-opacity="1" fill-rule="nonzero"/><g clip-path="url(#7511d4d349)"><path fill="#000000" d="M 237.476562 674.894531 C 236.992188 674.894531 236.5 674.84375 236.007812 674.734375 C 232.324219 673.925781 229.992188 670.285156 230.800781 666.601562 C 245.359375 600.226562 273.058594 559.425781 295.316406 526.636719 C 315.703125 496.605469 331.808594 472.882812 331.808594 440.363281 C 331.808594 426.457031 324.699219 414.25 312.789062 407.707031 C 300.710938 401.070312 286.566406 401.511719 274.953125 408.890625 C 241.214844 430.328125 199.546875 436.484375 160.648438 425.777344 C 157.007812 424.777344 154.875 421.019531 155.875 417.382812 C 156.875 413.746094 160.636719 411.609375 164.269531 412.609375 C 199.460938 422.292969 237.136719 416.738281 267.628906 397.359375 C 283.273438 387.421875 303.097656 386.796875 319.367188 395.738281 C 335.707031 404.714844 345.464844 421.398438 345.464844 440.363281 C 345.464844 477.082031 327.460938 503.601562 306.613281 534.308594 C 283.890625 567.78125 258.136719 605.722656 244.140625 669.527344 C 243.441406 672.71875 240.613281 674.894531 237.476562 674.894531 Z M 237.476562 674.894531 " fill-opacity="1" fill-rule="nonzero"/></g><path fill="#000000" d="M 462.886719 616.007812 C 459.894531 616.007812 457.148438 614.023438 456.308594 611 C 455.300781 607.367188 457.429688 603.601562 461.066406 602.59375 C 467.765625 600.734375 474.144531 597.863281 480.027344 594.054688 C 483.195312 592.007812 487.421875 592.914062 489.472656 596.078125 C 491.519531 599.246094 490.613281 603.476562 487.449219 605.523438 C 480.398438 610.082031 472.753906 613.527344 464.714844 615.753906 C 464.105469 615.925781 463.492188 616.003906 462.886719 616.003906 Z M 462.886719 616.007812 " fill-opacity="1" fill-rule="nonzero"/><path fill="#000000" d="M 426.480469 616.84375 C 425.976562 616.84375 425.460938 616.789062 424.949219 616.671875 C 417.019531 614.851562 409.386719 611.835938 402.265625 607.714844 C 399 605.824219 397.886719 601.648438 399.777344 598.382812 C 401.664062 595.117188 405.84375 594.003906 409.109375 595.890625 C 415.050781 599.332031 421.40625 601.84375 428.003906 603.355469 C 431.679688 604.199219 433.976562 607.867188 433.132812 611.542969 C 432.40625 614.703125 429.59375 616.84375 426.480469 616.84375 Z M 426.480469 616.84375 " fill-opacity="1" fill-rule="nonzero"/><path fill="#000000" d="M 443.199219 647.652344 C 435.433594 647.652344 427.671875 646.78125 420.238281 645.03125 C 416.566406 644.167969 414.289062 640.492188 415.152344 636.820312 C 416.015625 633.148438 419.695312 630.871094 423.363281 631.738281 C 437.144531 634.976562 452.226562 634.730469 465.839844 631.046875 C 469.484375 630.0625 473.230469 632.210938 474.214844 635.855469 C 475.203125 639.496094 473.050781 643.246094 469.410156 644.230469 C 460.996094 646.507812 452.09375 647.652344 443.203125 647.652344 Z M 443.199219 647.652344 " fill-opacity="1" fill-rule="nonzero"/><path fill="#000000" d="M 540.691406 507.25 C 537.472656 507.25 534.605469 504.964844 533.988281 501.6875 C 533.816406 500.785156 533.625 499.878906 533.417969 498.980469 C 532.570312 495.304688 534.863281 491.640625 538.539062 490.789062 C 542.214844 489.941406 545.878906 492.234375 546.726562 495.910156 C 546.976562 496.984375 547.203125 498.074219 547.410156 499.148438 C 548.109375 502.855469 545.671875 506.425781 541.96875 507.128906 C 541.539062 507.207031 541.113281 507.25 540.691406 507.25 Z M 540.691406 507.25 " fill-opacity="1" fill-rule="nonzero"/><path fill="#000000" d="M 515.398438 578.347656 C 513.449219 578.347656 511.515625 577.519531 510.164062 575.910156 C 507.742188 573.023438 508.113281 568.714844 511.003906 566.289062 C 523.117188 556.109375 531.070312 542.589844 533.996094 527.183594 C 534.703125 523.476562 538.277344 521.046875 541.984375 521.75 C 545.6875 522.457031 548.121094 526.03125 547.417969 529.734375 C 543.941406 548.003906 534.128906 564.699219 519.789062 576.746094 C 518.507812 577.824219 516.949219 578.347656 515.398438 578.347656 Z M 515.398438 578.347656 " fill-opacity="1" fill-rule="nonzero"/><path fill="#000000" d="M 555.269531 575.652344 C 553.988281 575.652344 552.695312 575.292969 551.542969 574.539062 C 548.386719 572.476562 547.496094 568.246094 549.558594 565.085938 C 557.296875 553.234375 562.199219 538.96875 563.371094 524.914062 C 563.683594 521.15625 566.976562 518.363281 570.742188 518.675781 C 574.503906 518.988281 577.296875 522.289062 576.984375 526.046875 C 575.628906 542.320312 569.949219 558.835938 560.996094 572.554688 C 559.6875 574.558594 557.5 575.648438 555.269531 575.648438 Z M 555.269531 575.652344 " fill-opacity="1" fill-rule="nonzero"/><path fill="#8fc7ff" d="M 455.347656 495.417969 C 455.511719 495.957031 455.648438 496.503906 455.757812 497.058594 C 455.871094 497.613281 455.953125 498.171875 456.007812 498.734375 C 456.0625 499.296875 456.089844 499.863281 456.089844 500.429688 C 456.089844 500.992188 456.0625 501.558594 456.003906 502.121094 C 455.949219 502.683594 455.867188 503.242188 455.753906 503.796875 C 455.644531 504.351562 455.507812 504.898438 455.34375 505.4375 C 455.179688 505.980469 454.988281 506.511719 454.773438 507.035156 C 454.554688 507.554688 454.3125 508.066406 454.046875 508.566406 C 453.78125 509.0625 453.488281 509.546875 453.175781 510.015625 C 452.859375 510.488281 452.523438 510.941406 452.164062 511.378906 C 451.804688 511.8125 451.425781 512.230469 451.027344 512.632812 C 450.625 513.03125 450.207031 513.410156 449.769531 513.769531 C 449.332031 514.128906 448.878906 514.464844 448.410156 514.777344 C 447.9375 515.089844 447.453125 515.382812 446.957031 515.648438 C 446.457031 515.914062 445.945312 516.15625 445.425781 516.371094 C 444.902344 516.585938 444.371094 516.777344 443.828125 516.941406 C 443.289062 517.105469 442.738281 517.242188 442.183594 517.351562 C 441.628906 517.460938 441.070312 517.542969 440.507812 517.597656 C 439.945312 517.65625 439.382812 517.683594 438.816406 517.679688 C 438.253906 517.679688 437.6875 517.652344 437.125 517.597656 C 436.5625 517.542969 436.003906 517.457031 435.449219 517.347656 C 434.894531 517.238281 434.347656 517.101562 433.808594 516.9375 C 433.265625 516.769531 432.734375 516.582031 432.210938 516.363281 C 431.691406 516.148438 431.179688 515.90625 430.679688 515.640625 C 430.183594 515.371094 429.699219 515.082031 429.226562 514.765625 C 428.757812 514.453125 428.304688 514.117188 427.867188 513.757812 C 427.429688 513.398438 427.011719 513.019531 426.613281 512.617188 C 426.214844 512.21875 425.835938 511.800781 425.476562 511.363281 C 425.117188 510.925781 424.78125 510.472656 424.46875 510.003906 C 424.152344 509.53125 423.863281 509.046875 423.597656 508.546875 C 423.332031 508.050781 423.089844 507.539062 422.875 507.015625 C 422.660156 506.496094 422.46875 505.960938 422.304688 505.421875 C 422.140625 504.878906 422.003906 504.332031 421.894531 503.777344 C 421.785156 503.222656 421.703125 502.664062 421.644531 502.101562 C 421.589844 501.539062 421.5625 500.976562 421.5625 500.410156 C 421.5625 499.84375 421.59375 499.28125 421.648438 498.71875 C 421.703125 498.15625 421.785156 497.597656 421.898438 497.042969 C 422.007812 496.488281 422.144531 495.941406 422.308594 495.398438 C 422.472656 494.859375 422.664062 494.328125 422.882812 493.804688 C 423.097656 493.28125 423.339844 492.773438 423.605469 492.273438 C 423.875 491.773438 424.164062 491.289062 424.476562 490.820312 C 424.792969 490.351562 425.128906 489.898438 425.488281 489.460938 C 425.847656 489.023438 426.226562 488.605469 426.625 488.207031 C 427.027344 487.804688 427.445312 487.425781 427.882812 487.070312 C 428.320312 486.710938 428.773438 486.375 429.242188 486.0625 C 429.714844 485.746094 430.199219 485.457031 430.695312 485.191406 C 431.195312 484.925781 431.707031 484.683594 432.230469 484.46875 C 432.75 484.25 433.28125 484.0625 433.824219 483.898438 C 434.363281 483.734375 434.914062 483.597656 435.46875 483.488281 C 436.023438 483.375 436.582031 483.292969 437.144531 483.238281 C 437.707031 483.183594 438.269531 483.15625 438.835938 483.15625 C 439.402344 483.15625 439.964844 483.183594 440.527344 483.242188 C 441.089844 483.296875 441.648438 483.378906 442.203125 483.488281 C 442.757812 483.601562 443.304688 483.738281 443.847656 483.902344 C 444.386719 484.066406 444.917969 484.257812 445.441406 484.472656 C 445.964844 484.691406 446.472656 484.933594 446.972656 485.199219 C 447.46875 485.464844 447.953125 485.757812 448.425781 486.070312 C 448.894531 486.386719 449.347656 486.722656 449.785156 487.082031 C 450.222656 487.4375 450.640625 487.820312 451.039062 488.21875 C 451.4375 488.617188 451.816406 489.039062 452.175781 489.476562 C 452.535156 489.910156 452.871094 490.367188 453.183594 490.835938 C 453.5 491.304688 453.789062 491.789062 454.054688 492.289062 C 454.320312 492.789062 454.5625 493.296875 454.777344 493.820312 C 454.996094 494.34375 455.183594 494.875 455.347656 495.417969 Z M 455.347656 495.417969 " fill-opacity="1" fill-rule="nonzero"/><path fill="#000000" d="M 438.828125 524.511719 C 425.542969 524.511719 414.734375 513.703125 414.734375 500.417969 C 414.734375 487.132812 425.542969 476.328125 438.828125 476.328125 C 452.109375 476.328125 462.917969 487.132812 462.917969 500.417969 C 462.917969 513.703125 452.109375 524.511719 438.828125 524.511719 Z M 438.828125 489.984375 C 433.074219 489.984375 428.394531 494.664062 428.394531 500.417969 C 428.394531 506.171875 433.074219 510.851562 438.828125 510.851562 C 444.578125 510.851562 449.261719 506.171875 449.261719 500.417969 C 449.261719 494.664062 444.578125 489.984375 438.828125 489.984375 Z M 438.828125 489.984375 " fill-opacity="1" fill-rule="nonzero"/><path fill="#000000" d="M 480.453125 501.976562 C 476.679688 501.976562 473.617188 498.917969 473.617188 495.148438 C 473.617188 491.375 476.671875 488.316406 480.441406 488.316406 L 480.453125 488.316406 C 484.222656 488.316406 487.28125 491.375 487.28125 495.148438 C 487.28125 498.917969 484.222656 501.976562 480.453125 501.976562 Z M 480.453125 501.976562 " fill-opacity="1" fill-rule="nonzero"/><path fill="#000000" d="M 473.621094 534.171875 C 469.851562 534.171875 466.789062 531.113281 466.789062 527.34375 C 466.789062 523.570312 469.839844 520.511719 473.613281 520.511719 L 473.621094 520.511719 C 477.394531 520.511719 480.453125 523.570312 480.453125 527.34375 C 480.453125 531.113281 477.394531 534.171875 473.621094 534.171875 Z M 473.621094 534.171875 " fill-opacity="1" fill-rule="nonzero"/><path fill="#000000" d="M 444.355469 552.707031 C 440.582031 552.707031 437.519531 549.652344 437.519531 545.878906 C 437.519531 542.109375 440.570312 539.050781 444.34375 539.050781 L 444.355469 539.050781 C 448.125 539.050781 451.183594 542.109375 451.183594 545.878906 C 451.183594 549.652344 448.125 552.707031 444.355469 552.707031 Z M 444.355469 552.707031 " fill-opacity="1" fill-rule="nonzero"/><path fill="#000000" d="M 493.507812 412.058594 C 491.4375 412.058594 489.320312 411.667969 487.234375 410.851562 C 479.320312 407.753906 475.171875 399.8125 477.152344 391.546875 L 482.640625 368.628906 L 438.859375 368.628906 C 427.207031 368.628906 417.378906 359.527344 416.484375 347.910156 L 411.082031 277.667969 C 410.605469 271.453125 412.757812 265.269531 416.992188 260.699219 C 421.226562 256.125 427.226562 253.503906 433.453125 253.503906 L 493.078125 253.503906 C 499.6875 253.503906 505.925781 256.398438 510.199219 261.441406 C 514.46875 266.484375 516.296875 273.113281 515.210938 279.632812 L 511.761719 300.335938 L 527.464844 300.335938 C 535.492188 300.335938 542.707031 304.46875 546.761719 311.398438 C 550.816406 318.324219 550.894531 326.640625 546.964844 333.636719 L 507.746094 403.523438 C 504.679688 408.984375 499.292969 412.058594 493.507812 412.058594 Z M 433.457031 267.164062 C 430.980469 267.164062 428.695312 268.164062 427.011719 269.980469 C 425.332031 271.792969 424.511719 274.152344 424.699219 276.621094 L 430.105469 346.863281 C 430.453125 351.410156 434.300781 354.972656 438.859375 354.972656 L 491.296875 354.972656 C 493.386719 354.972656 495.363281 355.929688 496.65625 357.570312 C 497.953125 359.214844 498.425781 361.359375 497.9375 363.390625 L 490.4375 394.726562 C 489.945312 396.773438 491.132812 397.710938 492.214844 398.132812 C 493.296875 398.558594 494.804688 398.675781 495.835938 396.839844 L 535.054688 326.957031 C 536.605469 324.191406 536.578125 321.035156 534.976562 318.300781 C 533.375 315.5625 530.636719 313.996094 527.464844 313.996094 L 503.703125 313.996094 C 501.695312 313.996094 499.789062 313.113281 498.492188 311.582031 C 497.191406 310.046875 496.636719 308.023438 496.964844 306.042969 L 501.738281 277.390625 C 502.164062 274.835938 501.449219 272.242188 499.777344 270.269531 C 498.105469 268.296875 495.664062 267.167969 493.078125 267.167969 L 433.457031 267.167969 Z M 433.457031 267.164062 " fill-opacity="1" fill-rule="nonzero"/><path fill="#000000" d="M 543.199219 452.722656 C 540.324219 452.722656 537.648438 450.894531 536.707031 448.015625 C 535.535156 444.429688 537.492188 440.574219 541.078125 439.402344 L 549.257812 436.726562 L 547.246094 434.226562 C 545.835938 432.480469 545.378906 430.152344 546.015625 428.003906 C 546.652344 425.851562 548.308594 424.148438 550.441406 423.453125 L 568.019531 417.707031 C 571.605469 416.535156 575.460938 418.492188 576.632812 422.078125 C 577.808594 425.660156 575.847656 429.515625 572.265625 430.691406 L 564.085938 433.363281 L 566.097656 435.863281 C 567.503906 437.609375 567.964844 439.9375 567.324219 442.089844 C 566.6875 444.242188 565.03125 445.941406 562.898438 446.636719 L 545.324219 452.382812 C 544.617188 452.613281 543.902344 452.722656 543.199219 452.722656 Z M 543.199219 452.722656 " fill-opacity="1" fill-rule="nonzero"/><path fill="#000000" d="M 572.125 478.894531 C 571.742188 478.894531 571.359375 478.863281 570.976562 478.796875 L 552.746094 475.691406 C 549.027344 475.058594 546.527344 471.53125 547.160156 467.8125 C 547.792969 464.09375 551.328125 461.597656 555.039062 462.226562 L 563.523438 463.671875 L 562.90625 460.523438 C 562.476562 458.320312 563.15625 456.046875 564.722656 454.441406 C 566.289062 452.835938 568.546875 452.101562 570.757812 452.480469 L 588.988281 455.585938 C 592.707031 456.21875 595.207031 459.746094 594.574219 463.464844 C 593.941406 467.183594 590.414062 469.6875 586.695312 469.050781 L 578.210938 467.605469 L 578.828125 470.753906 C 579.257812 472.957031 578.582031 475.230469 577.011719 476.835938 C 575.71875 478.164062 573.949219 478.894531 572.125 478.894531 Z M 572.125 478.894531 " fill-opacity="1" fill-rule="nonzero"/><g clip-path="url(#d98a2e7ee4)"><path fill="#000000" d="M 415.160156 238.121094 C 411.386719 238.121094 408.332031 235.0625 408.332031 231.289062 L 408.332031 215.378906 C 408.332031 211.605469 411.386719 208.546875 415.160156 208.546875 C 418.933594 208.546875 421.988281 211.605469 421.988281 215.378906 L 421.988281 231.289062 C 421.988281 235.0625 418.933594 238.121094 415.160156 238.121094 Z M 415.160156 238.121094 " fill-opacity="1" fill-rule="nonzero"/></g><path fill="#000000" d="M 441.691406 242.652344 C 439.941406 242.652344 438.195312 241.984375 436.863281 240.652344 C 434.195312 237.984375 434.195312 233.660156 436.863281 230.992188 L 445.925781 221.929688 C 448.589844 219.261719 452.914062 219.261719 455.582031 221.929688 C 458.25 224.59375 458.25 228.921875 455.582031 231.585938 L 446.519531 240.652344 C 445.1875 241.984375 443.4375 242.652344 441.691406 242.652344 Z M 441.691406 242.652344 " fill-opacity="1" fill-rule="nonzero"/><g fill="#364dff" fill-opacity="1"><g transform="translate(245.348415, 162.472512)"><g><path d="M 3.4375 -32.375 C 3.4375 -38.6875 4.90625 -44.347656 7.84375 -49.359375 C 10.78125 -54.367188 14.769531 -58.28125 19.8125 -61.09375 C 24.851562 -63.90625 30.375 -65.3125 36.375 -65.3125 C 43.238281 -65.3125 49.34375 -63.625 54.6875 -60.25 C 60.039062 -56.882812 63.925781 -52.109375 66.34375 -45.921875 L 53.625 -45.921875 C 51.957031 -49.328125 49.640625 -51.863281 46.671875 -53.53125 C 43.703125 -55.207031 40.269531 -56.046875 36.375 -56.046875 C 32.101562 -56.046875 28.296875 -55.082031 24.953125 -53.15625 C 21.617188 -51.238281 19.003906 -48.488281 17.109375 -44.90625 C 15.222656 -41.320312 14.28125 -37.144531 14.28125 -32.375 C 14.28125 -27.613281 15.222656 -23.4375 17.109375 -19.84375 C 19.003906 -16.257812 21.617188 -13.492188 24.953125 -11.546875 C 28.296875 -9.597656 32.101562 -8.625 36.375 -8.625 C 40.269531 -8.625 43.703125 -9.457031 46.671875 -11.125 C 49.640625 -12.800781 51.957031 -15.335938 53.625 -18.734375 L 66.34375 -18.734375 C 63.925781 -12.554688 60.039062 -7.796875 54.6875 -4.453125 C 49.34375 -1.109375 43.238281 0.5625 36.375 0.5625 C 30.3125 0.5625 24.773438 -0.84375 19.765625 -3.65625 C 14.753906 -6.476562 10.78125 -10.394531 7.84375 -15.40625 C 4.90625 -20.414062 3.4375 -26.070312 3.4375 -32.375 Z M 3.4375 -32.375 "/></g></g></g><g fill="#364dff" fill-opacity="1"><g transform="translate(317.056243, 162.472512)"><g><path d="M 52.984375 -51.125 L 21.625 24.03125 L 10.671875 24.03125 L 21.0625 -0.828125 L 0.921875 -51.125 L 12.71875 -51.125 L 27.09375 -12.15625 L 42.03125 -51.125 Z M 52.984375 -51.125 "/></g></g></g><g fill="#364dff" fill-opacity="1"><g transform="translate(371.045838, 162.472512)"><g><path d="M 25.515625 0.828125 C 21.492188 0.828125 17.890625 0.101562 14.703125 -1.34375 C 11.515625 -2.800781 8.992188 -4.78125 7.140625 -7.28125 C 5.285156 -9.789062 4.296875 -12.59375 4.171875 -15.6875 L 15.125 -15.6875 C 15.3125 -13.519531 16.347656 -11.707031 18.234375 -10.25 C 20.117188 -8.800781 22.484375 -8.078125 25.328125 -8.078125 C 28.296875 -8.078125 30.597656 -8.644531 32.234375 -9.78125 C 33.878906 -10.925781 34.703125 -12.398438 34.703125 -14.203125 C 34.703125 -16.117188 33.785156 -17.539062 31.953125 -18.46875 C 30.128906 -19.394531 27.238281 -20.414062 23.28125 -21.53125 C 19.445312 -22.582031 16.320312 -23.601562 13.90625 -24.59375 C 11.5 -25.582031 9.414062 -27.09375 7.65625 -29.125 C 5.894531 -31.164062 5.015625 -33.859375 5.015625 -37.203125 C 5.015625 -39.921875 5.816406 -42.410156 7.421875 -44.671875 C 9.023438 -46.929688 11.328125 -48.707031 14.328125 -50 C 17.328125 -51.300781 20.78125 -51.953125 24.6875 -51.953125 C 30.5 -51.953125 35.179688 -50.484375 38.734375 -47.546875 C 42.296875 -44.609375 44.195312 -40.601562 44.4375 -35.53125 L 33.859375 -35.53125 C 33.679688 -37.820312 32.753906 -39.644531 31.078125 -41 C 29.410156 -42.363281 27.15625 -43.046875 24.3125 -43.046875 C 21.53125 -43.046875 19.394531 -42.519531 17.90625 -41.46875 C 16.425781 -40.414062 15.6875 -39.023438 15.6875 -37.296875 C 15.6875 -35.929688 16.179688 -34.785156 17.171875 -33.859375 C 18.160156 -32.929688 19.363281 -32.203125 20.78125 -31.671875 C 22.207031 -31.148438 24.3125 -30.488281 27.09375 -29.6875 C 30.800781 -28.695312 33.84375 -27.691406 36.21875 -26.671875 C 38.601562 -25.648438 40.660156 -24.148438 42.390625 -22.171875 C 44.128906 -20.191406 45.03125 -17.5625 45.09375 -14.28125 C 45.09375 -11.375 44.285156 -8.773438 42.671875 -6.484375 C 41.066406 -4.203125 38.796875 -2.410156 35.859375 -1.109375 C 32.921875 0.179688 29.472656 0.828125 25.515625 0.828125 Z M 25.515625 0.828125 "/></g></g></g><g fill="#364dff" fill-opacity="1"><g transform="translate(420.582686, 162.472512)"><g><path d="M 19.296875 -42.5 L 19.296875 -14.203125 C 19.296875 -12.273438 19.742188 -10.894531 20.640625 -10.0625 C 21.535156 -9.226562 23.066406 -8.8125 25.234375 -8.8125 L 31.734375 -8.8125 L 31.734375 0 L 23.375 0 C 18.613281 0 14.960938 -1.113281 12.421875 -3.34375 C 9.890625 -5.570312 8.625 -9.191406 8.625 -14.203125 L 8.625 -42.5 L 2.59375 -42.5 L 2.59375 -51.125 L 8.625 -51.125 L 8.625 -63.828125 L 19.296875 -63.828125 L 19.296875 -51.125 L 31.734375 -51.125 L 31.734375 -42.5 Z M 19.296875 -42.5 "/></g></g></g><g fill="#364dff" fill-opacity="1"><g transform="translate(455.091508, 162.472512)"><g><path d="M 25.515625 0.828125 C 21.492188 0.828125 17.890625 0.101562 14.703125 -1.34375 C 11.515625 -2.800781 8.992188 -4.78125 7.140625 -7.28125 C 5.285156 -9.789062 4.296875 -12.59375 4.171875 -15.6875 L 15.125 -15.6875 C 15.3125 -13.519531 16.347656 -11.707031 18.234375 -10.25 C 20.117188 -8.800781 22.484375 -8.078125 25.328125 -8.078125 C 28.296875 -8.078125 30.597656 -8.644531 32.234375 -9.78125 C 33.878906 -10.925781 34.703125 -12.398438 34.703125 -14.203125 C 34.703125 -16.117188 33.785156 -17.539062 31.953125 -18.46875 C 30.128906 -19.394531 27.238281 -20.414062 23.28125 -21.53125 C 19.445312 -22.582031 16.320312 -23.601562 13.90625 -24.59375 C 11.5 -25.582031 9.414062 -27.09375 7.65625 -29.125 C 5.894531 -31.164062 5.015625 -33.859375 5.015625 -37.203125 C 5.015625 -39.921875 5.816406 -42.410156 7.421875 -44.671875 C 9.023438 -46.929688 11.328125 -48.707031 14.328125 -50 C 17.328125 -51.300781 20.78125 -51.953125 24.6875 -51.953125 C 30.5 -51.953125 35.179688 -50.484375 38.734375 -47.546875 C 42.296875 -44.609375 44.195312 -40.601562 44.4375 -35.53125 L 33.859375 -35.53125 C 33.679688 -37.820312 32.753906 -39.644531 31.078125 -41 C 29.410156 -42.363281 27.15625 -43.046875 24.3125 -43.046875 C 21.53125 -43.046875 19.394531 -42.519531 17.90625 -41.46875 C 16.425781 -40.414062 15.6875 -39.023438 15.6875 -37.296875 C 15.6875 -35.929688 16.179688 -34.785156 17.171875 -33.859375 C 18.160156 -32.929688 19.363281 -32.203125 20.78125 -31.671875 C 22.207031 -31.148438 24.3125 -30.488281 27.09375 -29.6875 C 30.800781 -28.695312 33.84375 -27.691406 36.21875 -26.671875 C 38.601562 -25.648438 40.660156 -24.148438 42.390625 -22.171875 C 44.128906 -20.191406 45.03125 -17.5625 45.09375 -14.28125 C 45.09375 -11.375 44.285156 -8.773438 42.671875 -6.484375 C 41.066406 -4.203125 38.796875 -2.410156 35.859375 -1.109375 C 32.921875 0.179688 29.472656 0.828125 25.515625 0.828125 Z M 25.515625 0.828125 "/></g></g></g></svg>