<svg width="118" height="33" viewBox="0 0 118 33" fill="none" xmlns="http://www.w3.org/2000/svg">
<path fill-rule="evenodd" clip-rule="evenodd" d="M10.2747 11.9822C14.7477 8.80801 14.7477 7.04182 14.7477 4.85378C14.7477 2.3466 12.3748 0.314134 9.86761 0.314134C7.36043 0.314134 4.64702 2.3466 4.64702 4.85378C4.64702 6.82575 4.64702 8.58621 9.24079 11.9727C9.54664 12.1981 9.96483 12.2021 10.2747 11.9822ZM20.7164 11.9822C25.1894 8.80801 25.1894 7.04182 25.1894 4.85378C25.1894 2.3466 22.8165 0.314134 20.3093 0.314134C17.8021 0.314134 15.0887 2.3466 15.0887 4.85378C15.0887 6.82575 15.0887 8.58621 19.6825 11.9727C19.7896 12.0517 19.9106 12.1035 20.0359 12.128C18.866 12.1856 17.7133 12.444 16.6288 12.8932C15.3896 13.4065 14.2636 14.1589 13.3151 15.1074C12.3666 16.0558 11.6143 17.1818 11.1009 18.4211C10.5876 19.6603 10.3234 20.9885 10.3234 22.3299H10.3465C10.3722 23.6009 10.635 24.8565 11.1219 26.0321C11.6353 27.2714 12.3876 28.3974 13.3361 29.3458C14.2846 30.2943 15.4106 31.0467 16.6498 31.56C17.7491 32.0153 18.9184 32.2747 20.1047 32.3274V32.3391C20.1924 32.3391 20.2801 32.338 20.3676 32.3357C20.4313 32.3369 20.4949 32.3375 20.5586 32.3375V32.329C21.745 32.2763 22.9143 32.0169 24.0136 31.5616C25.2528 31.0483 26.3788 30.2959 27.3273 29.3474C28.2758 28.399 29.0281 27.273 29.5414 26.0337C30.0276 24.86 30.2903 23.6065 30.3167 22.3376C30.3174 22.339 30.3178 22.3406 30.3178 22.3422V31.432C30.3178 31.9334 30.7251 32.3441 31.2246 32.2996C32.2551 32.2077 33.2675 31.9597 34.2266 31.5624C35.4659 31.0491 36.5919 30.2967 37.5404 29.3482C38.4888 28.3998 39.2412 27.2738 39.7545 26.0345C40.2664 24.7989 40.5305 23.4748 40.532 22.1374C40.532 22.1309 40.5268 22.1257 40.5204 22.1257C40.514 22.1257 40.5089 22.1206 40.5087 22.1143C40.4817 20.847 40.2191 19.5952 39.7335 18.4229C39.2202 17.1837 38.4678 16.0577 37.5194 15.1092C36.5709 14.1607 35.4449 13.4084 34.2056 12.895C33.2465 12.4978 32.2341 12.2497 31.2036 12.1579C30.7041 12.1133 30.2968 12.524 30.2968 13.0255V22.1249H30.2959C30.2702 20.8539 30.0074 19.5983 29.5204 18.4227C29.0071 17.1834 28.2548 16.0574 27.3063 15.1089C26.3578 14.1605 25.2318 13.4081 23.9926 12.8948C22.8933 12.4395 21.724 12.1801 20.5376 12.1274V12.1157C20.5011 12.1157 20.4647 12.1159 20.4282 12.1163C20.5297 12.09 20.6275 12.0453 20.7164 11.9822ZM35.63 4.85378C35.63 7.04182 35.63 8.80801 31.157 11.9822C30.8471 12.2021 30.4289 12.1981 30.123 11.9727C25.5293 8.58621 25.5293 6.82575 25.5293 4.85378C25.5293 2.3466 28.2427 0.314134 30.7499 0.314134C33.257 0.314134 35.63 2.3466 35.63 4.85378ZM9.39438 12.1372C8.36384 12.2291 7.35143 12.4771 6.39231 12.8744C5.15307 13.3877 4.02706 14.1401 3.07859 15.0886C2.13011 16.037 1.37774 17.163 0.864424 18.4023C0.3526 19.6379 0.0884471 20.9621 0.0869207 22.2994C0.0869141 22.3059 0.0921325 22.3111 0.0985698 22.3111C0.104915 22.3111 0.110095 22.3162 0.11023 22.3225C0.137214 23.5898 0.399868 24.8416 0.885425 26.0139C1.39874 27.2531 2.15111 28.3791 3.09959 29.3276C4.04806 30.2761 5.17407 31.0285 6.41331 31.5418C7.37243 31.939 8.38483 32.1871 9.41538 32.2789C9.91483 32.3235 10.3221 31.9128 10.3221 31.4113V22.1156C10.3221 22.1098 10.3174 22.1051 10.3116 22.1051C10.3058 22.1051 10.3011 22.1004 10.3011 22.0946V13.0048C10.3011 12.5034 9.89383 12.0927 9.39438 12.1372Z" fill="#334BFF"/>
<path d="M56.1892 23.0427C55.1332 23.0427 54.1852 22.8087 53.3452 22.3407C52.5052 21.8727 51.8452 21.1887 51.3652 20.2887C50.8852 19.3767 50.6452 18.2727 50.6452 16.9767C50.6452 15.6927 50.8912 14.5947 51.3832 13.6827C51.8752 12.7587 52.5412 12.0567 53.3812 11.5767C54.2212 11.0847 55.1632 10.8387 56.2072 10.8387C57.0472 10.8387 57.7552 10.9947 58.3312 11.3067C58.9192 11.6067 59.3992 11.9487 59.7712 12.3327L58.6552 13.6827C58.3552 13.3947 58.0192 13.1547 57.6472 12.9627C57.2872 12.7587 56.8312 12.6567 56.2792 12.6567C55.2352 12.6567 54.3892 13.0407 53.7412 13.8087C53.1052 14.5647 52.7872 15.6027 52.7872 16.9227C52.7872 18.2667 53.0932 19.3227 53.7052 20.0907C54.3172 20.8467 55.2112 21.2247 56.3872 21.2247C56.7232 21.2247 57.0412 21.1827 57.3412 21.0987C57.6412 21.0027 57.8872 20.8707 58.0792 20.7027V18.1647H55.8472V16.4547H59.9512V21.6387C59.5552 22.0347 59.0272 22.3707 58.3672 22.6467C57.7192 22.9107 56.9932 23.0427 56.1892 23.0427ZM65.0079 23.0427C64.0599 23.0427 63.3699 22.7367 62.9379 22.1247C62.5059 21.5127 62.2899 20.6487 62.2899 19.5327V13.9887H64.3599V19.2627C64.3599 19.9947 64.4679 20.5107 64.6839 20.8107C64.8999 21.1107 65.2479 21.2607 65.7279 21.2607C66.1119 21.2607 66.4479 21.1647 66.7359 20.9727C67.0359 20.7807 67.3539 20.4687 67.6899 20.0367V13.9887H69.7599V22.8267H68.0679L67.9059 21.5307H67.8519C67.4679 21.9867 67.0479 22.3527 66.5919 22.6287C66.1359 22.9047 65.6079 23.0427 65.0079 23.0427ZM72.3819 22.8267V13.9887H74.4519V22.8267H72.3819ZM73.4259 12.4407C73.0539 12.4407 72.7539 12.3327 72.5259 12.1167C72.2979 11.9007 72.1839 11.6127 72.1839 11.2527C72.1839 10.9047 72.2979 10.6227 72.5259 10.4067C72.7539 10.1907 73.0539 10.0827 73.4259 10.0827C73.7979 10.0827 74.0979 10.1907 74.3259 10.4067C74.5539 10.6227 74.6679 10.9047 74.6679 11.2527C74.6679 11.6127 74.5539 11.9007 74.3259 12.1167C74.0979 12.3327 73.7979 12.4407 73.4259 12.4407ZM79.1088 23.0427C78.3768 23.0427 77.8548 22.8207 77.5428 22.3767C77.2428 21.9327 77.0928 21.3267 77.0928 20.5587V10.1187H79.1628V20.6667C79.1628 20.9187 79.2108 21.0987 79.3068 21.2067C79.4028 21.3027 79.5048 21.3507 79.6128 21.3507C79.6608 21.3507 79.7028 21.3507 79.7388 21.3507C79.7868 21.3387 79.8528 21.3267 79.9368 21.3147L80.2068 22.8627C80.0868 22.9107 79.9308 22.9527 79.7388 22.9887C79.5588 23.0247 79.3488 23.0427 79.1088 23.0427ZM85.0755 23.0427C83.9715 23.0427 83.0895 22.6347 82.4295 21.8187C81.7695 21.0027 81.4395 19.8687 81.4395 18.4167C81.4395 17.4567 81.6135 16.6287 81.9615 15.9327C82.3215 15.2367 82.7895 14.7027 83.3655 14.3307C83.9415 13.9587 84.5475 13.7727 85.1835 13.7727C85.6875 13.7727 86.1135 13.8627 86.4615 14.0427C86.8215 14.2107 87.1695 14.4447 87.5055 14.7447L87.4335 13.3227V10.1187H89.5035V22.8267H87.7935L87.6495 21.8727H87.5775C87.2535 22.1967 86.8755 22.4727 86.4435 22.7007C86.0115 22.9287 85.5555 23.0427 85.0755 23.0427ZM85.5795 21.3327C86.2395 21.3327 86.8575 21.0027 87.4335 20.3427V16.2207C87.1335 15.9447 86.8335 15.7527 86.5335 15.6447C86.2335 15.5367 85.9335 15.4827 85.6335 15.4827C85.0695 15.4827 84.5835 15.7407 84.1755 16.2567C83.7795 16.7607 83.5815 17.4747 83.5815 18.3987C83.5815 19.3467 83.7555 20.0727 84.1035 20.5767C84.4515 21.0807 84.9435 21.3327 85.5795 21.3327ZM96.7297 23.0427C95.8297 23.0427 95.0437 22.8627 94.3717 22.5027C93.6997 22.1427 93.1777 21.5667 92.8057 20.7747C92.4457 19.9827 92.2657 18.9447 92.2657 17.6607V11.0547H94.3537V17.8227C94.3537 18.6747 94.4497 19.3527 94.6417 19.8567C94.8457 20.3487 95.1277 20.7027 95.4877 20.9187C95.8477 21.1227 96.2617 21.2247 96.7297 21.2247C97.2097 21.2247 97.6297 21.1227 97.9897 20.9187C98.3617 20.7027 98.6497 20.3487 98.8537 19.8567C99.0697 19.3527 99.1777 18.6747 99.1777 17.8227V11.0547H101.176V17.6607C101.176 18.9447 100.996 19.9827 100.636 20.7747C100.276 21.5667 99.7597 22.1427 99.0877 22.5027C98.4277 22.8627 97.6417 23.0427 96.7297 23.0427ZM103.935 26.3187V13.9887H105.645L105.789 14.9247H105.861C106.233 14.6127 106.647 14.3427 107.103 14.1147C107.571 13.8867 108.045 13.7727 108.525 13.7727C109.629 13.7727 110.481 14.1807 111.081 14.9967C111.693 15.8127 111.999 16.9047 111.999 18.2727C111.999 19.2807 111.819 20.1447 111.459 20.8647C111.099 21.5727 110.631 22.1127 110.055 22.4847C109.491 22.8567 108.879 23.0427 108.219 23.0427C107.835 23.0427 107.451 22.9587 107.067 22.7907C106.683 22.6107 106.311 22.3707 105.951 22.0707L106.005 23.5467V26.3187H103.935ZM107.787 21.3327C108.375 21.3327 108.867 21.0747 109.263 20.5587C109.659 20.0427 109.857 19.2867 109.857 18.2907C109.857 17.4027 109.707 16.7127 109.407 16.2207C109.107 15.7287 108.621 15.4827 107.949 15.4827C107.325 15.4827 106.677 15.8127 106.005 16.4727V20.5947C106.329 20.8587 106.641 21.0507 106.941 21.1707C107.241 21.2787 107.523 21.3327 107.787 21.3327Z" fill="#19191A"/>
</svg>
